0, 0, Header, 1, 2, 480
1, 0, Start_track
1, 0, Time_signature, 4, 2, 24, 8
1, 0, Tempo, 731707
1, 0, Key_signature, 0, "major"
1, 0, MIDI_port, 0
1, 0, Control_c, 0, 121, 0
1, 0, Program_c, 0, 0
1, 0, Control_c, 0, 7, 100
1, 0, Control_c, 0, 10, 64
1, 0, Control_c, 0, 91, 0
1, 0, Control_c, 0, 93, 0
1, 0, Note_on_c, 0, 60, 80
1, 0, Note_on_c, 0, 64, 80
1, 455, Note_off_c, 0, 60, 0
1, 455, Note_off_c, 0, 64, 0
1, 480, Note_on_c, 0, 60, 80
1, 480, Note_on_c, 0, 64, 80
1, 821, Note_off_c, 0, 60, 0
1, 821, Note_off_c, 0, 64, 0
1, 840, Note_on_c, 0, 60, 80
1, 840, Note_on_c, 0, 64, 80
1, 1181, Note_off_c, 0, 60, 0
1, 1181, Note_off_c, 0, 64, 0
1, 1200, Note_on_c, 0, 60, 80
1, 1200, Note_on_c, 0, 64, 80
1, 1883, Note_off_c, 0, 60, 0
1, 1883, Note_off_c, 0, 64, 0
1, 1920, Note_on_c, 0, 60, 80
1, 1920, Note_on_c, 0, 64, 80
1, 2375, Note_off_c, 0, 60, 0
1, 2375, Note_off_c, 0, 64, 0
1, 2400, Note_on_c, 0, 60, 80
1, 2400, Note_on_c, 0, 64, 80
1, 2741, Note_off_c, 0, 60, 0
1, 2741, Note_off_c, 0, 64, 0
1, 2760, Note_on_c, 0, 60, 80
1, 2760, Note_on_c, 0, 64, 80
1, 3101, Note_off_c, 0, 60, 0
1, 3101, Note_off_c, 0, 64, 0
1, 3120, Note_on_c, 0, 60, 80
1, 3120, Note_on_c, 0, 64, 80
1, 3347, Note_off_c, 0, 60, 0
1, 3347, Note_off_c, 0, 64, 0
1, 3480, Note_on_c, 0, 76, 80
1, 3580, Note_off_c, 0, 76, 0
1, 3600, Note_on_c, 0, 77, 80
1, 3700, Note_off_c, 0, 77, 0
1, 3720, Note_on_c, 0, 81, 80
1, 3820, Note_off_c, 0, 81, 0
1, 3840, Note_on_c, 0, 84, 80
1, 4295, Note_off_c, 0, 84, 0
1, 5400, Note_on_c, 0, 84, 80
1, 5500, Note_off_c, 0, 84, 0
1, 5520, Note_on_c, 0, 81, 80
1, 5620, Note_off_c, 0, 81, 0
1, 5640, Note_on_c, 0, 77, 80
1, 5740, Note_off_c, 0, 77, 0
1, 5760, Note_on_c, 0, 76, 80
1, 6215, Note_off_c, 0, 76, 0
1, 9120, Note_on_c, 0, 93, 80
1, 9803, Note_off_c, 0, 93, 0
1, 9840, Note_on_c, 0, 88, 80
1, 12803, Note_off_c, 0, 88, 0
1, 12960, Note_on_c, 0, 98, 80
1, 13301, Note_off_c, 0, 98, 0
1, 13320, Note_on_c, 0, 96, 80
1, 13661, Note_off_c, 0, 96, 0
1, 13680, Note_on_c, 0, 93, 78
1, 15275, Note_off_c, 0, 93, 0
1, 15415, Note_on_c, 0, 91, 64
1, 15478, Note_off_c, 0, 91, 0
1, 16800, Note_on_c, 0, 88, 64
1, 16800, Note_on_c, 0, 93, 64
1, 17483, Note_off_c, 0, 88, 0
1, 17483, Note_off_c, 0, 93, 0
1, 17520, Note_on_c, 0, 88, 64
1, 18431, Note_off_c, 0, 88, 0
1, 18720, Note_on_c, 0, 81, 64
1, 18947, Note_off_c, 0, 81, 0
1, 18960, Note_on_c, 0, 84, 64
1, 19073, Note_off_c, 0, 84, 0
1, 19080, Note_on_c, 0, 88, 64
1, 19421, Note_off_c, 0, 88, 0
1, 19440, Note_on_c, 0, 86, 64
1, 19553, Note_off_c, 0, 86, 0
1, 19560, Note_on_c, 0, 86, 64
1, 19901, Note_off_c, 0, 86, 0
1, 19920, Note_on_c, 0, 84, 64
1, 20033, Note_off_c, 0, 84, 0
1, 20040, Note_on_c, 0, 88, 64
1, 20381, Note_off_c, 0, 88, 0
1, 20400, Note_on_c, 0, 86, 64
1, 20513, Note_off_c, 0, 86, 0
1, 20520, Note_on_c, 0, 86, 64
1, 20861, Note_off_c, 0, 86, 0
1, 20880, Note_on_c, 0, 81, 64
1, 20880, Note_on_c, 0, 86, 64
1, 21335, Note_off_c, 0, 81, 0
1, 21335, Note_off_c, 0, 86, 0
1, 21360, Note_on_c, 0, 84, 64
1, 22955, Note_off_c, 0, 84, 0
1, 23040, Note_on_c, 0, 91, 64
1, 24407, Note_off_c, 0, 91, 0
1, 24480, Note_on_c, 0, 93, 64
1, 24821, Note_off_c, 0, 93, 0
1, 24840, Note_on_c, 0, 88, 64
1, 25067, Note_off_c, 0, 88, 0
1, 25080, Note_on_c, 0, 89, 64
1, 25193, Note_off_c, 0, 89, 0
1, 25200, Note_on_c, 0, 88, 64
1, 25427, Note_off_c, 0, 88, 0
1, 25440, Note_on_c, 0, 101, 64
1, 25781, Note_off_c, 0, 101, 0
1, 25800, Note_on_c, 0, 100, 64
1, 26141, Note_off_c, 0, 100, 0
1, 26160, Note_on_c, 0, 96, 64
1, 26501, Note_off_c, 0, 96, 0
1, 26520, Note_on_c, 0, 93, 64
1, 26861, Note_off_c, 0, 93, 0
1, 26880, Note_on_c, 0, 88, 64
1, 27107, Note_off_c, 0, 88, 0
1, 27120, Note_on_c, 0, 86, 64
1, 27233, Note_off_c, 0, 86, 0
1, 27240, Note_on_c, 0, 86, 64
1, 27581, Note_off_c, 0, 86, 0
1, 27600, Note_on_c, 0, 84, 64
1, 27713, Note_off_c, 0, 84, 0
1, 27720, Note_on_c, 0, 88, 64
1, 28061, Note_off_c, 0, 88, 0
1, 28080, Note_on_c, 0, 86, 64
1, 28193, Note_off_c, 0, 86, 0
1, 28200, Note_on_c, 0, 86, 64
1, 28541, Note_off_c, 0, 86, 0
1, 28560, Note_on_c, 0, 86, 64
1, 29015, Note_off_c, 0, 86, 0
1, 29040, Note_on_c, 0, 84, 66
1, 29723, Note_off_c, 0, 84, 0
1, 29760, Note_on_c, 0, 77, 72
1, 29760, Note_on_c, 0, 81, 72
1, 30215, Note_off_c, 0, 77, 0
1, 30215, Note_off_c, 0, 81, 0
1, 30240, Note_on_c, 0, 84, 76
1, 30695, Note_off_c, 0, 84, 0
1, 30720, Note_on_c, 0, 86, 80
1, 30947, Note_off_c, 0, 86, 0
1, 30960, Note_on_c, 0, 91, 80
1, 31187, Note_off_c, 0, 91, 0
1, 31200, Note_on_c, 0, 91, 80
1, 31427, Note_off_c, 0, 91, 0
1, 31440, Note_on_c, 0, 91, 80
1, 31553, Note_off_c, 0, 91, 0
1, 31560, Note_on_c, 0, 88, 80
1, 31901, Note_off_c, 0, 88, 0
1, 31920, Note_on_c, 0, 86, 80
1, 32147, Note_off_c, 0, 86, 0
1, 32160, Note_on_c, 0, 86, 80
1, 32387, Note_off_c, 0, 86, 0
1, 32400, Note_on_c, 0, 86, 80
1, 32513, Note_off_c, 0, 86, 0
1, 32520, Note_on_c, 0, 86, 80
1, 32861, Note_off_c, 0, 86, 0
1, 32880, Note_on_c, 0, 88, 80
1, 33449, Note_off_c, 0, 88, 0
1, 33600, Note_on_c, 0, 81, 80
1, 34055, Note_off_c, 0, 81, 0
1, 34080, Note_on_c, 0, 84, 80
1, 34535, Note_off_c, 0, 84, 0
1, 34560, Note_on_c, 0, 86, 80
1, 34787, Note_off_c, 0, 86, 0
1, 34800, Note_on_c, 0, 91, 80
1, 35027, Note_off_c, 0, 91, 0
1, 35040, Note_on_c, 0, 91, 80
1, 35267, Note_off_c, 0, 91, 0
1, 35280, Note_on_c, 0, 91, 80
1, 35393, Note_off_c, 0, 91, 0
1, 35400, Note_on_c, 0, 88, 80
1, 35741, Note_off_c, 0, 88, 0
1, 35760, Note_on_c, 0, 86, 80
1, 35873, Note_off_c, 0, 86, 0
1, 35880, Note_on_c, 0, 86, 80
1, 36221, Note_off_c, 0, 86, 0
1, 36240, Note_on_c, 0, 88, 80
1, 36695, Note_off_c, 0, 88, 0
1, 36720, Note_on_c, 0, 88, 80
1, 36833, Note_off_c, 0, 88, 0
1, 36840, Note_on_c, 0, 86, 80
1, 36953, Note_off_c, 0, 86, 0
1, 36960, Note_on_c, 0, 84, 80
1, 37415, Note_off_c, 0, 84, 0
1, 37440, Note_on_c, 0, 81, 80
1, 37895, Note_off_c, 0, 81, 0
1, 37920, Note_on_c, 0, 84, 80
1, 38375, Note_off_c, 0, 84, 0
1, 38400, Note_on_c, 0, 83, 80
1, 38400, Note_on_c, 0, 86, 80
1, 38627, Note_off_c, 0, 83, 0
1, 38627, Note_off_c, 0, 86, 0
1, 38640, Note_on_c, 0, 86, 80
1, 38640, Note_on_c, 0, 91, 80
1, 38867, Note_off_c, 0, 86, 0
1, 38867, Note_off_c, 0, 91, 0
1, 38880, Note_on_c, 0, 91, 80
1, 39107, Note_off_c, 0, 91, 0
1, 39120, Note_on_c, 0, 88, 80
1, 39120, Note_on_c, 0, 91, 80
1, 39233, Note_off_c, 0, 88, 0
1, 39233, Note_off_c, 0, 91, 0
1, 39240, Note_on_c, 0, 88, 80
1, 39581, Note_off_c, 0, 88, 0
1, 39600, Note_on_c, 0, 86, 80
1, 39827, Note_off_c, 0, 86, 0
1, 39840, Note_on_c, 0, 86, 80
1, 40067, Note_off_c, 0, 86, 0
1, 40080, Note_on_c, 0, 86, 80
1, 40193, Note_off_c, 0, 86, 0
1, 40200, Note_on_c, 0, 86, 80
1, 40541, Note_off_c, 0, 86, 0
1, 40560, Note_on_c, 0, 84, 80
1, 40560, Note_on_c, 0, 88, 80
1, 40785, Note_off_c, 0, 84, 0
1, 41471, Note_off_c, 0, 88, 0
1, 41640, Note_on_c, 0, 81, 80
1, 41753, Note_off_c, 0, 81, 0
1, 41760, Note_on_c, 0, 81, 80
1, 41987, Note_off_c, 0, 81, 0
1, 42000, Note_on_c, 0, 84, 80
1, 42227, Note_off_c, 0, 84, 0
1, 42240, Note_on_c, 0, 86, 80
1, 43151, Note_off_c, 0, 86, 0
1, 43200, Note_on_c, 0, 88, 80
1, 44111, Note_off_c, 0, 88, 0
1, 44202, Note_on_c, 0, 89, 80
1, 45072, Note_off_c, 0, 89, 0
1, 45162, Note_on_c, 0, 91, 88
1, 45576, Note_off_c, 0, 91, 0
1, 45600, Note_on_c, 0, 79, 92
1, 46055, Note_off_c, 0, 79, 0
1, 46080, Note_on_c, 0, 76, 96
1, 46991, Note_off_c, 0, 76, 0
1, 47280, Note_on_c, 0, 76, 96
1, 47507, Note_off_c, 0, 76, 0
1, 47520, Note_on_c, 0, 74, 96
1, 47747, Note_off_c, 0, 74, 0
1, 47760, Note_on_c, 0, 69, 96
1, 47760, Note_on_c, 0, 72, 96
1, 47873, Note_off_c, 0, 69, 0
1, 47873, Note_off_c, 0, 72, 0
1, 47880, Note_on_c, 0, 69, 96
1, 48221, Note_off_c, 0, 69, 0
1, 48240, Note_on_c, 0, 67, 96
1, 48581, Note_off_c, 0, 67, 0
1, 48600, Note_on_c, 0, 67, 96
1, 48713, Note_off_c, 0, 67, 0
1, 48720, Note_on_c, 0, 67, 96
1, 48833, Note_off_c, 0, 67, 0
1, 48840, Note_on_c, 0, 69, 96
1, 49181, Note_off_c, 0, 69, 0
1, 49200, Note_on_c, 0, 67, 96
1, 49313, Note_off_c, 0, 67, 0
1, 49320, Note_on_c, 0, 67, 96
1, 49547, Note_off_c, 0, 67, 0
1, 49560, Note_on_c, 0, 72, 96
1, 49560, Note_on_c, 0, 79, 96
1, 49901, Note_off_c, 0, 72, 0
1, 49901, Note_off_c, 0, 79, 0
1, 49920, Note_on_c, 0, 76, 96
1, 50831, Note_off_c, 0, 76, 0
1, 51120, Note_on_c, 0, 76, 96
1, 51347, Note_off_c, 0, 76, 0
1, 51360, Note_on_c, 0, 74, 96
1, 51587, Note_off_c, 0, 74, 0
1, 52080, Note_on_c, 0, 67, 96
1, 52421, Note_off_c, 0, 67, 0
1, 52440, Note_on_c, 0, 67, 96
1, 52553, Note_off_c, 0, 67, 0
1, 52560, Note_on_c, 0, 67, 96
1, 52673, Note_off_c, 0, 67, 0
1, 52680, Note_on_c, 0, 69, 96
1, 53021, Note_off_c, 0, 69, 0
1, 53040, Note_on_c, 0, 67, 96
1, 53153, Note_off_c, 0, 67, 0
1, 53160, Note_on_c, 0, 67, 96
1, 53387, Note_off_c, 0, 67, 0
1, 53400, Note_on_c, 0, 72, 96
1, 53400, Note_on_c, 0, 79, 96
1, 53741, Note_off_c, 0, 72, 0
1, 53741, Note_off_c, 0, 79, 0
1, 53760, Note_on_c, 0, 76, 96
1, 54671, Note_off_c, 0, 76, 0
1, 54960, Note_on_c, 0, 76, 96
1, 55187, Note_off_c, 0, 76, 0
1, 55200, Note_on_c, 0, 74, 96
1, 55427, Note_off_c, 0, 74, 0
1, 55440, Note_on_c, 0, 72, 96
1, 55553, Note_off_c, 0, 72, 0
1, 55560, Note_on_c, 0, 69, 96
1, 55901, Note_off_c, 0, 69, 0
1, 55920, Note_on_c, 0, 67, 96
1, 56831, Note_off_c, 0, 67, 0
1, 57000, Note_on_c, 0, 69, 96
1, 57113, Note_off_c, 0, 69, 0
1, 57120, Note_on_c, 0, 69, 96
1, 57347, Note_off_c, 0, 69, 0
1, 57360, Note_on_c, 0, 72, 96
1, 57587, Note_off_c, 0, 72, 0
1, 57600, Note_on_c, 0, 69, 96
1, 57600, Note_on_c, 0, 74, 96
1, 58055, Note_off_c, 0, 69, 0
1, 58967, Note_off_c, 0, 74, 0
1, 59040, Note_on_c, 0, 76, 96
1, 59495, Note_off_c, 0, 76, 0
1, 59520, Note_on_c, 0, 66, 96
1, 59520, Note_on_c, 0, 74, 96
1, 59633, Note_off_c, 0, 66, 0
1, 59633, Note_off_c, 0, 74, 0
1, 59640, Note_on_c, 0, 72, 96
1, 59753, Note_off_c, 0, 72, 0
1, 59760, Note_on_c, 0, 62, 96
1, 59760, Note_on_c, 0, 69, 96
1, 59985, Note_off_c, 0, 62, 0
1, 60671, Note_off_c, 0, 69, 0
1, 60960, Note_on_c, 0, 69, 96
1, 61073, Note_off_c, 0, 69, 0
1, 61080, Note_on_c, 0, 69, 96
1, 61193, Note_off_c, 0, 69, 0
1, 61200, Note_on_c, 0, 72, 96
1, 61427, Note_off_c, 0, 72, 0
1, 61440, Note_on_c, 0, 74, 96
1, 62351, Note_off_c, 0, 74, 0
1, 62400, Note_on_c, 0, 76, 96
1, 62855, Note_off_c, 0, 76, 0
1, 62880, Note_on_c, 0, 76, 96
1, 62993, Note_off_c, 0, 76, 0
1, 63000, Note_on_c, 0, 74, 96
1, 63113, Note_off_c, 0, 74, 0
1, 63120, Note_on_c, 0, 72, 96
1, 63347, Note_off_c, 0, 72, 0
1, 63360, Note_on_c, 0, 71, 96
1, 63360, Note_on_c, 0, 74, 96
1, 65183, Note_off_c, 0, 71, 0
1, 65183, Note_off_c, 0, 74, 0
1, 65275, Note_on_c, 0, 79, 64
1, 65730, Note_off_c, 0, 79, 0
1, 66720, Note_on_c, 0, 76, 64
1, 66720, Note_on_c, 0, 81, 64
1, 67061, Note_off_c, 0, 76, 0
1, 67061, Note_off_c, 0, 81, 0
1, 67080, Note_on_c, 0, 76, 64
1, 67307, Note_off_c, 0, 76, 0
1, 67320, Note_on_c, 0, 77, 64
1, 67433, Note_off_c, 0, 77, 0
1, 67440, Note_on_c, 0, 76, 64
1, 68351, Note_off_c, 0, 76, 0
1, 68640, Note_on_c, 0, 69, 64
1, 68867, Note_off_c, 0, 69, 0
1, 68880, Note_on_c, 0, 72, 64
1, 68993, Note_off_c, 0, 72, 0
1, 69000, Note_on_c, 0, 65, 64
1, 69000, Note_on_c, 0, 76, 64
1, 69227, Note_off_c, 0, 65, 0
1, 69227, Note_off_c, 0, 76, 0
1, 69240, Note_on_c, 0, 81, 64
1, 69353, Note_off_c, 0, 81, 0
1, 69360, Note_on_c, 0, 74, 64
1, 69360, Note_on_c, 0, 84, 64
1, 69473, Note_off_c, 0, 74, 0
1, 69473, Note_off_c, 0, 84, 0
1, 69480, Note_on_c, 0, 69, 64
1, 69480, Note_on_c, 0, 74, 64
1, 69593, Note_off_c, 0, 69, 0
1, 69593, Note_off_c, 0, 74, 0
1, 69600, Note_on_c, 0, 88, 64
1, 69713, Note_off_c, 0, 88, 0
1, 69720, Note_on_c, 0, 89, 64
1, 69833, Note_off_c, 0, 89, 0
1, 69840, Note_on_c, 0, 72, 64
1, 69953, Note_off_c, 0, 72, 0
1, 69960, Note_on_c, 0, 76, 64
1, 70301, Note_off_c, 0, 76, 0
1, 70320, Note_on_c, 0, 74, 64
1, 70433, Note_off_c, 0, 74, 0
1, 70440, Note_on_c, 0, 74, 64
1, 70781, Note_off_c, 0, 74, 0
1, 70800, Note_on_c, 0, 65, 64
1, 70800, Note_on_c, 0, 74, 64
1, 71255, Note_off_c, 0, 65, 0
1, 71255, Note_off_c, 0, 74, 0
1, 71280, Note_on_c, 0, 69, 64
1, 71393, Note_off_c, 0, 69, 0
1, 71400, Note_on_c, 0, 67, 64
1, 71513, Note_off_c, 0, 67, 0
1, 71520, Note_on_c, 0, 69, 64
1, 71633, Note_off_c, 0, 69, 0
1, 71640, Note_on_c, 0, 72, 64
1, 71867, Note_off_c, 0, 72, 0
1, 72000, Note_on_c, 0, 81, 64
1, 72113, Note_off_c, 0, 81, 0
1, 72120, Note_on_c, 0, 86, 64
1, 72233, Note_off_c, 0, 86, 0
1, 72240, Note_on_c, 0, 88, 64
1, 72353, Note_off_c, 0, 88, 0
1, 72360, Note_on_c, 0, 86, 64
1, 72473, Note_off_c, 0, 86, 0
1, 72480, Note_on_c, 0, 81, 64
1, 72480, Note_on_c, 0, 86, 64
1, 72593, Note_off_c, 0, 81, 0
1, 72593, Note_off_c, 0, 86, 0
1, 72600, Note_on_c, 0, 79, 64
1, 72600, Note_on_c, 0, 84, 64
1, 72713, Note_off_c, 0, 79, 0
1, 72713, Note_off_c, 0, 84, 0
1, 72720, Note_on_c, 0, 76, 64
1, 72720, Note_on_c, 0, 84, 64
1, 72833, Note_off_c, 0, 76, 0
1, 72833, Note_off_c, 0, 84, 0
1, 72840, Note_on_c, 0, 74, 64
1, 72840, Note_on_c, 0, 81, 64
1, 72953, Note_off_c, 0, 74, 0
1, 72953, Note_off_c, 0, 81, 0
1, 72960, Note_on_c, 0, 79, 64
1, 74360, Note_off_c, 0, 79, 0
1, 74400, Note_on_c, 0, 81, 64
1, 74741, Note_off_c, 0, 81, 0
1, 74760, Note_on_c, 0, 76, 64
1, 74987, Note_off_c, 0, 76, 0
1, 75000, Note_on_c, 0, 77, 64
1, 75113, Note_off_c, 0, 77, 0
1, 75120, Note_on_c, 0, 76, 64
1, 76120, Note_off_c, 0, 76, 0
1, 76200, Note_on_c, 0, 69, 64
1, 76313, Note_off_c, 0, 69, 0
1, 76320, Note_on_c, 0, 69, 64
1, 76547, Note_off_c, 0, 69, 0
1, 76560, Note_on_c, 0, 69, 64
1, 76560, Note_on_c, 0, 72, 64
1, 76673, Note_off_c, 0, 69, 0
1, 76673, Note_off_c, 0, 72, 0
1, 76680, Note_on_c, 0, 76, 64
1, 77021, Note_off_c, 0, 76, 0
1, 77040, Note_on_c, 0, 74, 64
1, 77153, Note_off_c, 0, 74, 0
1, 77160, Note_on_c, 0, 74, 64
1, 77501, Note_off_c, 0, 74, 0
1, 77520, Note_on_c, 0, 72, 64
1, 77633, Note_off_c, 0, 72, 0
1, 77640, Note_on_c, 0, 76, 64
1, 77981, Note_off_c, 0, 76, 0
1, 78000, Note_on_c, 0, 74, 64
1, 78113, Note_off_c, 0, 74, 0
1, 78120, Note_on_c, 0, 74, 64
1, 78461, Note_off_c, 0, 74, 0
1, 78480, Note_on_c, 0, 74, 64
1, 78935, Note_off_c, 0, 74, 0
1, 78960, Note_on_c, 0, 72, 66
1, 79529, Note_off_c, 0, 72, 0
1, 79560, Note_on_c, 0, 64, 71
1, 79560, Note_on_c, 0, 69, 71
1, 79673, Note_off_c, 0, 64, 0
1, 79673, Note_off_c, 0, 69, 0
1, 79680, Note_on_c, 0, 77, 72
1, 79680, Note_on_c, 0, 81, 72
1, 80135, Note_off_c, 0, 77, 0
1, 80135, Note_off_c, 0, 81, 0
1, 80160, Note_on_c, 0, 84, 76
1, 80615, Note_off_c, 0, 84, 0
1, 80640, Note_on_c, 0, 79, 80
1, 80640, Note_on_c, 0, 86, 80
1, 80867, Note_off_c, 0, 79, 0
1, 80867, Note_off_c, 0, 86, 0
1, 80880, Note_on_c, 0, 91, 80
1, 81107, Note_off_c, 0, 91, 0
1, 81120, Note_on_c, 0, 91, 80
1, 81347, Note_off_c, 0, 91, 0
1, 81360, Note_on_c, 0, 91, 80
1, 81473, Note_off_c, 0, 91, 0
1, 81480, Note_on_c, 0, 88, 80
1, 81821, Note_off_c, 0, 88, 0
1, 81840, Note_on_c, 0, 86, 80
1, 82067, Note_off_c, 0, 86, 0
1, 82080, Note_on_c, 0, 86, 80
1, 82307, Note_off_c, 0, 86, 0
1, 82320, Note_on_c, 0, 86, 80
1, 82433, Note_off_c, 0, 86, 0
1, 82440, Note_on_c, 0, 86, 80
1, 82781, Note_off_c, 0, 86, 0
1, 82800, Note_on_c, 0, 88, 80
1, 83255, Note_off_c, 0, 88, 0
1, 83520, Note_on_c, 0, 81, 80
1, 83633, Note_off_c, 0, 81, 0
1, 83640, Note_on_c, 0, 88, 80
1, 83753, Note_off_c, 0, 88, 0
1, 83760, Note_on_c, 0, 89, 80
1, 83873, Note_off_c, 0, 89, 0
1, 83880, Note_on_c, 0, 93, 80
1, 83993, Note_off_c, 0, 93, 0
1, 84000, Note_on_c, 0, 84, 80
1, 84113, Note_off_c, 0, 84, 0
1, 84120, Note_on_c, 0, 91, 80
1, 84233, Note_off_c, 0, 91, 0
1, 84240, Note_on_c, 0, 93, 80
1, 84353, Note_off_c, 0, 93, 0
1, 84360, Note_on_c, 0, 96, 80
1, 84473, Note_off_c, 0, 96, 0
1, 84480, Note_on_c, 0, 79, 80
1, 84480, Note_on_c, 0, 86, 80
1, 84707, Note_off_c, 0, 79, 0
1, 84707, Note_off_c, 0, 86, 0
1, 84720, Note_on_c, 0, 83, 80
1, 84720, Note_on_c, 0, 91, 80
1, 84947, Note_off_c, 0, 83, 0
1, 84947, Note_off_c, 0, 91, 0
1, 84960, Note_on_c, 0, 91, 80
1, 85187, Note_off_c, 0, 91, 0
1, 85200, Note_on_c, 0, 91, 80
1, 85313, Note_off_c, 0, 91, 0
1, 85320, Note_on_c, 0, 88, 80
1, 85661, Note_off_c, 0, 88, 0
1, 85680, Note_on_c, 0, 86, 80
1, 85793, Note_off_c, 0, 86, 0
1, 85800, Note_on_c, 0, 86, 80
1, 86141, Note_off_c, 0, 86, 0
1, 86160, Note_on_c, 0, 88, 80
1, 86615, Note_off_c, 0, 88, 0
1, 86640, Note_on_c, 0, 81, 80
1, 86640, Note_on_c, 0, 88, 80
1, 86753, Note_off_c, 0, 81, 0
1, 86753, Note_off_c, 0, 88, 0
1, 86760, Note_on_c, 0, 86, 80
1, 86873, Note_off_c, 0, 86, 0
1, 86880, Note_on_c, 0, 84, 80
1, 87107, Note_off_c, 0, 84, 0
1, 87360, Note_on_c, 0, 81, 80
1, 87815, Note_off_c, 0, 81, 0
1, 87840, Note_on_c, 0, 84, 80
1, 88067, Note_off_c, 0, 84, 0
1, 88320, Note_on_c, 0, 79, 80
1, 88320, Note_on_c, 0, 86, 80
1, 88547, Note_off_c, 0, 79, 0
1, 88547, Note_off_c, 0, 86, 0
1, 88560, Note_on_c, 0, 91, 80
1, 88787, Note_off_c, 0, 91, 0
1, 88800, Note_on_c, 0, 91, 80
1, 89027, Note_off_c, 0, 91, 0
1, 89040, Note_on_c, 0, 91, 80
1, 89153, Note_off_c, 0, 91, 0
1, 89160, Note_on_c, 0, 88, 80
1, 89501, Note_off_c, 0, 88, 0
1, 89520, Note_on_c, 0, 86, 80
1, 89633, Note_off_c, 0, 86, 0
1, 89640, Note_on_c, 0, 86, 80
1, 89981, Note_off_c, 0, 86, 0
1, 90000, Note_on_c, 0, 86, 80
1, 90227, Note_off_c, 0, 86, 0
1, 90240, Note_on_c, 0, 81, 80
1, 90240, Note_on_c, 0, 86, 80
1, 90467, Note_off_c, 0, 81, 0
1, 90467, Note_off_c, 0, 86, 0
1, 90480, Note_on_c, 0, 88, 80
1, 91619, Note_off_c, 0, 88, 0
1, 91680, Note_on_c, 0, 81, 80
1, 91907, Note_off_c, 0, 81, 0
1, 91920, Note_on_c, 0, 84, 80
1, 92147, Note_off_c, 0, 84, 0
1, 92160, Note_on_c, 0, 86, 80
1, 93071, Note_off_c, 0, 86, 0
1, 93120, Note_on_c, 0, 88, 80
1, 93575, Note_off_c, 0, 88, 0
1, 93600, Note_on_c, 0, 88, 80
1, 94055, Note_off_c, 0, 88, 0
1, 94075, Note_on_c, 0, 89, 80
1, 95015, Note_off_c, 0, 89, 0
1, 95055, Note_on_c, 0, 91, 88
1, 95469, Note_off_c, 0, 91, 0
1, 95520, Note_on_c, 0, 79, 92
1, 95975, Note_off_c, 0, 79, 0
1, 96000, Note_on_c, 0, 65, 96
1, 96000, Note_on_c, 0, 76, 96
1, 96455, Note_off_c, 0, 65, 0
1, 96455, Note_off_c, 0, 76, 0
1, 96480, Note_on_c, 0, 72, 96
1, 96935, Note_off_c, 0, 72, 0
1, 96960, Note_on_c, 0, 71, 96
1, 97187, Note_off_c, 0, 71, 0
1, 97200, Note_on_c, 0, 69, 96
1, 97427, Note_off_c, 0, 69, 0
1, 97440, Note_on_c, 0, 67, 96
1, 97667, Note_off_c, 0, 67, 0
1, 97680, Note_on_c, 0, 69, 96
1, 97793, Note_off_c, 0, 69, 0
1, 97800, Note_on_c, 0, 69, 96
1, 98141, Note_off_c, 0, 69, 0
1, 98160, Note_on_c, 0, 67, 96
1, 98501, Note_off_c, 0, 67, 0
1, 98520, Note_on_c, 0, 67, 96
1, 98633, Note_off_c, 0, 67, 0
1, 98640, Note_on_c, 0, 67, 96
1, 98753, Note_off_c, 0, 67, 0
1, 98760, Note_on_c, 0, 69, 96
1, 99101, Note_off_c, 0, 69, 0
1, 99120, Note_on_c, 0, 67, 96
1, 99233, Note_off_c, 0, 67, 0
1, 99240, Note_on_c, 0, 67, 96
1, 99467, Note_off_c, 0, 67, 0
1, 99480, Note_on_c, 0, 79, 96
1, 99821, Note_off_c, 0, 79, 0
1, 99840, Note_on_c, 0, 76, 96
1, 99840, Note_on_c, 0, 83, 96
1, 100295, Note_off_c, 0, 76, 0
1, 100295, Note_off_c, 0, 83, 0
1, 100320, Note_on_c, 0, 84, 96
1, 100775, Note_off_c, 0, 84, 0
1, 100800, Note_on_c, 0, 83, 96
1, 101027, Note_off_c, 0, 83, 0
1, 101040, Note_on_c, 0, 76, 96
1, 101267, Note_off_c, 0, 76, 0
1, 101280, Note_on_c, 0, 74, 96
1, 101507, Note_off_c, 0, 74, 0
1, 101520, Note_on_c, 0, 72, 96
1, 101633, Note_off_c, 0, 72, 0
1, 101640, Note_on_c, 0, 69, 96
1, 101760, Note_on_c, 0, 76, 96
1, 101981, Note_off_c, 0, 69, 0
1, 101987, Note_off_c, 0, 76, 0
1, 102000, Note_on_c, 0, 64, 96
1, 102000, Note_on_c, 0, 67, 96
1, 102227, Note_off_c, 0, 64, 0
1, 102227, Note_off_c, 0, 67, 0
1, 102360, Note_on_c, 0, 67, 96
1, 102473, Note_off_c, 0, 67, 0
1, 102480, Note_on_c, 0, 67, 96
1, 102593, Note_off_c, 0, 67, 0
1, 102600, Note_on_c, 0, 69, 96
1, 102713, Note_off_c, 0, 69, 0
1, 102720, Note_on_c, 0, 72, 96
1, 102947, Note_off_c, 0, 72, 0
1, 102960, Note_on_c, 0, 64, 96
1, 102960, Note_on_c, 0, 67, 96
1, 103073, Note_off_c, 0, 64, 0
1, 103073, Note_off_c, 0, 67, 0
1, 103080, Note_on_c, 0, 64, 96
1, 103080, Note_on_c, 0, 67, 96
1, 103193, Note_off_c, 0, 64, 0
1, 103193, Note_off_c, 0, 67, 0
1, 103200, Note_on_c, 0, 71, 96
1, 103313, Note_off_c, 0, 71, 0
1, 103320, Note_on_c, 0, 72, 96
1, 103320, Note_on_c, 0, 79, 96
1, 103661, Note_off_c, 0, 72, 0
1, 103661, Note_off_c, 0, 79, 0
1, 103680, Note_on_c, 0, 71, 96
1, 103680, Note_on_c, 0, 76, 96
1, 104135, Note_off_c, 0, 71, 0
1, 104135, Note_off_c, 0, 76, 0
1, 104160, Note_on_c, 0, 72, 96
1, 104615, Note_off_c, 0, 72, 0
1, 104640, Note_on_c, 0, 71, 96
1, 104867, Note_off_c, 0, 71, 0
1, 104880, Note_on_c, 0, 76, 96
1, 105107, Note_off_c, 0, 76, 0
1, 105120, Note_on_c, 0, 74, 96
1, 105347, Note_off_c, 0, 74, 0
1, 105360, Note_on_c, 0, 72, 96
1, 105473, Note_off_c, 0, 72, 0
1, 105480, Note_on_c, 0, 64, 96
1, 105480, Note_on_c, 0, 69, 96
1, 105821, Note_off_c, 0, 64, 0
1, 105821, Note_off_c, 0, 69, 0
1, 105840, Note_on_c, 0, 67, 94
1, 106751, Note_off_c, 0, 67, 0
1, 106920, Note_on_c, 0, 69, 85
1, 107033, Note_off_c, 0, 69, 0
1, 107040, Note_on_c, 0, 69, 84
1, 107267, Note_off_c, 0, 69, 0
1, 107280, Note_on_c, 0, 72, 82
1, 107507, Note_off_c, 0, 72, 0
1, 107520, Note_on_c, 0, 69, 80
1, 107520, Note_on_c, 0, 74, 80
1, 107975, Note_off_c, 0, 69, 0
1, 108887, Note_off_c, 0, 74, 0
1, 108960, Note_on_c, 0, 76, 80
1, 109415, Note_off_c, 0, 76, 0
1, 109440, Note_on_c, 0, 66, 80
1, 109440, Note_on_c, 0, 74, 80
1, 109553, Note_off_c, 0, 66, 0
1, 109553, Note_off_c, 0, 74, 0
1, 109560, Note_on_c, 0, 72, 80
1, 109673, Note_off_c, 0, 72, 0
1, 109680, Note_on_c, 0, 69, 80
1, 110591, Note_off_c, 0, 69, 0
1, 110880, Note_on_c, 0, 69, 80
1, 110993, Note_off_c, 0, 69, 0
1, 111000, Note_on_c, 0, 69, 80
1, 111113, Note_off_c, 0, 69, 0
1, 111120, Note_on_c, 0, 72, 80
1, 111347, Note_off_c, 0, 72, 0
1, 111360, Note_on_c, 0, 74, 80
1, 112271, Note_off_c, 0, 74, 0
1, 112320, Note_on_c, 0, 76, 80
1, 112775, Note_off_c, 0, 76, 0
1, 112800, Note_on_c, 0, 76, 80
1, 113255, Note_off_c, 0, 76, 0
1, 113280, Note_on_c, 0, 77, 80
1, 113507, Note_off_c, 0, 77, 0
1, 113520, Note_on_c, 0, 79, 82
1, 113747, Note_off_c, 0, 79, 0
1, 113760, Note_on_c, 0, 81, 84
1, 113987, Note_off_c, 0, 81, 0
1, 114000, Note_on_c, 0, 84, 86
1, 114227, Note_off_c, 0, 84, 0
1, 114240, Note_on_c, 0, 91, 88
1, 114467, Note_off_c, 0, 91, 0
1, 114480, Note_on_c, 0, 84, 90
1, 114593, Note_off_c, 0, 84, 0
1, 114600, Note_on_c, 0, 79, 91
1, 114713, Note_off_c, 0, 79, 0
1, 114720, Note_on_c, 0, 84, 92
1, 114947, Note_off_c, 0, 84, 0
1, 114960, Note_on_c, 0, 79, 94
1, 114960, Note_on_c, 0, 88, 94
1, 115301, Note_off_c, 0, 79, 0
1, 115301, Note_off_c, 0, 88, 0
1, 115320, Note_on_c, 0, 84, 96
1, 115433, Note_off_c, 0, 84, 0
1, 115440, Note_on_c, 0, 88, 96
1, 115667, Note_off_c, 0, 88, 0
1, 115680, Note_on_c, 0, 84, 96
1, 115907, Note_off_c, 0, 84, 0
1, 115920, Note_on_c, 0, 88, 96
1, 116147, Note_off_c, 0, 88, 0
1, 116160, Note_on_c, 0, 84, 96
1, 116387, Note_off_c, 0, 84, 0
1, 116400, Note_on_c, 0, 88, 96
1, 116627, Note_off_c, 0, 88, 0
1, 116640, Note_on_c, 0, 84, 96
1, 116867, Note_off_c, 0, 84, 0
1, 116880, Note_on_c, 0, 88, 96
1, 117107, Note_off_c, 0, 88, 0
1, 117120, Note_on_c, 0, 79, 96
1, 117120, Note_on_c, 0, 84, 96
1, 117233, Note_off_c, 0, 79, 0
1, 117233, Note_off_c, 0, 84, 0
1, 117240, Note_on_c, 0, 81, 96
1, 117353, Note_off_c, 0, 81, 0
1, 117360, Note_on_c, 0, 79, 96
1, 117815, Note_off_c, 0, 79, 0
1, 118080, Note_on_c, 0, 72, 96
1, 118193, Note_off_c, 0, 72, 0
1, 118200, Note_on_c, 0, 76, 96
1, 118313, Note_off_c, 0, 76, 0
1, 118320, Note_on_c, 0, 79, 96
1, 118433, Note_off_c, 0, 79, 0
1, 118440, Note_on_c, 0, 83, 96
1, 118553, Note_off_c, 0, 83, 0
1, 118560, Note_on_c, 0, 84, 96
1, 118673, Note_off_c, 0, 84, 0
1, 118680, Note_on_c, 0, 88, 96
1, 118793, Note_off_c, 0, 88, 0
1, 118800, Note_on_c, 0, 91, 96
1, 118913, Note_off_c, 0, 91, 0
1, 118920, Note_on_c, 0, 96, 96
1, 119033, Note_off_c, 0, 96, 0
1, 119040, Note_on_c, 0, 84, 96
1, 119040, Note_on_c, 0, 93, 96
1, 119267, Note_off_c, 0, 84, 0
1, 119267, Note_off_c, 0, 93, 0
1, 119280, Note_on_c, 0, 88, 96
1, 119507, Note_off_c, 0, 88, 0
1, 119520, Note_on_c, 0, 84, 96
1, 119747, Note_off_c, 0, 84, 0
1, 119760, Note_on_c, 0, 88, 96
1, 119987, Note_off_c, 0, 88, 0
1, 120000, Note_on_c, 0, 84, 96
1, 120227, Note_off_c, 0, 84, 0
1, 120240, Note_on_c, 0, 88, 96
1, 120467, Note_off_c, 0, 88, 0
1, 120480, Note_on_c, 0, 84, 96
1, 120707, Note_off_c, 0, 84, 0
1, 120720, Note_on_c, 0, 88, 96
1, 120947, Note_off_c, 0, 88, 0
1, 120960, Note_on_c, 0, 79, 96
1, 120960, Note_on_c, 0, 84, 96
1, 121073, Note_off_c, 0, 79, 0
1, 121073, Note_off_c, 0, 84, 0
1, 121080, Note_on_c, 0, 81, 96
1, 121193, Note_off_c, 0, 81, 0
1, 121200, Note_on_c, 0, 79, 96
1, 121313, Note_off_c, 0, 79, 0
1, 121320, Note_on_c, 0, 79, 96
1, 121547, Note_off_c, 0, 79, 0
1, 121560, Note_on_c, 0, 81, 96
1, 121787, Note_off_c, 0, 81, 0
1, 121800, Note_on_c, 0, 79, 96
1, 122027, Note_off_c, 0, 79, 0
1, 122040, Note_on_c, 0, 76, 96
1, 122267, Note_off_c, 0, 76, 0
1, 122280, Note_on_c, 0, 76, 96
1, 122393, Note_off_c, 0, 76, 0
1, 122400, Note_on_c, 0, 88, 96
1, 122513, Note_off_c, 0, 88, 0
1, 122520, Note_on_c, 0, 86, 96
1, 122633, Note_off_c, 0, 86, 0
1, 122640, Note_on_c, 0, 86, 96
1, 122753, Note_off_c, 0, 86, 0
1, 122760, Note_on_c, 0, 84, 96
1, 122873, Note_off_c, 0, 84, 0
1, 122880, Note_on_c, 0, 76, 96
1, 122993, Note_off_c, 0, 76, 0
1, 123000, Note_on_c, 0, 84, 94
1, 123113, Note_off_c, 0, 84, 0
1, 123120, Note_on_c, 0, 88, 92
1, 123347, Note_off_c, 0, 88, 0
1, 123360, Note_on_c, 0, 84, 88
1, 123587, Note_off_c, 0, 84, 0
1, 123600, Note_on_c, 0, 88, 84
1, 123827, Note_off_c, 0, 88, 0
1, 123840, Note_on_c, 0, 84, 80
1, 124067, Note_off_c, 0, 84, 0
1, 124080, Note_on_c, 0, 88, 76
1, 124307, Note_off_c, 0, 88, 0
1, 124320, Note_on_c, 0, 84, 72
1, 124547, Note_off_c, 0, 84, 0
1, 124560, Note_on_c, 0, 88, 68
1, 124787, Note_off_c, 0, 88, 0
1, 124800, Note_on_c, 0, 79, 64
1, 124800, Note_on_c, 0, 84, 64
1, 124913, Note_off_c, 0, 79, 0
1, 124913, Note_off_c, 0, 84, 0
1, 124920, Note_on_c, 0, 81, 64
1, 125033, Note_off_c, 0, 81, 0
1, 125040, Note_on_c, 0, 79, 64
1, 125951, Note_off_c, 0, 79, 0
1, 126000, Note_on_c, 0, 76, 64
1, 126227, Note_off_c, 0, 76, 0
1, 126240, Note_on_c, 0, 74, 64
1, 126467, Note_off_c, 0, 74, 0
1, 126480, Note_on_c, 0, 74, 64
1, 126935, Note_off_c, 0, 74, 0
1, 126960, Note_on_c, 0, 77, 64
1, 127187, Note_off_c, 0, 77, 0
1, 127200, Note_on_c, 0, 79, 64
1, 127427, Note_off_c, 0, 79, 0
1, 127440, Note_on_c, 0, 81, 64
1, 127667, Note_off_c, 0, 81, 0
1, 127680, Note_on_c, 0, 83, 64
1, 127907, Note_off_c, 0, 83, 0
1, 127920, Note_on_c, 0, 84, 64
1, 128147, Note_off_c, 0, 84, 0
1, 128160, Note_on_c, 0, 76, 64
1, 128501, Note_off_c, 0, 76, 0
1, 128520, Note_on_c, 0, 77, 64
1, 128861, Note_off_c, 0, 77, 0
1, 128880, Note_on_c, 0, 79, 68
1, 129107, Note_off_c, 0, 79, 0
1, 129120, Note_on_c, 0, 81, 72
1, 129347, Note_off_c, 0, 81, 0
1, 129360, Note_on_c, 0, 84, 76
1, 129587, Note_off_c, 0, 84, 0
1, 129600, Note_on_c, 0, 86, 80
1, 130055, Note_off_c, 0, 86, 0
1, 130080, Note_on_c, 0, 81, 88
1, 130193, Note_off_c, 0, 81, 0
1, 130200, Note_on_c, 0, 84, 90
1, 130313, Note_off_c, 0, 84, 0
1, 130320, Note_on_c, 0, 86, 92
1, 130547, Note_off_c, 0, 86, 0
1, 130560, Note_on_c, 0, 71, 96
1, 130560, Note_on_c, 0, 83, 96
1, 130673, Note_off_c, 0, 71, 0
1, 130673, Note_off_c, 0, 83, 0
1, 130680, Note_on_c, 0, 74, 96
1, 130793, Note_off_c, 0, 74, 0
1, 130800, Note_on_c, 0, 72, 96
1, 131027, Note_off_c, 0, 72, 0
1, 131040, Note_on_c, 0, 72, 96
1, 131040, Note_on_c, 0, 84, 96
1, 131495, Note_off_c, 0, 72, 0
1, 131495, Note_off_c, 0, 84, 0
1, 131520, Note_on_c, 0, 71, 96
1, 131520, Note_on_c, 0, 83, 96
1, 131747, Note_off_c, 0, 71, 0
1, 131747, Note_off_c, 0, 83, 0
1, 131760, Note_on_c, 0, 69, 96
1, 131760, Note_on_c, 0, 76, 96
1, 131987, Note_off_c, 0, 69, 0
1, 131987, Note_off_c, 0, 76, 0
1, 132000, Note_on_c, 0, 67, 96
1, 132000, Note_on_c, 0, 79, 96
1, 132227, Note_off_c, 0, 67, 0
1, 132227, Note_off_c, 0, 79, 0
1, 132240, Note_on_c, 0, 69, 96
1, 132240, Note_on_c, 0, 72, 96
1, 132353, Note_off_c, 0, 69, 0
1, 132353, Note_off_c, 0, 72, 0
1, 132360, Note_on_c, 0, 74, 96
1, 132480, Note_on_c, 0, 64, 96
1, 132480, Note_on_c, 0, 76, 96
1, 132701, Note_off_c, 0, 74, 0
1, 132707, Note_off_c, 0, 64, 0
1, 132707, Note_off_c, 0, 76, 0
1, 132720, Note_on_c, 0, 64, 96
1, 132720, Note_on_c, 0, 72, 96
1, 132947, Note_off_c, 0, 64, 0
1, 132947, Note_off_c, 0, 72, 0
1, 132960, Note_on_c, 0, 74, 96
1, 133073, Note_off_c, 0, 74, 0
1, 133080, Note_on_c, 0, 67, 96
1, 133193, Note_off_c, 0, 67, 0
1, 133200, Note_on_c, 0, 67, 96
1, 133313, Note_off_c, 0, 67, 0
1, 133320, Note_on_c, 0, 69, 96
1, 133433, Note_off_c, 0, 69, 0
1, 133440, Note_on_c, 0, 72, 96
1, 133667, Note_off_c, 0, 72, 0
1, 133680, Note_on_c, 0, 67, 96
1, 133793, Note_off_c, 0, 67, 0
1, 133800, Note_on_c, 0, 67, 96
1, 133913, Note_off_c, 0, 67, 0
1, 133920, Note_on_c, 0, 71, 96
1, 134033, Note_off_c, 0, 71, 0
1, 134040, Note_on_c, 0, 79, 96
1, 134381, Note_off_c, 0, 79, 0
1, 134400, Note_on_c, 0, 69, 96
1, 134400, Note_on_c, 0, 76, 96
1, 134855, Note_off_c, 0, 69, 0
1, 134855, Note_off_c, 0, 76, 0
1, 134880, Note_on_c, 0, 64, 96
1, 134993, Note_off_c, 0, 64, 0
1, 135000, Note_on_c, 0, 65, 96
1, 135113, Note_off_c, 0, 65, 0
1, 135120, Note_on_c, 0, 69, 96
1, 135233, Note_off_c, 0, 69, 0
1, 135240, Note_on_c, 0, 72, 96
1, 135353, Note_off_c, 0, 72, 0
1, 135360, Note_on_c, 0, 76, 96
1, 135473, Note_off_c, 0, 76, 0
1, 135480, Note_on_c, 0, 77, 96
1, 135593, Note_off_c, 0, 77, 0
1, 135600, Note_on_c, 0, 81, 96
1, 135713, Note_off_c, 0, 81, 0
1, 135720, Note_on_c, 0, 84, 96
1, 135833, Note_off_c, 0, 84, 0
1, 135840, Note_on_c, 0, 76, 96
1, 136067, Note_off_c, 0, 76, 0
1, 136242, Note_on_c, 0, 74, 96
1, 136542, Note_off_c, 0, 74, 0
1, 136560, Note_on_c, 0, 72, 96
1, 136901, Note_off_c, 0, 72, 0
1, 136920, Note_on_c, 0, 67, 96
1, 137033, Note_off_c, 0, 67, 0
1, 137040, Note_on_c, 0, 67, 96
1, 137153, Note_off_c, 0, 67, 0
1, 137160, Note_on_c, 0, 69, 96
1, 137501, Note_off_c, 0, 69, 0
1, 137520, Note_on_c, 0, 67, 96
1, 137633, Note_off_c, 0, 67, 0
1, 137640, Note_on_c, 0, 67, 96
1, 137867, Note_off_c, 0, 67, 0
1, 137880, Note_on_c, 0, 79, 96
1, 138221, Note_off_c, 0, 79, 0
1, 138240, Note_on_c, 0, 76, 96
1, 138240, Note_on_c, 0, 83, 96
1, 138353, Note_off_c, 0, 76, 0
1, 138353, Note_off_c, 0, 83, 0
1, 138360, Note_on_c, 0, 74, 96
1, 138473, Note_off_c, 0, 74, 0
1, 138480, Note_on_c, 0, 72, 96
1, 138707, Note_off_c, 0, 72, 0
1, 138720, Note_on_c, 0, 72, 96
1, 138761, Note_off_c, 0, 72, 0
1, 138762, Note_on_c, 0, 84, 96
1, 139176, Note_off_c, 0, 84, 0
1, 139200, Note_on_c, 0, 83, 96
1, 139427, Note_off_c, 0, 83, 0
1, 139440, Note_on_c, 0, 76, 96
1, 139667, Note_off_c, 0, 76, 0
1, 139680, Note_on_c, 0, 74, 96
1, 139907, Note_off_c, 0, 74, 0
1, 139920, Note_on_c, 0, 72, 96
1, 140033, Note_off_c, 0, 72, 0
1, 140040, Note_on_c, 0, 69, 96
1, 140160, Note_on_c, 0, 64, 96
1, 140381, Note_off_c, 0, 69, 0
1, 140387, Note_off_c, 0, 64, 0
1, 140400, Note_on_c, 0, 67, 94
1, 141311, Note_off_c, 0, 67, 0
1, 141480, Note_on_c, 0, 64, 85
1, 141480, Note_on_c, 0, 69, 85
1, 141593, Note_off_c, 0, 64, 0
1, 141593, Note_off_c, 0, 69, 0
1, 141600, Note_on_c, 0, 69, 84
1, 141827, Note_off_c, 0, 69, 0
1, 141840, Note_on_c, 0, 64, 82
1, 141840, Note_on_c, 0, 72, 82
1, 142067, Note_off_c, 0, 64, 0
1, 142067, Note_off_c, 0, 72, 0
1, 142080, Note_on_c, 0, 66, 80
1, 142080, Note_on_c, 0, 74, 80
1, 142535, Note_off_c, 0, 66, 0
1, 143447, Note_off_c, 0, 74, 0
1, 143520, Note_on_c, 0, 76, 80
1, 143975, Note_off_c, 0, 76, 0
1, 144000, Note_on_c, 0, 66, 80
1, 144000, Note_on_c, 0, 74, 80
1, 144113, Note_off_c, 0, 66, 0
1, 144113, Note_off_c, 0, 74, 0
1, 144120, Note_on_c, 0, 72, 80
1, 144233, Note_off_c, 0, 72, 0
1, 144240, Note_on_c, 0, 62, 80
1, 144240, Note_on_c, 0, 69, 80
1, 144465, Note_off_c, 0, 62, 0
1, 145151, Note_off_c, 0, 69, 0
1, 145440, Note_on_c, 0, 69, 80
1, 145553, Note_off_c, 0, 69, 0
1, 145560, Note_on_c, 0, 69, 80
1, 145673, Note_off_c, 0, 69, 0
1, 145680, Note_on_c, 0, 72, 80
1, 145907, Note_off_c, 0, 72, 0
1, 145920, Note_on_c, 0, 74, 80
1, 146831, Note_off_c, 0, 74, 0
1, 146880, Note_on_c, 0, 76, 80
1, 147335, Note_off_c, 0, 76, 0
1, 147360, Note_on_c, 0, 76, 80
1, 147473, Note_off_c, 0, 76, 0
1, 147480, Note_on_c, 0, 74, 80
1, 147593, Note_off_c, 0, 74, 0
1, 147600, Note_on_c, 0, 72, 80
1, 147827, Note_off_c, 0, 72, 0
1, 147840, Note_on_c, 0, 67, 80
1, 147840, Note_on_c, 0, 74, 80
1, 148295, Note_off_c, 0, 67, 0
1, 148295, Note_off_c, 0, 74, 0
1, 148362, Note_on_c, 0, 79, 84
1, 148776, Note_off_c, 0, 79, 0
1, 148800, Note_on_c, 0, 81, 88
1, 148800, Note_on_c, 0, 91, 88
1, 149027, Note_off_c, 0, 81, 0
1, 149027, Note_off_c, 0, 91, 0
1, 149040, Note_on_c, 0, 84, 90
1, 149267, Note_off_c, 0, 84, 0
1, 149280, Note_on_c, 0, 84, 92
1, 149280, Note_on_c, 0, 91, 92
1, 149507, Note_off_c, 0, 84, 0
1, 149507, Note_off_c, 0, 91, 0
1, 149520, Note_on_c, 0, 88, 94
1, 149861, Note_off_c, 0, 88, 0
1, 149880, Note_on_c, 0, 84, 96
1, 149993, Note_off_c, 0, 84, 0
1, 150000, Note_on_c, 0, 88, 96
1, 150227, Note_off_c, 0, 88, 0
1, 150240, Note_on_c, 0, 84, 96
1, 150467, Note_off_c, 0, 84, 0
1, 150480, Note_on_c, 0, 88, 96
1, 150707, Note_off_c, 0, 88, 0
1, 150720, Note_on_c, 0, 84, 96
1, 150947, Note_off_c, 0, 84, 0
1, 150960, Note_on_c, 0, 88, 96
1, 151187, Note_off_c, 0, 88, 0
1, 151200, Note_on_c, 0, 84, 96
1, 151427, Note_off_c, 0, 84, 0
1, 151440, Note_on_c, 0, 88, 96
1, 151667, Note_off_c, 0, 88, 0
1, 151680, Note_on_c, 0, 79, 96
1, 151680, Note_on_c, 0, 84, 96
1, 151793, Note_off_c, 0, 79, 0
1, 151793, Note_off_c, 0, 84, 0
1, 151800, Note_on_c, 0, 81, 96
1, 151913, Note_off_c, 0, 81, 0
1, 151920, Note_on_c, 0, 79, 96
1, 152375, Note_off_c, 0, 79, 0
1, 152640, Note_on_c, 0, 72, 96
1, 152753, Note_off_c, 0, 72, 0
1, 152760, Note_on_c, 0, 76, 96
1, 152873, Note_off_c, 0, 76, 0
1, 152880, Note_on_c, 0, 79, 96
1, 152993, Note_off_c, 0, 79, 0
1, 153000, Note_on_c, 0, 83, 96
1, 153113, Note_off_c, 0, 83, 0
1, 153120, Note_on_c, 0, 84, 96
1, 153233, Note_off_c, 0, 84, 0
1, 153240, Note_on_c, 0, 88, 96
1, 153353, Note_off_c, 0, 88, 0
1, 153360, Note_on_c, 0, 91, 96
1, 153473, Note_off_c, 0, 91, 0
1, 153480, Note_on_c, 0, 96, 96
1, 153593, Note_off_c, 0, 96, 0
1, 153600, Note_on_c, 0, 84, 96
1, 153600, Note_on_c, 0, 93, 96
1, 153827, Note_off_c, 0, 84, 0
1, 153827, Note_off_c, 0, 93, 0
1, 153840, Note_on_c, 0, 88, 96
1, 154067, Note_off_c, 0, 88, 0
1, 154080, Note_on_c, 0, 84, 96
1, 154307, Note_off_c, 0, 84, 0
1, 154320, Note_on_c, 0, 88, 96
1, 154547, Note_off_c, 0, 88, 0
1, 154560, Note_on_c, 0, 84, 96
1, 154787, Note_off_c, 0, 84, 0
1, 154800, Note_on_c, 0, 88, 96
1, 155027, Note_off_c, 0, 88, 0
1, 155040, Note_on_c, 0, 84, 96
1, 155267, Note_off_c, 0, 84, 0
1, 155280, Note_on_c, 0, 88, 96
1, 155507, Note_off_c, 0, 88, 0
1, 155520, Note_on_c, 0, 79, 96
1, 155520, Note_on_c, 0, 84, 96
1, 155633, Note_off_c, 0, 79, 0
1, 155633, Note_off_c, 0, 84, 0
1, 155640, Note_on_c, 0, 81, 96
1, 155753, Note_off_c, 0, 81, 0
1, 155760, Note_on_c, 0, 79, 96
1, 155873, Note_off_c, 0, 79, 0
1, 155880, Note_on_c, 0, 79, 96
1, 156107, Note_off_c, 0, 79, 0
1, 156120, Note_on_c, 0, 81, 96
1, 156347, Note_off_c, 0, 81, 0
1, 156360, Note_on_c, 0, 79, 96
1, 156587, Note_off_c, 0, 79, 0
1, 156600, Note_on_c, 0, 76, 96
1, 156827, Note_off_c, 0, 76, 0
1, 156840, Note_on_c, 0, 76, 96
1, 156953, Note_off_c, 0, 76, 0
1, 156960, Note_on_c, 0, 88, 96
1, 157073, Note_off_c, 0, 88, 0
1, 157080, Note_on_c, 0, 86, 96
1, 157193, Note_off_c, 0, 86, 0
1, 157200, Note_on_c, 0, 86, 96
1, 157313, Note_off_c, 0, 86, 0
1, 157320, Note_on_c, 0, 84, 96
1, 157433, Note_off_c, 0, 84, 0
1, 157440, Note_on_c, 0, 76, 96
1, 157440, Note_on_c, 0, 81, 96
1, 157553, Note_off_c, 0, 76, 0
1, 157553, Note_off_c, 0, 81, 0
1, 157560, Note_on_c, 0, 84, 96
1, 157673, Note_off_c, 0, 84, 0
1, 157680, Note_on_c, 0, 88, 96
1, 157907, Note_off_c, 0, 88, 0
1, 157920, Note_on_c, 0, 84, 96
1, 158147, Note_off_c, 0, 84, 0
1, 158160, Note_on_c, 0, 88, 96
1, 158387, Note_off_c, 0, 88, 0
1, 158400, Note_on_c, 0, 84, 96
1, 158627, Note_off_c, 0, 84, 0
1, 158640, Note_on_c, 0, 88, 96
1, 158867, Note_off_c, 0, 88, 0
1, 158880, Note_on_c, 0, 84, 96
1, 159107, Note_off_c, 0, 84, 0
1, 159120, Note_on_c, 0, 88, 96
1, 159347, Note_off_c, 0, 88, 0
1, 159360, Note_on_c, 0, 79, 96
1, 159360, Note_on_c, 0, 84, 96
1, 159473, Note_off_c, 0, 79, 0
1, 159473, Note_off_c, 0, 84, 0
1, 159480, Note_on_c, 0, 81, 96
1, 159593, Note_off_c, 0, 81, 0
1, 159600, Note_on_c, 0, 79, 96
1, 160511, Note_off_c, 0, 79, 0
1, 160680, Note_on_c, 0, 64, 96
1, 160680, Note_on_c, 0, 69, 96
1, 160793, Note_off_c, 0, 64, 0
1, 160793, Note_off_c, 0, 69, 0
1, 160800, Note_on_c, 0, 64, 96
1, 160800, Note_on_c, 0, 69, 96
1, 160913, Note_off_c, 0, 64, 0
1, 160913, Note_off_c, 0, 69, 0
1, 161040, Note_on_c, 0, 64, 96
1, 161040, Note_on_c, 0, 72, 96
1, 161267, Note_off_c, 0, 64, 0
1, 161267, Note_off_c, 0, 72, 0
1, 161280, Note_on_c, 0, 69, 96
1, 161280, Note_on_c, 0, 74, 96
1, 161735, Note_off_c, 0, 69, 0
1, 162647, Note_off_c, 0, 74, 0
1, 162720, Note_on_c, 0, 76, 96
1, 163175, Note_off_c, 0, 76, 0
1, 163200, Note_on_c, 0, 74, 96
1, 163313, Note_off_c, 0, 74, 0
1, 163320, Note_on_c, 0, 72, 96
1, 163433, Note_off_c, 0, 72, 0
1, 163440, Note_on_c, 0, 69, 96
1, 164351, Note_off_c, 0, 69, 0
1, 164640, Note_on_c, 0, 69, 96
1, 164753, Note_off_c, 0, 69, 0
1, 164760, Note_on_c, 0, 69, 96
1, 164873, Note_off_c, 0, 69, 0
1, 164880, Note_on_c, 0, 72, 96
1, 165107, Note_off_c, 0, 72, 0
1, 165120, Note_on_c, 0, 74, 96
1, 166031, Note_off_c, 0, 74, 0
1, 166080, Note_on_c, 0, 76, 96
1, 166535, Note_off_c, 0, 76, 0
1, 166560, Note_on_c, 0, 76, 96
1, 166673, Note_off_c, 0, 76, 0
1, 166680, Note_on_c, 0, 74, 96
1, 166793, Note_off_c, 0, 74, 0
1, 166800, Note_on_c, 0, 72, 96
1, 167027, Note_off_c, 0, 72, 0
1, 167040, Note_on_c, 0, 71, 96
1, 167040, Note_on_c, 0, 74, 96
1, 167265, Note_off_c, 0, 71, 0
1, 167951, Note_off_c, 0, 74, 0
1, 168360, Note_on_c, 0, 69, 96
1, 168473, Note_off_c, 0, 69, 0
1, 168480, Note_on_c, 0, 69, 96
1, 168707, Note_off_c, 0, 69, 0
1, 168720, Note_on_c, 0, 67, 96
1, 168720, Note_on_c, 0, 72, 96
1, 168947, Note_off_c, 0, 67, 0
1, 168947, Note_off_c, 0, 72, 0
1, 168960, Note_on_c, 0, 69, 96
1, 168960, Note_on_c, 0, 74, 96
1, 169415, Note_off_c, 0, 69, 0
1, 170327, Note_off_c, 0, 74, 0
1, 170400, Note_on_c, 0, 76, 96
1, 170855, Note_off_c, 0, 76, 0
1, 170880, Note_on_c, 0, 66, 96
1, 170880, Note_on_c, 0, 74, 96
1, 170993, Note_off_c, 0, 66, 0
1, 170993, Note_off_c, 0, 74, 0
1, 171000, Note_on_c, 0, 72, 96
1, 171113, Note_off_c, 0, 72, 0
1, 171120, Note_on_c, 0, 62, 96
1, 171120, Note_on_c, 0, 69, 96
1, 171345, Note_off_c, 0, 62, 0
1, 172031, Note_off_c, 0, 69, 0
1, 172320, Note_on_c, 0, 69, 96
1, 172433, Note_off_c, 0, 69, 0
1, 172440, Note_on_c, 0, 69, 96
1, 172553, Note_off_c, 0, 69, 0
1, 172560, Note_on_c, 0, 72, 96
1, 172787, Note_off_c, 0, 72, 0
1, 172800, Note_on_c, 0, 69, 96
1, 172800, Note_on_c, 0, 74, 96
1, 173025, Note_off_c, 0, 69, 0
1, 173711, Note_off_c, 0, 74, 0
1, 173760, Note_on_c, 0, 76, 96
1, 174215, Note_off_c, 0, 76, 0
1, 174240, Note_on_c, 0, 76, 96
1, 174353, Note_off_c, 0, 76, 0
1, 174360, Note_on_c, 0, 74, 96
1, 174473, Note_off_c, 0, 74, 0
1, 174480, Note_on_c, 0, 72, 96
1, 174707, Note_off_c, 0, 72, 0
1, 174720, Note_on_c, 0, 71, 96
1, 174720, Note_on_c, 0, 74, 96
1, 175175, Note_off_c, 0, 71, 0
1, 176543, Note_off_c, 0, 74, 0
1, 176640, Note_on_c, 0, 67, 64
1, 178463, Note_off_c, 0, 67, 0
1, 178587, Note_on_c, 0, 64, 64
1, 178615, Note_on_c, 0, 67, 64
1, 178644, Note_on_c, 0, 72, 64
1, 178678, Note_off_c, 0, 64, 0
1, 178678, Note_off_c, 0, 67, 0
1, 178679, Note_off_c, 0, 72, 0
1, 184385, End_track
2, 0, Start_track
2, 0, Key_signature, 0, "major"
2, 0, MIDI_port, 0
2, 0, Note_on_c, 0, 41, 80
2, 2, Control_c, 0, 64, 127
2, 455, Note_off_c, 0, 41, 0
2, 1920, Note_on_c, 0, 41, 80
2, 1921, Control_c, 0, 64, 0
2, 1922, Control_c, 0, 64, 127
2, 2375, Note_off_c, 0, 41, 0
2, 3840, Note_on_c, 0, 41, 80
2, 3841, Control_c, 0, 64, 0
2, 3842, Control_c, 0, 64, 127
2, 4295, Note_off_c, 0, 41, 0
2, 4320, Note_on_c, 0, 60, 80
2, 4320, Note_on_c, 0, 64, 80
2, 4661, Note_off_c, 0, 60, 0
2, 4661, Note_off_c, 0, 64, 0
2, 4680, Note_on_c, 0, 60, 80
2, 4680, Note_on_c, 0, 64, 80
2, 5021, Note_off_c, 0, 60, 0
2, 5021, Note_off_c, 0, 64, 0
2, 5040, Note_on_c, 0, 60, 80
2, 5040, Note_on_c, 0, 64, 80
2, 5723, Note_off_c, 0, 60, 0
2, 5723, Note_off_c, 0, 64, 0
2, 5760, Note_on_c, 0, 41, 80
2, 5761, Control_c, 0, 64, 0
2, 5762, Control_c, 0, 64, 127
2, 6215, Note_off_c, 0, 41, 0
2, 6240, Note_on_c, 0, 60, 80
2, 6240, Note_on_c, 0, 64, 80
2, 6581, Note_off_c, 0, 60, 0
2, 6581, Note_off_c, 0, 64, 0
2, 6600, Note_on_c, 0, 60, 80
2, 6600, Note_on_c, 0, 64, 80
2, 6941, Note_off_c, 0, 60, 0
2, 6941, Note_off_c, 0, 64, 0
2, 6960, Note_on_c, 0, 60, 80
2, 6960, Note_on_c, 0, 64, 80
2, 7643, Note_off_c, 0, 60, 0
2, 7643, Note_off_c, 0, 64, 0
2, 7681, Control_c, 0, 64, 0
2, 7681, Note_on_c, 0, 41, 80
2, 7682, Control_c, 0, 64, 127
2, 8136, Note_off_c, 0, 41, 0
2, 8161, Note_on_c, 0, 60, 80
2, 8161, Note_on_c, 0, 64, 80
2, 8502, Note_off_c, 0, 60, 0
2, 8502, Note_off_c, 0, 64, 0
2, 8521, Note_on_c, 0, 60, 80
2, 8521, Note_on_c, 0, 64, 80
2, 8862, Note_off_c, 0, 60, 0
2, 8862, Note_off_c, 0, 64, 0
2, 8881, Note_on_c, 0, 60, 80
2, 8881, Note_on_c, 0, 64, 80
2, 9564, Note_off_c, 0, 60, 0
2, 9564, Note_off_c, 0, 64, 0
2, 9600, Note_on_c, 0, 41, 80
2, 9600, Note_on_c, 0, 52, 80
2, 9601, Control_c, 0, 64, 0
2, 9602, Control_c, 0, 64, 127
2, 10055, Note_off_c, 0, 41, 0
2, 10055, Note_off_c, 0, 52, 0
2, 10080, Note_on_c, 0, 60, 80
2, 10080, Note_on_c, 0, 64, 80
2, 10421, Note_off_c, 0, 60, 0
2, 10421, Note_off_c, 0, 64, 0
2, 10440, Note_on_c, 0, 57, 80
2, 10440, Note_on_c, 0, 60, 80
2, 10781, Note_off_c, 0, 57, 0
2, 10781, Note_off_c, 0, 60, 0
2, 10800, Note_on_c, 0, 53, 80
2, 10800, Note_on_c, 0, 57, 80
2, 11255, Note_off_c, 0, 53, 0
2, 11255, Note_off_c, 0, 57, 0
2, 11280, Note_on_c, 0, 41, 80
2, 11507, Note_off_c, 0, 41, 0
2, 11520, Note_on_c, 0, 41, 80
2, 11520, Note_on_c, 0, 52, 80
2, 11521, Control_c, 0, 64, 0
2, 11522, Control_c, 0, 64, 127
2, 11975, Note_off_c, 0, 41, 0
2, 11975, Note_off_c, 0, 52, 0
2, 12000, Note_on_c, 0, 53, 80
2, 12000, Note_on_c, 0, 57, 80
2, 12341, Note_off_c, 0, 53, 0
2, 12341, Note_off_c, 0, 57, 0
2, 12360, Note_on_c, 0, 60, 80
2, 12360, Note_on_c, 0, 64, 80
2, 12701, Note_off_c, 0, 60, 0
2, 12701, Note_off_c, 0, 64, 0
2, 12720, Note_on_c, 0, 52, 80
2, 13175, Note_off_c, 0, 52, 0
2, 13200, Note_on_c, 0, 53, 80
2, 13427, Note_off_c, 0, 53, 0
2, 13440, Note_on_c, 0, 41, 80
2, 13441, Control_c, 0, 64, 0
2, 13442, Control_c, 0, 64, 127
2, 13446, Note_on_c, 0, 52, 80
2, 13895, Note_off_c, 0, 41, 0
2, 13901, Note_off_c, 0, 52, 0
2, 13920, Note_on_c, 0, 60, 76
2, 13920, Note_on_c, 0, 64, 76
2, 14261, Note_off_c, 0, 60, 0
2, 14261, Note_off_c, 0, 64, 0
2, 14280, Note_on_c, 0, 57, 73
2, 14280, Note_on_c, 0, 60, 73
2, 14621, Note_off_c, 0, 57, 0
2, 14621, Note_off_c, 0, 60, 0
2, 14640, Note_on_c, 0, 53, 70
2, 14640, Note_on_c, 0, 57, 70
2, 15095, Note_off_c, 0, 53, 0
2, 15095, Note_off_c, 0, 57, 0
2, 15120, Note_on_c, 0, 41, 66
2, 15347, Note_off_c, 0, 41, 0
2, 15360, Note_on_c, 0, 41, 64
2, 15360, Note_on_c, 0, 52, 64
2, 15361, Control_c, 0, 64, 0
2, 15362, Control_c, 0, 64, 127
2, 15815, Note_off_c, 0, 41, 0
2, 15815, Note_off_c, 0, 52, 0
2, 15840, Note_on_c, 0, 53, 64
2, 15840, Note_on_c, 0, 57, 64
2, 16181, Note_off_c, 0, 53, 0
2, 16181, Note_off_c, 0, 57, 0
2, 16200, Note_on_c, 0, 57, 64
2, 16200, Note_on_c, 0, 60, 64
2, 16200, Note_on_c, 0, 64, 64
2, 16541, Note_off_c, 0, 57, 0
2, 16541, Note_off_c, 0, 60, 0
2, 16541, Note_off_c, 0, 64, 0
2, 16560, Note_on_c, 0, 52, 64
2, 16560, Note_on_c, 0, 57, 64
2, 16785, Note_off_c, 0, 52, 0
2, 17015, Note_off_c, 0, 57, 0
2, 17040, Note_on_c, 0, 53, 64
2, 17267, Note_off_c, 0, 53, 0
2, 17280, Note_on_c, 0, 41, 64
2, 17280, Note_on_c, 0, 52, 64
2, 17281, Control_c, 0, 64, 0
2, 17282, Control_c, 0, 64, 127
2, 17735, Note_off_c, 0, 41, 0
2, 17735, Note_off_c, 0, 52, 0
2, 17760, Note_on_c, 0, 60, 64
2, 17760, Note_on_c, 0, 64, 64
2, 18101, Note_off_c, 0, 60, 0
2, 18101, Note_off_c, 0, 64, 0
2, 18120, Note_on_c, 0, 57, 64
2, 18120, Note_on_c, 0, 60, 64
2, 18461, Note_off_c, 0, 57, 0
2, 18461, Note_off_c, 0, 60, 0
2, 18480, Note_on_c, 0, 53, 64
2, 18480, Note_on_c, 0, 57, 64
2, 18935, Note_off_c, 0, 53, 0
2, 18935, Note_off_c, 0, 57, 0
2, 18960, Note_on_c, 0, 41, 64
2, 19187, Note_off_c, 0, 41, 0
2, 19200, Note_on_c, 0, 41, 64
2, 19200, Note_on_c, 0, 52, 64
2, 19201, Control_c, 0, 64, 0
2, 19202, Control_c, 0, 64, 127
2, 19655, Note_off_c, 0, 41, 0
2, 19655, Note_off_c, 0, 52, 0
2, 19680, Note_on_c, 0, 53, 64
2, 19680, Note_on_c, 0, 57, 64
2, 20021, Note_off_c, 0, 53, 0
2, 20021, Note_off_c, 0, 57, 0
2, 20040, Note_on_c, 0, 60, 64
2, 20040, Note_on_c, 0, 64, 64
2, 20381, Note_off_c, 0, 60, 0
2, 20381, Note_off_c, 0, 64, 0
2, 20400, Note_on_c, 0, 52, 64
2, 20400, Note_on_c, 0, 57, 64
2, 20855, Note_off_c, 0, 52, 0
2, 20855, Note_off_c, 0, 57, 0
2, 20880, Note_on_c, 0, 53, 64
2, 21107, Note_off_c, 0, 53, 0
2, 21120, Note_on_c, 0, 41, 64
2, 21120, Note_on_c, 0, 52, 64
2, 21121, Control_c, 0, 64, 0
2, 21122, Control_c, 0, 64, 127
2, 21575, Note_off_c, 0, 41, 0
2, 21575, Note_off_c, 0, 52, 0
2, 21600, Note_on_c, 0, 60, 64
2, 21600, Note_on_c, 0, 64, 64
2, 21941, Note_off_c, 0, 60, 0
2, 21941, Note_off_c, 0, 64, 0
2, 21960, Note_on_c, 0, 57, 64
2, 21960, Note_on_c, 0, 60, 64
2, 22301, Note_off_c, 0, 57, 0
2, 22301, Note_off_c, 0, 60, 0
2, 22320, Note_on_c, 0, 53, 64
2, 22320, Note_on_c, 0, 57, 64
2, 22547, Note_off_c, 0, 53, 0
2, 22547, Note_off_c, 0, 57, 0
2, 22560, Note_on_c, 0, 52, 64
2, 22673, Note_off_c, 0, 52, 0
2, 22680, Note_on_c, 0, 53, 64
2, 22793, Note_off_c, 0, 53, 0
2, 22800, Note_on_c, 0, 57, 64
2, 22913, Note_off_c, 0, 57, 0
2, 22920, Note_on_c, 0, 60, 64
2, 23033, Note_off_c, 0, 60, 0
2, 23040, Note_on_c, 0, 53, 64
2, 23041, Control_c, 0, 64, 0
2, 23042, Control_c, 0, 64, 127
2, 23495, Note_off_c, 0, 53, 0
2, 23520, Note_on_c, 0, 60, 64
2, 23520, Note_on_c, 0, 64, 64
2, 23861, Note_off_c, 0, 60, 0
2, 23861, Note_off_c, 0, 64, 0
2, 23880, Note_on_c, 0, 60, 64
2, 23880, Note_on_c, 0, 64, 64
2, 24221, Note_off_c, 0, 60, 0
2, 24221, Note_off_c, 0, 64, 0
2, 24240, Note_on_c, 0, 60, 64
2, 24695, Note_off_c, 0, 60, 0
2, 24720, Note_on_c, 0, 57, 64
2, 24947, Note_off_c, 0, 57, 0
2, 24960, Note_on_c, 0, 53, 64
2, 24960, Note_on_c, 0, 64, 64
2, 24961, Control_c, 0, 64, 0
2, 24962, Control_c, 0, 64, 127
2, 25415, Note_off_c, 0, 53, 0
2, 25415, Note_off_c, 0, 64, 0
2, 25440, Note_on_c, 0, 60, 64
2, 25440, Note_on_c, 0, 64, 64
2, 25781, Note_off_c, 0, 60, 0
2, 25781, Note_off_c, 0, 64, 0
2, 25800, Note_on_c, 0, 60, 64
2, 25800, Note_on_c, 0, 64, 64
2, 26141, Note_off_c, 0, 60, 0
2, 26141, Note_off_c, 0, 64, 0
2, 26160, Note_on_c, 0, 53, 64
2, 26160, Note_on_c, 0, 60, 64
2, 26615, Note_off_c, 0, 53, 0
2, 26615, Note_off_c, 0, 60, 0
2, 26640, Note_on_c, 0, 57, 64
2, 26867, Note_off_c, 0, 57, 0
2, 26880, Note_on_c, 0, 53, 64
2, 26880, Note_on_c, 0, 64, 64
2, 26881, Control_c, 0, 64, 0
2, 26882, Control_c, 0, 64, 127
2, 27335, Note_off_c, 0, 53, 0
2, 27335, Note_off_c, 0, 64, 0
2, 27360, Note_on_c, 0, 60, 64
2, 27360, Note_on_c, 0, 64, 64
2, 27701, Note_off_c, 0, 60, 0
2, 27701, Note_off_c, 0, 64, 0
2, 27720, Note_on_c, 0, 60, 64
2, 27720, Note_on_c, 0, 64, 64
2, 28061, Note_off_c, 0, 60, 0
2, 28061, Note_off_c, 0, 64, 0
2, 28080, Note_on_c, 0, 53, 64
2, 28080, Note_on_c, 0, 60, 64
2, 28535, Note_off_c, 0, 53, 0
2, 28535, Note_off_c, 0, 60, 0
2, 28560, Note_on_c, 0, 57, 64
2, 28787, Note_off_c, 0, 57, 0
2, 28800, Note_on_c, 0, 53, 64
2, 28800, Note_on_c, 0, 64, 64
2, 28801, Control_c, 0, 64, 0
2, 28802, Control_c, 0, 64, 127
2, 29255, Note_off_c, 0, 53, 0
2, 29255, Note_off_c, 0, 64, 0
2, 29280, Note_on_c, 0, 60, 68
2, 29280, Note_on_c, 0, 64, 68
2, 29621, Note_off_c, 0, 60, 0
2, 29621, Note_off_c, 0, 64, 0
2, 29640, Note_on_c, 0, 57, 71
2, 29640, Note_on_c, 0, 60, 71
2, 29753, Note_off_c, 0, 57, 0
2, 29753, Note_off_c, 0, 60, 0
2, 29760, Note_on_c, 0, 41, 72
2, 30671, Note_off_c, 0, 41, 0
2, 30720, Note_on_c, 0, 40, 80
2, 30721, Control_c, 0, 64, 0
2, 30722, Control_c, 0, 64, 127
2, 31175, Note_off_c, 0, 40, 0
2, 31200, Note_on_c, 0, 59, 80
2, 31200, Note_on_c, 0, 62, 80
2, 31541, Note_off_c, 0, 59, 0
2, 31541, Note_off_c, 0, 62, 0
2, 31560, Note_on_c, 0, 59, 80
2, 31560, Note_on_c, 0, 62, 80
2, 31901, Note_off_c, 0, 59, 0
2, 31901, Note_off_c, 0, 62, 0
2, 31920, Note_on_c, 0, 59, 80
2, 31920, Note_on_c, 0, 62, 80
2, 32375, Note_off_c, 0, 59, 0
2, 32375, Note_off_c, 0, 62, 0
2, 32400, Note_on_c, 0, 59, 80
2, 32400, Note_on_c, 0, 62, 80
2, 32627, Note_off_c, 0, 59, 0
2, 32627, Note_off_c, 0, 62, 0
2, 32640, Note_on_c, 0, 41, 80
2, 32641, Control_c, 0, 64, 0
2, 32642, Control_c, 0, 64, 127
2, 33095, Note_off_c, 0, 41, 0
2, 33120, Note_on_c, 0, 60, 80
2, 33120, Note_on_c, 0, 64, 80
2, 33461, Note_off_c, 0, 60, 0
2, 33461, Note_off_c, 0, 64, 0
2, 33480, Note_on_c, 0, 60, 80
2, 33480, Note_on_c, 0, 64, 80
2, 33821, Note_off_c, 0, 60, 0
2, 33821, Note_off_c, 0, 64, 0
2, 33840, Note_on_c, 0, 60, 80
2, 33840, Note_on_c, 0, 64, 80
2, 34295, Note_off_c, 0, 60, 0
2, 34295, Note_off_c, 0, 64, 0
2, 34320, Note_on_c, 0, 60, 80
2, 34320, Note_on_c, 0, 64, 80
2, 34547, Note_off_c, 0, 60, 0
2, 34547, Note_off_c, 0, 64, 0
2, 34560, Note_on_c, 0, 40, 80
2, 34561, Control_c, 0, 64, 0
2, 34562, Control_c, 0, 64, 127
2, 35015, Note_off_c, 0, 40, 0
2, 35040, Note_on_c, 0, 59, 80
2, 35040, Note_on_c, 0, 62, 80
2, 35381, Note_off_c, 0, 59, 0
2, 35381, Note_off_c, 0, 62, 0
2, 35400, Note_on_c, 0, 59, 80
2, 35400, Note_on_c, 0, 62, 80
2, 35741, Note_off_c, 0, 59, 0
2, 35741, Note_off_c, 0, 62, 0
2, 35760, Note_on_c, 0, 59, 80
2, 35760, Note_on_c, 0, 62, 80
2, 36215, Note_off_c, 0, 59, 0
2, 36215, Note_off_c, 0, 62, 0
2, 36240, Note_on_c, 0, 59, 80
2, 36240, Note_on_c, 0, 62, 80
2, 36467, Note_off_c, 0, 59, 0
2, 36467, Note_off_c, 0, 62, 0
2, 36480, Note_on_c, 0, 41, 80
2, 36481, Control_c, 0, 64, 0
2, 36482, Control_c, 0, 64, 127
2, 36935, Note_off_c, 0, 41, 0
2, 36960, Note_on_c, 0, 60, 80
2, 36960, Note_on_c, 0, 64, 80
2, 37301, Note_off_c, 0, 60, 0
2, 37301, Note_off_c, 0, 64, 0
2, 37320, Note_on_c, 0, 60, 80
2, 37320, Note_on_c, 0, 64, 80
2, 37661, Note_off_c, 0, 60, 0
2, 37661, Note_off_c, 0, 64, 0
2, 37680, Note_on_c, 0, 60, 80
2, 37680, Note_on_c, 0, 64, 80
2, 38135, Note_off_c, 0, 60, 0
2, 38135, Note_off_c, 0, 64, 0
2, 38160, Note_on_c, 0, 60, 80
2, 38160, Note_on_c, 0, 64, 80
2, 38387, Note_off_c, 0, 60, 0
2, 38387, Note_off_c, 0, 64, 0
2, 38400, Note_on_c, 0, 40, 80
2, 38401, Control_c, 0, 64, 0
2, 38402, Control_c, 0, 64, 127
2, 38855, Note_off_c, 0, 40, 0
2, 38880, Note_on_c, 0, 59, 80
2, 38880, Note_on_c, 0, 62, 80
2, 39221, Note_off_c, 0, 59, 0
2, 39221, Note_off_c, 0, 62, 0
2, 39240, Note_on_c, 0, 59, 80
2, 39240, Note_on_c, 0, 62, 80
2, 39581, Note_off_c, 0, 59, 0
2, 39581, Note_off_c, 0, 62, 0
2, 39600, Note_on_c, 0, 59, 80
2, 39600, Note_on_c, 0, 62, 80
2, 40055, Note_off_c, 0, 59, 0
2, 40055, Note_off_c, 0, 62, 0
2, 40080, Note_on_c, 0, 59, 80
2, 40080, Note_on_c, 0, 62, 80
2, 40307, Note_off_c, 0, 59, 0
2, 40307, Note_off_c, 0, 62, 0
2, 40320, Note_on_c, 0, 41, 80
2, 40321, Control_c, 0, 64, 0
2, 40322, Control_c, 0, 64, 127
2, 40775, Note_off_c, 0, 41, 0
2, 40800, Note_on_c, 0, 60, 80
2, 40800, Note_on_c, 0, 64, 80
2, 41141, Note_off_c, 0, 60, 0
2, 41141, Note_off_c, 0, 64, 0
2, 41160, Note_on_c, 0, 60, 80
2, 41160, Note_on_c, 0, 64, 80
2, 41501, Note_off_c, 0, 60, 0
2, 41501, Note_off_c, 0, 64, 0
2, 41520, Note_on_c, 0, 60, 80
2, 41520, Note_on_c, 0, 64, 80
2, 41975, Note_off_c, 0, 60, 0
2, 41975, Note_off_c, 0, 64, 0
2, 42000, Note_on_c, 0, 60, 80
2, 42000, Note_on_c, 0, 64, 80
2, 42227, Note_off_c, 0, 60, 0
2, 42227, Note_off_c, 0, 64, 0
2, 42240, Note_on_c, 0, 43, 80
2, 42241, Control_c, 0, 64, 0
2, 42242, Control_c, 0, 64, 127
2, 42467, Note_off_c, 0, 43, 0
2, 42480, Note_on_c, 0, 50, 80
2, 42480, Note_on_c, 0, 55, 80
2, 42707, Note_off_c, 0, 50, 0
2, 42707, Note_off_c, 0, 55, 0
2, 42720, Note_on_c, 0, 50, 80
2, 42720, Note_on_c, 0, 55, 80
2, 42947, Note_off_c, 0, 50, 0
2, 42947, Note_off_c, 0, 55, 0
2, 42960, Note_on_c, 0, 50, 80
2, 42960, Note_on_c, 0, 55, 80
2, 43187, Note_off_c, 0, 50, 0
2, 43187, Note_off_c, 0, 55, 0
2, 43200, Note_on_c, 0, 43, 80
2, 43427, Note_off_c, 0, 43, 0
2, 43440, Note_on_c, 0, 55, 80
2, 43440, Note_on_c, 0, 60, 80
2, 43667, Note_off_c, 0, 55, 0
2, 43667, Note_off_c, 0, 60, 0
2, 43680, Note_on_c, 0, 55, 80
2, 43680, Note_on_c, 0, 60, 80
2, 43907, Note_off_c, 0, 55, 0
2, 43907, Note_off_c, 0, 60, 0
2, 43920, Note_on_c, 0, 55, 80
2, 43920, Note_on_c, 0, 60, 80
2, 44147, Note_off_c, 0, 55, 0
2, 44147, Note_off_c, 0, 60, 0
2, 44160, Note_on_c, 0, 43, 80
2, 44161, Control_c, 0, 64, 0
2, 44162, Control_c, 0, 64, 127
2, 44387, Note_off_c, 0, 43, 0
2, 44400, Note_on_c, 0, 59, 82
2, 44400, Note_on_c, 0, 62, 82
2, 44627, Note_off_c, 0, 59, 0
2, 44627, Note_off_c, 0, 62, 0
2, 44640, Note_on_c, 0, 59, 84
2, 44640, Note_on_c, 0, 62, 84
2, 44867, Note_off_c, 0, 59, 0
2, 44867, Note_off_c, 0, 62, 0
2, 44880, Note_on_c, 0, 59, 86
2, 44880, Note_on_c, 0, 62, 86
2, 45107, Note_off_c, 0, 59, 0
2, 45107, Note_off_c, 0, 62, 0
2, 45120, Note_on_c, 0, 59, 88
2, 45120, Note_on_c, 0, 62, 88
2, 45347, Note_off_c, 0, 59, 0
2, 45347, Note_off_c, 0, 62, 0
2, 45360, Note_on_c, 0, 59, 90
2, 45360, Note_on_c, 0, 62, 90
2, 45587, Note_off_c, 0, 59, 0
2, 45587, Note_off_c, 0, 62, 0
2, 45600, Note_on_c, 0, 59, 92
2, 45600, Note_on_c, 0, 62, 92
2, 45827, Note_off_c, 0, 59, 0
2, 45827, Note_off_c, 0, 62, 0
2, 45840, Note_on_c, 0, 59, 94
2, 45840, Note_on_c, 0, 62, 94
2, 46067, Note_off_c, 0, 59, 0
2, 46067, Note_off_c, 0, 62, 0
2, 46080, Note_on_c, 0, 41, 96
2, 46081, Control_c, 0, 64, 0
2, 46082, Control_c, 0, 64, 127
2, 46535, Note_off_c, 0, 41, 0
2, 46560, Note_on_c, 0, 60, 96
2, 46560, Note_on_c, 0, 64, 96
2, 46901, Note_off_c, 0, 60, 0
2, 46901, Note_off_c, 0, 64, 0
2, 46920, Note_on_c, 0, 60, 96
2, 46920, Note_on_c, 0, 64, 96
2, 47261, Note_off_c, 0, 60, 0
2, 47261, Note_off_c, 0, 64, 0
2, 47280, Note_on_c, 0, 60, 96
2, 47280, Note_on_c, 0, 64, 96
2, 47735, Note_off_c, 0, 60, 0
2, 47735, Note_off_c, 0, 64, 0
2, 48000, Note_on_c, 0, 36, 96
2, 48001, Control_c, 0, 64, 0
2, 48002, Control_c, 0, 64, 127
2, 48227, Note_off_c, 0, 36, 0
2, 48240, Note_on_c, 0, 43, 96
2, 48467, Note_off_c, 0, 43, 0
2, 48480, Note_on_c, 0, 55, 96
2, 48480, Note_on_c, 0, 60, 96
2, 48821, Note_off_c, 0, 55, 0
2, 48821, Note_off_c, 0, 60, 0
2, 48840, Note_on_c, 0, 55, 96
2, 48840, Note_on_c, 0, 60, 96
2, 49181, Note_off_c, 0, 55, 0
2, 49181, Note_off_c, 0, 60, 0
2, 49440, Note_on_c, 0, 52, 96
2, 49553, Note_off_c, 0, 52, 0
2, 49560, Note_on_c, 0, 48, 96
2, 49673, Note_off_c, 0, 48, 0
2, 49680, Note_on_c, 0, 43, 96
2, 49793, Note_off_c, 0, 43, 0
2, 49800, Note_on_c, 0, 40, 96
2, 49913, Note_off_c, 0, 40, 0
2, 49920, Note_on_c, 0, 41, 96
2, 49921, Control_c, 0, 64, 0
2, 49922, Control_c, 0, 64, 127
2, 50375, Note_off_c, 0, 41, 0
2, 50400, Note_on_c, 0, 53, 96
2, 50400, Note_on_c, 0, 57, 96
2, 50741, Note_off_c, 0, 53, 0
2, 50741, Note_off_c, 0, 57, 0
2, 50760, Note_on_c, 0, 60, 96
2, 50760, Note_on_c, 0, 64, 96
2, 51101, Note_off_c, 0, 60, 0
2, 51101, Note_off_c, 0, 64, 0
2, 51120, Note_on_c, 0, 53, 96
2, 51120, Note_on_c, 0, 57, 96
2, 51600, Note_on_c, 0, 72, 96
2, 51699, Note_off_c, 0, 72, 0
2, 51720, Note_on_c, 0, 69, 96
2, 51803, Note_off_c, 0, 53, 0
2, 51803, Note_off_c, 0, 57, 0
2, 51840, Note_on_c, 0, 36, 96
2, 51841, Control_c, 0, 64, 0
2, 51842, Control_c, 0, 64, 127
2, 52060, Note_off_c, 0, 69, 0
2, 52067, Note_off_c, 0, 36, 0
2, 52080, Note_on_c, 0, 43, 96
2, 52307, Note_off_c, 0, 43, 0
2, 52320, Note_on_c, 0, 55, 96
2, 52320, Note_on_c, 0, 60, 96
2, 52661, Note_off_c, 0, 55, 0
2, 52661, Note_off_c, 0, 60, 0
2, 52680, Note_on_c, 0, 55, 96
2, 52680, Note_on_c, 0, 60, 96
2, 53021, Note_off_c, 0, 55, 0
2, 53021, Note_off_c, 0, 60, 0
2, 53280, Note_on_c, 0, 52, 96
2, 53393, Note_off_c, 0, 52, 0
2, 53400, Note_on_c, 0, 48, 96
2, 53513, Note_off_c, 0, 48, 0
2, 53520, Note_on_c, 0, 43, 96
2, 53633, Note_off_c, 0, 43, 0
2, 53640, Note_on_c, 0, 40, 96
2, 53753, Note_off_c, 0, 40, 0
2, 53760, Note_on_c, 0, 41, 96
2, 53761, Control_c, 0, 64, 0
2, 53762, Control_c, 0, 64, 127
2, 54215, Note_off_c, 0, 41, 0
2, 54240, Note_on_c, 0, 60, 96
2, 54240, Note_on_c, 0, 64, 96
2, 54581, Note_off_c, 0, 60, 0
2, 54581, Note_off_c, 0, 64, 0
2, 54600, Note_on_c, 0, 60, 96
2, 54600, Note_on_c, 0, 64, 96
2, 54941, Note_off_c, 0, 60, 0
2, 54941, Note_off_c, 0, 64, 0
2, 54960, Note_on_c, 0, 60, 96
2, 54960, Note_on_c, 0, 64, 96
2, 55415, Note_off_c, 0, 60, 0
2, 55415, Note_off_c, 0, 64, 0
2, 55680, Note_on_c, 0, 36, 96
2, 55681, Control_c, 0, 64, 0
2, 55682, Control_c, 0, 64, 127
2, 56135, Note_off_c, 0, 36, 0
2, 56160, Note_on_c, 0, 55, 96
2, 56160, Note_on_c, 0, 60, 96
2, 56501, Note_off_c, 0, 55, 0
2, 56501, Note_off_c, 0, 60, 0
2, 56520, Note_on_c, 0, 55, 96
2, 56520, Note_on_c, 0, 60, 96
2, 56861, Note_off_c, 0, 55, 0
2, 56861, Note_off_c, 0, 60, 0
2, 56880, Note_on_c, 0, 55, 96
2, 56880, Note_on_c, 0, 60, 96
2, 57335, Note_off_c, 0, 55, 0
2, 57335, Note_off_c, 0, 60, 0
2, 57360, Note_on_c, 0, 55, 96
2, 57360, Note_on_c, 0, 60, 96
2, 57587, Note_off_c, 0, 55, 0
2, 57587, Note_off_c, 0, 60, 0
2, 57600, Note_on_c, 0, 38, 96
2, 57601, Control_c, 0, 64, 0
2, 57602, Control_c, 0, 64, 127
2, 58055, Note_off_c, 0, 38, 0
2, 58080, Note_on_c, 0, 54, 96
2, 58080, Note_on_c, 0, 57, 96
2, 58421, Note_off_c, 0, 54, 0
2, 58421, Note_off_c, 0, 57, 0
2, 58440, Note_on_c, 0, 54, 96
2, 58440, Note_on_c, 0, 57, 96
2, 58781, Note_off_c, 0, 54, 0
2, 58781, Note_off_c, 0, 57, 0
2, 58800, Note_on_c, 0, 54, 96
2, 58800, Note_on_c, 0, 57, 96
2, 59141, Note_off_c, 0, 54, 0
2, 59141, Note_off_c, 0, 57, 0
2, 59160, Note_on_c, 0, 54, 96
2, 59160, Note_on_c, 0, 57, 96
2, 59501, Note_off_c, 0, 54, 0
2, 59501, Note_off_c, 0, 57, 0
2, 59520, Note_on_c, 0, 38, 96
2, 59521, Control_c, 0, 64, 0
2, 59522, Control_c, 0, 64, 127
2, 59975, Note_off_c, 0, 38, 0
2, 60000, Note_on_c, 0, 54, 96
2, 60000, Note_on_c, 0, 57, 96
2, 60341, Note_off_c, 0, 54, 0
2, 60341, Note_off_c, 0, 57, 0
2, 60360, Note_on_c, 0, 54, 96
2, 60360, Note_on_c, 0, 57, 96
2, 60701, Note_off_c, 0, 54, 0
2, 60701, Note_off_c, 0, 57, 0
2, 60720, Note_on_c, 0, 54, 96
2, 60720, Note_on_c, 0, 57, 96
2, 61061, Note_off_c, 0, 54, 0
2, 61061, Note_off_c, 0, 57, 0
2, 61080, Note_on_c, 0, 54, 96
2, 61080, Note_on_c, 0, 57, 96
2, 61421, Note_off_c, 0, 54, 0
2, 61421, Note_off_c, 0, 57, 0
2, 61440, Note_on_c, 0, 38, 96
2, 61441, Control_c, 0, 64, 0
2, 61442, Control_c, 0, 64, 127
2, 61667, Note_off_c, 0, 38, 0
2, 61680, Note_on_c, 0, 57, 96
2, 61680, Note_on_c, 0, 60, 96
2, 61907, Note_off_c, 0, 57, 0
2, 61907, Note_off_c, 0, 60, 0
2, 61920, Note_on_c, 0, 57, 96
2, 61920, Note_on_c, 0, 60, 96
2, 62147, Note_off_c, 0, 57, 0
2, 62147, Note_off_c, 0, 60, 0
2, 62160, Note_on_c, 0, 57, 96
2, 62160, Note_on_c, 0, 60, 96
2, 62387, Note_off_c, 0, 57, 0
2, 62387, Note_off_c, 0, 60, 0
2, 62400, Note_on_c, 0, 57, 96
2, 62400, Note_on_c, 0, 60, 96
2, 62627, Note_off_c, 0, 57, 0
2, 62627, Note_off_c, 0, 60, 0
2, 62640, Note_on_c, 0, 57, 96
2, 62640, Note_on_c, 0, 60, 96
2, 62867, Note_off_c, 0, 57, 0
2, 62867, Note_off_c, 0, 60, 0
2, 62880, Note_on_c, 0, 55, 96
2, 62880, Note_on_c, 0, 60, 96
2, 63335, Note_off_c, 0, 55, 0
2, 63335, Note_off_c, 0, 60, 0
2, 63360, Note_on_c, 0, 43, 96
2, 63361, Control_c, 0, 64, 0
2, 63362, Control_c, 0, 64, 127
2, 63815, Note_off_c, 0, 43, 0
2, 63840, Note_on_c, 0, 60, 96
2, 64181, Note_off_c, 0, 60, 0
2, 64200, Note_on_c, 0, 59, 96
2, 65225, Note_off_c, 0, 59, 0
2, 65280, Note_on_c, 0, 41, 64
2, 65280, Note_on_c, 0, 52, 64
2, 65281, Control_c, 0, 64, 0
2, 65282, Control_c, 0, 64, 127
2, 65735, Note_off_c, 0, 41, 0
2, 65735, Note_off_c, 0, 52, 0
2, 65760, Note_on_c, 0, 53, 64
2, 65760, Note_on_c, 0, 57, 64
2, 66101, Note_off_c, 0, 53, 0
2, 66101, Note_off_c, 0, 57, 0
2, 66120, Note_on_c, 0, 57, 64
2, 66120, Note_on_c, 0, 60, 64
2, 66120, Note_on_c, 0, 64, 64
2, 66461, Note_off_c, 0, 57, 0
2, 66461, Note_off_c, 0, 60, 0
2, 66461, Note_off_c, 0, 64, 0
2, 66480, Note_on_c, 0, 52, 64
2, 66480, Note_on_c, 0, 57, 64
2, 66705, Note_off_c, 0, 52, 0
2, 66935, Note_off_c, 0, 57, 0
2, 66960, Note_on_c, 0, 53, 64
2, 67187, Note_off_c, 0, 53, 0
2, 67200, Note_on_c, 0, 41, 64
2, 67200, Note_on_c, 0, 52, 64
2, 67201, Control_c, 0, 64, 0
2, 67202, Control_c, 0, 64, 127
2, 67655, Note_off_c, 0, 41, 0
2, 67655, Note_off_c, 0, 52, 0
2, 67680, Note_on_c, 0, 60, 64
2, 67680, Note_on_c, 0, 64, 64
2, 68021, Note_off_c, 0, 60, 0
2, 68021, Note_off_c, 0, 64, 0
2, 68040, Note_on_c, 0, 57, 64
2, 68040, Note_on_c, 0, 60, 64
2, 68381, Note_off_c, 0, 57, 0
2, 68381, Note_off_c, 0, 60, 0
2, 68400, Note_on_c, 0, 53, 64
2, 68400, Note_on_c, 0, 57, 64
2, 68855, Note_off_c, 0, 53, 0
2, 68855, Note_off_c, 0, 57, 0
2, 68880, Note_on_c, 0, 41, 64
2, 69107, Note_off_c, 0, 41, 0
2, 69120, Note_on_c, 0, 41, 64
2, 69120, Note_on_c, 0, 52, 64
2, 69121, Control_c, 0, 64, 0
2, 69122, Control_c, 0, 64, 127
2, 69575, Note_off_c, 0, 41, 0
2, 69575, Note_off_c, 0, 52, 0
2, 69600, Note_on_c, 0, 53, 64
2, 69600, Note_on_c, 0, 57, 64
2, 69941, Note_off_c, 0, 53, 0
2, 69941, Note_off_c, 0, 57, 0
2, 69960, Note_on_c, 0, 60, 64
2, 69960, Note_on_c, 0, 64, 64
2, 70301, Note_off_c, 0, 60, 0
2, 70301, Note_off_c, 0, 64, 0
2, 70320, Note_on_c, 0, 52, 64
2, 70320, Note_on_c, 0, 57, 64
2, 70775, Note_off_c, 0, 52, 0
2, 70775, Note_off_c, 0, 57, 0
2, 70800, Note_on_c, 0, 53, 64
2, 71027, Note_off_c, 0, 53, 0
2, 71040, Note_on_c, 0, 41, 64
2, 71040, Note_on_c, 0, 52, 64
2, 71041, Control_c, 0, 64, 0
2, 71042, Control_c, 0, 64, 127
2, 71495, Note_off_c, 0, 41, 0
2, 71495, Note_off_c, 0, 52, 0
2, 71520, Note_on_c, 0, 60, 64
2, 71520, Note_on_c, 0, 64, 64
2, 71861, Note_off_c, 0, 60, 0
2, 71861, Note_off_c, 0, 64, 0
2, 71880, Note_on_c, 0, 57, 64
2, 71880, Note_on_c, 0, 60, 64
2, 72221, Note_off_c, 0, 57, 0
2, 72221, Note_off_c, 0, 60, 0
2, 72240, Note_on_c, 0, 53, 64
2, 72240, Note_on_c, 0, 57, 64
2, 72467, Note_off_c, 0, 53, 0
2, 72467, Note_off_c, 0, 57, 0
2, 72480, Note_on_c, 0, 52, 64
2, 72593, Note_off_c, 0, 52, 0
2, 72600, Note_on_c, 0, 53, 64
2, 72713, Note_off_c, 0, 53, 0
2, 72720, Note_on_c, 0, 57, 64
2, 72833, Note_off_c, 0, 57, 0
2, 72840, Note_on_c, 0, 60, 64
2, 72953, Note_off_c, 0, 60, 0
2, 72960, Note_on_c, 0, 53, 64
2, 72960, Note_on_c, 0, 64, 64
2, 72961, Control_c, 0, 64, 0
2, 72962, Control_c, 0, 64, 127
2, 73415, Note_off_c, 0, 53, 0
2, 73415, Note_off_c, 0, 64, 0
2, 73440, Note_on_c, 0, 60, 64
2, 73440, Note_on_c, 0, 64, 64
2, 73781, Note_off_c, 0, 60, 0
2, 73781, Note_off_c, 0, 64, 0
2, 73800, Note_on_c, 0, 60, 64
2, 73800, Note_on_c, 0, 64, 64
2, 74141, Note_off_c, 0, 60, 0
2, 74141, Note_off_c, 0, 64, 0
2, 74160, Note_on_c, 0, 53, 64
2, 74160, Note_on_c, 0, 60, 64
2, 74615, Note_off_c, 0, 53, 0
2, 74615, Note_off_c, 0, 60, 0
2, 74640, Note_on_c, 0, 57, 64
2, 74867, Note_off_c, 0, 57, 0
2, 74880, Note_on_c, 0, 53, 64
2, 74880, Note_on_c, 0, 64, 64
2, 74881, Control_c, 0, 64, 0
2, 74882, Control_c, 0, 64, 127
2, 75335, Note_off_c, 0, 53, 0
2, 75335, Note_off_c, 0, 64, 0
2, 75360, Note_on_c, 0, 60, 64
2, 75360, Note_on_c, 0, 64, 64
2, 75701, Note_off_c, 0, 60, 0
2, 75701, Note_off_c, 0, 64, 0
2, 75720, Note_on_c, 0, 60, 64
2, 75720, Note_on_c, 0, 64, 64
2, 76061, Note_off_c, 0, 60, 0
2, 76061, Note_off_c, 0, 64, 0
2, 76080, Note_on_c, 0, 53, 64
2, 76080, Note_on_c, 0, 60, 64
2, 76535, Note_off_c, 0, 53, 0
2, 76535, Note_off_c, 0, 60, 0
2, 76560, Note_on_c, 0, 57, 64
2, 76787, Note_off_c, 0, 57, 0
2, 76800, Note_on_c, 0, 53, 64
2, 76800, Note_on_c, 0, 57, 64
2, 76800, Note_on_c, 0, 64, 64
2, 76801, Control_c, 0, 64, 0
2, 76802, Control_c, 0, 64, 127
2, 77255, Note_off_c, 0, 53, 0
2, 77255, Note_off_c, 0, 57, 0
2, 77255, Note_off_c, 0, 64, 0
2, 77280, Note_on_c, 0, 60, 64
2, 77280, Note_on_c, 0, 64, 64
2, 77621, Note_off_c, 0, 60, 0
2, 77621, Note_off_c, 0, 64, 0
2, 77640, Note_on_c, 0, 60, 64
2, 77640, Note_on_c, 0, 64, 64
2, 77981, Note_off_c, 0, 60, 0
2, 77981, Note_off_c, 0, 64, 0
2, 78000, Note_on_c, 0, 53, 64
2, 78000, Note_on_c, 0, 60, 64
2, 78455, Note_off_c, 0, 53, 0
2, 78455, Note_off_c, 0, 60, 0
2, 78480, Note_on_c, 0, 53, 64
2, 78707, Note_off_c, 0, 53, 0
2, 78720, Note_on_c, 0, 53, 64
2, 78720, Note_on_c, 0, 60, 64
2, 78720, Note_on_c, 0, 64, 64
2, 78721, Control_c, 0, 64, 0
2, 78722, Control_c, 0, 64, 127
2, 79175, Note_off_c, 0, 53, 0
2, 79175, Note_off_c, 0, 60, 0
2, 79175, Note_off_c, 0, 64, 0
2, 79200, Note_on_c, 0, 60, 68
2, 79200, Note_on_c, 0, 64, 68
2, 79427, Note_off_c, 0, 60, 0
2, 79427, Note_off_c, 0, 64, 0
2, 79680, Note_on_c, 0, 41, 72
2, 80591, Note_off_c, 0, 41, 0
2, 80640, Note_on_c, 0, 40, 80
2, 80641, Control_c, 0, 64, 0
2, 80642, Control_c, 0, 64, 127
2, 81095, Note_off_c, 0, 40, 0
2, 81120, Note_on_c, 0, 59, 80
2, 81120, Note_on_c, 0, 62, 80
2, 81461, Note_off_c, 0, 59, 0
2, 81461, Note_off_c, 0, 62, 0
2, 81480, Note_on_c, 0, 59, 80
2, 81480, Note_on_c, 0, 62, 80
2, 81821, Note_off_c, 0, 59, 0
2, 81821, Note_off_c, 0, 62, 0
2, 81840, Note_on_c, 0, 59, 80
2, 81840, Note_on_c, 0, 62, 80
2, 82295, Note_off_c, 0, 59, 0
2, 82295, Note_off_c, 0, 62, 0
2, 82320, Note_on_c, 0, 59, 80
2, 82320, Note_on_c, 0, 62, 80
2, 82547, Note_off_c, 0, 59, 0
2, 82547, Note_off_c, 0, 62, 0
2, 82560, Note_on_c, 0, 41, 80
2, 82561, Control_c, 0, 64, 0
2, 82562, Control_c, 0, 64, 127
2, 83015, Note_off_c, 0, 41, 0
2, 83040, Note_on_c, 0, 60, 80
2, 83040, Note_on_c, 0, 64, 80
2, 83381, Note_off_c, 0, 60, 0
2, 83381, Note_off_c, 0, 64, 0
2, 83400, Note_on_c, 0, 60, 80
2, 83400, Note_on_c, 0, 64, 80
2, 83741, Note_off_c, 0, 60, 0
2, 83741, Note_off_c, 0, 64, 0
2, 83760, Note_on_c, 0, 60, 80
2, 83760, Note_on_c, 0, 64, 80
2, 84215, Note_off_c, 0, 60, 0
2, 84215, Note_off_c, 0, 64, 0
2, 84240, Note_on_c, 0, 60, 80
2, 84240, Note_on_c, 0, 64, 80
2, 84467, Note_off_c, 0, 60, 0
2, 84467, Note_off_c, 0, 64, 0
2, 84480, Note_on_c, 0, 40, 80
2, 84481, Control_c, 0, 64, 0
2, 84482, Control_c, 0, 64, 127
2, 84935, Note_off_c, 0, 40, 0
2, 84960, Note_on_c, 0, 59, 80
2, 84960, Note_on_c, 0, 62, 80
2, 85301, Note_off_c, 0, 59, 0
2, 85301, Note_off_c, 0, 62, 0
2, 85320, Note_on_c, 0, 59, 80
2, 85320, Note_on_c, 0, 62, 80
2, 85661, Note_off_c, 0, 59, 0
2, 85661, Note_off_c, 0, 62, 0
2, 85680, Note_on_c, 0, 59, 80
2, 85680, Note_on_c, 0, 62, 80
2, 86135, Note_off_c, 0, 59, 0
2, 86135, Note_off_c, 0, 62, 0
2, 86160, Note_on_c, 0, 59, 80
2, 86160, Note_on_c, 0, 62, 80
2, 86387, Note_off_c, 0, 59, 0
2, 86387, Note_off_c, 0, 62, 0
2, 86400, Note_on_c, 0, 41, 80
2, 86401, Control_c, 0, 64, 0
2, 86402, Control_c, 0, 64, 127
2, 86855, Note_off_c, 0, 41, 0
2, 86880, Note_on_c, 0, 60, 80
2, 86880, Note_on_c, 0, 64, 80
2, 87221, Note_off_c, 0, 60, 0
2, 87221, Note_off_c, 0, 64, 0
2, 87240, Note_on_c, 0, 60, 80
2, 87240, Note_on_c, 0, 64, 80
2, 87581, Note_off_c, 0, 60, 0
2, 87581, Note_off_c, 0, 64, 0
2, 87600, Note_on_c, 0, 60, 80
2, 87600, Note_on_c, 0, 64, 80
2, 88055, Note_off_c, 0, 60, 0
2, 88055, Note_off_c, 0, 64, 0
2, 88080, Note_on_c, 0, 60, 80
2, 88080, Note_on_c, 0, 64, 80
2, 88307, Note_off_c, 0, 60, 0
2, 88307, Note_off_c, 0, 64, 0
2, 88320, Note_on_c, 0, 40, 80
2, 88321, Control_c, 0, 64, 0
2, 88322, Control_c, 0, 64, 127
2, 88775, Note_off_c, 0, 40, 0
2, 88800, Note_on_c, 0, 59, 80
2, 88800, Note_on_c, 0, 62, 80
2, 89141, Note_off_c, 0, 59, 0
2, 89141, Note_off_c, 0, 62, 0
2, 89160, Note_on_c, 0, 59, 80
2, 89160, Note_on_c, 0, 62, 80
2, 89501, Note_off_c, 0, 59, 0
2, 89501, Note_off_c, 0, 62, 0
2, 89520, Note_on_c, 0, 59, 80
2, 89520, Note_on_c, 0, 62, 80
2, 89975, Note_off_c, 0, 59, 0
2, 89975, Note_off_c, 0, 62, 0
2, 90000, Note_on_c, 0, 59, 80
2, 90000, Note_on_c, 0, 62, 80
2, 90227, Note_off_c, 0, 59, 0
2, 90227, Note_off_c, 0, 62, 0
2, 90240, Note_on_c, 0, 41, 80
2, 90241, Control_c, 0, 64, 0
2, 90242, Control_c, 0, 64, 127
2, 90695, Note_off_c, 0, 41, 0
2, 90720, Note_on_c, 0, 60, 80
2, 90720, Note_on_c, 0, 64, 80
2, 91061, Note_off_c, 0, 60, 0
2, 91061, Note_off_c, 0, 64, 0
2, 91080, Note_on_c, 0, 60, 80
2, 91080, Note_on_c, 0, 64, 80
2, 91421, Note_off_c, 0, 60, 0
2, 91421, Note_off_c, 0, 64, 0
2, 91440, Note_on_c, 0, 60, 80
2, 91440, Note_on_c, 0, 64, 80
2, 91895, Note_off_c, 0, 60, 0
2, 91895, Note_off_c, 0, 64, 0
2, 91920, Note_on_c, 0, 60, 80
2, 91920, Note_on_c, 0, 64, 80
2, 92147, Note_off_c, 0, 60, 0
2, 92147, Note_off_c, 0, 64, 0
2, 92160, Note_on_c, 0, 43, 80
2, 92161, Control_c, 0, 64, 0
2, 92162, Control_c, 0, 64, 127
2, 92387, Note_off_c, 0, 43, 0
2, 92400, Note_on_c, 0, 50, 80
2, 92400, Note_on_c, 0, 55, 80
2, 92627, Note_off_c, 0, 50, 0
2, 92627, Note_off_c, 0, 55, 0
2, 92640, Note_on_c, 0, 50, 80
2, 92640, Note_on_c, 0, 55, 80
2, 92867, Note_off_c, 0, 50, 0
2, 92867, Note_off_c, 0, 55, 0
2, 92880, Note_on_c, 0, 50, 80
2, 92880, Note_on_c, 0, 55, 80
2, 93107, Note_off_c, 0, 50, 0
2, 93107, Note_off_c, 0, 55, 0
2, 93120, Note_on_c, 0, 43, 80
2, 93347, Note_off_c, 0, 43, 0
2, 93360, Note_on_c, 0, 55, 80
2, 93360, Note_on_c, 0, 60, 80
2, 93587, Note_off_c, 0, 55, 0
2, 93587, Note_off_c, 0, 60, 0
2, 93600, Note_on_c, 0, 55, 80
2, 93600, Note_on_c, 0, 60, 80
2, 93827, Note_off_c, 0, 55, 0
2, 93827, Note_off_c, 0, 60, 0
2, 93840, Note_on_c, 0, 55, 80
2, 93840, Note_on_c, 0, 60, 80
2, 94067, Note_off_c, 0, 55, 0
2, 94067, Note_off_c, 0, 60, 0
2, 94080, Note_on_c, 0, 43, 80
2, 94081, Control_c, 0, 64, 0
2, 94082, Control_c, 0, 64, 127
2, 94307, Note_off_c, 0, 43, 0
2, 94320, Note_on_c, 0, 59, 82
2, 94320, Note_on_c, 0, 62, 82
2, 94547, Note_off_c, 0, 59, 0
2, 94547, Note_off_c, 0, 62, 0
2, 94560, Note_on_c, 0, 59, 84
2, 94560, Note_on_c, 0, 62, 84
2, 94787, Note_off_c, 0, 59, 0
2, 94787, Note_off_c, 0, 62, 0
2, 94800, Note_on_c, 0, 59, 86
2, 94800, Note_on_c, 0, 62, 86
2, 95027, Note_off_c, 0, 59, 0
2, 95027, Note_off_c, 0, 62, 0
2, 95040, Note_on_c, 0, 59, 88
2, 95040, Note_on_c, 0, 62, 88
2, 95267, Note_off_c, 0, 59, 0
2, 95267, Note_off_c, 0, 62, 0
2, 95280, Note_on_c, 0, 59, 90
2, 95280, Note_on_c, 0, 62, 90
2, 95507, Note_off_c, 0, 59, 0
2, 95507, Note_off_c, 0, 62, 0
2, 95520, Note_on_c, 0, 59, 92
2, 95520, Note_on_c, 0, 62, 92
2, 95747, Note_off_c, 0, 59, 0
2, 95747, Note_off_c, 0, 62, 0
2, 95760, Note_on_c, 0, 59, 94
2, 95760, Note_on_c, 0, 62, 94
2, 95987, Note_off_c, 0, 59, 0
2, 95987, Note_off_c, 0, 62, 0
2, 96000, Note_on_c, 0, 41, 96
2, 96001, Control_c, 0, 64, 0
2, 96002, Control_c, 0, 64, 127
2, 96455, Note_off_c, 0, 41, 0
2, 96480, Note_on_c, 0, 60, 96
2, 96480, Note_on_c, 0, 64, 96
2, 96821, Note_off_c, 0, 60, 0
2, 96821, Note_off_c, 0, 64, 0
2, 96840, Note_on_c, 0, 60, 96
2, 96840, Note_on_c, 0, 64, 96
2, 97181, Note_off_c, 0, 60, 0
2, 97181, Note_off_c, 0, 64, 0
2, 97200, Note_on_c, 0, 60, 96
2, 97200, Note_on_c, 0, 64, 96
2, 97655, Note_off_c, 0, 60, 0
2, 97655, Note_off_c, 0, 64, 0
2, 97920, Note_on_c, 0, 36, 96
2, 97921, Control_c, 0, 64, 0
2, 97922, Control_c, 0, 64, 127
2, 98147, Note_off_c, 0, 36, 0
2, 98160, Note_on_c, 0, 43, 96
2, 98387, Note_off_c, 0, 43, 0
2, 98400, Note_on_c, 0, 55, 96
2, 98400, Note_on_c, 0, 60, 96
2, 98741, Note_off_c, 0, 55, 0
2, 98741, Note_off_c, 0, 60, 0
2, 98760, Note_on_c, 0, 55, 96
2, 98760, Note_on_c, 0, 60, 96
2, 99101, Note_off_c, 0, 55, 0
2, 99101, Note_off_c, 0, 60, 0
2, 99360, Note_on_c, 0, 52, 96
2, 99473, Note_off_c, 0, 52, 0
2, 99480, Note_on_c, 0, 48, 96
2, 99593, Note_off_c, 0, 48, 0
2, 99600, Note_on_c, 0, 43, 96
2, 99713, Note_off_c, 0, 43, 0
2, 99720, Note_on_c, 0, 40, 96
2, 99833, Note_off_c, 0, 40, 0
2, 99840, Note_on_c, 0, 41, 96
2, 99841, Control_c, 0, 64, 0
2, 99842, Control_c, 0, 64, 127
2, 100295, Note_off_c, 0, 41, 0
2, 100320, Note_on_c, 0, 53, 96
2, 100320, Note_on_c, 0, 57, 96
2, 100661, Note_off_c, 0, 53, 0
2, 100661, Note_off_c, 0, 57, 0
2, 100680, Note_on_c, 0, 60, 96
2, 100680, Note_on_c, 0, 64, 96
2, 101021, Note_off_c, 0, 60, 0
2, 101021, Note_off_c, 0, 64, 0
2, 101040, Note_on_c, 0, 53, 96
2, 101040, Note_on_c, 0, 57, 96
2, 101723, Note_off_c, 0, 53, 0
2, 101723, Note_off_c, 0, 57, 0
2, 101760, Note_on_c, 0, 36, 96
2, 101761, Control_c, 0, 64, 0
2, 101762, Control_c, 0, 64, 127
2, 101987, Note_off_c, 0, 36, 0
2, 102000, Note_on_c, 0, 43, 96
2, 102227, Note_off_c, 0, 43, 0
2, 102240, Note_on_c, 0, 55, 96
2, 102240, Note_on_c, 0, 60, 96
2, 102581, Note_off_c, 0, 55, 0
2, 102581, Note_off_c, 0, 60, 0
2, 102600, Note_on_c, 0, 55, 96
2, 102600, Note_on_c, 0, 60, 96
2, 102941, Note_off_c, 0, 55, 0
2, 102941, Note_off_c, 0, 60, 0
2, 103200, Note_on_c, 0, 52, 96
2, 103313, Note_off_c, 0, 52, 0
2, 103320, Note_on_c, 0, 48, 96
2, 103433, Note_off_c, 0, 48, 0
2, 103440, Note_on_c, 0, 43, 96
2, 103553, Note_off_c, 0, 43, 0
2, 103560, Note_on_c, 0, 40, 96
2, 103673, Note_off_c, 0, 40, 0
2, 103680, Note_on_c, 0, 41, 96
2, 103681, Control_c, 0, 64, 0
2, 103682, Control_c, 0, 64, 127
2, 104135, Note_off_c, 0, 41, 0
2, 104160, Note_on_c, 0, 60, 96
2, 104160, Note_on_c, 0, 64, 96
2, 104501, Note_off_c, 0, 60, 0
2, 104501, Note_off_c, 0, 64, 0
2, 104520, Note_on_c, 0, 60, 96
2, 104520, Note_on_c, 0, 64, 96
2, 104861, Note_off_c, 0, 60, 0
2, 104861, Note_off_c, 0, 64, 0
2, 104880, Note_on_c, 0, 60, 96
2, 104880, Note_on_c, 0, 64, 96
2, 105335, Note_off_c, 0, 60, 0
2, 105335, Note_off_c, 0, 64, 0
2, 105600, Note_on_c, 0, 36, 96
2, 105601, Control_c, 0, 64, 0
2, 105602, Control_c, 0, 64, 127
2, 106055, Note_off_c, 0, 36, 0
2, 106080, Note_on_c, 0, 55, 92
2, 106080, Note_on_c, 0, 60, 92
2, 106421, Note_off_c, 0, 55, 0
2, 106421, Note_off_c, 0, 60, 0
2, 106440, Note_on_c, 0, 55, 89
2, 106440, Note_on_c, 0, 60, 89
2, 106781, Note_off_c, 0, 55, 0
2, 106781, Note_off_c, 0, 60, 0
2, 106800, Note_on_c, 0, 55, 86
2, 106800, Note_on_c, 0, 60, 86
2, 107255, Note_off_c, 0, 55, 0
2, 107255, Note_off_c, 0, 60, 0
2, 107280, Note_on_c, 0, 55, 82
2, 107280, Note_on_c, 0, 60, 82
2, 107507, Note_off_c, 0, 55, 0
2, 107507, Note_off_c, 0, 60, 0
2, 107520, Note_on_c, 0, 38, 80
2, 107521, Control_c, 0, 64, 0
2, 107522, Control_c, 0, 64, 127
2, 107975, Note_off_c, 0, 38, 0
2, 108000, Note_on_c, 0, 54, 80
2, 108000, Note_on_c, 0, 57, 80
2, 108341, Note_off_c, 0, 54, 0
2, 108341, Note_off_c, 0, 57, 0
2, 108360, Note_on_c, 0, 54, 80
2, 108360, Note_on_c, 0, 57, 80
2, 108701, Note_off_c, 0, 54, 0
2, 108701, Note_off_c, 0, 57, 0
2, 108720, Note_on_c, 0, 54, 80
2, 108720, Note_on_c, 0, 57, 80
2, 109061, Note_off_c, 0, 54, 0
2, 109061, Note_off_c, 0, 57, 0
2, 109080, Note_on_c, 0, 54, 80
2, 109080, Note_on_c, 0, 57, 80
2, 109421, Note_off_c, 0, 54, 0
2, 109421, Note_off_c, 0, 57, 0
2, 109440, Note_on_c, 0, 38, 80
2, 109441, Control_c, 0, 64, 0
2, 109442, Control_c, 0, 64, 127
2, 109895, Note_off_c, 0, 38, 0
2, 109920, Note_on_c, 0, 54, 80
2, 109920, Note_on_c, 0, 57, 80
2, 110261, Note_off_c, 0, 54, 0
2, 110261, Note_off_c, 0, 57, 0
2, 110280, Note_on_c, 0, 54, 80
2, 110280, Note_on_c, 0, 57, 80
2, 110621, Note_off_c, 0, 54, 0
2, 110621, Note_off_c, 0, 57, 0
2, 110640, Note_on_c, 0, 54, 80
2, 110640, Note_on_c, 0, 57, 80
2, 110981, Note_off_c, 0, 54, 0
2, 110981, Note_off_c, 0, 57, 0
2, 111000, Note_on_c, 0, 54, 80
2, 111000, Note_on_c, 0, 57, 80
2, 111341, Note_off_c, 0, 54, 0
2, 111341, Note_off_c, 0, 57, 0
2, 111360, Note_on_c, 0, 38, 80
2, 111361, Control_c, 0, 64, 0
2, 111362, Control_c, 0, 64, 127
2, 111587, Note_off_c, 0, 38, 0
2, 111600, Note_on_c, 0, 57, 80
2, 111600, Note_on_c, 0, 60, 80
2, 111827, Note_off_c, 0, 57, 0
2, 111827, Note_off_c, 0, 60, 0
2, 111840, Note_on_c, 0, 57, 80
2, 111840, Note_on_c, 0, 60, 80
2, 112067, Note_off_c, 0, 57, 0
2, 112067, Note_off_c, 0, 60, 0
2, 112080, Note_on_c, 0, 57, 80
2, 112080, Note_on_c, 0, 60, 80
2, 112307, Note_off_c, 0, 57, 0
2, 112307, Note_off_c, 0, 60, 0
2, 112320, Note_on_c, 0, 57, 80
2, 112320, Note_on_c, 0, 60, 80
2, 112547, Note_off_c, 0, 57, 0
2, 112547, Note_off_c, 0, 60, 0
2, 112560, Note_on_c, 0, 57, 80
2, 112560, Note_on_c, 0, 60, 80
2, 112787, Note_off_c, 0, 57, 0
2, 112787, Note_off_c, 0, 60, 0
2, 112800, Note_on_c, 0, 55, 80
2, 112800, Note_on_c, 0, 60, 80
2, 113027, Note_off_c, 0, 55, 0
2, 113027, Note_off_c, 0, 60, 0
2, 113040, Note_on_c, 0, 55, 80
2, 113040, Note_on_c, 0, 60, 80
2, 113267, Note_off_c, 0, 55, 0
2, 113267, Note_off_c, 0, 60, 0
2, 113280, Note_on_c, 0, 43, 80
2, 113281, Control_c, 0, 64, 0
2, 113282, Control_c, 0, 64, 127
2, 113507, Note_off_c, 0, 43, 0
2, 113520, Note_on_c, 0, 59, 82
2, 113520, Note_on_c, 0, 62, 82
2, 113747, Note_off_c, 0, 59, 0
2, 113747, Note_off_c, 0, 62, 0
2, 113760, Note_on_c, 0, 59, 84
2, 113760, Note_on_c, 0, 62, 84
2, 113987, Note_off_c, 0, 59, 0
2, 113987, Note_off_c, 0, 62, 0
2, 114000, Note_on_c, 0, 59, 86
2, 114000, Note_on_c, 0, 62, 86
2, 114227, Note_off_c, 0, 59, 0
2, 114227, Note_off_c, 0, 62, 0
2, 114240, Note_on_c, 0, 59, 88
2, 114240, Note_on_c, 0, 62, 88
2, 114467, Note_off_c, 0, 59, 0
2, 114467, Note_off_c, 0, 62, 0
2, 114480, Note_on_c, 0, 59, 90
2, 114480, Note_on_c, 0, 62, 90
2, 114707, Note_off_c, 0, 59, 0
2, 114707, Note_off_c, 0, 62, 0
2, 114720, Note_on_c, 0, 59, 92
2, 114720, Note_on_c, 0, 62, 92
2, 114947, Note_off_c, 0, 59, 0
2, 114947, Note_off_c, 0, 62, 0
2, 114960, Note_on_c, 0, 59, 94
2, 114960, Note_on_c, 0, 62, 94
2, 115187, Note_off_c, 0, 59, 0
2, 115187, Note_off_c, 0, 62, 0
2, 115200, Note_on_c, 0, 41, 115
2, 115201, Control_c, 0, 64, 0
2, 115202, Control_c, 0, 64, 127
2, 115319, Note_off_c, 0, 41, 0
2, 115320, Note_on_c, 0, 45, 96
2, 115433, Note_off_c, 0, 45, 0
2, 115440, Note_on_c, 0, 48, 96
2, 115553, Note_off_c, 0, 48, 0
2, 115560, Note_on_c, 0, 53, 96
2, 115673, Note_off_c, 0, 53, 0
2, 115680, Note_on_c, 0, 60, 96
2, 115680, Note_on_c, 0, 65, 96
2, 115907, Note_off_c, 0, 60, 0
2, 115907, Note_off_c, 0, 65, 0
2, 115920, Note_on_c, 0, 53, 96
2, 116033, Note_off_c, 0, 53, 0
2, 116040, Note_on_c, 0, 60, 96
2, 116040, Note_on_c, 0, 64, 96
2, 116381, Note_off_c, 0, 60, 0
2, 116381, Note_off_c, 0, 64, 0
2, 116400, Note_on_c, 0, 60, 96
2, 116400, Note_on_c, 0, 65, 96
2, 116741, Note_off_c, 0, 60, 0
2, 116741, Note_off_c, 0, 65, 0
2, 116760, Note_on_c, 0, 53, 96
2, 117101, Note_off_c, 0, 53, 0
2, 117120, Note_on_c, 0, 36, 115
2, 117121, Control_c, 0, 64, 0
2, 117122, Control_c, 0, 64, 127
2, 117239, Note_off_c, 0, 36, 0
2, 117240, Note_on_c, 0, 43, 96
2, 117353, Note_off_c, 0, 43, 0
2, 117360, Note_on_c, 0, 48, 96
2, 117473, Note_off_c, 0, 48, 0
2, 117480, Note_on_c, 0, 52, 96
2, 117593, Note_off_c, 0, 52, 0
2, 117600, Note_on_c, 0, 60, 96
2, 117600, Note_on_c, 0, 64, 96
2, 117941, Note_off_c, 0, 60, 0
2, 117941, Note_off_c, 0, 64, 0
2, 117960, Note_on_c, 0, 60, 96
2, 117960, Note_on_c, 0, 64, 96
2, 118301, Note_off_c, 0, 60, 0
2, 118301, Note_off_c, 0, 64, 0
2, 118320, Note_on_c, 0, 60, 96
2, 118320, Note_on_c, 0, 64, 96
2, 118661, Note_off_c, 0, 60, 0
2, 118661, Note_off_c, 0, 64, 0
2, 118680, Note_on_c, 0, 60, 96
2, 118680, Note_on_c, 0, 64, 96
2, 119021, Note_off_c, 0, 60, 0
2, 119021, Note_off_c, 0, 64, 0
2, 119040, Note_on_c, 0, 41, 115
2, 119041, Control_c, 0, 64, 0
2, 119042, Control_c, 0, 64, 127
2, 119159, Note_off_c, 0, 41, 0
2, 119160, Note_on_c, 0, 45, 96
2, 119273, Note_off_c, 0, 45, 0
2, 119280, Note_on_c, 0, 48, 96
2, 119393, Note_off_c, 0, 48, 0
2, 119400, Note_on_c, 0, 53, 96
2, 119513, Note_off_c, 0, 53, 0
2, 119520, Note_on_c, 0, 60, 96
2, 119520, Note_on_c, 0, 65, 96
2, 119747, Note_off_c, 0, 60, 0
2, 119747, Note_off_c, 0, 65, 0
2, 119760, Note_on_c, 0, 53, 96
2, 119873, Note_off_c, 0, 53, 0
2, 119880, Note_on_c, 0, 60, 96
2, 119880, Note_on_c, 0, 64, 96
2, 120221, Note_off_c, 0, 60, 0
2, 120221, Note_off_c, 0, 64, 0
2, 120240, Note_on_c, 0, 60, 96
2, 120240, Note_on_c, 0, 65, 96
2, 120581, Note_off_c, 0, 60, 0
2, 120581, Note_off_c, 0, 65, 0
2, 120600, Note_on_c, 0, 53, 96
2, 120941, Note_off_c, 0, 53, 0
2, 120960, Note_on_c, 0, 36, 115
2, 120961, Control_c, 0, 64, 0
2, 120962, Control_c, 0, 64, 127
2, 121079, Note_off_c, 0, 36, 0
2, 121080, Note_on_c, 0, 43, 96
2, 121193, Note_off_c, 0, 43, 0
2, 121200, Note_on_c, 0, 48, 96
2, 121313, Note_off_c, 0, 48, 0
2, 121320, Note_on_c, 0, 52, 96
2, 121433, Note_off_c, 0, 52, 0
2, 121440, Note_on_c, 0, 60, 96
2, 121440, Note_on_c, 0, 64, 96
2, 121781, Note_off_c, 0, 60, 0
2, 121781, Note_off_c, 0, 64, 0
2, 121800, Note_on_c, 0, 60, 96
2, 121800, Note_on_c, 0, 64, 96
2, 122141, Note_off_c, 0, 60, 0
2, 122141, Note_off_c, 0, 64, 0
2, 122160, Note_on_c, 0, 60, 96
2, 122160, Note_on_c, 0, 64, 96
2, 122501, Note_off_c, 0, 60, 0
2, 122501, Note_off_c, 0, 64, 0
2, 122520, Note_on_c, 0, 60, 96
2, 122520, Note_on_c, 0, 64, 96
2, 122861, Note_off_c, 0, 60, 0
2, 122861, Note_off_c, 0, 64, 0
2, 122880, Note_on_c, 0, 41, 115
2, 122881, Control_c, 0, 64, 0
2, 122882, Control_c, 0, 64, 127
2, 122999, Note_off_c, 0, 41, 0
2, 123000, Note_on_c, 0, 45, 94
2, 123113, Note_off_c, 0, 45, 0
2, 123120, Note_on_c, 0, 48, 92
2, 123233, Note_off_c, 0, 48, 0
2, 123240, Note_on_c, 0, 53, 90
2, 123353, Note_off_c, 0, 53, 0
2, 123360, Note_on_c, 0, 60, 88
2, 123360, Note_on_c, 0, 65, 88
2, 123587, Note_off_c, 0, 60, 0
2, 123587, Note_off_c, 0, 65, 0
2, 123600, Note_on_c, 0, 53, 84
2, 123713, Note_off_c, 0, 53, 0
2, 123720, Note_on_c, 0, 60, 82
2, 123720, Note_on_c, 0, 64, 82
2, 124061, Note_off_c, 0, 60, 0
2, 124061, Note_off_c, 0, 64, 0
2, 124080, Note_on_c, 0, 60, 76
2, 124080, Note_on_c, 0, 65, 76
2, 124421, Note_off_c, 0, 60, 0
2, 124421, Note_off_c, 0, 65, 0
2, 124440, Note_on_c, 0, 53, 70
2, 124781, Note_off_c, 0, 53, 0
2, 124800, Note_on_c, 0, 36, 76
2, 124801, Control_c, 0, 64, 0
2, 124802, Control_c, 0, 64, 127
2, 124919, Note_off_c, 0, 36, 0
2, 124920, Note_on_c, 0, 43, 64
2, 125033, Note_off_c, 0, 43, 0
2, 125040, Note_on_c, 0, 48, 64
2, 125153, Note_off_c, 0, 48, 0
2, 125160, Note_on_c, 0, 52, 64
2, 125273, Note_off_c, 0, 52, 0
2, 125280, Note_on_c, 0, 60, 64
2, 125280, Note_on_c, 0, 64, 64
2, 125621, Note_off_c, 0, 60, 0
2, 125621, Note_off_c, 0, 64, 0
2, 125640, Note_on_c, 0, 60, 64
2, 125640, Note_on_c, 0, 64, 64
2, 125981, Note_off_c, 0, 60, 0
2, 125981, Note_off_c, 0, 64, 0
2, 126000, Note_on_c, 0, 60, 64
2, 126000, Note_on_c, 0, 64, 64
2, 126341, Note_off_c, 0, 60, 0
2, 126341, Note_off_c, 0, 64, 0
2, 126360, Note_on_c, 0, 60, 64
2, 126360, Note_on_c, 0, 64, 64
2, 126701, Note_off_c, 0, 60, 0
2, 126701, Note_off_c, 0, 64, 0
2, 126720, Note_on_c, 0, 43, 64
2, 126721, Control_c, 0, 64, 0
2, 126722, Control_c, 0, 64, 127
2, 126947, Note_off_c, 0, 43, 0
2, 126960, Note_on_c, 0, 59, 64
2, 126960, Note_on_c, 0, 62, 64
2, 127187, Note_off_c, 0, 59, 0
2, 127187, Note_off_c, 0, 62, 0
2, 127200, Note_on_c, 0, 59, 64
2, 127200, Note_on_c, 0, 62, 64
2, 127427, Note_off_c, 0, 59, 0
2, 127427, Note_off_c, 0, 62, 0
2, 127440, Note_on_c, 0, 59, 64
2, 127440, Note_on_c, 0, 62, 64
2, 127667, Note_off_c, 0, 59, 0
2, 127667, Note_off_c, 0, 62, 0
2, 127680, Note_on_c, 0, 59, 64
2, 127680, Note_on_c, 0, 62, 64
2, 127907, Note_off_c, 0, 59, 0
2, 127907, Note_off_c, 0, 62, 0
2, 127920, Note_on_c, 0, 59, 64
2, 127920, Note_on_c, 0, 62, 64
2, 128147, Note_off_c, 0, 59, 0
2, 128147, Note_off_c, 0, 62, 0
2, 128160, Note_on_c, 0, 59, 64
2, 128160, Note_on_c, 0, 62, 64
2, 128387, Note_off_c, 0, 59, 0
2, 128387, Note_off_c, 0, 62, 0
2, 128400, Note_on_c, 0, 59, 64
2, 128400, Note_on_c, 0, 62, 64
2, 128627, Note_off_c, 0, 59, 0
2, 128627, Note_off_c, 0, 62, 0
2, 128640, Note_on_c, 0, 43, 64
2, 128641, Control_c, 0, 64, 0
2, 128642, Control_c, 0, 64, 127
2, 128867, Note_off_c, 0, 43, 0
2, 128880, Note_on_c, 0, 59, 68
2, 128880, Note_on_c, 0, 62, 68
2, 129107, Note_off_c, 0, 59, 0
2, 129107, Note_off_c, 0, 62, 0
2, 129120, Note_on_c, 0, 59, 72
2, 129120, Note_on_c, 0, 62, 72
2, 129347, Note_off_c, 0, 59, 0
2, 129347, Note_off_c, 0, 62, 0
2, 129360, Note_on_c, 0, 59, 76
2, 129360, Note_on_c, 0, 62, 76
2, 129587, Note_off_c, 0, 59, 0
2, 129587, Note_off_c, 0, 62, 0
2, 129600, Note_on_c, 0, 59, 80
2, 129600, Note_on_c, 0, 62, 80
2, 129827, Note_off_c, 0, 59, 0
2, 129827, Note_off_c, 0, 62, 0
2, 129840, Note_on_c, 0, 59, 84
2, 129840, Note_on_c, 0, 62, 84
2, 130067, Note_off_c, 0, 59, 0
2, 130067, Note_off_c, 0, 62, 0
2, 130080, Note_on_c, 0, 59, 88
2, 130080, Note_on_c, 0, 62, 88
2, 130307, Note_off_c, 0, 59, 0
2, 130307, Note_off_c, 0, 62, 0
2, 130320, Note_on_c, 0, 59, 92
2, 130320, Note_on_c, 0, 62, 92
2, 130547, Note_off_c, 0, 59, 0
2, 130547, Note_off_c, 0, 62, 0
2, 130560, Note_on_c, 0, 41, 96
2, 130561, Control_c, 0, 64, 0
2, 130562, Control_c, 0, 64, 127
2, 130787, Note_off_c, 0, 41, 0
2, 130800, Note_on_c, 0, 60, 96
2, 131027, Note_off_c, 0, 60, 0
2, 131040, Note_on_c, 0, 60, 96
2, 131267, Note_off_c, 0, 60, 0
2, 131280, Note_on_c, 0, 60, 96
2, 131507, Note_off_c, 0, 60, 0
2, 131520, Note_on_c, 0, 60, 96
2, 131747, Note_off_c, 0, 60, 0
2, 131760, Note_on_c, 0, 60, 96
2, 131987, Note_off_c, 0, 60, 0
2, 132000, Note_on_c, 0, 57, 96
2, 132227, Note_off_c, 0, 57, 0
2, 132240, Note_on_c, 0, 57, 96
2, 132467, Note_off_c, 0, 57, 0
2, 132481, Control_c, 0, 64, 0
2, 132482, Control_c, 0, 64, 127
2, 132720, Note_on_c, 0, 43, 96
2, 132947, Note_off_c, 0, 43, 0
2, 132960, Note_on_c, 0, 55, 96
2, 132960, Note_on_c, 0, 60, 96
2, 133187, Note_off_c, 0, 55, 0
2, 133187, Note_off_c, 0, 60, 0
2, 133200, Note_on_c, 0, 55, 96
2, 133200, Note_on_c, 0, 60, 96
2, 133427, Note_off_c, 0, 55, 0
2, 133427, Note_off_c, 0, 60, 0
2, 133440, Note_on_c, 0, 55, 96
2, 133440, Note_on_c, 0, 60, 96
2, 133667, Note_off_c, 0, 55, 0
2, 133667, Note_off_c, 0, 60, 0
2, 133680, Note_on_c, 0, 60, 96
2, 133793, Note_off_c, 0, 60, 0
2, 133920, Note_on_c, 0, 60, 96
2, 134147, Note_off_c, 0, 60, 0
2, 134160, Note_on_c, 0, 48, 96
2, 134160, Note_on_c, 0, 55, 96
2, 134387, Note_off_c, 0, 48, 0
2, 134387, Note_off_c, 0, 55, 0
2, 134400, Note_on_c, 0, 41, 96
2, 134401, Control_c, 0, 64, 0
2, 134402, Control_c, 0, 64, 127
2, 134513, Note_off_c, 0, 41, 0
2, 134520, Note_on_c, 0, 45, 96
2, 134633, Note_off_c, 0, 45, 0
2, 134640, Note_on_c, 0, 48, 96
2, 134753, Note_off_c, 0, 48, 0
2, 134760, Note_on_c, 0, 52, 96
2, 134873, Note_off_c, 0, 52, 0
2, 134880, Note_on_c, 0, 57, 96
2, 134880, Note_on_c, 0, 60, 96
2, 135107, Note_off_c, 0, 57, 0
2, 135107, Note_off_c, 0, 60, 0
2, 135120, Note_on_c, 0, 57, 96
2, 135120, Note_on_c, 0, 60, 96
2, 135347, Note_off_c, 0, 57, 0
2, 135347, Note_off_c, 0, 60, 0
2, 135360, Note_on_c, 0, 57, 96
2, 135360, Note_on_c, 0, 60, 96
2, 135587, Note_off_c, 0, 57, 0
2, 135587, Note_off_c, 0, 60, 0
2, 135600, Note_on_c, 0, 57, 96
2, 135600, Note_on_c, 0, 60, 96
2, 135827, Note_off_c, 0, 57, 0
2, 135827, Note_off_c, 0, 60, 0
2, 135840, Note_on_c, 0, 57, 96
2, 135840, Note_on_c, 0, 60, 96
2, 136067, Note_off_c, 0, 57, 0
2, 136067, Note_off_c, 0, 60, 0
2, 136080, Note_on_c, 0, 57, 96
2, 136080, Note_on_c, 0, 60, 96
2, 136307, Note_off_c, 0, 57, 0
2, 136307, Note_off_c, 0, 60, 0
2, 136320, Note_on_c, 0, 36, 96
2, 136321, Control_c, 0, 64, 0
2, 136322, Control_c, 0, 64, 127
2, 136547, Note_off_c, 0, 36, 0
2, 136560, Note_on_c, 0, 43, 96
2, 136787, Note_off_c, 0, 43, 0
2, 136800, Note_on_c, 0, 55, 96
2, 136800, Note_on_c, 0, 60, 96
2, 137027, Note_off_c, 0, 55, 0
2, 137027, Note_off_c, 0, 60, 0
2, 137040, Note_on_c, 0, 55, 96
2, 137040, Note_on_c, 0, 60, 96
2, 137267, Note_off_c, 0, 55, 0
2, 137267, Note_off_c, 0, 60, 0
2, 137280, Note_on_c, 0, 55, 96
2, 137280, Note_on_c, 0, 60, 96
2, 137507, Note_off_c, 0, 55, 0
2, 137507, Note_off_c, 0, 60, 0
2, 137520, Note_on_c, 0, 60, 96
2, 137633, Note_off_c, 0, 60, 0
2, 137760, Note_on_c, 0, 60, 96
2, 137987, Note_off_c, 0, 60, 0
2, 138000, Note_on_c, 0, 48, 96
2, 138000, Note_on_c, 0, 55, 96
2, 138227, Note_off_c, 0, 48, 0
2, 138227, Note_off_c, 0, 55, 0
2, 138240, Note_on_c, 0, 41, 96
2, 138241, Control_c, 0, 64, 0
2, 138242, Control_c, 0, 64, 127
2, 138467, Note_off_c, 0, 41, 0
2, 138480, Note_on_c, 0, 60, 96
2, 138480, Note_on_c, 0, 64, 96
2, 138707, Note_off_c, 0, 60, 0
2, 138707, Note_off_c, 0, 64, 0
2, 138720, Note_on_c, 0, 60, 96
2, 138720, Note_on_c, 0, 64, 96
2, 138947, Note_off_c, 0, 60, 0
2, 138947, Note_off_c, 0, 64, 0
2, 138960, Note_on_c, 0, 60, 96
2, 138960, Note_on_c, 0, 64, 96
2, 139187, Note_off_c, 0, 60, 0
2, 139187, Note_off_c, 0, 64, 0
2, 139200, Note_on_c, 0, 60, 96
2, 139200, Note_on_c, 0, 65, 96
2, 139427, Note_off_c, 0, 60, 0
2, 139427, Note_off_c, 0, 65, 0
2, 139440, Note_on_c, 0, 60, 96
2, 139667, Note_off_c, 0, 60, 0
2, 140160, Note_on_c, 0, 40, 96
2, 140161, Control_c, 0, 64, 0
2, 140162, Control_c, 0, 64, 127
2, 140387, Note_off_c, 0, 40, 0
2, 140400, Note_on_c, 0, 47, 94
2, 140627, Note_off_c, 0, 47, 0
2, 140640, Note_on_c, 0, 59, 92
2, 140640, Note_on_c, 0, 64, 92
2, 140867, Note_off_c, 0, 59, 0
2, 140867, Note_off_c, 0, 64, 0
2, 140880, Note_on_c, 0, 59, 90
2, 140880, Note_on_c, 0, 64, 90
2, 141107, Note_off_c, 0, 59, 0
2, 141107, Note_off_c, 0, 64, 0
2, 141120, Note_on_c, 0, 59, 88
2, 141120, Note_on_c, 0, 64, 88
2, 141347, Note_off_c, 0, 59, 0
2, 141347, Note_off_c, 0, 64, 0
2, 141360, Note_on_c, 0, 59, 86
2, 141360, Note_on_c, 0, 64, 86
2, 141473, Note_off_c, 0, 59, 0
2, 141473, Note_off_c, 0, 64, 0
2, 141600, Note_on_c, 0, 59, 84
2, 141600, Note_on_c, 0, 64, 84
2, 141827, Note_off_c, 0, 59, 0
2, 141827, Note_off_c, 0, 64, 0
2, 141840, Note_on_c, 0, 59, 82
2, 142067, Note_off_c, 0, 59, 0
2, 142080, Note_on_c, 0, 38, 80
2, 142081, Control_c, 0, 64, 0
2, 142082, Control_c, 0, 64, 127
2, 142535, Note_off_c, 0, 38, 0
2, 142560, Note_on_c, 0, 54, 80
2, 142560, Note_on_c, 0, 57, 80
2, 142901, Note_off_c, 0, 54, 0
2, 142901, Note_off_c, 0, 57, 0
2, 142920, Note_on_c, 0, 54, 80
2, 142920, Note_on_c, 0, 57, 80
2, 143261, Note_off_c, 0, 54, 0
2, 143261, Note_off_c, 0, 57, 0
2, 143280, Note_on_c, 0, 54, 80
2, 143280, Note_on_c, 0, 57, 80
2, 143621, Note_off_c, 0, 54, 0
2, 143621, Note_off_c, 0, 57, 0
2, 143640, Note_on_c, 0, 54, 80
2, 143640, Note_on_c, 0, 57, 80
2, 143981, Note_off_c, 0, 54, 0
2, 143981, Note_off_c, 0, 57, 0
2, 144000, Note_on_c, 0, 38, 80
2, 144001, Control_c, 0, 64, 0
2, 144002, Control_c, 0, 64, 127
2, 144455, Note_off_c, 0, 38, 0
2, 144480, Note_on_c, 0, 54, 80
2, 144480, Note_on_c, 0, 57, 80
2, 144821, Note_off_c, 0, 54, 0
2, 144821, Note_off_c, 0, 57, 0
2, 144840, Note_on_c, 0, 54, 80
2, 144840, Note_on_c, 0, 57, 80
2, 145181, Note_off_c, 0, 54, 0
2, 145181, Note_off_c, 0, 57, 0
2, 145200, Note_on_c, 0, 54, 80
2, 145200, Note_on_c, 0, 57, 80
2, 145541, Note_off_c, 0, 54, 0
2, 145541, Note_off_c, 0, 57, 0
2, 145560, Note_on_c, 0, 54, 80
2, 145560, Note_on_c, 0, 57, 80
2, 145901, Note_off_c, 0, 54, 0
2, 145901, Note_off_c, 0, 57, 0
2, 145920, Note_on_c, 0, 38, 80
2, 145921, Control_c, 0, 64, 0
2, 145922, Control_c, 0, 64, 127
2, 146147, Note_off_c, 0, 38, 0
2, 146160, Note_on_c, 0, 57, 80
2, 146160, Note_on_c, 0, 60, 80
2, 146387, Note_off_c, 0, 57, 0
2, 146387, Note_off_c, 0, 60, 0
2, 146400, Note_on_c, 0, 57, 80
2, 146400, Note_on_c, 0, 60, 80
2, 146627, Note_off_c, 0, 57, 0
2, 146627, Note_off_c, 0, 60, 0
2, 146640, Note_on_c, 0, 57, 80
2, 146640, Note_on_c, 0, 60, 80
2, 146867, Note_off_c, 0, 57, 0
2, 146867, Note_off_c, 0, 60, 0
2, 146880, Note_on_c, 0, 57, 80
2, 146880, Note_on_c, 0, 60, 80
2, 147107, Note_off_c, 0, 57, 0
2, 147107, Note_off_c, 0, 60, 0
2, 147120, Note_on_c, 0, 57, 80
2, 147120, Note_on_c, 0, 60, 80
2, 147347, Note_off_c, 0, 57, 0
2, 147347, Note_off_c, 0, 60, 0
2, 147360, Note_on_c, 0, 55, 80
2, 147360, Note_on_c, 0, 60, 80
2, 147587, Note_off_c, 0, 55, 0
2, 147587, Note_off_c, 0, 60, 0
2, 147600, Note_on_c, 0, 55, 80
2, 147600, Note_on_c, 0, 60, 80
2, 147827, Note_off_c, 0, 55, 0
2, 147827, Note_off_c, 0, 60, 0
2, 147840, Note_on_c, 0, 43, 80
2, 147841, Control_c, 0, 64, 0
2, 147842, Control_c, 0, 64, 127
2, 148067, Note_off_c, 0, 43, 0
2, 148080, Note_on_c, 0, 59, 82
2, 148080, Note_on_c, 0, 62, 82
2, 148307, Note_off_c, 0, 59, 0
2, 148307, Note_off_c, 0, 62, 0
2, 148320, Note_on_c, 0, 59, 84
2, 148320, Note_on_c, 0, 62, 84
2, 148547, Note_off_c, 0, 59, 0
2, 148547, Note_off_c, 0, 62, 0
2, 148560, Note_on_c, 0, 59, 86
2, 148560, Note_on_c, 0, 62, 86
2, 148787, Note_off_c, 0, 59, 0
2, 148787, Note_off_c, 0, 62, 0
2, 148800, Note_on_c, 0, 59, 88
2, 148800, Note_on_c, 0, 62, 88
2, 149027, Note_off_c, 0, 59, 0
2, 149027, Note_off_c, 0, 62, 0
2, 149040, Note_on_c, 0, 59, 90
2, 149040, Note_on_c, 0, 62, 90
2, 149267, Note_off_c, 0, 59, 0
2, 149267, Note_off_c, 0, 62, 0
2, 149280, Note_on_c, 0, 59, 92
2, 149280, Note_on_c, 0, 62, 92
2, 149507, Note_off_c, 0, 59, 0
2, 149507, Note_off_c, 0, 62, 0
2, 149520, Note_on_c, 0, 59, 94
2, 149520, Note_on_c, 0, 62, 94
2, 149747, Note_off_c, 0, 59, 0
2, 149747, Note_off_c, 0, 62, 0
2, 149760, Note_on_c, 0, 41, 115
2, 149761, Control_c, 0, 64, 0
2, 149762, Control_c, 0, 64, 127
2, 149879, Note_off_c, 0, 41, 0
2, 149880, Note_on_c, 0, 45, 96
2, 149993, Note_off_c, 0, 45, 0
2, 150000, Note_on_c, 0, 48, 96
2, 150113, Note_off_c, 0, 48, 0
2, 150120, Note_on_c, 0, 53, 96
2, 150233, Note_off_c, 0, 53, 0
2, 150240, Note_on_c, 0, 60, 96
2, 150240, Note_on_c, 0, 65, 96
2, 150467, Note_off_c, 0, 60, 0
2, 150467, Note_off_c, 0, 65, 0
2, 150480, Note_on_c, 0, 53, 96
2, 150593, Note_off_c, 0, 53, 0
2, 150600, Note_on_c, 0, 60, 96
2, 150600, Note_on_c, 0, 64, 96
2, 150941, Note_off_c, 0, 60, 0
2, 150941, Note_off_c, 0, 64, 0
2, 150960, Note_on_c, 0, 60, 96
2, 150960, Note_on_c, 0, 65, 96
2, 151301, Note_off_c, 0, 60, 0
2, 151301, Note_off_c, 0, 65, 0
2, 151320, Note_on_c, 0, 53, 96
2, 151661, Note_off_c, 0, 53, 0
2, 151680, Note_on_c, 0, 36, 115
2, 151681, Control_c, 0, 64, 0
2, 151682, Control_c, 0, 64, 127
2, 151799, Note_off_c, 0, 36, 0
2, 151800, Note_on_c, 0, 43, 96
2, 151913, Note_off_c, 0, 43, 0
2, 151920, Note_on_c, 0, 48, 96
2, 152033, Note_off_c, 0, 48, 0
2, 152040, Note_on_c, 0, 52, 96
2, 152153, Note_off_c, 0, 52, 0
2, 152160, Note_on_c, 0, 60, 96
2, 152160, Note_on_c, 0, 64, 96
2, 152501, Note_off_c, 0, 60, 0
2, 152501, Note_off_c, 0, 64, 0
2, 152520, Note_on_c, 0, 60, 96
2, 152520, Note_on_c, 0, 64, 96
2, 152861, Note_off_c, 0, 60, 0
2, 152861, Note_off_c, 0, 64, 0
2, 152880, Note_on_c, 0, 60, 96
2, 152880, Note_on_c, 0, 64, 96
2, 153221, Note_off_c, 0, 60, 0
2, 153221, Note_off_c, 0, 64, 0
2, 153240, Note_on_c, 0, 60, 96
2, 153240, Note_on_c, 0, 64, 96
2, 153581, Note_off_c, 0, 60, 0
2, 153581, Note_off_c, 0, 64, 0
2, 153600, Note_on_c, 0, 41, 115
2, 153601, Control_c, 0, 64, 0
2, 153602, Control_c, 0, 64, 127
2, 153719, Note_off_c, 0, 41, 0
2, 153720, Note_on_c, 0, 45, 96
2, 153833, Note_off_c, 0, 45, 0
2, 153840, Note_on_c, 0, 48, 96
2, 153953, Note_off_c, 0, 48, 0
2, 153960, Note_on_c, 0, 53, 96
2, 154073, Note_off_c, 0, 53, 0
2, 154080, Note_on_c, 0, 60, 96
2, 154080, Note_on_c, 0, 65, 96
2, 154307, Note_off_c, 0, 60, 0
2, 154307, Note_off_c, 0, 65, 0
2, 154320, Note_on_c, 0, 53, 96
2, 154433, Note_off_c, 0, 53, 0
2, 154440, Note_on_c, 0, 60, 96
2, 154440, Note_on_c, 0, 64, 96
2, 154781, Note_off_c, 0, 60, 0
2, 154781, Note_off_c, 0, 64, 0
2, 154800, Note_on_c, 0, 60, 96
2, 154800, Note_on_c, 0, 65, 96
2, 155141, Note_off_c, 0, 60, 0
2, 155141, Note_off_c, 0, 65, 0
2, 155160, Note_on_c, 0, 53, 96
2, 155501, Note_off_c, 0, 53, 0
2, 155520, Note_on_c, 0, 36, 115
2, 155521, Control_c, 0, 64, 0
2, 155522, Control_c, 0, 64, 127
2, 155639, Note_off_c, 0, 36, 0
2, 155640, Note_on_c, 0, 43, 96
2, 155753, Note_off_c, 0, 43, 0
2, 155760, Note_on_c, 0, 48, 96
2, 155873, Note_off_c, 0, 48, 0
2, 155880, Note_on_c, 0, 52, 96
2, 155993, Note_off_c, 0, 52, 0
2, 156000, Note_on_c, 0, 60, 96
2, 156000, Note_on_c, 0, 64, 96
2, 156341, Note_off_c, 0, 60, 0
2, 156341, Note_off_c, 0, 64, 0
2, 156360, Note_on_c, 0, 60, 96
2, 156360, Note_on_c, 0, 64, 96
2, 156701, Note_off_c, 0, 60, 0
2, 156701, Note_off_c, 0, 64, 0
2, 156720, Note_on_c, 0, 60, 96
2, 156720, Note_on_c, 0, 64, 96
2, 157061, Note_off_c, 0, 60, 0
2, 157061, Note_off_c, 0, 64, 0
2, 157080, Note_on_c, 0, 60, 96
2, 157080, Note_on_c, 0, 64, 96
2, 157421, Note_off_c, 0, 60, 0
2, 157421, Note_off_c, 0, 64, 0
2, 157440, Note_on_c, 0, 41, 115
2, 157441, Control_c, 0, 64, 0
2, 157442, Control_c, 0, 64, 127
2, 157559, Note_off_c, 0, 41, 0
2, 157560, Note_on_c, 0, 45, 96
2, 157673, Note_off_c, 0, 45, 0
2, 157680, Note_on_c, 0, 48, 96
2, 157793, Note_off_c, 0, 48, 0
2, 157800, Note_on_c, 0, 53, 96
2, 157913, Note_off_c, 0, 53, 0
2, 157920, Note_on_c, 0, 60, 96
2, 157920, Note_on_c, 0, 65, 96
2, 158147, Note_off_c, 0, 60, 0
2, 158147, Note_off_c, 0, 65, 0
2, 158160, Note_on_c, 0, 53, 96
2, 158273, Note_off_c, 0, 53, 0
2, 158280, Note_on_c, 0, 60, 96
2, 158280, Note_on_c, 0, 64, 96
2, 158621, Note_off_c, 0, 60, 0
2, 158621, Note_off_c, 0, 64, 0
2, 158640, Note_on_c, 0, 60, 96
2, 158640, Note_on_c, 0, 65, 96
2, 158981, Note_off_c, 0, 60, 0
2, 158981, Note_off_c, 0, 65, 0
2, 159000, Note_on_c, 0, 53, 96
2, 159341, Note_off_c, 0, 53, 0
2, 159360, Note_on_c, 0, 40, 115
2, 159361, Control_c, 0, 64, 0
2, 159362, Control_c, 0, 64, 127
2, 159479, Note_off_c, 0, 40, 0
2, 159480, Note_on_c, 0, 47, 96
2, 159593, Note_off_c, 0, 47, 0
2, 159600, Note_on_c, 0, 52, 96
2, 159713, Note_off_c, 0, 52, 0
2, 159720, Note_on_c, 0, 55, 96
2, 159833, Note_off_c, 0, 55, 0
2, 159840, Note_on_c, 0, 59, 96
2, 159840, Note_on_c, 0, 64, 96
2, 160181, Note_off_c, 0, 59, 0
2, 160181, Note_off_c, 0, 64, 0
2, 160200, Note_on_c, 0, 59, 96
2, 160200, Note_on_c, 0, 64, 96
2, 160541, Note_off_c, 0, 59, 0
2, 160541, Note_off_c, 0, 64, 0
2, 160560, Note_on_c, 0, 59, 96
2, 160560, Note_on_c, 0, 64, 96
2, 160673, Note_off_c, 0, 59, 0
2, 160673, Note_off_c, 0, 64, 0
2, 160920, Note_on_c, 0, 59, 96
2, 160920, Note_on_c, 0, 64, 96
2, 161033, Note_off_c, 0, 59, 0
2, 161033, Note_off_c, 0, 64, 0
2, 161280, Note_on_c, 0, 38, 96
2, 161281, Control_c, 0, 64, 0
2, 161282, Control_c, 0, 64, 127
2, 161735, Note_off_c, 0, 38, 0
2, 161760, Note_on_c, 0, 54, 96
2, 161760, Note_on_c, 0, 57, 96
2, 162101, Note_off_c, 0, 54, 0
2, 162101, Note_off_c, 0, 57, 0
2, 162120, Note_on_c, 0, 54, 96
2, 162120, Note_on_c, 0, 57, 96
2, 162461, Note_off_c, 0, 54, 0
2, 162461, Note_off_c, 0, 57, 0
2, 162480, Note_on_c, 0, 54, 96
2, 162480, Note_on_c, 0, 57, 96
2, 162821, Note_off_c, 0, 54, 0
2, 162821, Note_off_c, 0, 57, 0
2, 162840, Note_on_c, 0, 54, 96
2, 162840, Note_on_c, 0, 57, 96
2, 163181, Note_off_c, 0, 54, 0
2, 163181, Note_off_c, 0, 57, 0
2, 163200, Note_on_c, 0, 38, 96
2, 163201, Control_c, 0, 64, 0
2, 163202, Control_c, 0, 64, 127
2, 163655, Note_off_c, 0, 38, 0
2, 163680, Note_on_c, 0, 54, 96
2, 163680, Note_on_c, 0, 57, 96
2, 164021, Note_off_c, 0, 54, 0
2, 164021, Note_off_c, 0, 57, 0
2, 164040, Note_on_c, 0, 54, 96
2, 164040, Note_on_c, 0, 57, 96
2, 164381, Note_off_c, 0, 54, 0
2, 164381, Note_off_c, 0, 57, 0
2, 164400, Note_on_c, 0, 54, 96
2, 164400, Note_on_c, 0, 57, 96
2, 164741, Note_off_c, 0, 54, 0
2, 164741, Note_off_c, 0, 57, 0
2, 164760, Note_on_c, 0, 54, 96
2, 164760, Note_on_c, 0, 57, 96
2, 165101, Note_off_c, 0, 54, 0
2, 165101, Note_off_c, 0, 57, 0
2, 165120, Note_on_c, 0, 38, 96
2, 165121, Control_c, 0, 64, 0
2, 165122, Control_c, 0, 64, 127
2, 165347, Note_off_c, 0, 38, 0
2, 165360, Note_on_c, 0, 57, 96
2, 165360, Note_on_c, 0, 60, 96
2, 165587, Note_off_c, 0, 57, 0
2, 165587, Note_off_c, 0, 60, 0
2, 165600, Note_on_c, 0, 57, 96
2, 165600, Note_on_c, 0, 60, 96
2, 165827, Note_off_c, 0, 57, 0
2, 165827, Note_off_c, 0, 60, 0
2, 165840, Note_on_c, 0, 57, 96
2, 165840, Note_on_c, 0, 60, 96
2, 166067, Note_off_c, 0, 57, 0
2, 166067, Note_off_c, 0, 60, 0
2, 166080, Note_on_c, 0, 57, 96
2, 166080, Note_on_c, 0, 60, 96
2, 166307, Note_off_c, 0, 57, 0
2, 166307, Note_off_c, 0, 60, 0
2, 166320, Note_on_c, 0, 57, 96
2, 166320, Note_on_c, 0, 60, 96
2, 166547, Note_off_c, 0, 57, 0
2, 166547, Note_off_c, 0, 60, 0
2, 166560, Note_on_c, 0, 55, 96
2, 166560, Note_on_c, 0, 60, 96
2, 166787, Note_off_c, 0, 55, 0
2, 166787, Note_off_c, 0, 60, 0
2, 166800, Note_on_c, 0, 55, 96
2, 166800, Note_on_c, 0, 60, 96
2, 167027, Note_off_c, 0, 55, 0
2, 167027, Note_off_c, 0, 60, 0
2, 167040, Note_on_c, 0, 43, 96
2, 167041, Control_c, 0, 64, 0
2, 167042, Control_c, 0, 64, 127
2, 167267, Note_off_c, 0, 43, 0
2, 167280, Note_on_c, 0, 59, 96
2, 167280, Note_on_c, 0, 62, 96
2, 167507, Note_off_c, 0, 59, 0
2, 167507, Note_off_c, 0, 62, 0
2, 167520, Note_on_c, 0, 59, 96
2, 167520, Note_on_c, 0, 62, 96
2, 167747, Note_off_c, 0, 59, 0
2, 167747, Note_off_c, 0, 62, 0
2, 167760, Note_on_c, 0, 59, 96
2, 167760, Note_on_c, 0, 62, 96
2, 167987, Note_off_c, 0, 59, 0
2, 167987, Note_off_c, 0, 62, 0
2, 168000, Note_on_c, 0, 55, 96
2, 168000, Note_on_c, 0, 62, 96
2, 168113, Note_off_c, 0, 55, 0
2, 168113, Note_off_c, 0, 62, 0
2, 168120, Note_on_c, 0, 59, 96
2, 168233, Note_off_c, 0, 59, 0
2, 168240, Note_on_c, 0, 55, 96
2, 168353, Note_off_c, 0, 55, 0
2, 168360, Note_on_c, 0, 50, 96
2, 168473, Note_off_c, 0, 50, 0
2, 168480, Note_on_c, 0, 47, 96
2, 168593, Note_off_c, 0, 47, 0
2, 168600, Note_on_c, 0, 43, 96
2, 168713, Note_off_c, 0, 43, 0
2, 168720, Note_on_c, 0, 38, 96
2, 168833, Note_off_c, 0, 38, 0
2, 168840, Note_on_c, 0, 35, 96
2, 168953, Note_off_c, 0, 35, 0
2, 168960, Note_on_c, 0, 38, 96
2, 168961, Control_c, 0, 64, 0
2, 168962, Control_c, 0, 64, 127
2, 169415, Note_off_c, 0, 38, 0
2, 169440, Note_on_c, 0, 54, 96
2, 169440, Note_on_c, 0, 57, 96
2, 169781, Note_off_c, 0, 54, 0
2, 169781, Note_off_c, 0, 57, 0
2, 169800, Note_on_c, 0, 54, 96
2, 169800, Note_on_c, 0, 57, 96
2, 170141, Note_off_c, 0, 54, 0
2, 170141, Note_off_c, 0, 57, 0
2, 170160, Note_on_c, 0, 54, 96
2, 170160, Note_on_c, 0, 57, 96
2, 170501, Note_off_c, 0, 54, 0
2, 170501, Note_off_c, 0, 57, 0
2, 170520, Note_on_c, 0, 54, 96
2, 170520, Note_on_c, 0, 57, 96
2, 170861, Note_off_c, 0, 54, 0
2, 170861, Note_off_c, 0, 57, 0
2, 170880, Note_on_c, 0, 38, 96
2, 170881, Control_c, 0, 64, 0
2, 170882, Control_c, 0, 64, 127
2, 171335, Note_off_c, 0, 38, 0
2, 171360, Note_on_c, 0, 54, 96
2, 171360, Note_on_c, 0, 57, 96
2, 171701, Note_off_c, 0, 54, 0
2, 171701, Note_off_c, 0, 57, 0
2, 171720, Note_on_c, 0, 54, 96
2, 171720, Note_on_c, 0, 57, 96
2, 172061, Note_off_c, 0, 54, 0
2, 172061, Note_off_c, 0, 57, 0
2, 172080, Note_on_c, 0, 54, 96
2, 172080, Note_on_c, 0, 57, 96
2, 172421, Note_off_c, 0, 54, 0
2, 172421, Note_off_c, 0, 57, 0
2, 172440, Note_on_c, 0, 54, 96
2, 172440, Note_on_c, 0, 57, 96
2, 172781, Note_off_c, 0, 54, 0
2, 172781, Note_off_c, 0, 57, 0
2, 172800, Note_on_c, 0, 38, 96
2, 172801, Control_c, 0, 64, 0
2, 172802, Control_c, 0, 64, 127
2, 173027, Note_off_c, 0, 38, 0
2, 173040, Note_on_c, 0, 57, 96
2, 173040, Note_on_c, 0, 60, 96
2, 173267, Note_off_c, 0, 57, 0
2, 173267, Note_off_c, 0, 60, 0
2, 173280, Note_on_c, 0, 57, 96
2, 173280, Note_on_c, 0, 60, 96
2, 173507, Note_off_c, 0, 57, 0
2, 173507, Note_off_c, 0, 60, 0
2, 173520, Note_on_c, 0, 57, 96
2, 173520, Note_on_c, 0, 60, 96
2, 173747, Note_off_c, 0, 57, 0
2, 173747, Note_off_c, 0, 60, 0
2, 173760, Note_on_c, 0, 57, 96
2, 173760, Note_on_c, 0, 60, 96
2, 173987, Note_off_c, 0, 57, 0
2, 173987, Note_off_c, 0, 60, 0
2, 174000, Note_on_c, 0, 57, 96
2, 174000, Note_on_c, 0, 60, 96
2, 174227, Note_off_c, 0, 57, 0
2, 174227, Note_off_c, 0, 60, 0
2, 174240, Note_on_c, 0, 55, 96
2, 174240, Note_on_c, 0, 60, 96
2, 174467, Note_off_c, 0, 55, 0
2, 174467, Note_off_c, 0, 60, 0
2, 174480, Note_on_c, 0, 55, 96
2, 174480, Note_on_c, 0, 60, 96
2, 174707, Note_off_c, 0, 55, 0
2, 174707, Note_off_c, 0, 60, 0
2, 174720, Note_on_c, 0, 43, 96
2, 174721, Control_c, 0, 64, 0
2, 174722, Control_c, 0, 64, 127
2, 175175, Note_off_c, 0, 43, 0
2, 175200, Note_on_c, 0, 55, 96
2, 175200, Note_on_c, 0, 60, 96
2, 175541, Note_off_c, 0, 55, 0
2, 175541, Note_off_c, 0, 60, 0
2, 175560, Note_on_c, 0, 59, 96
2, 176585, Note_off_c, 0, 59, 0
2, 176640, Note_on_c, 0, 55, 64
2, 178463, Note_off_c, 0, 55, 0
2, 178561, Control_c, 0, 64, 0
2, 178562, Control_c, 0, 64, 127
2, 178697, Note_on_c, 0, 36, 64
2, 184168, Note_off_c, 0, 36, 0
2, 184320, Control_c, 0, 64, 0
2, 184385, End_track
0, 0, End_of_file