0, 0, Header, 1, 1, 480
1, 0, Start_track
1, 0, Time_signature, 4, 2, 24, 8
1, 0, Tempo, 431654
1, 0, Key_signature, -5, "major"
1, 0, MIDI_port, 0
1, 0, Control_c, 0, 121, 0
1, 0, Program_c, 0, 0
1, 0, Control_c, 0, 7, 79
1, 0, Control_c, 0, 10, 64
1, 0, Control_c, 0, 91, 0
1, 0, Control_c, 0, 93, 0
1, 14880, Note_on_c, 0, 61, 64
1, 14993, Note_off_c, 0, 61, 0
1, 15000, Note_on_c, 0, 63, 64
1, 15113, Note_off_c, 0, 63, 0
1, 15120, Note_on_c, 0, 65, 64
1, 15347, Note_off_c, 0, 65, 0
1, 15360, Note_on_c, 0, 63, 64
1, 15815, Note_off_c, 0, 63, 0
1, 15840, Note_on_c, 0, 58, 64
1, 16523, Note_off_c, 0, 58, 0
1, 16560, Note_on_c, 0, 58, 64
1, 16787, Note_off_c, 0, 58, 0
1, 16800, Note_on_c, 0, 61, 64
1, 16913, Note_off_c, 0, 61, 0
1, 16920, Note_on_c, 0, 63, 64
1, 17033, Note_off_c, 0, 63, 0
1, 17040, Note_on_c, 0, 65, 64
1, 17267, Note_off_c, 0, 65, 0
1, 17280, Note_on_c, 0, 63, 64
1, 18647, Note_off_c, 0, 63, 0
1, 18720, Note_on_c, 0, 61, 64
1, 18833, Note_off_c, 0, 61, 0
1, 18840, Note_on_c, 0, 63, 64
1, 18953, Note_off_c, 0, 63, 0
1, 18960, Note_on_c, 0, 65, 64
1, 19187, Note_off_c, 0, 65, 0
1, 19200, Note_on_c, 0, 63, 64
1, 19655, Note_off_c, 0, 63, 0
1, 19680, Note_on_c, 0, 58, 64
1, 20363, Note_off_c, 0, 58, 0
1, 20400, Note_on_c, 0, 58, 64
1, 20627, Note_off_c, 0, 58, 0
1, 20640, Note_on_c, 0, 61, 64
1, 20753, Note_off_c, 0, 61, 0
1, 20760, Note_on_c, 0, 63, 64
1, 20873, Note_off_c, 0, 63, 0
1, 20880, Note_on_c, 0, 65, 64
1, 21107, Note_off_c, 0, 65, 0
1, 21120, Note_on_c, 0, 63, 64
1, 22487, Note_off_c, 0, 63, 0
1, 22560, Note_on_c, 0, 65, 64
1, 22673, Note_off_c, 0, 65, 0
1, 22680, Note_on_c, 0, 63, 64
1, 22793, Note_off_c, 0, 63, 0
1, 22800, Note_on_c, 0, 61, 64
1, 23027, Note_off_c, 0, 61, 0
1, 23040, Note_on_c, 0, 63, 64
1, 23495, Note_off_c, 0, 63, 0
1, 23520, Note_on_c, 0, 58, 64
1, 24203, Note_off_c, 0, 58, 0
1, 24240, Note_on_c, 0, 58, 64
1, 24467, Note_off_c, 0, 58, 0
1, 24480, Note_on_c, 0, 61, 64
1, 24593, Note_off_c, 0, 61, 0
1, 24600, Note_on_c, 0, 63, 64
1, 24713, Note_off_c, 0, 63, 0
1, 24720, Note_on_c, 0, 65, 64
1, 24947, Note_off_c, 0, 65, 0
1, 24960, Note_on_c, 0, 63, 64
1, 26327, Note_off_c, 0, 63, 0
1, 26400, Note_on_c, 0, 63, 64
1, 26513, Note_off_c, 0, 63, 0
1, 26520, Note_on_c, 0, 63, 64
1, 26633, Note_off_c, 0, 63, 0
1, 26640, Note_on_c, 0, 65, 64
1, 26867, Note_off_c, 0, 65, 0
1, 26880, Note_on_c, 0, 63, 64
1, 27335, Note_off_c, 0, 63, 0
1, 27360, Note_on_c, 0, 58, 64
1, 28043, Note_off_c, 0, 58, 0
1, 28080, Note_on_c, 0, 58, 64
1, 28307, Note_off_c, 0, 58, 0
1, 28320, Note_on_c, 0, 61, 64
1, 28433, Note_off_c, 0, 61, 0
1, 28440, Note_on_c, 0, 63, 64
1, 28553, Note_off_c, 0, 63, 0
1, 28560, Note_on_c, 0, 65, 64
1, 28787, Note_off_c, 0, 65, 0
1, 28800, Note_on_c, 0, 63, 64
1, 29026, Note_off_c, 0, 63, 0
1, 29034, Note_on_c, 0, 61, 64
1, 29117, Note_off_c, 0, 61, 0
1, 29129, Note_on_c, 0, 58, 100
1, 29741, Note_off_c, 0, 58, 0
1, 30000, Note_on_c, 0, 65, 64
1, 30227, Note_off_c, 0, 65, 0
1, 30240, Note_on_c, 0, 63, 64
1, 30467, Note_off_c, 0, 63, 0
1, 30480, Note_on_c, 0, 61, 64
1, 30707, Note_off_c, 0, 61, 0
1, 30720, Note_on_c, 0, 63, 64
1, 31061, Note_off_c, 0, 63, 0
1, 31080, Note_on_c, 0, 63, 64
1, 31193, Note_off_c, 0, 63, 0
1, 31200, Note_on_c, 0, 63, 64
1, 31427, Note_off_c, 0, 63, 0
1, 31440, Note_on_c, 0, 63, 64
1, 31667, Note_off_c, 0, 63, 0
1, 31680, Note_on_c, 0, 65, 64
1, 32591, Note_off_c, 0, 65, 0
1, 32640, Note_on_c, 0, 63, 64
1, 33095, Note_off_c, 0, 63, 0
1, 33120, Note_on_c, 0, 63, 64
1, 33347, Note_off_c, 0, 63, 0
1, 33360, Note_on_c, 0, 63, 64
1, 33587, Note_off_c, 0, 63, 0
1, 33600, Note_on_c, 0, 65, 64
1, 34055, Note_off_c, 0, 65, 0
1, 34080, Note_on_c, 0, 61, 64
1, 34535, Note_off_c, 0, 61, 0
1, 34560, Note_on_c, 0, 63, 64
1, 34901, Note_off_c, 0, 63, 0
1, 34920, Note_on_c, 0, 63, 64
1, 35033, Note_off_c, 0, 63, 0
1, 35040, Note_on_c, 0, 63, 64
1, 35267, Note_off_c, 0, 63, 0
1, 35280, Note_on_c, 0, 63, 64
1, 35507, Note_off_c, 0, 63, 0
1, 35520, Note_on_c, 0, 65, 64
1, 36431, Note_off_c, 0, 65, 0
1, 36480, Note_on_c, 0, 63, 64
1, 36707, Note_off_c, 0, 63, 0
1, 36720, Note_on_c, 0, 63, 64
1, 36947, Note_off_c, 0, 63, 0
1, 36960, Note_on_c, 0, 63, 64
1, 37187, Note_off_c, 0, 63, 0
1, 37200, Note_on_c, 0, 63, 64
1, 37427, Note_off_c, 0, 63, 0
1, 37440, Note_on_c, 0, 65, 64
1, 37895, Note_off_c, 0, 65, 0
1, 37920, Note_on_c, 0, 58, 64
1, 38375, Note_off_c, 0, 58, 0
1, 38400, Note_on_c, 0, 63, 64
1, 38855, Note_off_c, 0, 63, 0
1, 38880, Note_on_c, 0, 63, 64
1, 39107, Note_off_c, 0, 63, 0
1, 39120, Note_on_c, 0, 63, 64
1, 39347, Note_off_c, 0, 63, 0
1, 39360, Note_on_c, 0, 65, 64
1, 40271, Note_off_c, 0, 65, 0
1, 40320, Note_on_c, 0, 63, 64
1, 40547, Note_off_c, 0, 63, 0
1, 40560, Note_on_c, 0, 63, 64
1, 40787, Note_off_c, 0, 63, 0
1, 40800, Note_on_c, 0, 63, 64
1, 41027, Note_off_c, 0, 63, 0
1, 41040, Note_on_c, 0, 63, 64
1, 41267, Note_off_c, 0, 63, 0
1, 41280, Note_on_c, 0, 65, 64
1, 41507, Note_off_c, 0, 65, 0
1, 41520, Note_on_c, 0, 63, 64
1, 41747, Note_off_c, 0, 63, 0
1, 41760, Note_on_c, 0, 63, 64
1, 43127, Note_off_c, 0, 63, 0
1, 43200, Note_on_c, 0, 63, 64
1, 43427, Note_off_c, 0, 63, 0
1, 43440, Note_on_c, 0, 61, 64
1, 43667, Note_off_c, 0, 61, 0
1, 43680, Note_on_c, 0, 61, 64
1, 44520, Note_off_c, 0, 61, 0
1, 45358, Note_on_c, 0, 73, 59
1, 45593, Note_off_c, 0, 73, 0
1, 45600, Note_on_c, 0, 77, 64
1, 45827, Note_off_c, 0, 77, 0
1, 45840, Note_on_c, 0, 80, 64
1, 46067, Note_off_c, 0, 80, 0
1, 46080, Note_on_c, 0, 82, 64
1, 46763, Note_off_c, 0, 82, 0
1, 46800, Note_on_c, 0, 80, 64
1, 47027, Note_off_c, 0, 80, 0
1, 47040, Note_on_c, 0, 82, 64
1, 47267, Note_off_c, 0, 82, 0
1, 47280, Note_on_c, 0, 85, 64
1, 47507, Note_off_c, 0, 85, 0
1, 47520, Note_on_c, 0, 77, 64
1, 48887, Note_off_c, 0, 77, 0
1, 48960, Note_on_c, 0, 78, 64
1, 49187, Note_off_c, 0, 78, 0
1, 49200, Note_on_c, 0, 77, 64
1, 49427, Note_off_c, 0, 77, 0
1, 49440, Note_on_c, 0, 75, 64
1, 49667, Note_off_c, 0, 75, 0
1, 49680, Note_on_c, 0, 73, 64
1, 49907, Note_off_c, 0, 73, 0
1, 49920, Note_on_c, 0, 75, 64
1, 50603, Note_off_c, 0, 75, 0
1, 50640, Note_on_c, 0, 73, 64
1, 50867, Note_off_c, 0, 73, 0
1, 50880, Note_on_c, 0, 75, 64
1, 51107, Note_off_c, 0, 75, 0
1, 51120, Note_on_c, 0, 77, 64
1, 51347, Note_off_c, 0, 77, 0
1, 51360, Note_on_c, 0, 70, 64
1, 53183, Note_off_c, 0, 70, 0
1, 53280, Note_on_c, 0, 77, 64
1, 53507, Note_off_c, 0, 77, 0
1, 53520, Note_on_c, 0, 80, 64
1, 53747, Note_off_c, 0, 80, 0
1, 53760, Note_on_c, 0, 82, 64
1, 54443, Note_off_c, 0, 82, 0
1, 54480, Note_on_c, 0, 80, 64
1, 54707, Note_off_c, 0, 80, 0
1, 54720, Note_on_c, 0, 82, 64
1, 54947, Note_off_c, 0, 82, 0
1, 54960, Note_on_c, 0, 85, 64
1, 55187, Note_off_c, 0, 85, 0
1, 55200, Note_on_c, 0, 77, 64
1, 56614, Note_off_c, 0, 77, 0
1, 56640, Note_on_c, 0, 78, 64
1, 56867, Note_off_c, 0, 78, 0
1, 56880, Note_on_c, 0, 77, 64
1, 57107, Note_off_c, 0, 77, 0
1, 57120, Note_on_c, 0, 75, 64
1, 57347, Note_off_c, 0, 75, 0
1, 57360, Note_on_c, 0, 73, 64
1, 57587, Note_off_c, 0, 73, 0
1, 57600, Note_on_c, 0, 75, 64
1, 58283, Note_off_c, 0, 75, 0
1, 58320, Note_on_c, 0, 73, 64
1, 58547, Note_off_c, 0, 73, 0
1, 58560, Note_on_c, 0, 75, 64
1, 58787, Note_off_c, 0, 75, 0
1, 58800, Note_on_c, 0, 77, 64
1, 59027, Note_off_c, 0, 77, 0
1, 59040, Note_on_c, 0, 70, 64
1, 59723, Note_off_c, 0, 70, 0
1, 59760, Note_on_c, 0, 77, 64
1, 59987, Note_off_c, 0, 77, 0
1, 60000, Note_on_c, 0, 77, 64
1, 60227, Note_off_c, 0, 77, 0
1, 60240, Note_on_c, 0, 77, 64
1, 60467, Note_off_c, 0, 77, 0
1, 60480, Note_on_c, 0, 77, 64
1, 60707, Note_off_c, 0, 77, 0
1, 60720, Note_on_c, 0, 75, 64
1, 60947, Note_off_c, 0, 75, 0
1, 60960, Note_on_c, 0, 73, 64
1, 61187, Note_off_c, 0, 73, 0
1, 61200, Note_on_c, 0, 75, 64
1, 61427, Note_off_c, 0, 75, 0
1, 61440, Note_on_c, 0, 75, 64
1, 61895, Note_off_c, 0, 75, 0
1, 61920, Note_on_c, 0, 70, 64
1, 62375, Note_off_c, 0, 70, 0
1, 62400, Note_on_c, 0, 75, 64
1, 62855, Note_off_c, 0, 75, 0
1, 62880, Note_on_c, 0, 70, 64
1, 63563, Note_off_c, 0, 70, 0
1, 63600, Note_on_c, 0, 77, 64
1, 63827, Note_off_c, 0, 77, 0
1, 63840, Note_on_c, 0, 77, 64
1, 64067, Note_off_c, 0, 77, 0
1, 64080, Note_on_c, 0, 77, 64
1, 64307, Note_off_c, 0, 77, 0
1, 64320, Note_on_c, 0, 77, 64
1, 64547, Note_off_c, 0, 77, 0
1, 64560, Note_on_c, 0, 75, 64
1, 64787, Note_off_c, 0, 75, 0
1, 64800, Note_on_c, 0, 73, 64
1, 65027, Note_off_c, 0, 73, 0
1, 65040, Note_on_c, 0, 75, 64
1, 65267, Note_off_c, 0, 75, 0
1, 65280, Note_on_c, 0, 75, 64
1, 66647, Note_off_c, 0, 75, 0
1, 66720, Note_on_c, 0, 73, 64
1, 67403, Note_off_c, 0, 73, 0
1, 67440, Note_on_c, 0, 77, 64
1, 67667, Note_off_c, 0, 77, 0
1, 67680, Note_on_c, 0, 77, 64
1, 67907, Note_off_c, 0, 77, 0
1, 67920, Note_on_c, 0, 77, 64
1, 68147, Note_off_c, 0, 77, 0
1, 68160, Note_on_c, 0, 77, 64
1, 68387, Note_off_c, 0, 77, 0
1, 68400, Note_on_c, 0, 75, 64
1, 68627, Note_off_c, 0, 75, 0
1, 68640, Note_on_c, 0, 73, 64
1, 68867, Note_off_c, 0, 73, 0
1, 68880, Note_on_c, 0, 75, 64
1, 69107, Note_off_c, 0, 75, 0
1, 69116, Note_on_c, 0, 75, 64
1, 69571, Note_off_c, 0, 75, 0
1, 69596, Note_on_c, 0, 70, 64
1, 70051, Note_off_c, 0, 70, 0
1, 70076, Note_on_c, 0, 75, 64
1, 70531, Note_off_c, 0, 75, 0
1, 70556, Note_on_c, 0, 70, 64
1, 71239, Note_off_c, 0, 70, 0
1, 71280, Note_on_c, 0, 77, 66
1, 71507, Note_off_c, 0, 77, 0
1, 71520, Note_on_c, 0, 77, 68
1, 71747, Note_off_c, 0, 77, 0
1, 71760, Note_on_c, 0, 77, 70
1, 71987, Note_off_c, 0, 77, 0
1, 72000, Note_on_c, 0, 77, 72
1, 72227, Note_off_c, 0, 77, 0
1, 72240, Note_on_c, 0, 75, 74
1, 72467, Note_off_c, 0, 75, 0
1, 72480, Note_on_c, 0, 73, 76
1, 72707, Note_off_c, 0, 73, 0
1, 72720, Note_on_c, 0, 75, 78
1, 72947, Note_off_c, 0, 75, 0
1, 72960, Note_on_c, 0, 75, 80
1, 74327, Note_off_c, 0, 75, 0
1, 74400, Note_on_c, 0, 73, 80
1, 75083, Note_off_c, 0, 73, 0
1, 75120, Note_on_c, 0, 77, 80
1, 75347, Note_off_c, 0, 77, 0
1, 75360, Note_on_c, 0, 77, 80
1, 75587, Note_off_c, 0, 77, 0
1, 75600, Note_on_c, 0, 77, 80
1, 75827, Note_off_c, 0, 77, 0
1, 75840, Note_on_c, 0, 77, 80
1, 76067, Note_off_c, 0, 77, 0
1, 76080, Note_on_c, 0, 75, 80
1, 76307, Note_off_c, 0, 75, 0
1, 76320, Note_on_c, 0, 73, 80
1, 76547, Note_off_c, 0, 73, 0
1, 76560, Note_on_c, 0, 75, 80
1, 76787, Note_off_c, 0, 75, 0
1, 76802, Note_on_c, 0, 75, 64
1, 77257, Note_off_c, 0, 75, 0
1, 77282, Note_on_c, 0, 70, 64
1, 77737, Note_off_c, 0, 70, 0
1, 77762, Note_on_c, 0, 75, 64
1, 78217, Note_off_c, 0, 75, 0
1, 78242, Note_on_c, 0, 70, 64
1, 78925, Note_off_c, 0, 70, 0
1, 83036, Note_on_c, 0, 77, 80
1, 83264, Note_off_c, 0, 77, 0
1, 83276, Note_on_c, 0, 77, 80
1, 83503, Note_off_c, 0, 77, 0
1, 83516, Note_on_c, 0, 77, 80
1, 83743, Note_off_c, 0, 77, 0
1, 83756, Note_on_c, 0, 77, 80
1, 83983, Note_off_c, 0, 77, 0
1, 83997, Note_on_c, 0, 75, 80
1, 84223, Note_off_c, 0, 75, 0
1, 84237, Note_on_c, 0, 73, 80
1, 84464, Note_off_c, 0, 73, 0
1, 84476, Note_on_c, 0, 75, 80
1, 84704, Note_off_c, 0, 75, 0
1, 84718, Note_on_c, 0, 75, 64
1, 85173, Note_off_c, 0, 75, 0
1, 85199, Note_on_c, 0, 70, 64
1, 85654, Note_off_c, 0, 70, 0
1, 85678, Note_on_c, 0, 75, 64
1, 86133, Note_off_c, 0, 75, 0
1, 86158, Note_on_c, 0, 70, 64
1, 86841, Note_off_c, 0, 70, 0
1, 103680, Note_on_c, 0, 75, 64
1, 104135, Note_off_c, 0, 75, 0
1, 104160, Note_on_c, 0, 70, 64
1, 104615, Note_off_c, 0, 70, 0
1, 104639, Note_on_c, 0, 75, 64
1, 105094, Note_off_c, 0, 75, 0
1, 105120, Note_on_c, 0, 70, 64
1, 105803, Note_off_c, 0, 70, 0
1, 106531, Note_on_c, 0, 73, 64
1, 106758, Note_off_c, 0, 73, 0
1, 106779, Note_on_c, 0, 73, 64
1, 107006, Note_off_c, 0, 73, 0
1, 107019, Note_on_c, 0, 75, 64
1, 107246, Note_off_c, 0, 75, 0
1, 107260, Note_on_c, 0, 73, 64
1, 107372, Note_off_c, 0, 73, 0
1, 107380, Note_on_c, 0, 75, 64
1, 107607, Note_off_c, 0, 75, 0
1, 107619, Note_on_c, 0, 73, 64
1, 107732, Note_off_c, 0, 73, 0
1, 107739, Note_on_c, 0, 77, 64
1, 107966, Note_off_c, 0, 77, 0
1, 108000, Note_on_c, 0, 70, 64
1, 108455, Note_off_c, 0, 70, 0
1, 108480, Note_on_c, 0, 70, 64
1, 108707, Note_off_c, 0, 70, 0
1, 108720, Note_on_c, 0, 73, 64
1, 108947, Note_off_c, 0, 73, 0
1, 108960, Note_on_c, 0, 75, 64
1, 109187, Note_off_c, 0, 75, 0
1, 109200, Note_on_c, 0, 73, 64
1, 109313, Note_off_c, 0, 73, 0
1, 109320, Note_on_c, 0, 75, 64
1, 109547, Note_off_c, 0, 75, 0
1, 109560, Note_on_c, 0, 73, 64
1, 109673, Note_off_c, 0, 73, 0
1, 109680, Note_on_c, 0, 77, 64
1, 109907, Note_off_c, 0, 77, 0
1, 109920, Note_on_c, 0, 70, 64
1, 110375, Note_off_c, 0, 70, 0
1, 110400, Note_on_c, 0, 70, 64
1, 110627, Note_off_c, 0, 70, 0
1, 110640, Note_on_c, 0, 73, 64
1, 110867, Note_off_c, 0, 73, 0
1, 110880, Note_on_c, 0, 75, 64
1, 111107, Note_off_c, 0, 75, 0
1, 111120, Note_on_c, 0, 73, 64
1, 111233, Note_off_c, 0, 73, 0
1, 111240, Note_on_c, 0, 75, 64
1, 111467, Note_off_c, 0, 75, 0
1, 111480, Note_on_c, 0, 73, 64
1, 111593, Note_off_c, 0, 73, 0
1, 111600, Note_on_c, 0, 75, 64
1, 111827, Note_off_c, 0, 75, 0
1, 111840, Note_on_c, 0, 73, 64
1, 111953, Note_off_c, 0, 73, 0
1, 111960, Note_on_c, 0, 75, 64
1, 112187, Note_off_c, 0, 75, 0
1, 112200, Note_on_c, 0, 77, 64
1, 112541, Note_off_c, 0, 77, 0
1, 112560, Note_on_c, 0, 73, 64
1, 112787, Note_off_c, 0, 73, 0
1, 112800, Note_on_c, 0, 75, 64
1, 113027, Note_off_c, 0, 75, 0
1, 113040, Note_on_c, 0, 73, 64
1, 113153, Note_off_c, 0, 73, 0
1, 113160, Note_on_c, 0, 75, 64
1, 113387, Note_off_c, 0, 75, 0
1, 113400, Note_on_c, 0, 73, 64
1, 113511, Note_on_c, 0, 77, 64
1, 113513, Note_off_c, 0, 73, 0
1, 113738, Note_off_c, 0, 77, 0
1, 113752, Note_on_c, 0, 70, 64
1, 114206, Note_off_c, 0, 70, 0
1, 116641, Note_on_c, 0, 75, 64
1, 116868, Note_off_c, 0, 75, 0
1, 116881, Note_on_c, 0, 73, 64
1, 116994, Note_off_c, 0, 73, 0
1, 117001, Note_on_c, 0, 75, 64
1, 117228, Note_off_c, 0, 75, 0
1, 117241, Note_on_c, 0, 73, 64
1, 117352, Note_on_c, 0, 77, 64
1, 117354, Note_off_c, 0, 73, 0
1, 117579, Note_off_c, 0, 77, 0
1, 117593, Note_on_c, 0, 70, 64
1, 118047, Note_off_c, 0, 70, 0
1, 118329, Note_on_c, 0, 73, 64
1, 118555, Note_off_c, 0, 73, 0
1, 118569, Note_on_c, 0, 75, 64
1, 118796, Note_off_c, 0, 75, 0
1, 118808, Note_on_c, 0, 73, 64
1, 118921, Note_off_c, 0, 73, 0
1, 118928, Note_on_c, 0, 75, 64
1, 119155, Note_off_c, 0, 75, 0
1, 119168, Note_on_c, 0, 73, 64
1, 119282, Note_off_c, 0, 73, 0
1, 119288, Note_on_c, 0, 75, 64
1, 119515, Note_off_c, 0, 75, 0
1, 119541, Note_on_c, 0, 82, 64
1, 119759, Note_off_c, 0, 82, 0
1, 119773, Note_on_c, 0, 75, 64
1, 120000, Note_off_c, 0, 75, 0
1, 120008, Note_on_c, 0, 75, 64
1, 120235, Note_off_c, 0, 75, 0
1, 120242, Note_on_c, 0, 75, 64
1, 120469, Note_off_c, 0, 75, 0
1, 120494, Note_on_c, 0, 75, 64
1, 120720, Note_off_c, 0, 75, 0
1, 120734, Note_on_c, 0, 73, 64
1, 120847, Note_off_c, 0, 73, 0
1, 120854, Note_on_c, 0, 75, 64
1, 121081, Note_off_c, 0, 75, 0
1, 121094, Note_on_c, 0, 73, 64
1, 121205, Note_on_c, 0, 77, 64
1, 121206, Note_off_c, 0, 73, 0
1, 121432, Note_off_c, 0, 77, 0
1, 121445, Note_on_c, 0, 70, 64
1, 121900, Note_off_c, 0, 70, 0
1, 121917, Note_on_c, 0, 73, 100
1, 122137, Note_off_c, 0, 73, 0
1, 122153, Note_on_c, 0, 70, 100
1, 122381, Note_off_c, 0, 70, 0
1, 122400, Note_on_c, 0, 77, 100
1, 123348, Note_off_c, 0, 77, 0
1, 123611, Note_on_c, 0, 65, 64
1, 123828, Note_off_c, 0, 65, 0
1, 123835, Note_on_c, 0, 68, 100
1, 124055, Note_off_c, 0, 68, 0
1, 124082, Note_on_c, 0, 65, 64
1, 124195, Note_off_c, 0, 65, 0
1, 124200, Note_on_c, 0, 65, 64
1, 124313, Note_off_c, 0, 65, 0
1, 124326, Note_on_c, 0, 65, 100
1, 124785, Note_off_c, 0, 65, 0
1, 125522, Note_on_c, 0, 65, 64
1, 125739, Note_off_c, 0, 65, 0
1, 125764, Note_on_c, 0, 68, 100
1, 125985, Note_off_c, 0, 68, 0
1, 126011, Note_on_c, 0, 65, 64
1, 126125, Note_off_c, 0, 65, 0
1, 126129, Note_on_c, 0, 65, 64
1, 126243, Note_off_c, 0, 65, 0
1, 126256, Note_on_c, 0, 65, 100
1, 126714, Note_off_c, 0, 65, 0
1, 126735, Note_on_c, 0, 68, 100
1, 126957, Note_off_c, 0, 68, 0
1, 126982, Note_on_c, 0, 65, 64
1, 127097, Note_off_c, 0, 65, 0
1, 127100, Note_on_c, 0, 65, 64
1, 127215, Note_off_c, 0, 65, 0
1, 127228, Note_on_c, 0, 65, 100
1, 127685, Note_off_c, 0, 65, 0
1, 127695, Note_on_c, 0, 68, 100
1, 127916, Note_off_c, 0, 68, 0
1, 127942, Note_on_c, 0, 65, 64
1, 128056, Note_off_c, 0, 65, 0
1, 128060, Note_on_c, 0, 65, 64
1, 128174, Note_off_c, 0, 65, 0
1, 128188, Note_on_c, 0, 65, 100
1, 128645, Note_off_c, 0, 65, 0
1, 129360, Note_on_c, 0, 70, 100
1, 129589, Note_off_c, 0, 70, 0
1, 129611, Note_on_c, 0, 73, 100
1, 129831, Note_off_c, 0, 73, 0
1, 129847, Note_on_c, 0, 70, 100
1, 130075, Note_off_c, 0, 70, 0
1, 130095, Note_on_c, 0, 77, 100
1, 131042, Note_off_c, 0, 77, 0
1, 131311, Note_on_c, 0, 65, 64
1, 131528, Note_off_c, 0, 65, 0
1, 131535, Note_on_c, 0, 68, 100
1, 131755, Note_off_c, 0, 68, 0
1, 131782, Note_on_c, 0, 65, 64
1, 131895, Note_off_c, 0, 65, 0
1, 131899, Note_on_c, 0, 65, 64
1, 132013, Note_off_c, 0, 65, 0
1, 132026, Note_on_c, 0, 65, 100
1, 132484, Note_off_c, 0, 65, 0
1, 133212, Note_on_c, 0, 65, 64
1, 133428, Note_off_c, 0, 65, 0
1, 133454, Note_on_c, 0, 68, 100
1, 133674, Note_off_c, 0, 68, 0
1, 133701, Note_on_c, 0, 65, 64
1, 133814, Note_off_c, 0, 65, 0
1, 133819, Note_on_c, 0, 65, 64
1, 133932, Note_off_c, 0, 65, 0
1, 133945, Note_on_c, 0, 65, 100
1, 134404, Note_off_c, 0, 65, 0
1, 134425, Note_on_c, 0, 68, 100
1, 134647, Note_off_c, 0, 68, 0
1, 134672, Note_on_c, 0, 65, 64
1, 134786, Note_off_c, 0, 65, 0
1, 134789, Note_on_c, 0, 65, 64
1, 134904, Note_off_c, 0, 65, 0
1, 134917, Note_on_c, 0, 65, 100
1, 135374, Note_off_c, 0, 65, 0
1, 135384, Note_on_c, 0, 68, 100
1, 135606, Note_off_c, 0, 68, 0
1, 135631, Note_on_c, 0, 65, 64
1, 135746, Note_off_c, 0, 65, 0
1, 135749, Note_on_c, 0, 65, 64
1, 135864, Note_off_c, 0, 65, 0
1, 135877, Note_on_c, 0, 65, 100
1, 136335, Note_off_c, 0, 65, 0
1, 137031, Note_on_c, 0, 73, 64
1, 137258, Note_off_c, 0, 73, 0
1, 137280, Note_on_c, 0, 77, 64
1, 137507, Note_off_c, 0, 77, 0
1, 137520, Note_on_c, 0, 80, 64
1, 137747, Note_off_c, 0, 80, 0
1, 137760, Note_on_c, 0, 82, 64
1, 138443, Note_off_c, 0, 82, 0
1, 138480, Note_on_c, 0, 80, 64
1, 138707, Note_off_c, 0, 80, 0
1, 138720, Note_on_c, 0, 82, 64
1, 138947, Note_off_c, 0, 82, 0
1, 138960, Note_on_c, 0, 85, 64
1, 139187, Note_off_c, 0, 85, 0
1, 139200, Note_on_c, 0, 77, 64
1, 140567, Note_off_c, 0, 77, 0
1, 140640, Note_on_c, 0, 77, 64
1, 140711, Note_off_c, 0, 77, 0
1, 140712, Note_on_c, 0, 78, 64
1, 140869, Note_off_c, 0, 78, 0
1, 140880, Note_on_c, 0, 77, 64
1, 141107, Note_off_c, 0, 77, 0
1, 141120, Note_on_c, 0, 75, 64
1, 141347, Note_off_c, 0, 75, 0
1, 141360, Note_on_c, 0, 73, 64
1, 141587, Note_off_c, 0, 73, 0
1, 141600, Note_on_c, 0, 75, 64
1, 142283, Note_off_c, 0, 75, 0
1, 142320, Note_on_c, 0, 73, 64
1, 142547, Note_off_c, 0, 73, 0
1, 142560, Note_on_c, 0, 75, 64
1, 142787, Note_off_c, 0, 75, 0
1, 142800, Note_on_c, 0, 77, 64
1, 143027, Note_off_c, 0, 77, 0
1, 143040, Note_on_c, 0, 70, 64
1, 144905, Note_off_c, 0, 70, 0
1, 144960, Note_on_c, 0, 77, 64
1, 145187, Note_off_c, 0, 77, 0
1, 145200, Note_on_c, 0, 80, 64
1, 145427, Note_off_c, 0, 80, 0
1, 145440, Note_on_c, 0, 82, 64
1, 146123, Note_off_c, 0, 82, 0
1, 146160, Note_on_c, 0, 80, 64
1, 146387, Note_off_c, 0, 80, 0
1, 146400, Note_on_c, 0, 82, 64
1, 146627, Note_off_c, 0, 82, 0
1, 146640, Note_on_c, 0, 85, 64
1, 146867, Note_off_c, 0, 85, 0
1, 146880, Note_on_c, 0, 77, 64
1, 148247, Note_off_c, 0, 77, 0
1, 148320, Note_on_c, 0, 78, 64
1, 148547, Note_off_c, 0, 78, 0
1, 148560, Note_on_c, 0, 77, 64
1, 148787, Note_off_c, 0, 77, 0
1, 148800, Note_on_c, 0, 75, 64
1, 149027, Note_off_c, 0, 75, 0
1, 149040, Note_on_c, 0, 73, 64
1, 149267, Note_off_c, 0, 73, 0
1, 149280, Note_on_c, 0, 75, 64
1, 149963, Note_off_c, 0, 75, 0
1, 150000, Note_on_c, 0, 73, 64
1, 150227, Note_off_c, 0, 73, 0
1, 150240, Note_on_c, 0, 75, 64
1, 150467, Note_off_c, 0, 75, 0
1, 150480, Note_on_c, 0, 77, 64
1, 150707, Note_off_c, 0, 77, 0
1, 150720, Note_on_c, 0, 70, 64
1, 151403, Note_off_c, 0, 70, 0
1, 151440, Note_on_c, 0, 77, 64
1, 151667, Note_off_c, 0, 77, 0
1, 151680, Note_on_c, 0, 77, 64
1, 151907, Note_off_c, 0, 77, 0
1, 151920, Note_on_c, 0, 77, 64
1, 152147, Note_off_c, 0, 77, 0
1, 152160, Note_on_c, 0, 77, 64
1, 152387, Note_off_c, 0, 77, 0
1, 152400, Note_on_c, 0, 75, 64
1, 152627, Note_off_c, 0, 75, 0
1, 152640, Note_on_c, 0, 73, 64
1, 152867, Note_off_c, 0, 73, 0
1, 152880, Note_on_c, 0, 75, 64
1, 153107, Note_off_c, 0, 75, 0
1, 153120, Note_on_c, 0, 75, 64
1, 153575, Note_off_c, 0, 75, 0
1, 153600, Note_on_c, 0, 70, 64
1, 154055, Note_off_c, 0, 70, 0
1, 154080, Note_on_c, 0, 75, 64
1, 154535, Note_off_c, 0, 75, 0
1, 154560, Note_on_c, 0, 70, 64
1, 155243, Note_off_c, 0, 70, 0
1, 155280, Note_on_c, 0, 77, 64
1, 155507, Note_off_c, 0, 77, 0
1, 155520, Note_on_c, 0, 77, 64
1, 155747, Note_off_c, 0, 77, 0
1, 155760, Note_on_c, 0, 77, 64
1, 155987, Note_off_c, 0, 77, 0
1, 156000, Note_on_c, 0, 77, 64
1, 156227, Note_off_c, 0, 77, 0
1, 156240, Note_on_c, 0, 75, 64
1, 156467, Note_off_c, 0, 75, 0
1, 156480, Note_on_c, 0, 73, 64
1, 156707, Note_off_c, 0, 73, 0
1, 156720, Note_on_c, 0, 75, 64
1, 156947, Note_off_c, 0, 75, 0
1, 156960, Note_on_c, 0, 75, 64
1, 158327, Note_off_c, 0, 75, 0
1, 158400, Note_on_c, 0, 73, 64
1, 159083, Note_off_c, 0, 73, 0
1, 159119, Note_on_c, 0, 77, 64
1, 159346, Note_off_c, 0, 77, 0
1, 159359, Note_on_c, 0, 77, 64
1, 159586, Note_off_c, 0, 77, 0
1, 159599, Note_on_c, 0, 77, 64
1, 159826, Note_off_c, 0, 77, 0
1, 159839, Note_on_c, 0, 77, 64
1, 160066, Note_off_c, 0, 77, 0
1, 160079, Note_on_c, 0, 75, 64
1, 160305, Note_off_c, 0, 75, 0
1, 160319, Note_on_c, 0, 73, 64
1, 160546, Note_off_c, 0, 73, 0
1, 160559, Note_on_c, 0, 75, 64
1, 160786, Note_off_c, 0, 75, 0
1, 160799, Note_on_c, 0, 75, 64
1, 161254, Note_off_c, 0, 75, 0
1, 161278, Note_on_c, 0, 70, 64
1, 161734, Note_off_c, 0, 70, 0
1, 161759, Note_on_c, 0, 75, 64
1, 162214, Note_off_c, 0, 75, 0
1, 162239, Note_on_c, 0, 70, 64
1, 162922, Note_off_c, 0, 70, 0
1, 162959, Note_on_c, 0, 77, 64
1, 163186, Note_off_c, 0, 77, 0
1, 163199, Note_on_c, 0, 77, 64
1, 163426, Note_off_c, 0, 77, 0
1, 163439, Note_on_c, 0, 77, 64
1, 163666, Note_off_c, 0, 77, 0
1, 163679, Note_on_c, 0, 77, 64
1, 163906, Note_off_c, 0, 77, 0
1, 163919, Note_on_c, 0, 75, 64
1, 164146, Note_off_c, 0, 75, 0
1, 164159, Note_on_c, 0, 73, 64
1, 164386, Note_off_c, 0, 73, 0
1, 164399, Note_on_c, 0, 75, 64
1, 164626, Note_off_c, 0, 75, 0
1, 164639, Note_on_c, 0, 75, 64
1, 166006, Note_off_c, 0, 75, 0
1, 166079, Note_on_c, 0, 73, 64
1, 166762, Note_off_c, 0, 73, 0
1, 166798, Note_on_c, 0, 77, 64
1, 167026, Note_off_c, 0, 77, 0
1, 167039, Note_on_c, 0, 77, 64
1, 167265, Note_off_c, 0, 77, 0
1, 167279, Note_on_c, 0, 77, 64
1, 167506, Note_off_c, 0, 77, 0
1, 167519, Note_on_c, 0, 77, 64
1, 167746, Note_off_c, 0, 77, 0
1, 167759, Note_on_c, 0, 75, 64
1, 167986, Note_off_c, 0, 75, 0
1, 167999, Note_on_c, 0, 73, 64
1, 168226, Note_off_c, 0, 73, 0
1, 168238, Note_on_c, 0, 75, 64
1, 168466, Note_off_c, 0, 75, 0
1, 168481, Note_on_c, 0, 75, 64
1, 168936, Note_off_c, 0, 75, 0
1, 168960, Note_on_c, 0, 70, 64
1, 169416, Note_off_c, 0, 70, 0
1, 169441, Note_on_c, 0, 75, 64
1, 169896, Note_off_c, 0, 75, 0
1, 169921, Note_on_c, 0, 70, 64
1, 170604, Note_off_c, 0, 70, 0
1, 174473, Note_on_c, 0, 77, 80
1, 174701, Note_off_c, 0, 77, 0
1, 174715, Note_on_c, 0, 77, 80
1, 174940, Note_off_c, 0, 77, 0
1, 174954, Note_on_c, 0, 77, 80
1, 175182, Note_off_c, 0, 77, 0
1, 175194, Note_on_c, 0, 77, 80
1, 175421, Note_off_c, 0, 77, 0
1, 175434, Note_on_c, 0, 75, 80
1, 175661, Note_off_c, 0, 75, 0
1, 175674, Note_on_c, 0, 73, 80
1, 175901, Note_off_c, 0, 73, 0
1, 175913, Note_on_c, 0, 75, 80
1, 176141, Note_off_c, 0, 75, 0
1, 176156, Note_on_c, 0, 75, 64
1, 176612, Note_off_c, 0, 75, 0
1, 176636, Note_on_c, 0, 70, 64
1, 177091, Note_off_c, 0, 70, 0
1, 177116, Note_on_c, 0, 75, 64
1, 177570, Note_off_c, 0, 75, 0
1, 177596, Note_on_c, 0, 70, 64
1, 178280, Note_off_c, 0, 70, 0
1, 183120, Note_on_c, 0, 65, 80
1, 183347, Note_off_c, 0, 65, 0
1, 183360, Note_on_c, 0, 63, 80
1, 183587, Note_off_c, 0, 63, 0
1, 183600, Note_on_c, 0, 61, 80
1, 183827, Note_off_c, 0, 61, 0
1, 183840, Note_on_c, 0, 63, 80
1, 184181, Note_off_c, 0, 63, 0
1, 184200, Note_on_c, 0, 63, 80
1, 184313, Note_off_c, 0, 63, 0
1, 184320, Note_on_c, 0, 63, 80
1, 184547, Note_off_c, 0, 63, 0
1, 184560, Note_on_c, 0, 63, 80
1, 184787, Note_off_c, 0, 63, 0
1, 184800, Note_on_c, 0, 65, 80
1, 185027, Note_off_c, 0, 65, 0
1, 185040, Note_on_c, 0, 58, 80
1, 185267, Note_off_c, 0, 58, 0
1, 185280, Note_on_c, 0, 58, 80
1, 185735, Note_off_c, 0, 58, 0
1, 185752, Note_on_c, 0, 63, 80
1, 186093, Note_off_c, 0, 63, 0
1, 186112, Note_on_c, 0, 63, 80
1, 186225, Note_off_c, 0, 63, 0
1, 186232, Note_on_c, 0, 63, 80
1, 186459, Note_off_c, 0, 63, 0
1, 186472, Note_on_c, 0, 63, 80
1, 186699, Note_off_c, 0, 63, 0
1, 186712, Note_on_c, 0, 65, 80
1, 186939, Note_off_c, 0, 65, 0
1, 186960, Note_on_c, 0, 58, 80
1, 187187, Note_off_c, 0, 58, 0
1, 187200, Note_on_c, 0, 58, 80
1, 187655, Note_off_c, 0, 58, 0
1, 187680, Note_on_c, 0, 63, 80
1, 188021, Note_off_c, 0, 63, 0
1, 188040, Note_on_c, 0, 63, 80
1, 188153, Note_off_c, 0, 63, 0
1, 188160, Note_on_c, 0, 63, 80
1, 188387, Note_off_c, 0, 63, 0
1, 188400, Note_on_c, 0, 63, 80
1, 188627, Note_off_c, 0, 63, 0
1, 188640, Note_on_c, 0, 65, 80
1, 188867, Note_off_c, 0, 65, 0
1, 188880, Note_on_c, 0, 58, 80
1, 189107, Note_off_c, 0, 58, 0
1, 189120, Note_on_c, 0, 58, 80
1, 189347, Note_off_c, 0, 58, 0
1, 189360, Note_on_c, 0, 58, 80
1, 189587, Note_off_c, 0, 58, 0
1, 189600, Note_on_c, 0, 63, 80
1, 189941, Note_off_c, 0, 63, 0
1, 189960, Note_on_c, 0, 63, 80
1, 190073, Note_off_c, 0, 63, 0
1, 190080, Note_on_c, 0, 63, 80
1, 190307, Note_off_c, 0, 63, 0
1, 190320, Note_on_c, 0, 63, 80
1, 190547, Note_off_c, 0, 63, 0
1, 190560, Note_on_c, 0, 65, 80
1, 190787, Note_off_c, 0, 65, 0
1, 190800, Note_on_c, 0, 58, 80
1, 191027, Note_off_c, 0, 58, 0
1, 191040, Note_on_c, 0, 58, 80
1, 191495, Note_off_c, 0, 58, 0
1, 191531, Note_on_c, 0, 63, 80
1, 191873, Note_off_c, 0, 63, 0
1, 191891, Note_on_c, 0, 61, 80
1, 192003, Note_off_c, 0, 61, 0
1, 192012, Note_on_c, 0, 63, 80
1, 192239, Note_off_c, 0, 63, 0
1, 192250, Note_on_c, 0, 61, 80
1, 192477, Note_off_c, 0, 61, 0
1, 192491, Note_on_c, 0, 65, 80
1, 192718, Note_off_c, 0, 65, 0
1, 192720, Note_on_c, 0, 58, 80
1, 192947, Note_off_c, 0, 58, 0
1, 192960, Note_on_c, 0, 58, 80
1, 193415, Note_off_c, 0, 58, 0
1, 193440, Note_on_c, 0, 63, 80
1, 193781, Note_off_c, 0, 63, 0
1, 193800, Note_on_c, 0, 63, 80
1, 193913, Note_off_c, 0, 63, 0
1, 193920, Note_on_c, 0, 63, 80
1, 194147, Note_off_c, 0, 63, 0
1, 194160, Note_on_c, 0, 63, 80
1, 194387, Note_off_c, 0, 63, 0
1, 194400, Note_on_c, 0, 65, 80
1, 194627, Note_off_c, 0, 65, 0
1, 194640, Note_on_c, 0, 58, 80
1, 194867, Note_off_c, 0, 58, 0
1, 194880, Note_on_c, 0, 58, 80
1, 195335, Note_off_c, 0, 58, 0
1, 195360, Note_on_c, 0, 63, 80
1, 195701, Note_off_c, 0, 63, 0
1, 195720, Note_on_c, 0, 61, 80
1, 195833, Note_off_c, 0, 61, 0
1, 195840, Note_on_c, 0, 61, 80
1, 196067, Note_off_c, 0, 61, 0
1, 196080, Note_on_c, 0, 63, 80
1, 196307, Note_off_c, 0, 63, 0
1, 196320, Note_on_c, 0, 65, 80
1, 196547, Note_off_c, 0, 65, 0
1, 196560, Note_on_c, 0, 58, 80
1, 196787, Note_off_c, 0, 58, 0
1, 196800, Note_on_c, 0, 58, 80
1, 197027, Note_off_c, 0, 58, 0
1, 197040, Note_on_c, 0, 58, 80
1, 197267, Note_off_c, 0, 58, 0
1, 197280, Note_on_c, 0, 63, 80
1, 197621, Note_off_c, 0, 63, 0
1, 197640, Note_on_c, 0, 63, 80
1, 197753, Note_off_c, 0, 63, 0
1, 197760, Note_on_c, 0, 63, 80
1, 197987, Note_off_c, 0, 63, 0
1, 198000, Note_on_c, 0, 63, 80
1, 198227, Note_off_c, 0, 63, 0
1, 198240, Note_on_c, 0, 65, 80
1, 198467, Note_off_c, 0, 65, 0
1, 198480, Note_on_c, 0, 58, 80
1, 198707, Note_off_c, 0, 58, 0
1, 198720, Note_on_c, 0, 58, 80
1, 198947, Note_off_c, 0, 58, 0
1, 198960, Note_on_c, 0, 58, 80
1, 199187, Note_off_c, 0, 58, 0
1, 199200, Note_on_c, 0, 58, 80
1, 200567, Note_off_c, 0, 58, 0
1, 200879, Note_on_c, 0, 77, 64
1, 201106, Note_off_c, 0, 77, 0
1, 201119, Note_on_c, 0, 77, 64
1, 201346, Note_off_c, 0, 77, 0
1, 201359, Note_on_c, 0, 77, 64
1, 201586, Note_off_c, 0, 77, 0
1, 201598, Note_on_c, 0, 77, 64
1, 201826, Note_off_c, 0, 77, 0
1, 201839, Note_on_c, 0, 75, 64
1, 202065, Note_off_c, 0, 75, 0
1, 202079, Note_on_c, 0, 73, 64
1, 202306, Note_off_c, 0, 73, 0
1, 202319, Note_on_c, 0, 75, 64
1, 202546, Note_off_c, 0, 75, 0
1, 202559, Note_on_c, 0, 75, 64
1, 203014, Note_off_c, 0, 75, 0
1, 203036, Note_on_c, 0, 70, 64
1, 203509, Note_off_c, 0, 70, 0
1, 203519, Note_on_c, 0, 75, 64
1, 203974, Note_off_c, 0, 75, 0
1, 203999, Note_on_c, 0, 70, 64
1, 204682, Note_off_c, 0, 70, 0
1, 204719, Note_on_c, 0, 77, 64
1, 204946, Note_off_c, 0, 77, 0
1, 204959, Note_on_c, 0, 77, 64
1, 205186, Note_off_c, 0, 77, 0
1, 205199, Note_on_c, 0, 77, 64
1, 205426, Note_off_c, 0, 77, 0
1, 205439, Note_on_c, 0, 77, 64
1, 205666, Note_off_c, 0, 77, 0
1, 205679, Note_on_c, 0, 75, 64
1, 205906, Note_off_c, 0, 75, 0
1, 205919, Note_on_c, 0, 73, 64
1, 206145, Note_off_c, 0, 73, 0
1, 206159, Note_on_c, 0, 75, 64
1, 206386, Note_off_c, 0, 75, 0
1, 206399, Note_on_c, 0, 75, 64
1, 207766, Note_off_c, 0, 75, 0
1, 207839, Note_on_c, 0, 73, 64
1, 208522, Note_off_c, 0, 73, 0
1, 208558, Note_on_c, 0, 77, 64
1, 208786, Note_off_c, 0, 77, 0
1, 208799, Note_on_c, 0, 77, 64
1, 209025, Note_off_c, 0, 77, 0
1, 209039, Note_on_c, 0, 77, 64
1, 209266, Note_off_c, 0, 77, 0
1, 209279, Note_on_c, 0, 77, 64
1, 209506, Note_off_c, 0, 77, 0
1, 209519, Note_on_c, 0, 75, 64
1, 209746, Note_off_c, 0, 75, 0
1, 209759, Note_on_c, 0, 73, 64
1, 209986, Note_off_c, 0, 73, 0
1, 209998, Note_on_c, 0, 75, 64
1, 210226, Note_off_c, 0, 75, 0
1, 210239, Note_on_c, 0, 75, 64
1, 210693, Note_off_c, 0, 75, 0
1, 210719, Note_on_c, 0, 70, 64
1, 211184, Note_off_c, 0, 70, 0
1, 211199, Note_on_c, 0, 75, 64
1, 211654, Note_off_c, 0, 75, 0
1, 211679, Note_on_c, 0, 70, 64
1, 212361, Note_off_c, 0, 70, 0
1, 212399, Note_on_c, 0, 77, 64
1, 212626, Note_off_c, 0, 77, 0
1, 212639, Note_on_c, 0, 77, 64
1, 212866, Note_off_c, 0, 77, 0
1, 212879, Note_on_c, 0, 77, 64
1, 213105, Note_off_c, 0, 77, 0
1, 213119, Note_on_c, 0, 77, 64
1, 213346, Note_off_c, 0, 77, 0
1, 213359, Note_on_c, 0, 75, 64
1, 213586, Note_off_c, 0, 75, 0
1, 213599, Note_on_c, 0, 73, 64
1, 213826, Note_off_c, 0, 73, 0
1, 213839, Note_on_c, 0, 75, 64
1, 214066, Note_off_c, 0, 75, 0
1, 214078, Note_on_c, 0, 75, 64
1, 215446, Note_off_c, 0, 75, 0
1, 215518, Note_on_c, 0, 73, 64
1, 216720, Tempo, 444444
1, 216954, Note_off_c, 0, 73, 0
1, 220560, Tempo, 461538
1, 223680, Tempo, 500000
1, 225600, Tempo, 550458
1, 226646, End_track
0, 0, End_of_file