0, 0, Header, 1, 2, 480
1, 0, Start_track
1, 0, Time_signature, 4, 2, 24, 8
1, 0, Key_signature, -5, "major"
1, 0, Tempo, 428572
1, 0, Control_c, 0, 121, 0
1, 0, Program_c, 0, 0
1, 0, Control_c, 0, 7, 79
1, 0, Control_c, 0, 10, 64
1, 0, Control_c, 0, 91, 0
1, 0, Control_c, 0, 93, 0
1, 0, MIDI_port, 0
1, 0, Note_on_c, 0, 85, 49
1, 0, Note_on_c, 0, 94, 49
1, 455, Note_on_c, 0, 85, 0
1, 455, Note_on_c, 0, 94, 0
1, 480, Note_on_c, 0, 94, 49
1, 935, Note_on_c, 0, 94, 0
1, 960, Note_on_c, 0, 94, 49
1, 1187, Note_on_c, 0, 94, 0
1, 1200, Note_on_c, 0, 92, 49
1, 1427, Note_on_c, 0, 92, 0
1, 1440, Note_on_c, 0, 85, 49
1, 1440, Note_on_c, 0, 89, 49
1, 2807, Note_on_c, 0, 85, 0
1, 2807, Note_on_c, 0, 89, 0
1, 3120, Note_on_c, 0, 89, 49
1, 3347, Note_on_c, 0, 89, 0
1, 3360, Note_on_c, 0, 92, 49
1, 3587, Note_on_c, 0, 92, 0
1, 3600, Note_on_c, 0, 89, 49
1, 3827, Note_on_c, 0, 89, 0
1, 3840, Note_on_c, 0, 81, 49
1, 3840, Note_on_c, 0, 87, 49
1, 4295, Note_on_c, 0, 81, 0
1, 4295, Note_on_c, 0, 87, 0
1, 4320, Note_on_c, 0, 89, 49
1, 4775, Note_on_c, 0, 89, 0
1, 4800, Note_on_c, 0, 87, 49
1, 5027, Note_on_c, 0, 87, 0
1, 5040, Note_on_c, 0, 85, 49
1, 5267, Note_on_c, 0, 85, 0
1, 5280, Note_on_c, 0, 77, 49
1, 5280, Note_on_c, 0, 82, 49
1, 7103, Note_on_c, 0, 77, 0
1, 7103, Note_on_c, 0, 82, 0
1, 7200, Note_on_c, 0, 77, 49
1, 7427, Note_on_c, 0, 77, 0
1, 7440, Note_on_c, 0, 80, 49
1, 7667, Note_on_c, 0, 80, 0
1, 7680, Note_on_c, 0, 73, 49
1, 7680, Note_on_c, 0, 82, 49
1, 8135, Note_on_c, 0, 73, 0
1, 8135, Note_on_c, 0, 82, 0
1, 8160, Note_on_c, 0, 82, 49
1, 8615, Note_on_c, 0, 82, 0
1, 8640, Note_on_c, 0, 82, 49
1, 8867, Note_on_c, 0, 82, 0
1, 8880, Note_on_c, 0, 80, 49
1, 9107, Note_on_c, 0, 80, 0
1, 9120, Note_on_c, 0, 73, 49
1, 9120, Note_on_c, 0, 77, 49
1, 10487, Note_on_c, 0, 73, 0
1, 10487, Note_on_c, 0, 77, 0
1, 10800, Note_on_c, 0, 77, 49
1, 11027, Note_on_c, 0, 77, 0
1, 11040, Note_on_c, 0, 80, 49
1, 11267, Note_on_c, 0, 80, 0
1, 11280, Note_on_c, 0, 77, 49
1, 11507, Note_on_c, 0, 77, 0
1, 11520, Note_on_c, 0, 65, 49
1, 11520, Note_on_c, 0, 69, 49
1, 11975, Note_on_c, 0, 65, 0
1, 11975, Note_on_c, 0, 69, 0
1, 12000, Note_on_c, 0, 77, 49
1, 12455, Note_on_c, 0, 77, 0
1, 12480, Note_on_c, 0, 73, 49
1, 12707, Note_on_c, 0, 73, 0
1, 12720, Note_on_c, 0, 72, 49
1, 12947, Note_on_c, 0, 72, 0
1, 12960, Note_on_c, 0, 70, 49
1, 14783, Note_on_c, 0, 70, 0
1, 14880, Note_on_c, 0, 61, 64
1, 14993, Note_on_c, 0, 61, 0
1, 15000, Note_on_c, 0, 63, 64
1, 15113, Note_on_c, 0, 63, 0
1, 15120, Note_on_c, 0, 65, 64
1, 15347, Note_on_c, 0, 65, 0
1, 15360, Note_on_c, 0, 58, 64
1, 15360, Note_on_c, 0, 63, 64
1, 15815, Note_on_c, 0, 58, 0
1, 15815, Note_on_c, 0, 63, 0
1, 15840, Note_on_c, 0, 58, 64
1, 16523, Note_on_c, 0, 58, 0
1, 16560, Note_on_c, 0, 58, 64
1, 16787, Note_on_c, 0, 58, 0
1, 16800, Note_on_c, 0, 61, 64
1, 16913, Note_on_c, 0, 61, 0
1, 16920, Note_on_c, 0, 63, 64
1, 17033, Note_on_c, 0, 63, 0
1, 17040, Note_on_c, 0, 65, 64
1, 17267, Note_on_c, 0, 65, 0
1, 17280, Note_on_c, 0, 58, 64
1, 17280, Note_on_c, 0, 63, 64
1, 18647, Note_on_c, 0, 58, 0
1, 18647, Note_on_c, 0, 63, 0
1, 18720, Note_on_c, 0, 61, 64
1, 18833, Note_on_c, 0, 61, 0
1, 18840, Note_on_c, 0, 63, 64
1, 18953, Note_on_c, 0, 63, 0
1, 18960, Note_on_c, 0, 65, 64
1, 19187, Note_on_c, 0, 65, 0
1, 19200, Note_on_c, 0, 58, 64
1, 19200, Note_on_c, 0, 63, 64
1, 19655, Note_on_c, 0, 58, 0
1, 19655, Note_on_c, 0, 63, 0
1, 19680, Note_on_c, 0, 58, 64
1, 20363, Note_on_c, 0, 58, 0
1, 20400, Note_on_c, 0, 58, 64
1, 20627, Note_on_c, 0, 58, 0
1, 20640, Note_on_c, 0, 61, 64
1, 20753, Note_on_c, 0, 61, 0
1, 20760, Note_on_c, 0, 63, 64
1, 20873, Note_on_c, 0, 63, 0
1, 20880, Note_on_c, 0, 65, 64
1, 21107, Note_on_c, 0, 65, 0
1, 21120, Note_on_c, 0, 58, 64
1, 21120, Note_on_c, 0, 63, 64
1, 22487, Note_on_c, 0, 58, 0
1, 22487, Note_on_c, 0, 63, 0
1, 22560, Note_on_c, 0, 65, 64
1, 22673, Note_on_c, 0, 65, 0
1, 22680, Note_on_c, 0, 63, 64
1, 22793, Note_on_c, 0, 63, 0
1, 22800, Note_on_c, 0, 61, 64
1, 23027, Note_on_c, 0, 61, 0
1, 23040, Note_on_c, 0, 58, 64
1, 23040, Note_on_c, 0, 63, 64
1, 23495, Note_on_c, 0, 58, 0
1, 23495, Note_on_c, 0, 63, 0
1, 23520, Note_on_c, 0, 58, 64
1, 24203, Note_on_c, 0, 58, 0
1, 24240, Note_on_c, 0, 58, 64
1, 24467, Note_on_c, 0, 58, 0
1, 24480, Note_on_c, 0, 61, 64
1, 24593, Note_on_c, 0, 61, 0
1, 24600, Note_on_c, 0, 63, 64
1, 24713, Note_on_c, 0, 63, 0
1, 24720, Note_on_c, 0, 65, 64
1, 24947, Note_on_c, 0, 65, 0
1, 24960, Note_on_c, 0, 58, 64
1, 24960, Note_on_c, 0, 63, 64
1, 26327, Note_on_c, 0, 58, 0
1, 26327, Note_on_c, 0, 63, 0
1, 26400, Note_on_c, 0, 63, 64
1, 26513, Note_on_c, 0, 63, 0
1, 26520, Note_on_c, 0, 63, 64
1, 26633, Note_on_c, 0, 63, 0
1, 26640, Note_on_c, 0, 65, 64
1, 26867, Note_on_c, 0, 65, 0
1, 26880, Note_on_c, 0, 58, 64
1, 26880, Note_on_c, 0, 63, 64
1, 27335, Note_on_c, 0, 58, 0
1, 27335, Note_on_c, 0, 63, 0
1, 27360, Note_on_c, 0, 58, 64
1, 28043, Note_on_c, 0, 58, 0
1, 28080, Note_on_c, 0, 58, 64
1, 28307, Note_on_c, 0, 58, 0
1, 28320, Note_on_c, 0, 61, 64
1, 28433, Note_on_c, 0, 61, 0
1, 28440, Note_on_c, 0, 63, 64
1, 28553, Note_on_c, 0, 63, 0
1, 28560, Note_on_c, 0, 65, 64
1, 28787, Note_on_c, 0, 65, 0
1, 28800, Note_on_c, 0, 60, 64
1, 29141, Note_on_c, 0, 60, 0
1, 29160, Note_on_c, 0, 60, 64
1, 29501, Note_on_c, 0, 60, 0
1, 29520, Note_on_c, 0, 61, 64
1, 29747, Note_on_c, 0, 61, 0
1, 29760, Note_on_c, 0, 58, 64
1, 29987, Note_on_c, 0, 58, 0
1, 30000, Note_on_c, 0, 65, 64
1, 30227, Note_on_c, 0, 65, 0
1, 30240, Note_on_c, 0, 63, 64
1, 30467, Note_on_c, 0, 63, 0
1, 30480, Note_on_c, 0, 61, 64
1, 30707, Note_on_c, 0, 61, 0
1, 30720, Note_on_c, 0, 58, 64
1, 30720, Note_on_c, 0, 63, 64
1, 31061, Note_on_c, 0, 58, 0
1, 31061, Note_on_c, 0, 63, 0
1, 31080, Note_on_c, 0, 63, 64
1, 31193, Note_on_c, 0, 63, 0
1, 31200, Note_on_c, 0, 63, 64
1, 31427, Note_on_c, 0, 63, 0
1, 31440, Note_on_c, 0, 63, 64
1, 31667, Note_on_c, 0, 63, 0
1, 31680, Note_on_c, 0, 65, 64
1, 32591, Note_on_c, 0, 65, 0
1, 32640, Note_on_c, 0, 58, 64
1, 32640, Note_on_c, 0, 63, 64
1, 33095, Note_on_c, 0, 58, 0
1, 33095, Note_on_c, 0, 63, 0
1, 33120, Note_on_c, 0, 63, 64
1, 33347, Note_on_c, 0, 63, 0
1, 33360, Note_on_c, 0, 63, 64
1, 33587, Note_on_c, 0, 63, 0
1, 33600, Note_on_c, 0, 65, 64
1, 34055, Note_on_c, 0, 65, 0
1, 34080, Note_on_c, 0, 61, 64
1, 34535, Note_on_c, 0, 61, 0
1, 34560, Note_on_c, 0, 58, 64
1, 34560, Note_on_c, 0, 63, 64
1, 34901, Note_on_c, 0, 58, 0
1, 34901, Note_on_c, 0, 63, 0
1, 34920, Note_on_c, 0, 63, 64
1, 35033, Note_on_c, 0, 63, 0
1, 35040, Note_on_c, 0, 63, 64
1, 35267, Note_on_c, 0, 63, 0
1, 35280, Note_on_c, 0, 63, 64
1, 35507, Note_on_c, 0, 63, 0
1, 35520, Note_on_c, 0, 65, 64
1, 36431, Note_on_c, 0, 65, 0
1, 36480, Note_on_c, 0, 56, 64
1, 36480, Note_on_c, 0, 63, 64
1, 36707, Note_on_c, 0, 56, 0
1, 36707, Note_on_c, 0, 63, 0
1, 36720, Note_on_c, 0, 63, 64
1, 36947, Note_on_c, 0, 63, 0
1, 36960, Note_on_c, 0, 63, 64
1, 37187, Note_on_c, 0, 63, 0
1, 37200, Note_on_c, 0, 63, 64
1, 37427, Note_on_c, 0, 63, 0
1, 37440, Note_on_c, 0, 65, 64
1, 37895, Note_on_c, 0, 65, 0
1, 37920, Note_on_c, 0, 54, 64
1, 37920, Note_on_c, 0, 58, 64
1, 38375, Note_on_c, 0, 54, 0
1, 38375, Note_on_c, 0, 58, 0
1, 38400, Note_on_c, 0, 58, 64
1, 38400, Note_on_c, 0, 63, 64
1, 38855, Note_on_c, 0, 58, 0
1, 38855, Note_on_c, 0, 63, 0
1, 38880, Note_on_c, 0, 63, 64
1, 39107, Note_on_c, 0, 63, 0
1, 39120, Note_on_c, 0, 63, 64
1, 39347, Note_on_c, 0, 63, 0
1, 39360, Note_on_c, 0, 65, 64
1, 40271, Note_on_c, 0, 65, 0
1, 40320, Note_on_c, 0, 63, 64
1, 40320, Note_on_c, 0, 58, 64
1, 40547, Note_on_c, 0, 63, 0
1, 40560, Note_on_c, 0, 63, 64
1, 40787, Note_on_c, 0, 63, 0
1, 40800, Note_on_c, 0, 63, 64
1, 41027, Note_on_c, 0, 63, 0
1, 41040, Note_on_c, 0, 63, 64
1, 41231, Note_on_c, 0, 58, 0
1, 41267, Note_on_c, 0, 63, 0
1, 41280, Note_on_c, 0, 65, 64
1, 41507, Note_on_c, 0, 65, 0
1, 41520, Note_on_c, 0, 63, 64
1, 41747, Note_on_c, 0, 63, 0
1, 41760, Note_on_c, 0, 63, 64
1, 43127, Note_on_c, 0, 63, 0
1, 43200, Note_on_c, 0, 63, 64
1, 43427, Note_on_c, 0, 63, 0
1, 43440, Note_on_c, 0, 61, 64
1, 43667, Note_on_c, 0, 61, 0
1, 43680, Note_on_c, 0, 61, 64
1, 44520, Note_on_c, 0, 61, 0
1, 45360, Note_on_c, 0, 73, 59
1, 45473, Note_on_c, 0, 73, 0
1, 45480, Note_on_c, 0, 73, 59
1, 45593, Note_on_c, 0, 73, 0
1, 45600, Note_on_c, 0, 77, 64
1, 45827, Note_on_c, 0, 77, 0
1, 45840, Note_on_c, 0, 80, 64
1, 46067, Note_on_c, 0, 80, 0
1, 46080, Note_on_c, 0, 82, 64
1, 46080, Note_on_c, 0, 73, 64
1, 46763, Note_on_c, 0, 82, 0
1, 46800, Note_on_c, 0, 80, 64
1, 47027, Note_on_c, 0, 80, 0
1, 47040, Note_on_c, 0, 82, 64
1, 47267, Note_on_c, 0, 82, 0
1, 47280, Note_on_c, 0, 85, 64
1, 47447, Note_on_c, 0, 73, 0
1, 47507, Note_on_c, 0, 85, 0
1, 47520, Note_on_c, 0, 77, 64
1, 47520, Note_on_c, 0, 73, 64
1, 48887, Note_on_c, 0, 77, 0
1, 48960, Note_on_c, 0, 78, 64
1, 49187, Note_on_c, 0, 78, 0
1, 49200, Note_on_c, 0, 77, 64
1, 49343, Note_on_c, 0, 73, 0
1, 49427, Note_on_c, 0, 77, 0
1, 49440, Note_on_c, 0, 75, 64
1, 49667, Note_on_c, 0, 75, 0
1, 49680, Note_on_c, 0, 73, 64
1, 49907, Note_on_c, 0, 73, 0
1, 49920, Note_on_c, 0, 75, 64
1, 49920, Note_on_c, 0, 69, 64
1, 50603, Note_on_c, 0, 75, 0
1, 50640, Note_on_c, 0, 73, 64
1, 50867, Note_on_c, 0, 73, 0
1, 50880, Note_on_c, 0, 75, 64
1, 51107, Note_on_c, 0, 75, 0
1, 51120, Note_on_c, 0, 77, 64
1, 51287, Note_on_c, 0, 69, 0
1, 51347, Note_on_c, 0, 77, 0
1, 51360, Note_on_c, 0, 70, 64
1, 53183, Note_on_c, 0, 70, 0
1, 53280, Note_on_c, 0, 77, 64
1, 53507, Note_on_c, 0, 77, 0
1, 53520, Note_on_c, 0, 80, 64
1, 53747, Note_on_c, 0, 80, 0
1, 53760, Note_on_c, 0, 82, 64
1, 53760, Note_on_c, 0, 73, 64
1, 54443, Note_on_c, 0, 82, 0
1, 54480, Note_on_c, 0, 80, 64
1, 54707, Note_on_c, 0, 80, 0
1, 54720, Note_on_c, 0, 82, 64
1, 54947, Note_on_c, 0, 82, 0
1, 54960, Note_on_c, 0, 85, 64
1, 55127, Note_on_c, 0, 73, 0
1, 55187, Note_on_c, 0, 85, 0
1, 55200, Note_on_c, 0, 77, 64
1, 55200, Note_on_c, 0, 73, 64
1, 56111, Note_on_c, 0, 77, 0
1, 56160, Note_on_c, 0, 77, 64
1, 56615, Note_on_c, 0, 77, 0
1, 56640, Note_on_c, 0, 78, 64
1, 56867, Note_on_c, 0, 78, 0
1, 56880, Note_on_c, 0, 77, 64
1, 57023, Note_on_c, 0, 73, 0
1, 57107, Note_on_c, 0, 77, 0
1, 57120, Note_on_c, 0, 75, 64
1, 57347, Note_on_c, 0, 75, 0
1, 57360, Note_on_c, 0, 73, 64
1, 57587, Note_on_c, 0, 73, 0
1, 57600, Note_on_c, 0, 75, 64
1, 57600, Note_on_c, 0, 69, 64
1, 58283, Note_on_c, 0, 75, 0
1, 58320, Note_on_c, 0, 73, 64
1, 58547, Note_on_c, 0, 73, 0
1, 58560, Note_on_c, 0, 75, 64
1, 58787, Note_on_c, 0, 75, 0
1, 58800, Note_on_c, 0, 77, 64
1, 58967, Note_on_c, 0, 69, 0
1, 59027, Note_on_c, 0, 77, 0
1, 59040, Note_on_c, 0, 70, 64
1, 59723, Note_on_c, 0, 70, 0
1, 59760, Note_on_c, 0, 72, 61
1, 59760, Note_on_c, 0, 77, 64
1, 59987, Note_on_c, 0, 72, 0
1, 59987, Note_on_c, 0, 77, 0
1, 60000, Note_on_c, 0, 77, 64
1, 60227, Note_on_c, 0, 77, 0
1, 60240, Note_on_c, 0, 73, 61
1, 60240, Note_on_c, 0, 77, 64
1, 60467, Note_on_c, 0, 73, 0
1, 60467, Note_on_c, 0, 77, 0
1, 60480, Note_on_c, 0, 77, 64
1, 60707, Note_on_c, 0, 77, 0
1, 60720, Note_on_c, 0, 75, 64
1, 60947, Note_on_c, 0, 75, 0
1, 60960, Note_on_c, 0, 73, 64
1, 61187, Note_on_c, 0, 73, 0
1, 61200, Note_on_c, 0, 75, 64
1, 61427, Note_on_c, 0, 75, 0
1, 61440, Note_on_c, 0, 75, 64
1, 61895, Note_on_c, 0, 75, 0
1, 61920, Note_on_c, 0, 70, 64
1, 62375, Note_on_c, 0, 70, 0
1, 62400, Note_on_c, 0, 75, 64
1, 62855, Note_on_c, 0, 75, 0
1, 62880, Note_on_c, 0, 70, 64
1, 63563, Note_on_c, 0, 70, 0
1, 63600, Note_on_c, 0, 77, 64
1, 63827, Note_on_c, 0, 77, 0
1, 63840, Note_on_c, 0, 77, 64
1, 64067, Note_on_c, 0, 77, 0
1, 64080, Note_on_c, 0, 77, 64
1, 64307, Note_on_c, 0, 77, 0
1, 64320, Note_on_c, 0, 77, 64
1, 64547, Note_on_c, 0, 77, 0
1, 64560, Note_on_c, 0, 75, 64
1, 64787, Note_on_c, 0, 75, 0
1, 64800, Note_on_c, 0, 73, 64
1, 65027, Note_on_c, 0, 73, 0
1, 65040, Note_on_c, 0, 75, 64
1, 65267, Note_on_c, 0, 75, 0
1, 65280, Note_on_c, 0, 69, 64
1, 65280, Note_on_c, 0, 75, 64
1, 66647, Note_on_c, 0, 69, 0
1, 66647, Note_on_c, 0, 75, 0
1, 66720, Note_on_c, 0, 70, 64
1, 66720, Note_on_c, 0, 73, 64
1, 67403, Note_on_c, 0, 73, 0
1, 67440, Note_on_c, 0, 77, 64
1, 67667, Note_on_c, 0, 77, 0
1, 67680, Note_on_c, 0, 77, 64
1, 67907, Note_on_c, 0, 77, 0
1, 67920, Note_on_c, 0, 77, 64
1, 68147, Note_on_c, 0, 77, 0
1, 68160, Note_on_c, 0, 77, 64
1, 68387, Note_on_c, 0, 77, 0
1, 68400, Note_on_c, 0, 75, 64
1, 68627, Note_on_c, 0, 75, 0
1, 68640, Note_on_c, 0, 73, 64
1, 68867, Note_on_c, 0, 73, 0
1, 68880, Note_on_c, 0, 75, 64
1, 68999, Note_on_c, 0, 70, 0
1, 69107, Note_on_c, 0, 75, 0
1, 69120, Note_on_c, 0, 75, 64
1, 69347, Note_on_c, 0, 75, 0
1, 69360, Note_on_c, 0, 75, 64
1, 69587, Note_on_c, 0, 75, 0
1, 69600, Note_on_c, 0, 70, 64
1, 70055, Note_on_c, 0, 70, 0
1, 70080, Note_on_c, 0, 75, 64
1, 70307, Note_on_c, 0, 75, 0
1, 70320, Note_on_c, 0, 75, 64
1, 70547, Note_on_c, 0, 75, 0
1, 70560, Note_on_c, 0, 70, 64
1, 71243, Note_on_c, 0, 70, 0
1, 71280, Note_on_c, 0, 77, 66
1, 71507, Note_on_c, 0, 77, 0
1, 71520, Note_on_c, 0, 77, 68
1, 71747, Note_on_c, 0, 77, 0
1, 71760, Note_on_c, 0, 77, 70
1, 71987, Note_on_c, 0, 77, 0
1, 72000, Note_on_c, 0, 77, 72
1, 72227, Note_on_c, 0, 77, 0
1, 72240, Note_on_c, 0, 75, 74
1, 72467, Note_on_c, 0, 75, 0
1, 72480, Note_on_c, 0, 73, 76
1, 72707, Note_on_c, 0, 73, 0
1, 72720, Note_on_c, 0, 75, 78
1, 72947, Note_on_c, 0, 75, 0
1, 72960, Note_on_c, 0, 69, 80
1, 72960, Note_on_c, 0, 75, 80
1, 74327, Note_on_c, 0, 69, 0
1, 74327, Note_on_c, 0, 75, 0
1, 74400, Note_on_c, 0, 70, 80
1, 74400, Note_on_c, 0, 73, 80
1, 75083, Note_on_c, 0, 73, 0
1, 75120, Note_on_c, 0, 77, 80
1, 75347, Note_on_c, 0, 77, 0
1, 75360, Note_on_c, 0, 77, 80
1, 75587, Note_on_c, 0, 77, 0
1, 75600, Note_on_c, 0, 77, 80
1, 75827, Note_on_c, 0, 77, 0
1, 75840, Note_on_c, 0, 77, 80
1, 76067, Note_on_c, 0, 77, 0
1, 76080, Note_on_c, 0, 75, 80
1, 76307, Note_on_c, 0, 75, 0
1, 76320, Note_on_c, 0, 73, 80
1, 76547, Note_on_c, 0, 73, 0
1, 76560, Note_on_c, 0, 75, 80
1, 76679, Note_on_c, 0, 70, 0
1, 76787, Note_on_c, 0, 75, 0
1, 76800, Note_on_c, 0, 70, 80
1, 76800, Note_on_c, 0, 82, 80
1, 77255, Note_on_c, 0, 70, 0
1, 77255, Note_on_c, 0, 82, 0
1, 77280, Note_on_c, 0, 70, 80
1, 77280, Note_on_c, 0, 78, 80
1, 77280, Note_on_c, 0, 82, 80
1, 77735, Note_on_c, 0, 70, 0
1, 77735, Note_on_c, 0, 78, 0
1, 77735, Note_on_c, 0, 82, 0
1, 77760, Note_on_c, 0, 82, 80
1, 77987, Note_on_c, 0, 82, 0
1, 78000, Note_on_c, 0, 80, 80
1, 78227, Note_on_c, 0, 80, 0
1, 78240, Note_on_c, 0, 73, 80
1, 78240, Note_on_c, 0, 77, 80
1, 78695, Note_on_c, 0, 73, 0
1, 78695, Note_on_c, 0, 77, 0
1, 78720, Note_on_c, 0, 73, 80
1, 78720, Note_on_c, 0, 77, 80
1, 79061, Note_on_c, 0, 73, 0
1, 79061, Note_on_c, 0, 77, 0
1, 79080, Note_on_c, 0, 75, 80
1, 79193, Note_on_c, 0, 75, 0
1, 79200, Note_on_c, 0, 80, 80
1, 79427, Note_on_c, 0, 80, 0
1, 79440, Note_on_c, 0, 80, 80
1, 79667, Note_on_c, 0, 80, 0
1, 79680, Note_on_c, 0, 80, 80
1, 80021, Note_on_c, 0, 80, 0
1, 80040, Note_on_c, 0, 80, 80
1, 80381, Note_on_c, 0, 80, 0
1, 80400, Note_on_c, 0, 80, 80
1, 80627, Note_on_c, 0, 80, 0
1, 80640, Note_on_c, 0, 77, 80
1, 80640, Note_on_c, 0, 80, 80
1, 81095, Note_on_c, 0, 77, 0
1, 81095, Note_on_c, 0, 80, 0
1, 81120, Note_on_c, 0, 75, 80
1, 81575, Note_on_c, 0, 75, 0
1, 81600, Note_on_c, 0, 73, 80
1, 82055, Note_on_c, 0, 73, 0
1, 82080, Note_on_c, 0, 70, 80
1, 82535, Note_on_c, 0, 70, 0
1, 82560, Note_on_c, 0, 58, 80
1, 83927, Note_on_c, 0, 58, 0
1, 84000, Note_on_c, 0, 65, 80
1, 84227, Note_on_c, 0, 65, 0
1, 84240, Note_on_c, 0, 68, 80
1, 84467, Note_on_c, 0, 68, 0
1, 84480, Note_on_c, 0, 70, 80
1, 84480, Note_on_c, 0, 61, 80
1, 84935, Note_on_c, 0, 70, 0
1, 84960, Note_on_c, 0, 70, 80
1, 85415, Note_on_c, 0, 70, 0
1, 85440, Note_on_c, 0, 70, 80
1, 85667, Note_on_c, 0, 70, 0
1, 85680, Note_on_c, 0, 68, 80
1, 85847, Note_on_c, 0, 61, 0
1, 85907, Note_on_c, 0, 68, 0
1, 85920, Note_on_c, 0, 61, 80
1, 85920, Note_on_c, 0, 65, 80
1, 86375, Note_on_c, 0, 61, 0
1, 86375, Note_on_c, 0, 65, 0
1, 86400, Note_on_c, 0, 61, 80
1, 86400, Note_on_c, 0, 65, 80
1, 86741, Note_on_c, 0, 61, 0
1, 86741, Note_on_c, 0, 65, 0
1, 86760, Note_on_c, 0, 63, 80
1, 86873, Note_on_c, 0, 63, 0
1, 86880, Note_on_c, 0, 68, 80
1, 87107, Note_on_c, 0, 68, 0
1, 87120, Note_on_c, 0, 68, 80
1, 87347, Note_on_c, 0, 68, 0
1, 87360, Note_on_c, 0, 68, 80
1, 87701, Note_on_c, 0, 68, 0
1, 87720, Note_on_c, 0, 68, 80
1, 88061, Note_on_c, 0, 68, 0
1, 88080, Note_on_c, 0, 68, 80
1, 88307, Note_on_c, 0, 68, 0
1, 88320, Note_on_c, 0, 60, 80
1, 88320, Note_on_c, 0, 65, 80
1, 88775, Note_on_c, 0, 60, 0
1, 88775, Note_on_c, 0, 65, 0
1, 88800, Note_on_c, 0, 63, 80
1, 88800, Note_on_c, 0, 68, 80
1, 89255, Note_on_c, 0, 63, 0
1, 89255, Note_on_c, 0, 68, 0
1, 89280, Note_on_c, 0, 65, 80
1, 89280, Note_on_c, 0, 69, 80
1, 89735, Note_on_c, 0, 65, 0
1, 89735, Note_on_c, 0, 69, 0
1, 89760, Note_on_c, 0, 65, 80
1, 89760, Note_on_c, 0, 70, 80
1, 90215, Note_on_c, 0, 65, 0
1, 90215, Note_on_c, 0, 70, 0
1, 90240, Note_on_c, 0, 58, 80
1, 91151, Note_on_c, 0, 58, 0
1, 91440, Note_on_c, 0, 73, 80
1, 91667, Note_on_c, 0, 73, 0
1, 91680, Note_on_c, 0, 77, 80
1, 91907, Note_on_c, 0, 77, 0
1, 91920, Note_on_c, 0, 80, 80
1, 92147, Note_on_c, 0, 80, 0
1, 92160, Note_on_c, 0, 73, 74
1, 92273, Note_on_c, 0, 73, 0
1, 92280, Note_on_c, 0, 73, 74
1, 92393, Note_on_c, 0, 73, 0
1, 92400, Note_on_c, 0, 82, 74
1, 92627, Note_on_c, 0, 82, 0
1, 92640, Note_on_c, 0, 70, 74
1, 92753, Note_on_c, 0, 70, 0
1, 92760, Note_on_c, 0, 70, 74
1, 92873, Note_on_c, 0, 70, 0
1, 92880, Note_on_c, 0, 82, 74
1, 93107, Note_on_c, 0, 82, 0
1, 93120, Note_on_c, 0, 80, 80
1, 93191, Note_on_c, 0, 80, 0
1, 93192, Note_on_c, 0, 82, 80
1, 93349, Note_on_c, 0, 82, 0
1, 93360, Note_on_c, 0, 80, 80
1, 93587, Note_on_c, 0, 80, 0
1, 93600, Note_on_c, 0, 80, 80
1, 93827, Note_on_c, 0, 80, 0
1, 93840, Note_on_c, 0, 77, 80
1, 94067, Note_on_c, 0, 77, 0
1, 94080, Note_on_c, 0, 70, 80
1, 94763, Note_on_c, 0, 70, 0
1, 94800, Note_on_c, 0, 77, 80
1, 95027, Note_on_c, 0, 77, 0
1, 95040, Note_on_c, 0, 80, 80
1, 95267, Note_on_c, 0, 80, 0
1, 95280, Note_on_c, 0, 77, 80
1, 95507, Note_on_c, 0, 77, 0
1, 95520, Note_on_c, 0, 75, 80
1, 95520, Note_on_c, 0, 69, 80
1, 95975, Note_on_c, 0, 75, 0
1, 96000, Note_on_c, 0, 77, 80
1, 96455, Note_on_c, 0, 77, 0
1, 96480, Note_on_c, 0, 75, 80
1, 96707, Note_on_c, 0, 75, 0
1, 96720, Note_on_c, 0, 73, 80
1, 96887, Note_on_c, 0, 69, 0
1, 96947, Note_on_c, 0, 73, 0
1, 96960, Note_on_c, 0, 70, 80
1, 98783, Note_on_c, 0, 70, 0
1, 98880, Note_on_c, 0, 77, 80
1, 99107, Note_on_c, 0, 77, 0
1, 99120, Note_on_c, 0, 80, 80
1, 99347, Note_on_c, 0, 80, 0
1, 99360, Note_on_c, 0, 73, 80
1, 99360, Note_on_c, 0, 82, 80
1, 99815, Note_on_c, 0, 73, 0
1, 99815, Note_on_c, 0, 82, 0
1, 99840, Note_on_c, 0, 82, 80
1, 100295, Note_on_c, 0, 82, 0
1, 100320, Note_on_c, 0, 82, 80
1, 100547, Note_on_c, 0, 82, 0
1, 100560, Note_on_c, 0, 80, 80
1, 100787, Note_on_c, 0, 80, 0
1, 100800, Note_on_c, 0, 58, 80
1, 100800, Note_on_c, 0, 65, 80
1, 100800, Note_on_c, 0, 68, 80
1, 102167, Note_on_c, 0, 58, 0
1, 102167, Note_on_c, 0, 65, 0
1, 102167, Note_on_c, 0, 68, 0
1, 102240, Note_on_c, 0, 70, 80
1, 102467, Note_on_c, 0, 70, 0
1, 102480, Note_on_c, 0, 77, 80
1, 102707, Note_on_c, 0, 77, 0
1, 102720, Note_on_c, 0, 80, 80
1, 102947, Note_on_c, 0, 80, 0
1, 102960, Note_on_c, 0, 77, 80
1, 103187, Note_on_c, 0, 77, 0
1, 103200, Note_on_c, 0, 75, 80
1, 103200, Note_on_c, 0, 69, 80
1, 103655, Note_on_c, 0, 75, 0
1, 103680, Note_on_c, 0, 77, 80
1, 104111, Note_on_c, 0, 69, 0
1, 104135, Note_on_c, 0, 77, 0
1, 104160, Note_on_c, 0, 75, 80
1, 104160, Note_on_c, 0, 65, 80
1, 104387, Note_on_c, 0, 75, 0
1, 104400, Note_on_c, 0, 73, 80
1, 104627, Note_on_c, 0, 73, 0
1, 104640, Note_on_c, 0, 70, 80
1, 105071, Note_on_c, 0, 65, 0
1, 105095, Note_on_c, 0, 70, 0
1, 105120, Note_on_c, 0, 80, 64
1, 105120, Note_on_c, 0, 92, 64
1, 105347, Note_on_c, 0, 80, 0
1, 105347, Note_on_c, 0, 92, 0
1, 105360, Note_on_c, 0, 77, 64
1, 105360, Note_on_c, 0, 89, 64
1, 105587, Note_on_c, 0, 77, 0
1, 105587, Note_on_c, 0, 89, 0
1, 105600, Note_on_c, 0, 75, 64
1, 105600, Note_on_c, 0, 87, 64
1, 105827, Note_on_c, 0, 75, 0
1, 105827, Note_on_c, 0, 87, 0
1, 105840, Note_on_c, 0, 77, 64
1, 105840, Note_on_c, 0, 89, 64
1, 106067, Note_on_c, 0, 77, 0
1, 106067, Note_on_c, 0, 89, 0
1, 106080, Note_on_c, 0, 75, 64
1, 106080, Note_on_c, 0, 87, 64
1, 106307, Note_on_c, 0, 75, 0
1, 106307, Note_on_c, 0, 87, 0
1, 106320, Note_on_c, 0, 73, 64
1, 106320, Note_on_c, 0, 85, 64
1, 106547, Note_on_c, 0, 73, 0
1, 106547, Note_on_c, 0, 85, 0
1, 106560, Note_on_c, 0, 72, 64
1, 106560, Note_on_c, 0, 84, 64
1, 106787, Note_on_c, 0, 72, 0
1, 106787, Note_on_c, 0, 84, 0
1, 106800, Note_on_c, 0, 69, 64
1, 106800, Note_on_c, 0, 81, 64
1, 107027, Note_on_c, 0, 69, 0
1, 107027, Note_on_c, 0, 81, 0
1, 107040, Note_on_c, 0, 70, 64
1, 107040, Note_on_c, 0, 75, 64
1, 107267, Note_on_c, 0, 70, 0
1, 107267, Note_on_c, 0, 75, 0
1, 107280, Note_on_c, 0, 73, 64
1, 107393, Note_on_c, 0, 73, 0
1, 107400, Note_on_c, 0, 75, 64
1, 107627, Note_on_c, 0, 75, 0
1, 107640, Note_on_c, 0, 73, 64
1, 107753, Note_on_c, 0, 73, 0
1, 107760, Note_on_c, 0, 77, 64
1, 107987, Note_on_c, 0, 77, 0
1, 108000, Note_on_c, 0, 70, 64
1, 108455, Note_on_c, 0, 70, 0
1, 108480, Note_on_c, 0, 70, 64
1, 108707, Note_on_c, 0, 70, 0
1, 108720, Note_on_c, 0, 73, 64
1, 108947, Note_on_c, 0, 73, 0
1, 108960, Note_on_c, 0, 75, 64
1, 109187, Note_on_c, 0, 75, 0
1, 109200, Note_on_c, 0, 73, 64
1, 109313, Note_on_c, 0, 73, 0
1, 109320, Note_on_c, 0, 75, 64
1, 109547, Note_on_c, 0, 75, 0
1, 109560, Note_on_c, 0, 73, 64
1, 109673, Note_on_c, 0, 73, 0
1, 109680, Note_on_c, 0, 77, 64
1, 109907, Note_on_c, 0, 77, 0
1, 109920, Note_on_c, 0, 70, 64
1, 110375, Note_on_c, 0, 70, 0
1, 110400, Note_on_c, 0, 70, 64
1, 110627, Note_on_c, 0, 70, 0
1, 110640, Note_on_c, 0, 73, 64
1, 110867, Note_on_c, 0, 73, 0
1, 110880, Note_on_c, 0, 75, 64
1, 111107, Note_on_c, 0, 75, 0
1, 111120, Note_on_c, 0, 73, 64
1, 111233, Note_on_c, 0, 73, 0
1, 111240, Note_on_c, 0, 75, 64
1, 111467, Note_on_c, 0, 75, 0
1, 111480, Note_on_c, 0, 73, 64
1, 111593, Note_on_c, 0, 73, 0
1, 111600, Note_on_c, 0, 75, 64
1, 111827, Note_on_c, 0, 75, 0
1, 111840, Note_on_c, 0, 73, 64
1, 111953, Note_on_c, 0, 73, 0
1, 111960, Note_on_c, 0, 75, 64
1, 112187, Note_on_c, 0, 75, 0
1, 112200, Note_on_c, 0, 77, 64
1, 112541, Note_on_c, 0, 77, 0
1, 112560, Note_on_c, 0, 73, 64
1, 112787, Note_on_c, 0, 73, 0
1, 112800, Note_on_c, 0, 75, 64
1, 113027, Note_on_c, 0, 75, 0
1, 113040, Note_on_c, 0, 73, 64
1, 113153, Note_on_c, 0, 73, 0
1, 113160, Note_on_c, 0, 75, 64
1, 113387, Note_on_c, 0, 75, 0
1, 113400, Note_on_c, 0, 73, 64
1, 113513, Note_on_c, 0, 73, 0
1, 113520, Note_on_c, 0, 70, 64
1, 113747, Note_on_c, 0, 70, 0
1, 113760, Note_on_c, 0, 72, 64
1, 114215, Note_on_c, 0, 72, 0
1, 114240, Note_on_c, 0, 72, 64
1, 114353, Note_on_c, 0, 72, 0
1, 114360, Note_on_c, 0, 73, 64
1, 114587, Note_on_c, 0, 73, 0
1, 114600, Note_on_c, 0, 72, 64
1, 114713, Note_on_c, 0, 72, 0
1, 114720, Note_on_c, 0, 70, 64
1, 114947, Note_on_c, 0, 70, 0
1, 114960, Note_on_c, 0, 65, 64
1, 115187, Note_on_c, 0, 65, 0
1, 115200, Note_on_c, 0, 66, 64
1, 115427, Note_on_c, 0, 66, 0
1, 115440, Note_on_c, 0, 68, 64
1, 115667, Note_on_c, 0, 68, 0
1, 115680, Note_on_c, 0, 70, 64
1, 115907, Note_on_c, 0, 70, 0
1, 115920, Note_on_c, 0, 72, 64
1, 116147, Note_on_c, 0, 72, 0
1, 116160, Note_on_c, 0, 72, 64
1, 116273, Note_on_c, 0, 72, 0
1, 116280, Note_on_c, 0, 73, 64
1, 116507, Note_on_c, 0, 73, 0
1, 116520, Note_on_c, 0, 72, 64
1, 116633, Note_on_c, 0, 72, 0
1, 116640, Note_on_c, 0, 70, 64
1, 116867, Note_on_c, 0, 70, 0
1, 116880, Note_on_c, 0, 63, 64
1, 117107, Note_on_c, 0, 63, 0
1, 117120, Note_on_c, 0, 65, 64
1, 117347, Note_on_c, 0, 65, 0
1, 117360, Note_on_c, 0, 68, 64
1, 117587, Note_on_c, 0, 68, 0
1, 117600, Note_on_c, 0, 69, 64
1, 117827, Note_on_c, 0, 69, 0
1, 117840, Note_on_c, 0, 70, 64
1, 118067, Note_on_c, 0, 70, 0
1, 118080, Note_on_c, 0, 72, 64
1, 118193, Note_on_c, 0, 72, 0
1, 118200, Note_on_c, 0, 73, 64
1, 118427, Note_on_c, 0, 73, 0
1, 118440, Note_on_c, 0, 72, 64
1, 118553, Note_on_c, 0, 72, 0
1, 118560, Note_on_c, 0, 70, 61
1, 118673, Note_on_c, 0, 70, 0
1, 118680, Note_on_c, 0, 69, 61
1, 118793, Note_on_c, 0, 69, 0
1, 118800, Note_on_c, 0, 63, 61
1, 118913, Note_on_c, 0, 63, 0
1, 118920, Note_on_c, 0, 65, 61
1, 119033, Note_on_c, 0, 65, 0
1, 119040, Note_on_c, 0, 72, 61
1, 119153, Note_on_c, 0, 72, 0
1, 119160, Note_on_c, 0, 70, 61
1, 119273, Note_on_c, 0, 70, 0
1, 119280, Note_on_c, 0, 65, 61
1, 119393, Note_on_c, 0, 65, 0
1, 119400, Note_on_c, 0, 66, 61
1, 119513, Note_on_c, 0, 66, 0
1, 119520, Note_on_c, 0, 73, 61
1, 119633, Note_on_c, 0, 73, 0
1, 119640, Note_on_c, 0, 72, 61
1, 119753, Note_on_c, 0, 72, 0
1, 119760, Note_on_c, 0, 66, 61
1, 119873, Note_on_c, 0, 66, 0
1, 119880, Note_on_c, 0, 68, 61
1, 119993, Note_on_c, 0, 68, 0
1, 120000, Note_on_c, 0, 75, 61
1, 120113, Note_on_c, 0, 75, 0
1, 120120, Note_on_c, 0, 73, 61
1, 120233, Note_on_c, 0, 73, 0
1, 120240, Note_on_c, 0, 69, 61
1, 120353, Note_on_c, 0, 69, 0
1, 120360, Note_on_c, 0, 70, 61
1, 120473, Note_on_c, 0, 70, 0
1, 120960, Note_on_c, 0, 61, 64
1, 120960, Note_on_c, 0, 68, 64
1, 121871, Note_on_c, 0, 61, 0
1, 121871, Note_on_c, 0, 68, 0
1, 121920, Note_on_c, 0, 61, 64
1, 122147, Note_on_c, 0, 61, 0
1, 122160, Note_on_c, 0, 61, 64
1, 122387, Note_on_c, 0, 61, 0
1, 122400, Note_on_c, 0, 58, 64
1, 122400, Note_on_c, 0, 66, 64
1, 123767, Note_on_c, 0, 58, 0
1, 123767, Note_on_c, 0, 66, 0
1, 123840, Note_on_c, 0, 68, 64
1, 124067, Note_on_c, 0, 68, 0
1, 124080, Note_on_c, 0, 65, 64
1, 124307, Note_on_c, 0, 65, 0
1, 124320, Note_on_c, 0, 65, 64
1, 125687, Note_on_c, 0, 65, 0
1, 125760, Note_on_c, 0, 68, 64
1, 125987, Note_on_c, 0, 68, 0
1, 126000, Note_on_c, 0, 65, 64
1, 126227, Note_on_c, 0, 65, 0
1, 126240, Note_on_c, 0, 65, 64
1, 126240, Note_on_c, 0, 57, 64
1, 126467, Note_on_c, 0, 65, 0
1, 126480, Note_on_c, 0, 65, 64
1, 126593, Note_on_c, 0, 65, 0
1, 126600, Note_on_c, 0, 65, 64
1, 126695, Note_on_c, 0, 57, 0
1, 126713, Note_on_c, 0, 65, 0
1, 126720, Note_on_c, 0, 68, 64
1, 126947, Note_on_c, 0, 68, 0
1, 126960, Note_on_c, 0, 65, 64
1, 127187, Note_on_c, 0, 65, 0
1, 127200, Note_on_c, 0, 65, 64
1, 127427, Note_on_c, 0, 65, 0
1, 127440, Note_on_c, 0, 65, 64
1, 127553, Note_on_c, 0, 65, 0
1, 127560, Note_on_c, 0, 65, 64
1, 127673, Note_on_c, 0, 65, 0
1, 127680, Note_on_c, 0, 68, 64
1, 127907, Note_on_c, 0, 68, 0
1, 127920, Note_on_c, 0, 65, 64
1, 128147, Note_on_c, 0, 65, 0
1, 128160, Note_on_c, 0, 65, 64
1, 129527, Note_on_c, 0, 65, 0
1, 129600, Note_on_c, 0, 61, 64
1, 129827, Note_on_c, 0, 61, 0
1, 129840, Note_on_c, 0, 61, 64
1, 130067, Note_on_c, 0, 61, 0
1, 130080, Note_on_c, 0, 58, 64
1, 130080, Note_on_c, 0, 66, 64
1, 131447, Note_on_c, 0, 58, 0
1, 131447, Note_on_c, 0, 66, 0
1, 131520, Note_on_c, 0, 68, 64
1, 131747, Note_on_c, 0, 68, 0
1, 131760, Note_on_c, 0, 65, 64
1, 131987, Note_on_c, 0, 65, 0
1, 132000, Note_on_c, 0, 65, 64
1, 133367, Note_on_c, 0, 65, 0
1, 133440, Note_on_c, 0, 68, 64
1, 133667, Note_on_c, 0, 68, 0
1, 133680, Note_on_c, 0, 65, 64
1, 133907, Note_on_c, 0, 65, 0
1, 133920, Note_on_c, 0, 65, 64
1, 133920, Note_on_c, 0, 57, 64
1, 134147, Note_on_c, 0, 65, 0
1, 134160, Note_on_c, 0, 65, 64
1, 134273, Note_on_c, 0, 65, 0
1, 134280, Note_on_c, 0, 65, 64
1, 134375, Note_on_c, 0, 57, 0
1, 134393, Note_on_c, 0, 65, 0
1, 134400, Note_on_c, 0, 68, 64
1, 134627, Note_on_c, 0, 68, 0
1, 134640, Note_on_c, 0, 65, 64
1, 134867, Note_on_c, 0, 65, 0
1, 134880, Note_on_c, 0, 65, 64
1, 135107, Note_on_c, 0, 65, 0
1, 135120, Note_on_c, 0, 65, 64
1, 135233, Note_on_c, 0, 65, 0
1, 135240, Note_on_c, 0, 65, 64
1, 135353, Note_on_c, 0, 65, 0
1, 135360, Note_on_c, 0, 68, 64
1, 135587, Note_on_c, 0, 68, 0
1, 135600, Note_on_c, 0, 65, 64
1, 135827, Note_on_c, 0, 65, 0
1, 135840, Note_on_c, 0, 65, 64
1, 137207, Note_on_c, 0, 65, 0
1, 137280, Note_on_c, 0, 77, 64
1, 137507, Note_on_c, 0, 77, 0
1, 137520, Note_on_c, 0, 80, 64
1, 137747, Note_on_c, 0, 80, 0
1, 137760, Note_on_c, 0, 82, 64
1, 137760, Note_on_c, 0, 73, 64
1, 138443, Note_on_c, 0, 82, 0
1, 138480, Note_on_c, 0, 80, 64
1, 138707, Note_on_c, 0, 80, 0
1, 138720, Note_on_c, 0, 82, 64
1, 138947, Note_on_c, 0, 82, 0
1, 138960, Note_on_c, 0, 85, 64
1, 139127, Note_on_c, 0, 73, 0
1, 139187, Note_on_c, 0, 85, 0
1, 139200, Note_on_c, 0, 77, 64
1, 140567, Note_on_c, 0, 77, 0
1, 140640, Note_on_c, 0, 77, 64
1, 140711, Note_on_c, 0, 77, 0
1, 140712, Note_on_c, 0, 78, 64
1, 140869, Note_on_c, 0, 78, 0
1, 140880, Note_on_c, 0, 77, 64
1, 141107, Note_on_c, 0, 77, 0
1, 141120, Note_on_c, 0, 75, 64
1, 141347, Note_on_c, 0, 75, 0
1, 141360, Note_on_c, 0, 73, 64
1, 141587, Note_on_c, 0, 73, 0
1, 141600, Note_on_c, 0, 75, 64
1, 141600, Note_on_c, 0, 69, 64
1, 142283, Note_on_c, 0, 75, 0
1, 142320, Note_on_c, 0, 73, 64
1, 142547, Note_on_c, 0, 73, 0
1, 142560, Note_on_c, 0, 75, 64
1, 142787, Note_on_c, 0, 75, 0
1, 142800, Note_on_c, 0, 77, 64
1, 142967, Note_on_c, 0, 69, 0
1, 143711, Note_on_c, 0, 77, 0
1, 144000, Note_on_c, 0, 70, 64
1, 144911, Note_on_c, 0, 70, 0
1, 144960, Note_on_c, 0, 77, 64
1, 145187, Note_on_c, 0, 77, 0
1, 145200, Note_on_c, 0, 80, 64
1, 145427, Note_on_c, 0, 80, 0
1, 145440, Note_on_c, 0, 82, 64
1, 145440, Note_on_c, 0, 73, 64
1, 146123, Note_on_c, 0, 82, 0
1, 146160, Note_on_c, 0, 80, 64
1, 146387, Note_on_c, 0, 80, 0
1, 146400, Note_on_c, 0, 82, 64
1, 146627, Note_on_c, 0, 82, 0
1, 146640, Note_on_c, 0, 85, 64
1, 146807, Note_on_c, 0, 73, 0
1, 146867, Note_on_c, 0, 85, 0
1, 146880, Note_on_c, 0, 73, 64
1, 146880, Note_on_c, 0, 77, 64
1, 148247, Note_on_c, 0, 73, 0
1, 148247, Note_on_c, 0, 77, 0
1, 148320, Note_on_c, 0, 78, 64
1, 148547, Note_on_c, 0, 78, 0
1, 148560, Note_on_c, 0, 77, 64
1, 148787, Note_on_c, 0, 77, 0
1, 148800, Note_on_c, 0, 75, 64
1, 149027, Note_on_c, 0, 75, 0
1, 149040, Note_on_c, 0, 73, 64
1, 149267, Note_on_c, 0, 73, 0
1, 149280, Note_on_c, 0, 75, 64
1, 149963, Note_on_c, 0, 75, 0
1, 150000, Note_on_c, 0, 73, 64
1, 150227, Note_on_c, 0, 73, 0
1, 150240, Note_on_c, 0, 75, 64
1, 150467, Note_on_c, 0, 75, 0
1, 150480, Note_on_c, 0, 77, 64
1, 150707, Note_on_c, 0, 77, 0
1, 150720, Note_on_c, 0, 70, 64
1, 151403, Note_on_c, 0, 70, 0
1, 151440, Note_on_c, 0, 77, 64
1, 151667, Note_on_c, 0, 77, 0
1, 151680, Note_on_c, 0, 77, 64
1, 151907, Note_on_c, 0, 77, 0
1, 151920, Note_on_c, 0, 77, 64
1, 152147, Note_on_c, 0, 77, 0
1, 152160, Note_on_c, 0, 77, 64
1, 152387, Note_on_c, 0, 77, 0
1, 152400, Note_on_c, 0, 75, 64
1, 152627, Note_on_c, 0, 75, 0
1, 152640, Note_on_c, 0, 73, 64
1, 152867, Note_on_c, 0, 73, 0
1, 152880, Note_on_c, 0, 75, 64
1, 153107, Note_on_c, 0, 75, 0
1, 153120, Note_on_c, 0, 75, 64
1, 153575, Note_on_c, 0, 75, 0
1, 153600, Note_on_c, 0, 70, 64
1, 154055, Note_on_c, 0, 70, 0
1, 154080, Note_on_c, 0, 75, 64
1, 154535, Note_on_c, 0, 75, 0
1, 154560, Note_on_c, 0, 70, 64
1, 155243, Note_on_c, 0, 70, 0
1, 155280, Note_on_c, 0, 77, 64
1, 155507, Note_on_c, 0, 77, 0
1, 155520, Note_on_c, 0, 77, 64
1, 155747, Note_on_c, 0, 77, 0
1, 155760, Note_on_c, 0, 77, 64
1, 155987, Note_on_c, 0, 77, 0
1, 156000, Note_on_c, 0, 77, 64
1, 156227, Note_on_c, 0, 77, 0
1, 156240, Note_on_c, 0, 75, 64
1, 156467, Note_on_c, 0, 75, 0
1, 156480, Note_on_c, 0, 73, 64
1, 156707, Note_on_c, 0, 73, 0
1, 156720, Note_on_c, 0, 75, 64
1, 156947, Note_on_c, 0, 75, 0
1, 156960, Note_on_c, 0, 69, 64
1, 156960, Note_on_c, 0, 75, 64
1, 158327, Note_on_c, 0, 69, 0
1, 158327, Note_on_c, 0, 75, 0
1, 158400, Note_on_c, 0, 70, 64
1, 158400, Note_on_c, 0, 73, 64
1, 159083, Note_on_c, 0, 70, 0
1, 159083, Note_on_c, 0, 73, 0
1, 159120, Note_on_c, 0, 65, 64
1, 159347, Note_on_c, 0, 65, 0
1, 159360, Note_on_c, 0, 58, 64
1, 159360, Note_on_c, 0, 65, 64
1, 159587, Note_on_c, 0, 58, 0
1, 159587, Note_on_c, 0, 65, 0
1, 159600, Note_on_c, 0, 65, 64
1, 159827, Note_on_c, 0, 65, 0
1, 159840, Note_on_c, 0, 65, 64
1, 160067, Note_on_c, 0, 65, 0
1, 160080, Note_on_c, 0, 63, 64
1, 160307, Note_on_c, 0, 63, 0
1, 160320, Note_on_c, 0, 61, 64
1, 160547, Note_on_c, 0, 61, 0
1, 160560, Note_on_c, 0, 63, 64
1, 160787, Note_on_c, 0, 63, 0
1, 160800, Note_on_c, 0, 58, 64
1, 160800, Note_on_c, 0, 63, 64
1, 161255, Note_on_c, 0, 58, 0
1, 161255, Note_on_c, 0, 63, 0
1, 161280, Note_on_c, 0, 58, 64
1, 161735, Note_on_c, 0, 58, 0
1, 161760, Note_on_c, 0, 63, 64
1, 162215, Note_on_c, 0, 63, 0
1, 162240, Note_on_c, 0, 58, 64
1, 162923, Note_on_c, 0, 58, 0
1, 162960, Note_on_c, 0, 65, 64
1, 163187, Note_on_c, 0, 65, 0
1, 163200, Note_on_c, 0, 65, 64
1, 163427, Note_on_c, 0, 65, 0
1, 163440, Note_on_c, 0, 65, 64
1, 163667, Note_on_c, 0, 65, 0
1, 163680, Note_on_c, 0, 65, 64
1, 163907, Note_on_c, 0, 65, 0
1, 163920, Note_on_c, 0, 63, 64
1, 164147, Note_on_c, 0, 63, 0
1, 164160, Note_on_c, 0, 61, 64
1, 164387, Note_on_c, 0, 61, 0
1, 164400, Note_on_c, 0, 63, 64
1, 164627, Note_on_c, 0, 63, 0
1, 164640, Note_on_c, 0, 57, 64
1, 164640, Note_on_c, 0, 63, 64
1, 166007, Note_on_c, 0, 57, 0
1, 166007, Note_on_c, 0, 63, 0
1, 166080, Note_on_c, 0, 58, 64
1, 166080, Note_on_c, 0, 61, 64
1, 166763, Note_on_c, 0, 58, 0
1, 166763, Note_on_c, 0, 61, 0
1, 166800, Note_on_c, 0, 65, 64
1, 167027, Note_on_c, 0, 65, 0
1, 167040, Note_on_c, 0, 65, 64
1, 167267, Note_on_c, 0, 65, 0
1, 167280, Note_on_c, 0, 65, 64
1, 167507, Note_on_c, 0, 65, 0
1, 167520, Note_on_c, 0, 65, 64
1, 167747, Note_on_c, 0, 65, 0
1, 167760, Note_on_c, 0, 63, 64
1, 167987, Note_on_c, 0, 63, 0
1, 168000, Note_on_c, 0, 61, 64
1, 168227, Note_on_c, 0, 61, 0
1, 168240, Note_on_c, 0, 63, 64
1, 168467, Note_on_c, 0, 63, 0
1, 168480, Note_on_c, 0, 61, 80
1, 168480, Note_on_c, 0, 65, 80
1, 168480, Note_on_c, 0, 70, 80
1, 168935, Note_on_c, 0, 61, 0
1, 168935, Note_on_c, 0, 65, 0
1, 168935, Note_on_c, 0, 70, 0
1, 168960, Note_on_c, 0, 70, 80
1, 169415, Note_on_c, 0, 70, 0
1, 169440, Note_on_c, 0, 70, 80
1, 169667, Note_on_c, 0, 70, 0
1, 169680, Note_on_c, 0, 68, 80
1, 169907, Note_on_c, 0, 68, 0
1, 169920, Note_on_c, 0, 65, 80
1, 170375, Note_on_c, 0, 65, 0
1, 170400, Note_on_c, 0, 73, 80
1, 170400, Note_on_c, 0, 77, 80
1, 170741, Note_on_c, 0, 73, 0
1, 170741, Note_on_c, 0, 77, 0
1, 170760, Note_on_c, 0, 75, 80
1, 170873, Note_on_c, 0, 75, 0
1, 170880, Note_on_c, 0, 80, 80
1, 171107, Note_on_c, 0, 80, 0
1, 171120, Note_on_c, 0, 80, 80
1, 171347, Note_on_c, 0, 80, 0
1, 171360, Note_on_c, 0, 80, 80
1, 171701, Note_on_c, 0, 80, 0
1, 171720, Note_on_c, 0, 80, 80
1, 172061, Note_on_c, 0, 80, 0
1, 172080, Note_on_c, 0, 80, 80
1, 172307, Note_on_c, 0, 80, 0
1, 172320, Note_on_c, 0, 77, 80
1, 172320, Note_on_c, 0, 80, 80
1, 172775, Note_on_c, 0, 77, 0
1, 172775, Note_on_c, 0, 80, 0
1, 172800, Note_on_c, 0, 75, 80
1, 173255, Note_on_c, 0, 75, 0
1, 173280, Note_on_c, 0, 73, 80
1, 173735, Note_on_c, 0, 73, 0
1, 173760, Note_on_c, 0, 70, 80
1, 174215, Note_on_c, 0, 70, 0
1, 174240, Note_on_c, 0, 58, 80
1, 175607, Note_on_c, 0, 58, 0
1, 175680, Note_on_c, 0, 61, 80
1, 175680, Note_on_c, 0, 65, 80
1, 175680, Note_on_c, 0, 61, 0
1, 175907, Note_on_c, 0, 65, 0
1, 175920, Note_on_c, 0, 65, 80
1, 175920, Note_on_c, 0, 68, 80
1, 176147, Note_on_c, 0, 65, 0
1, 176147, Note_on_c, 0, 68, 0
1, 176160, Note_on_c, 0, 61, 80
1, 176160, Note_on_c, 0, 65, 80
1, 176160, Note_on_c, 0, 70, 80
1, 176615, Note_on_c, 0, 61, 0
1, 176615, Note_on_c, 0, 65, 0
1, 176615, Note_on_c, 0, 70, 0
1, 176640, Note_on_c, 0, 70, 80
1, 177095, Note_on_c, 0, 70, 0
1, 177120, Note_on_c, 0, 70, 80
1, 177347, Note_on_c, 0, 70, 0
1, 177360, Note_on_c, 0, 68, 80
1, 177587, Note_on_c, 0, 68, 0
1, 177600, Note_on_c, 0, 65, 80
1, 178055, Note_on_c, 0, 65, 0
1, 178080, Note_on_c, 0, 68, 80
1, 178421, Note_on_c, 0, 68, 0
1, 178440, Note_on_c, 0, 65, 80
1, 178553, Note_on_c, 0, 65, 0
1, 178560, Note_on_c, 0, 72, 80
1, 178787, Note_on_c, 0, 72, 0
1, 178800, Note_on_c, 0, 72, 80
1, 179027, Note_on_c, 0, 72, 0
1, 179040, Note_on_c, 0, 72, 80
1, 179381, Note_on_c, 0, 72, 0
1, 179400, Note_on_c, 0, 68, 80
1, 179741, Note_on_c, 0, 68, 0
1, 179760, Note_on_c, 0, 65, 80
1, 179987, Note_on_c, 0, 65, 0
1, 180000, Note_on_c, 0, 61, 80
1, 180227, Note_on_c, 0, 61, 0
1, 180240, Note_on_c, 0, 65, 80
1, 180467, Note_on_c, 0, 65, 0
1, 180480, Note_on_c, 0, 65, 80
1, 180480, Note_on_c, 0, 68, 80
1, 180935, Note_on_c, 0, 65, 0
1, 180935, Note_on_c, 0, 68, 0
1, 180960, Note_on_c, 0, 65, 80
1, 181187, Note_on_c, 0, 65, 0
1, 181200, Note_on_c, 0, 69, 80
1, 181427, Note_on_c, 0, 69, 0
1, 181440, Note_on_c, 0, 70, 80
1, 183035, Note_on_c, 0, 70, 0
1, 183120, Note_on_c, 0, 65, 80
1, 183347, Note_on_c, 0, 65, 0
1, 183360, Note_on_c, 0, 63, 80
1, 183587, Note_on_c, 0, 63, 0
1, 183600, Note_on_c, 0, 61, 80
1, 183827, Note_on_c, 0, 61, 0
1, 183840, Note_on_c, 0, 58, 80
1, 183840, Note_on_c, 0, 63, 80
1, 184181, Note_on_c, 0, 58, 0
1, 184181, Note_on_c, 0, 63, 0
1, 184200, Note_on_c, 0, 63, 80
1, 184313, Note_on_c, 0, 63, 0
1, 184320, Note_on_c, 0, 63, 80
1, 184547, Note_on_c, 0, 63, 0
1, 184560, Note_on_c, 0, 63, 80
1, 184787, Note_on_c, 0, 63, 0
1, 184800, Note_on_c, 0, 65, 80
1, 185027, Note_on_c, 0, 65, 0
1, 185040, Note_on_c, 0, 58, 80
1, 185267, Note_on_c, 0, 58, 0
1, 185280, Note_on_c, 0, 58, 80
1, 185735, Note_on_c, 0, 58, 0
1, 185760, Note_on_c, 0, 58, 80
1, 185760, Note_on_c, 0, 63, 80
1, 186101, Note_on_c, 0, 58, 0
1, 186101, Note_on_c, 0, 63, 0
1, 186120, Note_on_c, 0, 63, 80
1, 186233, Note_on_c, 0, 63, 0
1, 186240, Note_on_c, 0, 65, 80
1, 186467, Note_on_c, 0, 65, 0
1, 186480, Note_on_c, 0, 63, 80
1, 186707, Note_on_c, 0, 63, 0
1, 186720, Note_on_c, 0, 65, 80
1, 186947, Note_on_c, 0, 65, 0
1, 186960, Note_on_c, 0, 58, 80
1, 187187, Note_on_c, 0, 58, 0
1, 187200, Note_on_c, 0, 58, 80
1, 187655, Note_on_c, 0, 58, 0
1, 187680, Note_on_c, 0, 58, 80
1, 187680, Note_on_c, 0, 63, 80
1, 188021, Note_on_c, 0, 58, 0
1, 188021, Note_on_c, 0, 63, 0
1, 188040, Note_on_c, 0, 63, 80
1, 188153, Note_on_c, 0, 63, 0
1, 188160, Note_on_c, 0, 58, 80
1, 188160, Note_on_c, 0, 61, 80
1, 188387, Note_on_c, 0, 58, 0
1, 188387, Note_on_c, 0, 61, 0
1, 188400, Note_on_c, 0, 63, 80
1, 188627, Note_on_c, 0, 63, 0
1, 188640, Note_on_c, 0, 57, 80
1, 188640, Note_on_c, 0, 65, 80
1, 188867, Note_on_c, 0, 57, 0
1, 188867, Note_on_c, 0, 65, 0
1, 188880, Note_on_c, 0, 58, 80
1, 189107, Note_on_c, 0, 58, 0
1, 189120, Note_on_c, 0, 58, 80
1, 189347, Note_on_c, 0, 58, 0
1, 189360, Note_on_c, 0, 58, 80
1, 189587, Note_on_c, 0, 58, 0
1, 189600, Note_on_c, 0, 58, 80
1, 189600, Note_on_c, 0, 63, 80
1, 189941, Note_on_c, 0, 58, 0
1, 189941, Note_on_c, 0, 63, 0
1, 189960, Note_on_c, 0, 63, 80
1, 190073, Note_on_c, 0, 63, 0
1, 190080, Note_on_c, 0, 58, 80
1, 190080, Note_on_c, 0, 63, 80
1, 190307, Note_on_c, 0, 58, 0
1, 190307, Note_on_c, 0, 63, 0
1, 190320, Note_on_c, 0, 63, 80
1, 190547, Note_on_c, 0, 63, 0
1, 190560, Note_on_c, 0, 65, 80
1, 190787, Note_on_c, 0, 65, 0
1, 190800, Note_on_c, 0, 58, 80
1, 191027, Note_on_c, 0, 58, 0
1, 191040, Note_on_c, 0, 58, 80
1, 191495, Note_on_c, 0, 58, 0
1, 191520, Note_on_c, 0, 58, 80
1, 191520, Note_on_c, 0, 63, 80
1, 191747, Note_on_c, 0, 58, 0
1, 191747, Note_on_c, 0, 63, 0
1, 191760, Note_on_c, 0, 65, 80
1, 191987, Note_on_c, 0, 65, 0
1, 192000, Note_on_c, 0, 66, 80
1, 192227, Note_on_c, 0, 66, 0
1, 192240, Note_on_c, 0, 65, 80
1, 192467, Note_on_c, 0, 65, 0
1, 192480, Note_on_c, 0, 65, 80
1, 192707, Note_on_c, 0, 65, 0
1, 192720, Note_on_c, 0, 58, 80
1, 192947, Note_on_c, 0, 58, 0
1, 192960, Note_on_c, 0, 58, 80
1, 193415, Note_on_c, 0, 58, 0
1, 193440, Note_on_c, 0, 58, 80
1, 193440, Note_on_c, 0, 63, 80
1, 193781, Note_on_c, 0, 58, 0
1, 193781, Note_on_c, 0, 63, 0
1, 193800, Note_on_c, 0, 63, 80
1, 193913, Note_on_c, 0, 63, 0
1, 193920, Note_on_c, 0, 63, 80
1, 194147, Note_on_c, 0, 63, 0
1, 194160, Note_on_c, 0, 63, 80
1, 194387, Note_on_c, 0, 63, 0
1, 194400, Note_on_c, 0, 65, 80
1, 194627, Note_on_c, 0, 65, 0
1, 194640, Note_on_c, 0, 58, 80
1, 194867, Note_on_c, 0, 58, 0
1, 194880, Note_on_c, 0, 58, 80
1, 195335, Note_on_c, 0, 58, 0
1, 195360, Note_on_c, 0, 58, 80
1, 195360, Note_on_c, 0, 63, 80
1, 195701, Note_on_c, 0, 58, 0
1, 195701, Note_on_c, 0, 63, 0
1, 195720, Note_on_c, 0, 61, 80
1, 195833, Note_on_c, 0, 61, 0
1, 195840, Note_on_c, 0, 58, 80
1, 195840, Note_on_c, 0, 61, 80
1, 196067, Note_on_c, 0, 58, 0
1, 196067, Note_on_c, 0, 61, 0
1, 196080, Note_on_c, 0, 63, 80
1, 196307, Note_on_c, 0, 63, 0
1, 196320, Note_on_c, 0, 57, 80
1, 196320, Note_on_c, 0, 65, 80
1, 196547, Note_on_c, 0, 57, 0
1, 196547, Note_on_c, 0, 65, 0
1, 196560, Note_on_c, 0, 58, 80
1, 196787, Note_on_c, 0, 58, 0
1, 196800, Note_on_c, 0, 58, 80
1, 197027, Note_on_c, 0, 58, 0
1, 197040, Note_on_c, 0, 58, 80
1, 197267, Note_on_c, 0, 58, 0
1, 197280, Note_on_c, 0, 58, 80
1, 197280, Note_on_c, 0, 63, 80
1, 197621, Note_on_c, 0, 58, 0
1, 197621, Note_on_c, 0, 63, 0
1, 197640, Note_on_c, 0, 63, 80
1, 197753, Note_on_c, 0, 63, 0
1, 197760, Note_on_c, 0, 63, 80
1, 197987, Note_on_c, 0, 63, 0
1, 198000, Note_on_c, 0, 63, 80
1, 198227, Note_on_c, 0, 63, 0
1, 198240, Note_on_c, 0, 65, 80
1, 198467, Note_on_c, 0, 65, 0
1, 198480, Note_on_c, 0, 58, 80
1, 198707, Note_on_c, 0, 58, 0
1, 198720, Note_on_c, 0, 58, 80
1, 198947, Note_on_c, 0, 58, 0
1, 198960, Note_on_c, 0, 58, 80
1, 199187, Note_on_c, 0, 58, 0
1, 199200, Note_on_c, 0, 58, 80
1, 200567, Note_on_c, 0, 58, 0
1, 200880, Note_on_c, 0, 89, 64
1, 201107, Note_on_c, 0, 89, 0
1, 201120, Note_on_c, 0, 89, 64
1, 201347, Note_on_c, 0, 89, 0
1, 201360, Note_on_c, 0, 89, 64
1, 201587, Note_on_c, 0, 89, 0
1, 201600, Note_on_c, 0, 89, 64
1, 201827, Note_on_c, 0, 89, 0
1, 201840, Note_on_c, 0, 87, 64
1, 202067, Note_on_c, 0, 87, 0
1, 202080, Note_on_c, 0, 85, 64
1, 202307, Note_on_c, 0, 85, 0
1, 202320, Note_on_c, 0, 87, 64
1, 202547, Note_on_c, 0, 87, 0
1, 202560, Note_on_c, 0, 87, 64
1, 202560, Note_on_c, 0, 82, 64
1, 203015, Note_on_c, 0, 87, 0
1, 203040, Note_on_c, 0, 82, 0
1, 203040, Note_on_c, 0, 82, 64
1, 203520, Note_on_c, 0, 87, 64
1, 203975, Note_on_c, 0, 87, 0
1, 204000, Note_on_c, 0, 82, 0
1, 204000, Note_on_c, 0, 82, 64
1, 204480, Note_on_c, 0, 81, 64
1, 204683, Note_on_c, 0, 82, 0
1, 204720, Note_on_c, 0, 89, 64
1, 204947, Note_on_c, 0, 89, 0
1, 204960, Note_on_c, 0, 89, 64
1, 205187, Note_on_c, 0, 89, 0
1, 205200, Note_on_c, 0, 89, 64
1, 205391, Note_on_c, 0, 81, 0
1, 205427, Note_on_c, 0, 89, 0
1, 205440, Note_on_c, 0, 89, 64
1, 205667, Note_on_c, 0, 89, 0
1, 205680, Note_on_c, 0, 87, 64
1, 205907, Note_on_c, 0, 87, 0
1, 205920, Note_on_c, 0, 85, 64
1, 206147, Note_on_c, 0, 85, 0
1, 206160, Note_on_c, 0, 87, 64
1, 206387, Note_on_c, 0, 87, 0
1, 206400, Note_on_c, 0, 81, 64
1, 206400, Note_on_c, 0, 87, 64
1, 207767, Note_on_c, 0, 81, 0
1, 207767, Note_on_c, 0, 87, 0
1, 207840, Note_on_c, 0, 82, 64
1, 207840, Note_on_c, 0, 85, 64
1, 208523, Note_on_c, 0, 82, 0
1, 208523, Note_on_c, 0, 85, 0
1, 208560, Note_on_c, 0, 89, 64
1, 208787, Note_on_c, 0, 89, 0
1, 208800, Note_on_c, 0, 89, 64
1, 209027, Note_on_c, 0, 89, 0
1, 209040, Note_on_c, 0, 89, 64
1, 209267, Note_on_c, 0, 89, 0
1, 209280, Note_on_c, 0, 89, 64
1, 209507, Note_on_c, 0, 89, 0
1, 209520, Note_on_c, 0, 87, 64
1, 209747, Note_on_c, 0, 87, 0
1, 209760, Note_on_c, 0, 85, 64
1, 209987, Note_on_c, 0, 85, 0
1, 210000, Note_on_c, 0, 87, 64
1, 210227, Note_on_c, 0, 87, 0
1, 210240, Note_on_c, 0, 87, 64
1, 210240, Note_on_c, 0, 82, 64
1, 210695, Note_on_c, 0, 87, 0
1, 210720, Note_on_c, 0, 82, 0
1, 210720, Note_on_c, 0, 82, 64
1, 211200, Note_on_c, 0, 87, 64
1, 211655, Note_on_c, 0, 87, 0
1, 211680, Note_on_c, 0, 82, 0
1, 211680, Note_on_c, 0, 82, 64
1, 212160, Note_on_c, 0, 81, 64
1, 212363, Note_on_c, 0, 82, 0
1, 212400, Note_on_c, 0, 89, 64
1, 212627, Note_on_c, 0, 89, 0
1, 212640, Note_on_c, 0, 89, 64
1, 212867, Note_on_c, 0, 89, 0
1, 212880, Note_on_c, 0, 89, 64
1, 213071, Note_on_c, 0, 81, 0
1, 213107, Note_on_c, 0, 89, 0
1, 213120, Note_on_c, 0, 89, 64
1, 213347, Note_on_c, 0, 89, 0
1, 213360, Note_on_c, 0, 87, 64
1, 213587, Note_on_c, 0, 87, 0
1, 213600, Note_on_c, 0, 85, 64
1, 213827, Note_on_c, 0, 85, 0
1, 213840, Note_on_c, 0, 87, 64
1, 214067, Note_on_c, 0, 87, 0
1, 214080, Note_on_c, 0, 81, 64
1, 214080, Note_on_c, 0, 87, 64
1, 215447, Note_on_c, 0, 81, 0
1, 215447, Note_on_c, 0, 87, 0
1, 215520, Note_on_c, 0, 82, 64
1, 215520, Note_on_c, 0, 85, 64
1, 216431, Note_on_c, 0, 82, 0
1, 216431, Note_on_c, 0, 85, 0
1, 216720, Tempo, 444444
1, 216720, Note_on_c, 0, 85, 64
1, 216947, Note_on_c, 0, 85, 0
1, 216960, Note_on_c, 0, 84, 64
1, 217187, Note_on_c, 0, 84, 0
1, 217200, Note_on_c, 0, 80, 64
1, 217427, Note_on_c, 0, 80, 0
1, 217440, Note_on_c, 0, 82, 64
1, 217667, Note_on_c, 0, 82, 0
1, 217680, Note_on_c, 0, 77, 64
1, 217907, Note_on_c, 0, 77, 0
1, 217920, Note_on_c, 0, 68, 64
1, 217920, Note_on_c, 0, 75, 64
1, 218603, Note_on_c, 0, 68, 0
1, 218603, Note_on_c, 0, 75, 0
1, 218640, Note_on_c, 0, 85, 64
1, 218867, Note_on_c, 0, 85, 0
1, 218880, Note_on_c, 0, 84, 64
1, 219107, Note_on_c, 0, 84, 0
1, 219120, Note_on_c, 0, 80, 64
1, 219347, Note_on_c, 0, 80, 0
1, 219360, Note_on_c, 0, 82, 64
1, 219587, Note_on_c, 0, 82, 0
1, 219600, Note_on_c, 0, 77, 64
1, 219827, Note_on_c, 0, 77, 0
1, 219840, Note_on_c, 0, 66, 64
1, 219840, Note_on_c, 0, 73, 64
1, 220523, Note_on_c, 0, 66, 0
1, 220523, Note_on_c, 0, 73, 0
1, 220560, Tempo, 461538
1, 220560, Note_on_c, 0, 85, 64
1, 220787, Note_on_c, 0, 85, 0
1, 220800, Note_on_c, 0, 84, 64
1, 221027, Note_on_c, 0, 84, 0
1, 221040, Note_on_c, 0, 80, 64
1, 221267, Note_on_c, 0, 80, 0
1, 221280, Note_on_c, 0, 82, 64
1, 221507, Note_on_c, 0, 82, 0
1, 221520, Note_on_c, 0, 77, 64
1, 221747, Note_on_c, 0, 77, 0
1, 221760, Note_on_c, 0, 68, 64
1, 221760, Note_on_c, 0, 75, 64
1, 222443, Note_on_c, 0, 68, 0
1, 222443, Note_on_c, 0, 75, 0
1, 222480, Note_on_c, 0, 85, 64
1, 222707, Note_on_c, 0, 85, 0
1, 222720, Note_on_c, 0, 84, 64
1, 222947, Note_on_c, 0, 84, 0
1, 222960, Note_on_c, 0, 80, 64
1, 223187, Note_on_c, 0, 80, 0
1, 223200, Note_on_c, 0, 82, 64
1, 223427, Note_on_c, 0, 82, 0
1, 223440, Note_on_c, 0, 77, 64
1, 223667, Note_on_c, 0, 77, 0
1, 223680, Tempo, 500000
1, 223680, Note_on_c, 0, 69, 64
1, 225503, Note_on_c, 0, 69, 0
1, 225600, Tempo, 545456
1, 225600, Note_on_c, 0, 70, 64
1, 226560, Note_on_c, 0, 70, 0
1, 226561, End_track
0, 0, End_of_file