0, 0, Header, 1, 15, 120
1, 0, Start_track
1, 0, Time_signature, 4, 2, 24, 8
1, 0, Tempo, 461538
1, 0, MIDI_port, 0
1, 0, System_exclusive, 0A, 41, 10, 42, 12, 40, 00, 7F, 00, 41, F7
1, 0, MIDI_port, 0
1, 0, System_exclusive, 49, 41, 10, 45, 12, 10, 01, 00, 05, 0A, 0A, 0A, 0A, 0A, 0A, 00, 00, 04, 04, 04, 07, 04, 04, 04, 00, 14, 10, 14, 15, 15, 14, 00, 00, 10, 15, 11, 15, 15, 15, 14, 00, 0A, 08, 1A, 0A, 0A, 12, 00, 00, 00, 02, 14, 04, 02, 02, 14, 00, 00, 00, 00, 00, 00, 00, 00, 00, 00, 00, 00, 00, 00, 00, 00, 0C, F7
1, 0, MIDI_port, 0
1, 0, System_exclusive, 20, 41, 10, 45, 12, 10, 00, 00, 43, 6F, 70, 79, 72, 69, 67, 68, 74, 20, 7B, 70, 7D, 20, 4D, 49, 44, 49, 20, 48, 49, 54, 53, 14, F7
1, 0, MIDI_port, 0
1, 0, Key_signature, 6, "major"
1, 0, Marker_t, "Copyright (p) Midi Hits"
1, 2400, Marker_t, "Verse 1"
1, 14160, Marker_t, "Chorus"
1, 18840, Marker_t, "Verse 2"
1, 30480, Marker_t, "Chorus"
1, 41880, Marker_t, "Bridge"
1, 46080, Marker_t, "Chorus"
1, 60942, End_track
2, 0, Start_track
2, 0, MIDI_port, 0
2, 0, Title_t, "Vocal"
2, 0, Program_c, 3, 65
2, 0, Control_c, 3, 7, 127
2, 0, Control_c, 3, 10, 64
2, 0, Control_c, 3, 11, 127
2, 0, Control_c, 3, 91, 60
2, 0, Control_c, 3, 93, 30
2, 0, Control_c, 3, 94, 20
2, 1317, Note_on_c, 10, 58, 63
2, 1370, Note_off_c, 10, 58, 0
2, 2879, Lyric_t, "You're "
2, 2879, Note_on_c, 3, 61, 120
2, 2983, Note_off_c, 3, 61, 0
2, 2999, Lyric_t, "on "
2, 2999, Note_on_c, 3, 58, 119
2, 3030, Note_off_c, 3, 58, 0
2, 3059, Lyric_t, "the "
2, 3059, Note_on_c, 3, 58, 98
2, 3108, Note_off_c, 3, 58, 0
2, 3121, Lyric_t, "phone "
2, 3121, Note_on_c, 3, 56, 119
2, 3233, Note_off_c, 3, 56, 0
2, 3239, Lyric_t, "with "
2, 3239, Note_on_c, 3, 54, 120
2, 3278, Note_off_c, 3, 54, 0
2, 3300, Lyric_t, "your "
2, 3300, Note_on_c, 3, 54, 104
2, 3343, Note_off_c, 3, 54, 0
2, 3359, Lyric_t, "girl"
2, 3359, Note_on_c, 3, 61, 119
2, 3456, Note_off_c, 3, 61, 0
2, 3481, Lyric_t, "friend "
2, 3481, Lyric_t, "\015"
2, 3481, Note_on_c, 3, 58, 119
2, 3562, Note_off_c, 3, 58, 0
2, 3600, Lyric_t, "She's "
2, 3600, Note_on_c, 3, 56, 119
2, 3649, Note_off_c, 3, 56, 0
2, 3661, Lyric_t, "up"
2, 3661, Note_on_c, 3, 58, 109
2, 3759, Note_off_c, 3, 58, 0
2, 3779, Lyric_t, "set. "
2, 3779, Lyric_t, "\015"
2, 3779, Note_on_c, 3, 56, 113
2, 3891, Note_off_c, 3, 56, 0
2, 3899, Lyric_t, "She's "
2, 3899, Note_on_c, 3, 56, 119
2, 3948, Note_off_c, 3, 56, 0
2, 3959, Lyric_t, "go"
2, 3959, Note_on_c, 3, 61, 119
2, 4006, Note_off_c, 3, 61, 0
2, 4019, Lyric_t, "ing "
2, 4019, Note_on_c, 3, 61, 115
2, 4067, Note_off_c, 3, 61, 0
2, 4080, Lyric_t, "off "
2, 4080, Note_on_c, 3, 58, 115
2, 4115, Note_off_c, 3, 58, 0
2, 4139, Lyric_t, "a"
2, 4139, Note_on_c, 3, 58, 106
2, 4185, Note_off_c, 3, 58, 0
2, 4200, Lyric_t, "bout "
2, 4200, Note_on_c, 3, 56, 119
2, 4290, Note_off_c, 3, 56, 0
2, 4321, Lyric_t, "some"
2, 4321, Note_on_c, 3, 61, 119
2, 4368, Note_off_c, 3, 61, 0
2, 4381, Lyric_t, "thing "
2, 4381, Note_on_c, 3, 58, 119
2, 4476, Note_off_c, 3, 58, 0
2, 4501, Lyric_t, "that "
2, 4501, Note_on_c, 3, 56, 118
2, 4586, Note_off_c, 3, 56, 0
2, 4620, Lyric_t, "you "
2, 4620, Note_on_c, 3, 58, 117
2, 4711, Note_off_c, 3, 58, 0
2, 4739, Lyric_t, "said "
2, 4739, Lyric_t, "\015"
2, 4739, Note_on_c, 3, 56, 117
2, 4849, Note_off_c, 3, 56, 0
2, 4859, Lyric_t, "'Cuz "
2, 4859, Note_on_c, 3, 56, 109
2, 4906, Note_off_c, 3, 56, 0
2, 4919, Lyric_t, "she "
2, 4919, Note_on_c, 3, 59, 119
2, 5026, Note_off_c, 3, 59, 0
2, 5039, Lyric_t, "do"
2, 5039, Note_on_c, 3, 58, 118
2, 5088, Note_off_c, 3, 58, 0
2, 5099, Lyric_t, "sent "
2, 5099, Note_on_c, 3, 54, 118
2, 5182, Note_off_c, 3, 54, 0
2, 5279, Lyric_t, "get "
2, 5279, Note_on_c, 3, 56, 118
2, 5322, Note_off_c, 3, 56, 0
2, 5339, Lyric_t, "your "
2, 5339, Note_on_c, 3, 58, 119
2, 5436, Note_off_c, 3, 58, 0
2, 5461, Lyric_t, "hu"
2, 5461, Note_on_c, 3, 58, 115
2, 5564, Note_off_c, 3, 58, 0
2, 5579, Lyric_t, "mor "
2, 5579, Note_on_c, 3, 56, 117
2, 5629, Note_off_c, 3, 56, 0
2, 5639, Lyric_t, "like "
2, 5639, Note_on_c, 3, 54, 119
2, 5731, Note_off_c, 3, 54, 0
2, 5759, Lyric_t, "I "
2, 5759, Note_on_c, 3, 56, 119
2, 5979, Note_off_c, 3, 56, 0
2, 5999, Lyric_t, "do... "
2, 5999, Lyric_t, "\015"
2, 5999, Note_on_c, 3, 58, 117
2, 6201, Note_off_c, 3, 58, 0
2, 6719, Lyric_t, "I'm "
2, 6719, Note_on_c, 3, 61, 117
2, 6826, Note_off_c, 3, 61, 0
2, 6839, Lyric_t, "in "
2, 6839, Note_on_c, 3, 58, 118
2, 6874, Note_off_c, 3, 58, 0
2, 6899, Lyric_t, "the "
2, 6899, Note_on_c, 3, 58, 96
2, 6950, Note_off_c, 3, 58, 0
2, 6959, Lyric_t, "room "
2, 6959, Lyric_t, "\015"
2, 6959, Note_on_c, 3, 56, 118
2, 7053, Note_off_c, 3, 56, 0
2, 7081, Lyric_t, "It's "
2, 7081, Note_on_c, 3, 54, 118
2, 7123, Note_off_c, 3, 54, 0
2, 7139, Lyric_t, "a "
2, 7139, Note_on_c, 3, 54, 118
2, 7185, Note_off_c, 3, 54, 0
2, 7199, Lyric_t, "typ"
2, 7199, Note_on_c, 3, 61, 115
2, 7247, Note_off_c, 3, 61, 0
2, 7259, Lyric_t, "i"
2, 7259, Note_on_c, 3, 61, 115
2, 7305, Note_off_c, 3, 61, 0
2, 7319, Lyric_t, "cal "
2, 7319, Note_on_c, 3, 58, 114
2, 7412, Note_off_c, 3, 58, 0
2, 7439, Lyric_t, "Tues"
2, 7439, Note_on_c, 3, 56, 109
2, 7485, Note_off_c, 3, 56, 0
2, 7501, Lyric_t, "day "
2, 7501, Note_on_c, 3, 58, 106
2, 7606, Note_off_c, 3, 58, 0
2, 7621, Lyric_t, "night "
2, 7621, Lyric_t, "\015"
2, 7621, Note_on_c, 3, 56, 114
2, 7724, Note_off_c, 3, 56, 0
2, 7739, Lyric_t, "I'm "
2, 7739, Note_on_c, 3, 56, 113
2, 7786, Note_off_c, 3, 56, 0
2, 7799, Lyric_t, "lis"
2, 7799, Note_on_c, 3, 61, 119
2, 7831, Note_off_c, 3, 61, 0
2, 7859, Lyric_t, "tening "
2, 7859, Note_on_c, 3, 61, 101
2, 7905, Note_off_c, 3, 61, 0
2, 7919, Lyric_t, "to "
2, 7919, Note_on_c, 3, 58, 117
2, 7955, Note_off_c, 3, 58, 0
2, 7979, Lyric_t, "the "
2, 7979, Note_on_c, 3, 58, 117
2, 8026, Note_off_c, 3, 58, 0
2, 8039, Lyric_t, "kind "
2, 8039, Note_on_c, 3, 56, 115
2, 8081, Note_off_c, 3, 56, 0
2, 8099, Lyric_t, "of "
2, 8099, Note_on_c, 3, 56, 115
2, 8146, Note_off_c, 3, 56, 0
2, 8159, Lyric_t, "mu"
2, 8159, Note_on_c, 3, 61, 118
2, 8192, Note_off_c, 3, 61, 0
2, 8219, Lyric_t, "sic "
2, 8219, Note_on_c, 3, 61, 106
2, 8260, Note_off_c, 3, 61, 0
2, 8279, Lyric_t, "she "
2, 8279, Note_on_c, 3, 58, 118
2, 8386, Note_off_c, 3, 58, 0
2, 8399, Lyric_t, "do"
2, 8399, Note_on_c, 3, 56, 115
2, 8454, Note_off_c, 3, 56, 0
2, 8459, Lyric_t, "sen't "
2, 8459, Note_on_c, 3, 58, 115
2, 8569, Note_off_c, 3, 58, 0
2, 8579, Lyric_t, "like "
2, 8579, Lyric_t, "\015"
2, 8579, Note_on_c, 3, 56, 115
2, 8675, Note_off_c, 3, 56, 0
2, 8699, Lyric_t, "And "
2, 8699, Note_on_c, 3, 54, 113
2, 8741, Note_off_c, 3, 54, 0
2, 8759, Lyric_t, "she'll "
2, 8759, Note_on_c, 3, 59, 115
2, 8864, Note_off_c, 3, 59, 0
2, 8879, Lyric_t, "nev"
2, 8879, Note_on_c, 3, 58, 113
2, 8934, Note_off_c, 3, 58, 0
2, 8939, Lyric_t, "er "
2, 8939, Note_on_c, 3, 54, 113
2, 9043, Note_off_c, 3, 54, 0
2, 9119, Lyric_t, "know "
2, 9119, Note_on_c, 3, 56, 117
2, 9174, Note_off_c, 3, 56, 0
2, 9181, Lyric_t, "your "
2, 9181, Note_on_c, 3, 58, 115
2, 9274, Note_off_c, 3, 58, 0
2, 9301, Lyric_t, "sto"
2, 9301, Note_on_c, 3, 58, 117
2, 9400, Note_off_c, 3, 58, 0
2, 9419, Lyric_t, "ry "
2, 9419, Note_on_c, 3, 56, 106
2, 9473, Note_off_c, 3, 56, 0
2, 9479, Lyric_t, "like "
2, 9479, Note_on_c, 3, 54, 115
2, 9572, Note_off_c, 3, 54, 0
2, 9599, Lyric_t, "I "
2, 9599, Note_on_c, 3, 56, 117
2, 9824, Note_off_c, 3, 56, 0
2, 9839, Lyric_t, "do' "
2, 9839, Lyric_t, "\015"
2, 9839, Lyric_t, "\012"
2, 9839, Note_on_c, 3, 58, 115
2, 10107, Note_off_c, 3, 58, 0
2, 10499, Lyric_t, "But "
2, 10499, Note_on_c, 3, 61, 115
2, 10554, Note_off_c, 3, 61, 0
2, 10559, Lyric_t, "she "
2, 10559, Note_on_c, 3, 63, 115
2, 10668, Note_off_c, 3, 63, 0
2, 10679, Lyric_t, "wears "
2, 10679, Note_on_c, 3, 66, 117
2, 10781, Note_off_c, 3, 66, 0
2, 10799, Lyric_t, "short "
2, 10799, Note_on_c, 3, 68, 117
2, 10899, Note_off_c, 3, 68, 0
2, 10919, Lyric_t, "skirts "
2, 10919, Lyric_t, "\015"
2, 10919, Note_on_c, 3, 66, 113
2, 11010, Note_off_c, 3, 66, 0
2, 11039, Lyric_t, "I "
2, 11039, Note_on_c, 3, 63, 115
2, 11142, Note_off_c, 3, 63, 0
2, 11159, Lyric_t, "wear "
2, 11159, Note_on_c, 3, 66, 113
2, 11260, Note_off_c, 3, 66, 0
2, 11279, Lyric_t, "T"
2, 11279, Note_on_c, 3, 68, 103
2, 11381, Note_off_c, 3, 68, 0
2, 11399, Lyric_t, "shirts "
2, 11399, Lyric_t, "\015"
2, 11399, Note_on_c, 3, 66, 119
2, 11490, Note_off_c, 3, 66, 0
2, 11519, Lyric_t, "She's "
2, 11521, Note_on_c, 3, 63, 115
2, 11624, Note_off_c, 3, 63, 0
2, 11639, Lyric_t, "cheer "
2, 11639, Note_on_c, 3, 66, 117
2, 11739, Note_off_c, 3, 66, 0
2, 11759, Lyric_t, "cap"
2, 11759, Note_on_c, 3, 66, 115
2, 11809, Note_off_c, 3, 66, 0
2, 11819, Lyric_t, "tain "
2, 11819, Lyric_t, "\015"
2, 11819, Note_on_c, 3, 68, 114
2, 11862, Note_off_c, 3, 68, 0
2, 11881, Lyric_t, "And "
2, 11881, Note_on_c, 3, 66, 109
2, 11977, Note_off_c, 3, 66, 0
2, 11999, Lyric_t, "I'm "
2, 11999, Note_on_c, 3, 68, 115
2, 12095, Note_off_c, 3, 68, 0
2, 12119, Lyric_t, "in "
2, 12119, Note_on_c, 3, 68, 115
2, 12173, Note_off_c, 3, 68, 0
2, 12179, Lyric_t, "the "
2, 12179, Note_on_c, 3, 70, 118
2, 12232, Note_off_c, 3, 70, 0
2, 12239, Lyric_t, "bleach"
2, 12239, Note_on_c, 3, 68, 115
2, 12341, Note_off_c, 3, 68, 0
2, 12359, Lyric_t, "ers "
2, 12359, Lyric_t, "\015"
2, 12359, Note_on_c, 3, 66, 113
2, 12466, Note_off_c, 3, 66, 0
2, 12479, Lyric_t, "Dream"
2, 12479, Note_on_c, 3, 63, 117
2, 12528, Note_off_c, 3, 63, 0
2, 12539, Lyric_t, "ing "
2, 12539, Note_on_c, 3, 66, 115
2, 12564, Note_off_c, 3, 66, 0
2, 12571, Lyric_t, "a"
2, 12571, Note_on_c, 3, 66, 115
2, 12596, Note_off_c, 3, 66, 0
2, 12599, Lyric_t, "bout "
2, 12599, Note_on_c, 3, 66, 115
2, 12650, Note_off_c, 3, 66, 0
2, 12659, Lyric_t, "the "
2, 12659, Note_on_c, 3, 63, 115
2, 12712, Note_off_c, 3, 63, 0
2, 12719, Lyric_t, "day "
2, 12719, Note_on_c, 3, 68, 113
2, 12804, Note_off_c, 3, 68, 0
2, 12839, Lyric_t, "when "
2, 12839, Note_on_c, 3, 61, 115
2, 12890, Note_off_c, 3, 61, 0
2, 12899, Lyric_t, "you "
2, 12899, Note_on_c, 3, 61, 114
2, 12951, Note_off_c, 3, 61, 0
2, 12959, Lyric_t, "wake "
2, 12959, Note_on_c, 3, 63, 122
2, 13012, Note_off_c, 3, 63, 0
2, 13019, Lyric_t, "up "
2, 13019, Lyric_t, "\015"
2, 13019, Note_on_c, 3, 66, 119
2, 13069, Note_off_c, 3, 66, 0
2, 13079, Lyric_t, "And "
2, 13079, Note_on_c, 3, 63, 117
2, 13134, Note_off_c, 3, 63, 0
2, 13139, Lyric_t, "find "
2, 13139, Note_on_c, 3, 66, 115
2, 13234, Note_off_c, 3, 66, 0
2, 13261, Lyric_t, "what "
2, 13261, Note_on_c, 3, 63, 118
2, 13304, Note_off_c, 3, 63, 0
2, 13319, Lyric_t, "you"
2, 13319, Note_on_c, 3, 66, 117
2, 13363, Note_off_c, 3, 66, 0
2, 13381, Lyric_t, "'re "
2, 13381, Note_on_c, 3, 63, 117
2, 13421, Note_off_c, 3, 63, 0
2, 13499, Lyric_t, "look"
2, 13499, Note_on_c, 3, 70, 114
2, 13549, Note_off_c, 3, 70, 0
2, 13559, Lyric_t, "ing "
2, 13559, Note_on_c, 3, 68, 114
2, 13603, Note_off_c, 3, 68, 0
2, 13619, Lyric_t, "for "
2, 13619, Note_on_c, 3, 68, 114
2, 13709, Note_off_c, 3, 68, 0
2, 13739, Lyric_t, "has "
2, 13739, Note_on_c, 3, 66, 117
2, 13771, Note_off_c, 3, 66, 0
2, 13799, Lyric_t, "been "
2, 13799, Note_on_c, 3, 66, 103
2, 13843, Note_off_c, 3, 66, 0
2, 13859, Lyric_t, "he"
2, 13859, Note_on_c, 3, 70, 117
2, 13910, Note_off_c, 3, 70, 0
2, 13919, Lyric_t, "re "
2, 13919, Note_on_c, 3, 68, 119
2, 13958, Note_off_c, 3, 68, 0
2, 13979, Lyric_t, "the "
2, 13979, Note_on_c, 3, 66, 115
2, 14010, Note_off_c, 3, 66, 0
2, 14039, Lyric_t, "whole "
2, 14039, Note_on_c, 3, 66, 115
2, 14122, Note_off_c, 3, 66, 0
2, 14159, Lyric_t, "time "
2, 14159, Lyric_t, "\015"
2, 14159, Lyric_t, "\012"
2, 14159, Note_on_c, 3, 68, 117
2, 14210, Note_off_c, 3, 68, 0
2, 14219, Lyric_t, "If "
2, 14219, Note_on_c, 3, 66, 119
2, 14265, Note_off_c, 3, 66, 0
2, 14279, Lyric_t, "you "
2, 14279, Note_on_c, 3, 66, 117
2, 14330, Note_off_c, 3, 66, 0
2, 14339, Lyric_t, "could "
2, 14339, Note_on_c, 3, 68, 114
2, 14389, Note_off_c, 3, 68, 0
2, 14401, Lyric_t, "see "
2, 14401, Note_on_c, 3, 70, 115
2, 14500, Note_off_c, 3, 70, 0
2, 14519, Lyric_t, "that "
2, 14519, Note_on_c, 3, 68, 106
2, 14572, Note_off_c, 3, 68, 0
2, 14580, Lyric_t, "I'm "
2, 14580, Note_on_c, 3, 70, 113
2, 14734, Note_off_c, 3, 70, 0
2, 14759, Lyric_t, "the "
2, 14759, Note_on_c, 3, 68, 109
2, 14807, Note_off_c, 3, 68, 0
2, 14821, Lyric_t, "one "
2, 14821, Note_on_c, 3, 70, 117
2, 14926, Note_off_c, 3, 70, 0
2, 14941, Lyric_t, "who "
2, 14941, Note_on_c, 3, 68, 109
2, 14984, Note_off_c, 3, 68, 0
2, 15001, Lyric_t, "un"
2, 15001, Note_on_c, 3, 70, 115
2, 15036, Note_off_c, 3, 70, 0
2, 15059, Lyric_t, "der"
2, 15059, Note_on_c, 3, 70, 118
2, 15117, Note_off_c, 3, 70, 0
2, 15119, Lyric_t, "stands "
2, 15119, Note_on_c, 3, 68, 119
2, 15235, Note_off_c, 3, 68, 0
2, 15239, Lyric_t, "you "
2, 15239, Lyric_t, "\015"
2, 15239, Note_on_c, 3, 66, 117
2, 15337, Note_off_c, 3, 66, 0
2, 15359, Lyric_t, "Been "
2, 15359, Note_on_c, 3, 70, 115
2, 15463, Note_off_c, 3, 70, 0
2, 15481, Lyric_t, "here "
2, 15481, Note_on_c, 3, 68, 118
2, 15529, Note_off_c, 3, 68, 0
2, 15541, Lyric_t, "all "
2, 15541, Note_on_c, 3, 70, 117
2, 15677, Note_off_c, 3, 70, 0
2, 15718, Lyric_t, "a"
2, 15718, Note_on_c, 3, 68, 118
2, 15769, Note_off_c, 3, 68, 0
2, 15779, Lyric_t, "long "
2, 15779, Note_on_c, 3, 70, 115
2, 15876, Note_off_c, 3, 70, 0
2, 15900, Lyric_t, "so "
2, 15900, Note_on_c, 3, 68, 115
2, 15947, Note_off_c, 3, 68, 0
2, 15961, Lyric_t, "why "
2, 15961, Note_on_c, 3, 70, 115
2, 16058, Note_off_c, 3, 70, 0
2, 16080, Lyric_t, "can't "
2, 16080, Note_on_c, 3, 68, 115
2, 16184, Note_off_c, 3, 68, 0
2, 16199, Lyric_t, "you "
2, 16199, Note_on_c, 3, 66, 115
2, 16299, Note_off_c, 3, 66, 0
2, 16319, Lyric_t, "see, "
2, 16319, Note_on_c, 3, 71, 117
2, 16487, Note_off_c, 3, 71, 0
2, 16501, Lyric_t, "yo"
2, 16501, Note_on_c, 3, 70, 118
2, 16598, Note_off_c, 3, 70, 0
2, 16679, Lyric_t, "u "
2, 16679, Lyric_t, "\015"
2, 16679, Note_on_c, 3, 63, 114
2, 16883, Note_off_c, 3, 63, 0
2, 16919, Lyric_t, "You "
2, 16919, Note_on_c, 3, 66, 114
2, 16954, Note_off_c, 3, 66, 0
2, 16979, Lyric_t, "be"
2, 16979, Note_on_c, 3, 66, 117
2, 17012, Note_off_c, 3, 66, 0
2, 17039, Lyric_t, "lo"
2, 17039, Note_on_c, 3, 66, 115
2, 17090, Note_off_c, 3, 66, 0
2, 17099, Lyric_t, "ng "
2, 17099, Note_on_c, 3, 63, 115
2, 17152, Note_off_c, 3, 63, 0
2, 17159, Lyric_t, "with "
2, 17159, Note_on_c, 3, 61, 115
2, 17260, Note_off_c, 3, 61, 0
2, 17279, Lyric_t, "m"
2, 17279, Note_on_c, 3, 71, 118
2, 17448, Note_off_c, 3, 71, 0
2, 17459, Note_on_c, 3, 70, 114
2, 17610, Note_off_c, 3, 70, 0
2, 17639, Lyric_t, "e "
2, 17639, Lyric_t, "\015"
2, 17639, Note_on_c, 3, 59, 115
2, 17856, Note_off_c, 3, 59, 0
2, 17879, Lyric_t, "You "
2, 17879, Note_on_c, 3, 59, 117
2, 17910, Note_off_c, 3, 59, 0
2, 17939, Lyric_t, "be"
2, 17939, Note_on_c, 3, 59, 117
2, 17971, Note_off_c, 3, 59, 0
2, 17999, Lyric_t, "long "
2, 17999, Note_on_c, 3, 59, 117
2, 18108, Note_off_c, 3, 59, 0
2, 18119, Lyric_t, "with "
2, 18119, Note_on_c, 3, 58, 117
2, 18158, Note_off_c, 3, 58, 0
2, 18179, Lyric_t, "me "
2, 18179, Lyric_t, "\015"
2, 18179, Lyric_t, "\012"
2, 18179, Note_on_c, 3, 58, 117
2, 18392, Note_off_c, 3, 58, 0
2, 19199, Lyric_t, "Walk"
2, 19199, Note_on_c, 3, 61, 118
2, 19298, Note_off_c, 3, 61, 0
2, 19319, Lyric_t, "in' "
2, 19319, Note_on_c, 3, 58, 115
2, 19351, Note_off_c, 3, 58, 0
2, 19379, Lyric_t, "the "
2, 19379, Note_on_c, 3, 58, 113
2, 19428, Note_off_c, 3, 58, 0
2, 19439, Lyric_t, "streets "
2, 19439, Note_on_c, 3, 56, 118
2, 19551, Note_off_c, 3, 56, 0
2, 19561, Lyric_t, "with "
2, 19561, Note_on_c, 3, 54, 113
2, 19610, Note_off_c, 3, 54, 0
2, 19621, Lyric_t, "you "
2, 19621, Note_on_c, 3, 61, 118
2, 19711, Note_off_c, 3, 61, 0
2, 19739, Lyric_t, "and "
2, 19739, Note_on_c, 3, 61, 115
2, 19787, Note_off_c, 3, 61, 0
2, 19799, Lyric_t, "yo"
2, 19799, Note_on_c, 3, 58, 114
2, 19831, Note_off_c, 3, 58, 0
2, 19859, Lyric_t, "ur "
2, 19859, Note_on_c, 3, 58, 118
2, 19906, Note_off_c, 3, 58, 0
2, 19919, Lyric_t, "worn"
2, 19919, Note_on_c, 3, 56, 118
2, 19970, Note_off_c, 3, 56, 0
2, 19979, Lyric_t, "out "
2, 19979, Note_on_c, 3, 58, 114
2, 20086, Note_off_c, 3, 58, 0
2, 20099, Lyric_t, "jeans "
2, 20099, Lyric_t, "\015"
2, 20099, Note_on_c, 3, 56, 115
2, 20213, Note_off_c, 3, 56, 0
2, 20219, Lyric_t, "I "
2, 20219, Note_on_c, 3, 56, 113
2, 20266, Note_off_c, 3, 56, 0
2, 20279, Lyric_t, "can't "
2, 20279, Note_on_c, 3, 61, 112
2, 20313, Note_off_c, 3, 61, 0
2, 20339, Lyric_t, "help "
2, 20339, Note_on_c, 3, 61, 109
2, 20383, Note_off_c, 3, 61, 0
2, 20399, Lyric_t, "think"
2, 20399, Note_on_c, 3, 58, 115
2, 20427, Note_off_c, 3, 58, 0
2, 20459, Lyric_t, "ing "
2, 20459, Note_on_c, 3, 58, 114
2, 20506, Note_off_c, 3, 58, 0
2, 20519, Lyric_t, "this "
2, 20519, Note_on_c, 3, 56, 117
2, 20555, Note_off_c, 3, 56, 0
2, 20579, Lyric_t, "is "
2, 20579, Note_on_c, 3, 56, 115
2, 20619, Note_off_c, 3, 56, 0
2, 20639, Lyric_t, "how "
2, 20639, Note_on_c, 3, 61, 117
2, 20691, Note_off_c, 3, 61, 0
2, 20699, Lyric_t, "it "
2, 20699, Note_on_c, 3, 58, 115
2, 20764, Note_off_c, 3, 58, 0
2, 20819, Lyric_t, "ought "
2, 20819, Note_on_c, 3, 56, 119
2, 20903, Note_off_c, 3, 56, 0
2, 20939, Lyric_t, "to "
2, 20939, Note_on_c, 3, 58, 114
2, 21032, Note_off_c, 3, 58, 0
2, 21059, Lyric_t, "be "
2, 21059, Lyric_t, "\015"
2, 21059, Note_on_c, 3, 56, 114
2, 21221, Note_off_c, 3, 56, 0
2, 21239, Lyric_t, "Laugh"
2, 21239, Note_on_c, 3, 59, 117
2, 21290, Note_off_c, 3, 59, 0
2, 21299, Lyric_t, "ing "
2, 21299, Note_on_c, 3, 58, 115
2, 21350, Note_off_c, 3, 58, 0
2, 21359, Lyric_t, "on "
2, 21359, Note_on_c, 3, 59, 117
2, 21407, Note_off_c, 3, 59, 0
2, 21419, Lyric_t, "a "
2, 21419, Note_on_c, 3, 58, 122
2, 21459, Note_off_c, 3, 58, 0
2, 21479, Lyric_t, "pa"
2, 21479, Note_on_c, 3, 59, 119
2, 21530, Note_off_c, 3, 59, 0
2, 21539, Lyric_t, "rk "
2, 21539, Note_on_c, 3, 58, 117
2, 21591, Note_off_c, 3, 58, 0
2, 21601, Lyric_t, "bench, "
2, 21601, Note_on_c, 3, 59, 115
2, 21664, Note_off_c, 3, 59, 0
2, 21720, Lyric_t, "think"
2, 21720, Note_on_c, 3, 59, 115
2, 21768, Note_off_c, 3, 59, 0
2, 21779, Lyric_t, "ing "
2, 21779, Note_on_c, 3, 61, 114
2, 21818, Note_off_c, 3, 61, 0
2, 21839, Lyric_t, "to "
2, 21839, Note_on_c, 3, 63, 114
2, 21887, Note_off_c, 3, 63, 0
2, 21899, Lyric_t, "my"
2, 21899, Note_on_c, 3, 66, 114
2, 21983, Note_off_c, 3, 66, 0
2, 22019, Lyric_t, "self "
2, 22019, Lyric_t, "\015"
2, 22019, Note_on_c, 3, 68, 117
2, 22140, Note_off_c, 3, 68, 0
2, 22259, Lyric_t, "Hey "
2, 22259, Note_on_c, 3, 66, 115
2, 22293, Note_off_c, 3, 66, 0
2, 22319, Lyric_t, "is"
2, 22319, Note_on_c, 3, 66, 115
2, 22372, Note_off_c, 3, 66, 0
2, 22379, Lyric_t, "n't "
2, 22379, Note_on_c, 3, 68, 104
2, 22431, Note_off_c, 3, 68, 0
2, 22439, Lyric_t, "this "
2, 22439, Note_on_c, 3, 66, 115
2, 22547, Note_off_c, 3, 66, 0
2, 22559, Lyric_t, "e"
2, 22559, Note_on_c, 3, 71, 118
2, 22673, Note_off_c, 3, 71, 0
2, 22679, Lyric_t, "a"
2, 22679, Note_on_c, 3, 70, 119
2, 22726, Note_off_c, 3, 70, 0
2, 22739, Lyric_t, "s"
2, 22739, Note_on_c, 3, 68, 117
2, 22785, Note_off_c, 3, 68, 0
2, 22800, Note_on_c, 3, 68, 117
2, 22848, Note_off_c, 3, 68, 0
2, 22861, Lyric_t, "y "
2, 22861, Lyric_t, "\015"
2, 22861, Lyric_t, "\012"
2, 22861, Note_on_c, 3, 66, 118
2, 22950, Note_off_c, 3, 66, 0
2, 22981, Lyric_t, "And "
2, 22981, Note_on_c, 3, 65, 113
2, 23033, Note_off_c, 3, 65, 0
2, 23040, Lyric_t, "you've "
2, 23040, Note_on_c, 3, 66, 115
2, 23122, Note_off_c, 3, 66, 0
2, 23159, Lyric_t, "got "
2, 23159, Note_on_c, 3, 61, 119
2, 23199, Note_off_c, 3, 61, 0
2, 23219, Lyric_t, "a "
2, 23219, Note_on_c, 3, 61, 117
2, 23266, Note_off_c, 3, 61, 0
2, 23279, Lyric_t, "smile "
2, 23279, Note_on_c, 3, 58, 117
2, 23385, Note_off_c, 3, 58, 0
2, 23400, Lyric_t, "that "
2, 23400, Note_on_c, 3, 56, 117
2, 23452, Note_off_c, 3, 56, 0
2, 23459, Lyric_t, "could "
2, 23459, Note_on_c, 3, 54, 117
2, 23504, Note_off_c, 3, 54, 0
2, 23519, Lyric_t, "light "
2, 23519, Note_on_c, 3, 61, 117
2, 23569, Note_off_c, 3, 61, 0
2, 23581, Lyric_t, "up "
2, 23581, Note_on_c, 3, 58, 115
2, 23640, Note_off_c, 3, 58, 0
2, 23701, Lyric_t, "this "
2, 23701, Note_on_c, 3, 56, 115
2, 23780, Note_off_c, 3, 56, 0
2, 23821, Lyric_t, "whole "
2, 23821, Note_on_c, 3, 58, 114
2, 23924, Note_off_c, 3, 58, 0
2, 23939, Lyric_t, "town "
2, 23939, Lyric_t, "\015"
2, 23939, Note_on_c, 3, 56, 117
2, 24047, Note_off_c, 3, 56, 0
2, 24059, Lyric_t, "I "
2, 24059, Note_on_c, 3, 56, 115
2, 24112, Note_off_c, 3, 56, 0
2, 24119, Lyric_t, "have"
2, 24119, Note_on_c, 3, 61, 114
2, 24160, Note_off_c, 3, 61, 0
2, 24179, Lyric_t, "n't "
2, 24179, Note_on_c, 3, 61, 114
2, 24227, Note_off_c, 3, 61, 0
2, 24239, Lyric_t, "seen "
2, 24239, Note_on_c, 3, 58, 114
2, 24276, Note_off_c, 3, 58, 0
2, 24299, Lyric_t, "it "
2, 24299, Note_on_c, 3, 58, 115
2, 24346, Note_off_c, 3, 58, 0
2, 24359, Lyric_t, "in "
2, 24359, Note_on_c, 3, 56, 115
2, 24398, Note_off_c, 3, 56, 0
2, 24419, Lyric_t, "a "
2, 24419, Note_on_c, 3, 56, 117
2, 24466, Note_off_c, 3, 56, 0
2, 24479, Lyric_t, "while "
2, 24479, Note_on_c, 3, 61, 115
2, 24576, Note_off_c, 3, 61, 0
2, 24599, Lyric_t, "since "
2, 24599, Note_on_c, 3, 58, 115
2, 24648, Note_off_c, 3, 58, 0
2, 24659, Lyric_t, "she "
2, 24659, Note_on_c, 3, 58, 117
2, 24710, Note_off_c, 3, 58, 0
2, 24719, Lyric_t, "brought "
2, 24719, Note_on_c, 3, 56, 117
2, 24770, Note_off_c, 3, 56, 0
2, 24781, Lyric_t, "you "
2, 24781, Note_on_c, 3, 58, 117
2, 24869, Note_off_c, 3, 58, 0
2, 24898, Note_on_c, 3, 56, 115
2, 24899, Lyric_t, "down "
2, 24899, Lyric_t, "\015"
2, 25005, Note_off_c, 3, 56, 0
2, 25019, Lyric_t, "You "
2, 25019, Note_on_c, 3, 56, 119
2, 25062, Note_off_c, 3, 56, 0
2, 25079, Lyric_t, "say "
2, 25079, Note_on_c, 3, 56, 115
2, 25114, Note_off_c, 3, 56, 0
2, 25139, Lyric_t, "your "
2, 25139, Note_on_c, 3, 56, 118
2, 25170, Note_off_c, 3, 56, 0
2, 25199, Lyric_t, "fine "
2, 25199, Lyric_t, "\015"
2, 25199, Note_on_c, 3, 56, 115
2, 25252, Note_off_c, 3, 56, 0
2, 25259, Lyric_t, "I "
2, 25259, Note_on_c, 3, 58, 113
2, 25314, Note_off_c, 3, 58, 0
2, 25319, Lyric_t, "know "
2, 25319, Note_on_c, 3, 59, 113
2, 25368, Note_off_c, 3, 59, 0
2, 25379, Lyric_t, "you "
2, 25379, Note_on_c, 3, 61, 114
2, 25421, Note_off_c, 3, 61, 0
2, 25439, Lyric_t, "bet"
2, 25439, Note_on_c, 3, 63, 112
2, 25476, Note_off_c, 3, 63, 0
2, 25499, Lyric_t, "ter "
2, 25499, Note_on_c, 3, 63, 113
2, 25556, Note_off_c, 3, 63, 0
2, 25559, Lyric_t, "then "
2, 25559, Note_on_c, 3, 70, 111
2, 25651, Note_off_c, 3, 70, 0
2, 25679, Lyric_t, "that "
2, 25679, Lyric_t, "\015"
2, 25679, Note_on_c, 3, 68, 115
2, 25825, Note_off_c, 3, 68, 0
2, 25979, Lyric_t, "Hey "
2, 25979, Note_on_c, 3, 56, 119
2, 26018, Note_off_c, 3, 56, 0
2, 26041, Lyric_t, "what"
2, 26041, Note_on_c, 3, 56, 118
2, 26073, Note_off_c, 3, 56, 0
2, 26099, Lyric_t, "cha "
2, 26099, Note_on_c, 3, 56, 118
2, 26130, Note_off_c, 3, 56, 0
2, 26159, Lyric_t, "do"
2, 26159, Note_on_c, 3, 56, 118
2, 26209, Note_off_c, 3, 56, 0
2, 26219, Lyric_t, "ing "
2, 26219, Note_on_c, 3, 58, 119
2, 26266, Note_off_c, 3, 58, 0
2, 26279, Lyric_t, "with "
2, 26279, Note_on_c, 3, 59, 106
2, 26326, Note_off_c, 3, 59, 0
2, 26339, Lyric_t, "a "
2, 26339, Note_on_c, 3, 61, 114
2, 26385, Note_off_c, 3, 61, 0
2, 26399, Lyric_t, "girl "
2, 26399, Note_on_c, 3, 63, 114
2, 26504, Note_off_c, 3, 63, 0
2, 26519, Lyric_t, "like "
2, 26519, Note_on_c, 3, 70, 115
2, 26616, Note_off_c, 3, 70, 0
2, 26639, Lyric_t, "that "
2, 26639, Lyric_t, "\015"
2, 26639, Lyric_t, "\012"
2, 26639, Note_on_c, 3, 68, 118
2, 26822, Note_off_c, 3, 68, 0
2, 26879, Lyric_t, "She "
2, 26879, Note_on_c, 3, 63, 117
2, 26881, Note_on_c, 10, 51, 68
2, 26991, Note_off_c, 3, 63, 0
2, 27000, Lyric_t, "wears "
2, 27000, Note_on_c, 3, 66, 117
2, 27093, Note_off_c, 3, 66, 0
2, 27119, Lyric_t, "high "
2, 27119, Note_on_c, 3, 68, 118
2, 27229, Note_off_c, 3, 68, 0
2, 27239, Lyric_t, "heels "
2, 27239, Lyric_t, "\015"
2, 27239, Note_on_c, 3, 66, 115
2, 27250, Note_off_c, 10, 51, 0
2, 27336, Note_off_c, 3, 66, 0
2, 27359, Lyric_t, "I "
2, 27359, Note_on_c, 3, 63, 113
2, 27379, Note_on_c, 10, 54, 83
2, 27476, Note_off_c, 3, 63, 0
2, 27479, Lyric_t, "wear "
2, 27479, Note_on_c, 3, 66, 115
2, 27580, Note_off_c, 3, 66, 0
2, 27599, Lyric_t, "sneak"
2, 27599, Note_on_c, 3, 68, 122
2, 27708, Note_off_c, 3, 68, 0
2, 27720, Lyric_t, "ers "
2, 27720, Lyric_t, "\015"
2, 27720, Note_on_c, 3, 66, 113
2, 27813, Note_off_c, 10, 54, 0
2, 27818, Note_off_c, 3, 66, 0
2, 27839, Lyric_t, "She's "
2, 27839, Note_on_c, 3, 61, 113
2, 27846, Note_on_c, 10, 54, 71
2, 27946, Note_off_c, 3, 61, 0
2, 27960, Lyric_t, "cheer "
2, 27960, Note_on_c, 3, 66, 114
2, 28044, Note_off_c, 3, 66, 0
2, 28079, Lyric_t, "cap"
2, 28079, Note_on_c, 3, 66, 115
2, 28120, Note_off_c, 3, 66, 0
2, 28139, Lyric_t, "tain "
2, 28139, Note_on_c, 3, 68, 104
2, 28184, Note_off_c, 3, 68, 0
2, 28199, Lyric_t, "and "
2, 28199, Note_on_c, 3, 66, 115
2, 28290, Note_off_c, 3, 66, 0
2, 28301, Note_off_c, 10, 54, 0
2, 28319, Lyric_t, "I'm "
2, 28319, Note_on_c, 3, 68, 114
2, 28333, Note_on_c, 10, 53, 86
2, 28415, Note_off_c, 3, 68, 0
2, 28439, Lyric_t, "on "
2, 28439, Note_on_c, 3, 68, 117
2, 28496, Note_off_c, 3, 68, 0
2, 28499, Lyric_t, "the "
2, 28499, Note_on_c, 3, 70, 113
2, 28542, Note_off_c, 3, 70, 0
2, 28559, Lyric_t, "bleach"
2, 28559, Note_on_c, 3, 68, 117
2, 28661, Note_off_c, 3, 68, 0
2, 28679, Lyric_t, "ers "
2, 28679, Lyric_t, "\015"
2, 28679, Note_on_c, 3, 66, 115
2, 28772, Note_off_c, 10, 53, 0
2, 28784, Note_off_c, 3, 66, 0
2, 28799, Lyric_t, "Dream"
2, 28799, Note_on_c, 3, 63, 118
2, 28816, Note_on_c, 10, 51, 60
2, 28847, Note_off_c, 3, 63, 0
2, 28859, Lyric_t, "ing "
2, 28859, Note_on_c, 3, 66, 119
2, 28884, Note_off_c, 3, 66, 0
2, 28889, Lyric_t, "a"
2, 28889, Note_on_c, 3, 66, 119
2, 28914, Note_off_c, 3, 66, 0
2, 28919, Lyric_t, "bout "
2, 28919, Note_on_c, 3, 66, 114
2, 28969, Note_off_c, 3, 66, 0
2, 28981, Lyric_t, "the "
2, 28981, Note_on_c, 3, 63, 106
2, 29029, Note_off_c, 3, 63, 0
2, 29039, Lyric_t, "day "
2, 29039, Note_on_c, 3, 68, 118
2, 29115, Note_off_c, 3, 68, 0
2, 29159, Lyric_t, "when "
2, 29159, Note_on_c, 3, 61, 115
2, 29165, Note_off_c, 10, 51, 0
2, 29194, Note_off_c, 3, 61, 0
2, 29219, Lyric_t, "you "
2, 29219, Note_on_c, 3, 61, 114
2, 29269, Note_off_c, 3, 61, 0
2, 29279, Lyric_t, "wake "
2, 29279, Note_on_c, 3, 63, 113
2, 29287, Note_on_c, 10, 51, 81
2, 29322, Note_off_c, 3, 63, 0
2, 29339, Lyric_t, "up "
2, 29339, Note_on_c, 3, 66, 109
2, 29382, Note_off_c, 3, 66, 0
2, 29399, Lyric_t, "and "
2, 29399, Note_on_c, 3, 63, 112
2, 29444, Note_off_c, 3, 63, 0
2, 29459, Lyric_t, "find "
2, 29459, Lyric_t, "\015"
2, 29459, Note_on_c, 3, 66, 115
2, 29569, Note_off_c, 3, 66, 0
2, 29579, Lyric_t, "That "
2, 29579, Note_on_c, 3, 63, 120
2, 29625, Note_off_c, 3, 63, 0
2, 29639, Lyric_t, "what "
2, 29639, Note_on_c, 3, 66, 114
2, 29674, Note_off_c, 3, 66, 0
2, 29699, Lyric_t, "you're "
2, 29699, Note_on_c, 3, 66, 117
2, 29743, Note_off_c, 3, 66, 0
2, 29756, Note_off_c, 10, 51, 0
2, 29778, Note_on_c, 10, 56, 81
2, 29819, Lyric_t, "look"
2, 29819, Note_on_c, 3, 70, 115
2, 29860, Note_off_c, 3, 70, 0
2, 29879, Lyric_t, "ing "
2, 29879, Note_on_c, 3, 68, 115
2, 29909, Note_off_c, 3, 68, 0
2, 29939, Lyric_t, "for "
2, 29939, Note_on_c, 3, 68, 115
2, 30022, Note_off_c, 3, 68, 0
2, 30059, Lyric_t, "has "
2, 30059, Note_on_c, 3, 66, 115
2, 30085, Note_off_c, 3, 66, 0
2, 30119, Lyric_t, "been "
2, 30119, Note_on_c, 3, 66, 115
2, 30165, Note_off_c, 3, 66, 0
2, 30178, Note_on_c, 3, 70, 114
2, 30179, Lyric_t, "he"
2, 30228, Note_off_c, 3, 70, 0
2, 30239, Lyric_t, "re "
2, 30239, Note_on_c, 3, 68, 115
2, 30295, Note_off_c, 3, 68, 0
2, 30299, Lyric_t, "the "
2, 30299, Note_on_c, 3, 66, 109
2, 30335, Note_off_c, 3, 66, 0
2, 30359, Lyric_t, "whole "
2, 30359, Note_on_c, 3, 66, 117
2, 30439, Note_off_c, 3, 66, 0
2, 30479, Lyric_t, "time "
2, 30479, Lyric_t, "\015"
2, 30479, Lyric_t, "\012"
2, 30479, Note_on_c, 3, 68, 119
2, 30535, Note_off_c, 3, 68, 0
2, 30539, Lyric_t, "If "
2, 30539, Note_on_c, 3, 66, 117
2, 30566, Note_off_c, 3, 66, 0
2, 30599, Lyric_t, "you "
2, 30599, Note_on_c, 3, 66, 119
2, 30631, Note_off_c, 10, 56, 0
2, 30648, Note_off_c, 3, 66, 0
2, 30659, Lyric_t, "could "
2, 30659, Note_on_c, 3, 68, 118
2, 30704, Note_off_c, 3, 68, 0
2, 30719, Lyric_t, "see "
2, 30719, Note_on_c, 3, 70, 114
2, 30720, Note_on_c, 7, 49, 96
2, 30826, Note_off_c, 3, 70, 0
2, 30839, Lyric_t, "that "
2, 30839, Note_on_c, 3, 68, 109
2, 30893, Note_off_c, 3, 68, 0
2, 30899, Lyric_t, "I'm "
2, 30899, Note_on_c, 3, 70, 115
2, 31053, Note_off_c, 3, 70, 0
2, 31079, Lyric_t, "the "
2, 31079, Note_on_c, 3, 68, 119
2, 31138, Note_off_c, 3, 68, 0
2, 31141, Lyric_t, "one "
2, 31141, Note_on_c, 3, 70, 117
2, 31246, Note_off_c, 3, 70, 0
2, 31261, Lyric_t, "who "
2, 31261, Note_on_c, 3, 68, 118
2, 31299, Note_off_c, 3, 68, 0
2, 31321, Lyric_t, "un"
2, 31321, Note_on_c, 3, 70, 115
2, 31352, Note_off_c, 3, 70, 0
2, 31379, Lyric_t, "der"
2, 31379, Note_on_c, 3, 70, 115
2, 31431, Note_off_c, 3, 70, 0
2, 31439, Lyric_t, "stands "
2, 31439, Note_on_c, 3, 68, 117
2, 31544, Note_off_c, 3, 68, 0
2, 31559, Lyric_t, "you "
2, 31559, Lyric_t, "\015"
2, 31559, Note_on_c, 3, 66, 119
2, 31666, Note_off_c, 7, 49, 0
2, 31668, Note_off_c, 3, 66, 0
2, 31678, Note_on_c, 7, 49, 96
2, 31679, Lyric_t, "Been "
2, 31679, Note_on_c, 3, 70, 115
2, 31792, Note_off_c, 3, 70, 0
2, 31801, Lyric_t, "here "
2, 31801, Note_on_c, 3, 68, 113
2, 31855, Note_off_c, 3, 68, 0
2, 31861, Lyric_t, "all "
2, 31861, Note_on_c, 3, 70, 117
2, 32010, Note_off_c, 3, 70, 0
2, 32039, Lyric_t, "a"
2, 32039, Note_on_c, 3, 68, 104
2, 32091, Note_off_c, 3, 68, 0
2, 32099, Lyric_t, "long "
2, 32099, Note_on_c, 3, 70, 115
2, 32209, Note_off_c, 3, 70, 0
2, 32219, Lyric_t, "so "
2, 32219, Note_on_c, 3, 68, 114
2, 32267, Note_off_c, 3, 68, 0
2, 32279, Lyric_t, "why "
2, 32279, Note_on_c, 3, 70, 117
2, 32389, Note_off_c, 3, 70, 0
2, 32399, Lyric_t, "can't "
2, 32399, Note_on_c, 3, 68, 115
2, 32515, Note_off_c, 3, 68, 0
2, 32519, Lyric_t, "you "
2, 32519, Note_on_c, 3, 66, 119
2, 32616, Note_off_c, 3, 66, 0
2, 32625, Note_off_c, 7, 49, 0
2, 32637, Note_on_c, 7, 51, 96
2, 32639, Lyric_t, "s"
2, 32639, Note_on_c, 3, 71, 118
2, 32811, Note_off_c, 3, 71, 0
2, 32819, Lyric_t, "e"
2, 32819, Note_on_c, 3, 70, 118
2, 32964, Note_off_c, 3, 70, 0
2, 32999, Lyric_t, "e "
2, 32999, Lyric_t, "\015"
2, 32999, Note_on_c, 3, 63, 118
2, 33222, Note_off_c, 3, 63, 0
2, 33239, Lyric_t, "You "
2, 33239, Note_on_c, 3, 66, 114
2, 33273, Note_off_c, 3, 66, 0
2, 33299, Lyric_t, "be"
2, 33299, Note_on_c, 3, 66, 114
2, 33334, Note_off_c, 3, 66, 0
2, 33359, Lyric_t, "lo"
2, 33359, Note_on_c, 3, 66, 118
2, 33409, Note_off_c, 3, 66, 0
2, 33419, Lyric_t, "ng "
2, 33419, Note_on_c, 3, 63, 118
2, 33476, Note_off_c, 3, 63, 0
2, 33479, Lyric_t, "with "
2, 33479, Note_on_c, 3, 61, 119
2, 33562, Note_off_c, 3, 61, 0
2, 33580, Note_off_c, 7, 51, 0
2, 33598, Note_on_c, 7, 47, 96
2, 33599, Lyric_t, "m"
2, 33599, Note_on_c, 3, 71, 117
2, 33766, Note_off_c, 3, 71, 0
2, 33779, Note_on_c, 3, 70, 115
2, 33896, Note_off_c, 3, 70, 0
2, 33959, Note_on_c, 3, 59, 117
2, 34126, Note_off_c, 3, 59, 0
2, 34139, Lyric_t, "e "
2, 34139, Lyric_t, "\015"
2, 34139, Lyric_t, "\012"
2, 34139, Note_on_c, 3, 61, 119
2, 34394, Note_off_c, 3, 61, 0
2, 34550, Note_off_c, 7, 47, 0
2, 34557, Note_on_c, 7, 49, 96
2, 34558, Lyric_t, "Stand"
2, 34558, Note_on_c, 3, 70, 117
2, 34676, Note_off_c, 3, 70, 0
2, 34679, Lyric_t, "ing "
2, 34679, Note_on_c, 3, 68, 117
2, 34733, Note_off_c, 3, 68, 0
2, 34739, Lyric_t, "by "
2, 34739, Note_on_c, 3, 70, 117
2, 34904, Note_off_c, 3, 70, 0
2, 34918, Lyric_t, "and "
2, 34918, Note_on_c, 3, 68, 114
2, 34970, Note_off_c, 3, 68, 0
2, 34979, Lyric_t, "wait"
2, 34979, Note_on_c, 3, 70, 118
2, 35082, Note_off_c, 3, 70, 0
2, 35100, Lyric_t, "ing "
2, 35100, Note_on_c, 3, 68, 117
2, 35146, Note_off_c, 3, 68, 0
2, 35160, Lyric_t, "at "
2, 35160, Note_on_c, 3, 70, 114
2, 35193, Note_off_c, 3, 70, 0
2, 35219, Lyric_t, "your "
2, 35219, Note_on_c, 3, 70, 114
2, 35277, Note_off_c, 3, 70, 0
2, 35279, Lyric_t, "back "
2, 35279, Note_on_c, 3, 68, 117
2, 35396, Note_off_c, 3, 68, 0
2, 35399, Lyric_t, "door "
2, 35399, Lyric_t, "\015"
2, 35399, Note_on_c, 3, 66, 118
2, 35503, Note_off_c, 7, 49, 0
2, 35506, Note_off_c, 3, 66, 0
2, 35515, Note_on_c, 7, 49, 96
2, 35519, Lyric_t, "All "
2, 35519, Note_on_c, 3, 70, 117
2, 35631, Note_off_c, 3, 70, 0
2, 35639, Lyric_t, "this "
2, 35639, Note_on_c, 3, 68, 109
2, 35693, Note_off_c, 3, 68, 0
2, 35699, Lyric_t, "time "
2, 35699, Note_on_c, 3, 70, 118
2, 35856, Note_off_c, 3, 70, 0
2, 35879, Lyric_t, "how "
2, 35879, Note_on_c, 3, 68, 117
2, 35935, Note_off_c, 3, 68, 0
2, 35939, Lyric_t, "could "
2, 35939, Note_on_c, 3, 70, 117
2, 36053, Note_off_c, 3, 70, 0
2, 36061, Lyric_t, "you "
2, 36061, Note_on_c, 3, 68, 119
2, 36108, Note_off_c, 3, 68, 0
2, 36119, Lyric_t, "not "
2, 36119, Note_on_c, 3, 70, 117
2, 36199, Note_off_c, 3, 70, 0
2, 36239, Lyric_t, "know "
2, 36239, Lyric_t, "\015"
2, 36239, Note_on_c, 3, 68, 113
2, 36339, Note_off_c, 3, 68, 0
2, 36359, Lyric_t, "Ba"
2, 36359, Note_on_c, 3, 66, 117
2, 36462, Note_off_c, 7, 49, 0
2, 36465, Note_off_c, 3, 66, 0
2, 36474, Note_on_c, 7, 51, 96
2, 36479, Lyric_t, "b"
2, 36479, Note_on_c, 3, 71, 118
2, 36648, Note_off_c, 3, 71, 0
2, 36659, Note_on_c, 3, 70, 115
2, 36813, Note_off_c, 3, 70, 0
2, 36841, Lyric_t, "y... "
2, 36841, Lyric_t, "\015"
2, 36841, Note_on_c, 3, 63, 117
2, 37037, Note_off_c, 3, 63, 0
2, 37078, Lyric_t, "You "
2, 37078, Note_on_c, 3, 66, 117
2, 37114, Note_off_c, 3, 66, 0
2, 37139, Lyric_t, "be"
2, 37139, Note_on_c, 3, 66, 117
2, 37175, Note_off_c, 3, 66, 0
2, 37199, Lyric_t, "lo"
2, 37199, Note_on_c, 3, 66, 119
2, 37249, Note_off_c, 3, 66, 0
2, 37259, Lyric_t, "ng "
2, 37259, Note_on_c, 3, 63, 115
2, 37318, Note_off_c, 3, 63, 0
2, 37319, Lyric_t, "with "
2, 37319, Note_on_c, 3, 61, 118
2, 37409, Note_off_c, 3, 61, 0
2, 37417, Note_off_c, 7, 51, 0
2, 37435, Note_on_c, 7, 47, 96
2, 37439, Lyric_t, "m"
2, 37439, Note_on_c, 3, 71, 118
2, 37612, Note_off_c, 3, 71, 0
2, 37619, Note_on_c, 3, 70, 113
2, 37773, Note_off_c, 3, 70, 0
2, 37798, Lyric_t, "e "
2, 37798, Lyric_t, "\015"
2, 37798, Note_on_c, 3, 59, 119
2, 38013, Note_off_c, 3, 59, 0
2, 38039, Lyric_t, "you "
2, 38099, Lyric_t, "be"
2, 38099, Note_on_c, 3, 59, 119
2, 38133, Note_off_c, 3, 59, 0
2, 38159, Lyric_t, "long "
2, 38159, Note_on_c, 3, 59, 114
2, 38273, Note_off_c, 3, 59, 0
2, 38281, Lyric_t, "with "
2, 38281, Note_on_c, 3, 58, 117
2, 38322, Note_off_c, 3, 58, 0
2, 38341, Lyric_t, "me "
2, 38341, Lyric_t, "\015"
2, 38341, Lyric_t, "\012"
2, 38341, Note_on_c, 3, 58, 117
2, 38387, Note_off_c, 7, 47, 0
2, 38392, Note_off_c, 3, 58, 0
2, 41699, Lyric_t, "Oh' "
2, 41699, Lyric_t, "\015"
2, 41699, Note_on_c, 3, 71, 118
2, 41851, Note_off_c, 3, 71, 0
2, 41879, Lyric_t, "I "
2, 41879, Note_on_c, 3, 71, 115
2, 41913, Note_off_c, 3, 71, 0
2, 41939, Lyric_t, "re"
2, 41939, Note_on_c, 3, 71, 120
2, 41969, Note_off_c, 3, 71, 0
2, 41999, Lyric_t, "mem"
2, 41999, Note_on_c, 3, 71, 117
2, 42055, Note_off_c, 3, 71, 0
2, 42058, Lyric_t, "ber "
2, 42058, Note_on_c, 3, 70, 117
2, 42112, Note_off_c, 3, 70, 0
2, 42119, Lyric_t, "you "
2, 42119, Note_on_c, 3, 66, 118
2, 42222, Note_off_c, 3, 66, 0
2, 42239, Lyric_t, "dri"
2, 42239, Note_on_c, 3, 68, 118
2, 42272, Note_off_c, 3, 68, 0
2, 42299, Lyric_t, "vin' "
2, 42299, Note_on_c, 3, 68, 118
2, 42333, Note_off_c, 3, 68, 0
2, 42359, Lyric_t, "to "
2, 42359, Note_on_c, 3, 68, 119
2, 42410, Note_off_c, 3, 68, 0
2, 42419, Lyric_t, "my "
2, 42419, Note_on_c, 3, 66, 119
2, 42470, Note_off_c, 3, 66, 0
2, 42481, Lyric_t, "house "
2, 42481, Note_on_c, 3, 63, 117
2, 42583, Note_off_c, 3, 63, 0
2, 42599, Lyric_t, "in "
2, 42599, Note_on_c, 3, 66, 115
2, 42654, Note_off_c, 3, 66, 0
2, 42659, Lyric_t, "the "
2, 42659, Note_on_c, 3, 66, 115
2, 42714, Note_off_c, 3, 66, 0
2, 42719, Lyric_t, "mid"
2, 42719, Note_on_c, 3, 68, 118
2, 42769, Note_off_c, 3, 68, 0
2, 42779, Lyric_t, "dle "
2, 42779, Note_on_c, 3, 70, 106
2, 42829, Note_off_c, 3, 70, 0
2, 42839, Lyric_t, "of "
2, 42839, Note_on_c, 3, 68, 117
2, 42889, Note_off_c, 3, 68, 0
2, 42899, Lyric_t, "the "
2, 42899, Note_on_c, 3, 66, 113
2, 42949, Note_off_c, 3, 66, 0
2, 42959, Lyric_t, "night "
2, 42959, Lyric_t, "\015"
2, 42959, Note_on_c, 3, 63, 117
2, 43059, Note_off_c, 3, 63, 0
2, 43079, Lyric_t, "I'm "
2, 43079, Note_on_c, 3, 66, 118
2, 43130, Note_off_c, 3, 66, 0
2, 43139, Lyric_t, "the "
2, 43139, Note_on_c, 3, 66, 117
2, 43185, Note_off_c, 3, 66, 0
2, 43199, Lyric_t, "one "
2, 43199, Note_on_c, 3, 68, 119
2, 43254, Note_off_c, 3, 68, 0
2, 43259, Lyric_t, "who "
2, 43259, Note_on_c, 3, 70, 118
2, 43312, Note_off_c, 3, 70, 0
2, 43319, Lyric_t, "makes "
2, 43319, Note_on_c, 3, 68, 118
2, 43372, Note_off_c, 3, 68, 0
2, 43379, Lyric_t, "you "
2, 43379, Note_on_c, 3, 66, 115
2, 43421, Note_off_c, 3, 66, 0
2, 43441, Lyric_t, "laugh "
2, 43441, Lyric_t, "\015"
2, 43441, Note_on_c, 3, 66, 117
2, 43525, Note_off_c, 3, 66, 0
2, 43559, Lyric_t, "When "
2, 43559, Note_on_c, 3, 66, 114
2, 43595, Note_off_c, 3, 66, 0
2, 43619, Lyric_t, "you "
2, 43619, Note_on_c, 3, 66, 117
2, 43664, Note_off_c, 3, 66, 0
2, 43679, Lyric_t, "know "
2, 43679, Note_on_c, 3, 68, 117
2, 43726, Note_off_c, 3, 68, 0
2, 43739, Lyric_t, "your "
2, 43739, Note_on_c, 3, 70, 119
2, 43764, Note_off_c, 3, 70, 0
2, 43769, Lyric_t, "a"
2, 43769, Note_on_c, 3, 70, 119
2, 43794, Note_off_c, 3, 70, 0
2, 43799, Lyric_t, "bout "
2, 43799, Note_on_c, 3, 68, 118
2, 43845, Note_off_c, 3, 68, 0
2, 43859, Lyric_t, "to "
2, 43859, Note_on_c, 3, 66, 117
2, 43904, Note_off_c, 3, 66, 0
2, 43919, Lyric_t, "cry "
2, 43919, Lyric_t, "\015"
2, 43919, Note_on_c, 3, 68, 115
2, 44028, Note_off_c, 3, 68, 0
2, 44099, Lyric_t, "And "
2, 44099, Note_on_c, 3, 68, 117
2, 44124, Note_off_c, 3, 68, 0
2, 44130, Lyric_t, "I "
2, 44130, Note_on_c, 3, 68, 117
2, 44155, Note_off_c, 3, 68, 0
2, 44159, Lyric_t, "know "
2, 44159, Note_on_c, 3, 68, 118
2, 44210, Note_off_c, 3, 68, 0
2, 44219, Lyric_t, "your "
2, 44219, Note_on_c, 3, 70, 113
2, 44265, Note_off_c, 3, 70, 0
2, 44279, Lyric_t, "fa"
2, 44279, Note_on_c, 3, 68, 117
2, 44332, Note_off_c, 3, 68, 0
2, 44339, Lyric_t, "vorite "
2, 44339, Note_on_c, 3, 66, 117
2, 44391, Note_off_c, 3, 66, 0
2, 44399, Lyric_t, "songs "
2, 44399, Lyric_t, "\015"
2, 44399, Note_on_c, 3, 63, 115
2, 44493, Note_off_c, 3, 63, 0
2, 44519, Lyric_t, "And "
2, 44519, Note_on_c, 3, 66, 118
2, 44560, Note_off_c, 3, 66, 0
2, 44579, Lyric_t, "you "
2, 44579, Note_on_c, 3, 66, 118
2, 44629, Note_off_c, 3, 66, 0
2, 44639, Lyric_t, "tell "
2, 44639, Note_on_c, 3, 68, 115
2, 44689, Note_off_c, 3, 68, 0
2, 44699, Lyric_t, "me "
2, 44699, Note_on_c, 3, 70, 113
2, 44724, Note_off_c, 3, 70, 0
2, 44730, Lyric_t, "a"
2, 44730, Note_on_c, 3, 70, 113
2, 44755, Note_off_c, 3, 70, 0
2, 44759, Lyric_t, "bout "
2, 44759, Note_on_c, 3, 68, 115
2, 44816, Note_off_c, 3, 68, 0
2, 44819, Lyric_t, "your "
2, 44819, Note_on_c, 3, 66, 118
2, 44858, Note_off_c, 3, 66, 0
2, 44879, Lyric_t, "dreams "
2, 44879, Lyric_t, "\015"
2, 44879, Note_on_c, 3, 63, 118
2, 44973, Note_off_c, 3, 63, 0
2, 44999, Lyric_t, "Think "
2, 44999, Note_on_c, 3, 66, 117
2, 45038, Note_off_c, 3, 66, 0
2, 45059, Lyric_t, "I "
2, 45059, Note_on_c, 3, 66, 115
2, 45103, Note_off_c, 3, 66, 0
2, 45119, Lyric_t, "know "
2, 45119, Note_on_c, 3, 68, 120
2, 45166, Note_off_c, 3, 68, 0
2, 45179, Lyric_t, "where "
2, 45179, Note_on_c, 3, 70, 118
2, 45225, Note_off_c, 3, 70, 0
2, 45239, Lyric_t, "you "
2, 45239, Note_on_c, 3, 68, 118
2, 45289, Note_off_c, 3, 68, 0
2, 45299, Lyric_t, "be"
2, 45299, Note_on_c, 3, 66, 119
2, 45338, Note_off_c, 3, 66, 0
2, 45359, Lyric_t, "long "
2, 45359, Lyric_t, "\015"
2, 45359, Note_on_c, 3, 66, 115
2, 45446, Note_off_c, 3, 66, 0
2, 45479, Lyric_t, "Think "
2, 45479, Note_on_c, 3, 66, 117
2, 45516, Note_off_c, 3, 66, 0
2, 45539, Lyric_t, "I "
2, 45539, Note_on_c, 3, 66, 113
2, 45591, Note_off_c, 3, 66, 0
2, 45599, Lyric_t, "know "
2, 45599, Note_on_c, 3, 68, 118
2, 45654, Note_off_c, 3, 68, 0
2, 45659, Lyric_t, "it's "
2, 45659, Note_on_c, 3, 66, 114
2, 45713, Note_off_c, 3, 66, 0
2, 45719, Lyric_t, "wi"
2, 45719, Note_on_c, 3, 68, 119
2, 45772, Note_off_c, 3, 68, 0
2, 45779, Lyric_t, "th "
2, 45779, Note_on_c, 3, 66, 117
2, 45839, Lyric_t, "m"
2, 45839, Note_on_c, 3, 70, 115
2, 45842, Note_off_c, 3, 66, 0
2, 46000, Note_off_c, 3, 70, 0
2, 46019, Note_on_c, 3, 71, 98
2, 46049, Note_on_c, 3, 70, 109
2, 46050, Note_off_c, 3, 71, 0
2, 46078, Note_off_c, 3, 70, 0
2, 46079, Lyric_t, "e... "
2, 46079, Lyric_t, "\015"
2, 46079, Lyric_t, "\012"
2, 46079, Note_on_c, 3, 68, 115
2, 46341, Note_off_c, 3, 68, 0
2, 46439, Lyric_t, "Can't "
2, 46439, Note_on_c, 3, 63, 115
2, 46486, Note_off_c, 3, 63, 0
2, 46499, Lyric_t, "you "
2, 46499, Note_on_c, 3, 63, 115
2, 46551, Note_off_c, 3, 63, 0
2, 46559, Lyric_t, "see "
2, 46559, Note_on_c, 3, 66, 114
2, 46641, Note_off_c, 3, 66, 0
2, 46679, Lyric_t, "that "
2, 46679, Note_on_c, 3, 63, 114
2, 46730, Note_off_c, 3, 63, 0
2, 46739, Lyric_t, "I'm "
2, 46739, Note_on_c, 3, 66, 113
2, 46878, Note_off_c, 3, 66, 0
2, 46919, Lyric_t, "the "
2, 46919, Note_on_c, 3, 63, 106
2, 46968, Note_off_c, 3, 63, 0
2, 46979, Note_on_c, 3, 66, 113
2, 46980, Lyric_t, "one "
2, 47066, Note_off_c, 3, 66, 0
2, 47099, Lyric_t, "who "
2, 47099, Note_on_c, 3, 66, 114
2, 47134, Note_off_c, 3, 66, 0
2, 47159, Lyric_t, "un"
2, 47159, Note_on_c, 3, 66, 114
2, 47204, Note_off_c, 3, 66, 0
2, 47215, Note_on_c, 3, 66, 106
2, 47219, Lyric_t, "der"
2, 47260, Note_off_c, 3, 66, 0
2, 47279, Lyric_t, "stands "
2, 47279, Note_on_c, 3, 68, 118
2, 47380, Note_off_c, 3, 68, 0
2, 47399, Lyric_t, "you "
2, 47399, Lyric_t, "\015"
2, 47399, Note_on_c, 3, 70, 106
2, 47497, Note_off_c, 3, 70, 0
2, 47519, Lyric_t, "Been "
2, 47519, Note_on_c, 3, 68, 118
2, 47620, Note_off_c, 3, 68, 0
2, 47639, Lyric_t, "here "
2, 47639, Note_on_c, 3, 66, 109
2, 47693, Note_off_c, 3, 66, 0
2, 47699, Lyric_t, "all "
2, 47699, Note_on_c, 3, 68, 115
2, 47809, Note_off_c, 3, 68, 0
2, 47879, Lyric_t, "a"
2, 47879, Note_on_c, 3, 66, 103
2, 47938, Note_off_c, 3, 66, 0
2, 47939, Lyric_t, "long "
2, 47939, Lyric_t, "\015"
2, 47939, Note_on_c, 3, 68, 115
2, 48028, Note_off_c, 3, 68, 0
2, 48059, Lyric_t, "So "
2, 48059, Note_on_c, 3, 66, 101
2, 48100, Note_off_c, 3, 66, 0
2, 48118, Lyric_t, "why "
2, 48118, Note_on_c, 3, 68, 113
2, 48220, Note_off_c, 3, 68, 0
2, 48239, Lyric_t, "can't "
2, 48239, Note_on_c, 3, 66, 119
2, 48329, Note_off_c, 3, 66, 0
2, 48359, Lyric_t, "you "
2, 48359, Note_on_c, 3, 66, 117
2, 48453, Note_off_c, 3, 66, 0
2, 48479, Lyric_t, "s"
2, 48479, Note_on_c, 3, 71, 115
2, 48636, Note_off_c, 3, 71, 0
2, 48659, Lyric_t, "e"
2, 48659, Note_on_c, 3, 70, 119
2, 48782, Note_off_c, 3, 70, 0
2, 48842, Lyric_t, "e "
2, 48842, Lyric_t, "\015"
2, 48842, Note_on_c, 3, 63, 114
2, 49066, Note_off_c, 3, 63, 0
2, 49079, Lyric_t, "You "
2, 49079, Note_on_c, 3, 66, 117
2, 49128, Note_off_c, 3, 66, 0
2, 49139, Lyric_t, "be"
2, 49139, Note_on_c, 3, 66, 117
2, 49176, Note_off_c, 3, 66, 0
2, 49199, Lyric_t, "lo"
2, 49199, Note_on_c, 3, 66, 117
2, 49246, Note_off_c, 3, 66, 0
2, 49259, Lyric_t, "ng "
2, 49259, Note_on_c, 3, 63, 117
2, 49306, Note_off_c, 3, 63, 0
2, 49319, Lyric_t, "with "
2, 49319, Note_on_c, 3, 61, 117
2, 49413, Note_off_c, 3, 61, 0
2, 49439, Lyric_t, "m"
2, 49439, Note_on_c, 3, 71, 117
2, 49600, Note_off_c, 3, 71, 0
2, 49619, Note_on_c, 3, 70, 115
2, 49776, Note_off_c, 3, 70, 0
2, 49799, Note_on_c, 3, 59, 115
2, 49970, Note_off_c, 3, 59, 0
2, 49979, Lyric_t, "e "
2, 49979, Lyric_t, "\015"
2, 49979, Lyric_t, "\012"
2, 49979, Note_on_c, 3, 61, 115
2, 50353, Note_off_c, 3, 61, 0
2, 50398, Note_on_c, 7, 49, 96
2, 50400, Lyric_t, "Stand"
2, 50400, Note_on_c, 3, 70, 114
2, 50507, Note_off_c, 3, 70, 0
2, 50520, Lyric_t, "ing "
2, 50520, Note_on_c, 3, 68, 109
2, 50574, Note_off_c, 3, 68, 0
2, 50580, Lyric_t, "by "
2, 50580, Note_on_c, 3, 70, 115
2, 50734, Note_off_c, 3, 70, 0
2, 50760, Lyric_t, "and "
2, 50760, Note_on_c, 3, 68, 119
2, 50819, Note_off_c, 3, 68, 0
2, 50822, Lyric_t, "wait"
2, 50822, Note_on_c, 3, 70, 117
2, 50927, Note_off_c, 3, 70, 0
2, 50942, Lyric_t, "ing "
2, 50942, Note_on_c, 3, 68, 118
2, 50980, Note_off_c, 3, 68, 0
2, 51002, Lyric_t, "at "
2, 51002, Note_on_c, 3, 70, 115
2, 51033, Note_off_c, 3, 70, 0
2, 51060, Lyric_t, "your "
2, 51060, Note_on_c, 3, 70, 115
2, 51112, Note_off_c, 3, 70, 0
2, 51120, Lyric_t, "back "
2, 51120, Note_on_c, 3, 68, 117
2, 51225, Note_off_c, 3, 68, 0
2, 51240, Lyric_t, "door "
2, 51240, Lyric_t, "\015"
2, 51240, Note_on_c, 3, 66, 119
2, 51344, Note_off_c, 7, 49, 0
2, 51349, Note_off_c, 3, 66, 0
2, 51356, Note_on_c, 7, 49, 96
2, 51360, Lyric_t, "All "
2, 51360, Note_on_c, 3, 70, 115
2, 51473, Note_off_c, 3, 70, 0
2, 51482, Lyric_t, "this "
2, 51482, Note_on_c, 3, 68, 113
2, 51536, Note_off_c, 3, 68, 0
2, 51542, Lyric_t, "time "
2, 51542, Lyric_t, "\015"
2, 51542, Note_on_c, 3, 70, 117
2, 51691, Note_off_c, 3, 70, 0
2, 51720, Lyric_t, "How "
2, 51720, Note_on_c, 3, 68, 104
2, 51772, Note_off_c, 3, 68, 0
2, 51780, Lyric_t, "could "
2, 51780, Note_on_c, 3, 73, 115
2, 51890, Note_off_c, 3, 73, 0
2, 51900, Lyric_t, "you "
2, 51900, Note_on_c, 3, 70, 114
2, 51948, Note_off_c, 3, 70, 0
2, 51960, Lyric_t, "not "
2, 51960, Note_on_c, 3, 70, 117
2, 52070, Note_off_c, 3, 70, 0
2, 52080, Lyric_t, "know "
2, 52080, Lyric_t, "\015"
2, 52080, Note_on_c, 3, 68, 115
2, 52196, Note_off_c, 3, 68, 0
2, 52200, Lyric_t, "Ba"
2, 52200, Note_on_c, 3, 66, 119
2, 52297, Note_off_c, 3, 66, 0
2, 52303, Note_off_c, 7, 49, 0
2, 52315, Note_on_c, 7, 51, 96
2, 52320, Lyric_t, "b"
2, 52320, Note_on_c, 3, 71, 118
2, 52492, Note_off_c, 3, 71, 0
2, 52500, Note_on_c, 3, 70, 118
2, 52645, Note_off_c, 3, 70, 0
2, 52680, Lyric_t, "y "
2, 52680, Note_on_c, 3, 63, 118
2, 52903, Note_off_c, 3, 63, 0
2, 52920, Lyric_t, "you "
2, 52920, Note_on_c, 3, 66, 114
2, 52954, Note_off_c, 3, 66, 0
2, 52980, Lyric_t, "be"
2, 52980, Note_on_c, 3, 66, 114
2, 53015, Note_off_c, 3, 66, 0
2, 53040, Lyric_t, "lo"
2, 53040, Note_on_c, 3, 66, 118
2, 53090, Note_off_c, 3, 66, 0
2, 53100, Lyric_t, "ng "
2, 53100, Note_on_c, 3, 63, 117
2, 53157, Note_off_c, 3, 63, 0
2, 53160, Lyric_t, "with "
2, 53160, Note_on_c, 3, 61, 117
2, 53243, Note_off_c, 3, 61, 0
2, 53258, Note_off_c, 7, 51, 0
2, 53276, Note_on_c, 7, 47, 96
2, 53280, Lyric_t, "m"
2, 53280, Note_on_c, 3, 71, 117
2, 53447, Note_off_c, 3, 71, 0
2, 53460, Note_on_c, 3, 70, 117
2, 53577, Note_off_c, 3, 70, 0
2, 53640, Lyric_t, "e "
2, 53640, Lyric_t, "\015"
2, 53640, Note_on_c, 3, 59, 117
2, 53808, Note_off_c, 3, 59, 0
2, 53879, Lyric_t, "You "
2, 53879, Note_on_c, 3, 59, 117
2, 53910, Note_off_c, 3, 59, 0
2, 53939, Lyric_t, "be"
2, 53939, Note_on_c, 3, 59, 117
2, 53975, Note_off_c, 3, 59, 0
2, 53999, Lyric_t, "long "
2, 53999, Note_on_c, 3, 59, 117
2, 54101, Note_off_c, 3, 59, 0
2, 54119, Lyric_t, "with "
2, 54119, Note_on_c, 3, 58, 117
2, 54158, Note_off_c, 3, 58, 0
2, 54179, Lyric_t, "me "
2, 54179, Lyric_t, "\015"
2, 54179, Lyric_t, "\012"
2, 54179, Note_on_c, 3, 58, 117
2, 54228, Note_off_c, 7, 47, 0
2, 54240, Note_on_c, 7, 49, 96
2, 54534, Note_off_c, 3, 58, 0
2, 54839, Lyric_t, "You "
2, 54839, Note_on_c, 3, 70, 117
2, 54867, Note_off_c, 3, 70, 0
2, 54898, Lyric_t, "be"
2, 54898, Note_on_c, 3, 70, 117
2, 54932, Note_off_c, 3, 70, 0
2, 54958, Lyric_t, "long "
2, 54958, Note_on_c, 3, 70, 117
2, 55063, Note_off_c, 3, 70, 0
2, 55079, Lyric_t, "with "
2, 55079, Note_on_c, 3, 68, 117
2, 55105, Note_off_c, 3, 68, 0
2, 55138, Lyric_t, "m"
2, 55138, Note_on_c, 3, 68, 117
2, 55186, Note_off_c, 7, 49, 0
2, 55198, Note_on_c, 7, 49, 96
2, 55249, Note_off_c, 3, 68, 0
2, 55258, Lyric_t, "e "
2, 55258, Lyric_t, "\015"
2, 55258, Lyric_t, "\012"
2, 55258, Note_on_c, 3, 70, 117
2, 55351, Note_off_c, 3, 70, 0
2, 55559, Lyric_t, "Have "
2, 55559, Note_on_c, 3, 70, 117
2, 55615, Note_off_c, 3, 70, 0
2, 55619, Lyric_t, "you "
2, 55619, Note_on_c, 3, 68, 117
2, 55655, Note_off_c, 3, 68, 0
2, 55679, Lyric_t, "ev"
2, 55679, Note_on_c, 3, 70, 117
2, 55739, Lyric_t, "er "
2, 55739, Note_on_c, 3, 68, 117
2, 55744, Note_off_c, 3, 70, 0
2, 55784, Note_off_c, 3, 68, 0
2, 55799, Lyric_t, "thought "
2, 55799, Note_on_c, 3, 70, 117
2, 55898, Note_off_c, 3, 70, 0
2, 55919, Lyric_t, "ju"
2, 55919, Note_on_c, 3, 68, 117
2, 55966, Note_off_c, 3, 68, 0
2, 55979, Lyric_t, "st "
2, 55979, Note_on_c, 3, 66, 117
2, 56011, Note_off_c, 3, 66, 0
2, 56039, Lyric_t, "may"
2, 56039, Note_on_c, 3, 66, 117
2, 56132, Note_off_c, 3, 66, 0
2, 56145, Note_off_c, 7, 49, 0
2, 56157, Note_on_c, 7, 51, 96
2, 56159, Lyric_t, "b"
2, 56159, Note_on_c, 3, 71, 117
2, 56311, Note_off_c, 3, 71, 0
2, 56339, Note_on_c, 3, 70, 117
2, 56465, Note_off_c, 3, 70, 0
2, 56519, Lyric_t, "e "
2, 56519, Lyric_t, "\015"
2, 56519, Note_on_c, 3, 63, 117
2, 56719, Note_off_c, 3, 63, 0
2, 56759, Lyric_t, "You "
2, 56759, Note_on_c, 3, 66, 117
2, 56791, Note_off_c, 3, 66, 0
2, 56818, Lyric_t, "be"
2, 56818, Note_on_c, 3, 66, 117
2, 56855, Note_off_c, 3, 66, 0
2, 56879, Lyric_t, "lo"
2, 56879, Note_on_c, 3, 66, 117
2, 56932, Note_off_c, 3, 66, 0
2, 56939, Lyric_t, "ng "
2, 56939, Note_on_c, 3, 63, 117
2, 56990, Note_off_c, 3, 63, 0
2, 56999, Lyric_t, "with "
2, 56999, Note_on_c, 3, 61, 117
2, 57099, Note_off_c, 3, 61, 0
2, 57100, Note_off_c, 7, 51, 0
2, 57119, Lyric_t, "m"
2, 57119, Note_on_c, 3, 71, 117
2, 57273, Note_off_c, 3, 71, 0
2, 57299, Note_on_c, 3, 70, 117
2, 57415, Note_off_c, 3, 70, 0
2, 57479, Lyric_t, "e "
2, 57479, Lyric_t, "\015"
2, 57479, Lyric_t, "\012"
2, 57479, Note_on_c, 3, 59, 117
2, 57692, Note_off_c, 3, 59, 0
2, 57719, Lyric_t, "You "
2, 57719, Note_on_c, 3, 59, 117
2, 57752, Note_off_c, 3, 59, 0
2, 57779, Lyric_t, "be"
2, 57779, Note_on_c, 3, 59, 117
2, 57813, Note_off_c, 3, 59, 0
2, 57839, Lyric_t, "long "
2, 57839, Note_on_c, 3, 59, 117
2, 57937, Note_off_c, 3, 59, 0
2, 57959, Lyric_t, "with "
2, 57959, Note_on_c, 3, 58, 117
2, 57991, Note_off_c, 3, 58, 0
2, 58019, Lyric_t, "me... "
2, 58019, Lyric_t, "\015"
2, 58019, Note_on_c, 3, 58, 117
2, 59037, Note_off_c, 3, 58, 0
2, 60942, End_track
3, 0, Start_track
3, 0, MIDI_port, 0
3, 0, Title_t, "Backup Vocals"
3, 60942, End_track
4, 0, Start_track
4, 0, MIDI_port, 0
4, 0, Title_t, "Bass"
4, 0, Program_c, 2, 33
4, 0, Control_c, 2, 7, 110
4, 0, Control_c, 2, 10, 64
4, 0, Control_c, 2, 11, 127
4, 0, Control_c, 2, 91, 0
4, 0, Control_c, 2, 93, 0
4, 0, Control_c, 2, 94, 0
4, 1915, Control_c, 2, 11, 0
4, 1917, Control_c, 2, 11, 1
4, 1921, Control_c, 2, 11, 2
4, 1924, Control_c, 2, 11, 3
4, 1928, Control_c, 2, 11, 4
4, 1930, Control_c, 2, 11, 5
4, 1934, Control_c, 2, 11, 6
4, 1937, Control_c, 2, 11, 7
4, 1940, Control_c, 2, 11, 8
4, 1943, Control_c, 2, 11, 9
4, 1947, Control_c, 2, 11, 10
4, 1949, Control_c, 2, 11, 11
4, 1953, Control_c, 2, 11, 12
4, 1956, Control_c, 2, 11, 13
4, 1960, Control_c, 2, 11, 14
4, 1962, Control_c, 2, 11, 15
4, 1966, Control_c, 2, 11, 16
4, 1968, Control_c, 2, 11, 17
4, 1972, Control_c, 2, 11, 18
4, 1975, Control_c, 2, 11, 19
4, 1979, Control_c, 2, 11, 20
4, 1981, Control_c, 2, 11, 21
4, 1985, Control_c, 2, 11, 22
4, 1988, Control_c, 2, 11, 23
4, 1991, Control_c, 2, 11, 24
4, 1994, Control_c, 2, 11, 25
4, 1998, Control_c, 2, 11, 26
4, 2000, Control_c, 2, 11, 27
4, 2004, Control_c, 2, 11, 28
4, 2007, Control_c, 2, 11, 29
4, 2011, Control_c, 2, 11, 30
4, 2013, Control_c, 2, 11, 31
4, 2016, Control_c, 2, 11, 32
4, 2020, Control_c, 2, 11, 33
4, 2022, Control_c, 2, 11, 34
4, 2026, Control_c, 2, 11, 35
4, 2028, Control_c, 2, 11, 36
4, 2032, Control_c, 2, 11, 37
4, 2035, Control_c, 2, 11, 38
4, 2039, Control_c, 2, 11, 39
4, 2041, Control_c, 2, 11, 40
4, 2045, Control_c, 2, 11, 41
4, 2048, Control_c, 2, 11, 42
4, 2051, Control_c, 2, 11, 43
4, 2054, Control_c, 2, 11, 44
4, 2058, Control_c, 2, 11, 45
4, 2060, Control_c, 2, 11, 46
4, 2064, Control_c, 2, 11, 47
4, 2067, Control_c, 2, 11, 48
4, 2071, Control_c, 2, 11, 49
4, 2073, Control_c, 2, 11, 50
4, 2077, Control_c, 2, 11, 51
4, 2080, Control_c, 2, 11, 52
4, 2083, Control_c, 2, 11, 53
4, 2086, Control_c, 2, 11, 54
4, 2090, Control_c, 2, 11, 55
4, 2092, Control_c, 2, 11, 56
4, 2096, Control_c, 2, 11, 57
4, 2099, Control_c, 2, 11, 58
4, 2102, Control_c, 2, 11, 59
4, 2105, Control_c, 2, 11, 60
4, 2109, Control_c, 2, 11, 61
4, 2111, Control_c, 2, 11, 62
4, 2114, Control_c, 2, 11, 63
4, 2118, Control_c, 2, 11, 64
4, 2120, Control_c, 2, 11, 65
4, 2124, Control_c, 2, 11, 66
4, 2127, Control_c, 2, 11, 67
4, 2131, Control_c, 2, 11, 68
4, 2133, Control_c, 2, 11, 69
4, 2137, Control_c, 2, 11, 70
4, 2140, Control_c, 2, 11, 71
4, 2143, Control_c, 2, 11, 72
4, 2146, Control_c, 2, 11, 73
4, 2150, Control_c, 2, 11, 74
4, 2152, Control_c, 2, 11, 75
4, 2156, Control_c, 2, 11, 76
4, 2159, Control_c, 2, 11, 77
4, 2162, Control_c, 2, 11, 78
4, 2165, Control_c, 2, 11, 79
4, 2169, Control_c, 2, 11, 80
4, 2171, Control_c, 2, 11, 81
4, 2175, Control_c, 2, 11, 82
4, 2178, Control_c, 2, 11, 83
4, 2182, Control_c, 2, 11, 84
4, 2184, Control_c, 2, 11, 85
4, 2188, Control_c, 2, 11, 86
4, 2191, Control_c, 2, 11, 87
4, 2194, Control_c, 2, 11, 88
4, 2197, Control_c, 2, 11, 89
4, 2201, Control_c, 2, 11, 90
4, 2203, Control_c, 2, 11, 91
4, 2207, Control_c, 2, 11, 92
4, 2210, Control_c, 2, 11, 93
4, 2214, Control_c, 2, 11, 94
4, 2216, Control_c, 2, 11, 95
4, 2219, Control_c, 2, 11, 96
4, 2222, Control_c, 2, 11, 97
4, 2225, Control_c, 2, 11, 98
4, 2229, Control_c, 2, 11, 99
4, 2231, Control_c, 2, 11, 100
4, 2235, Control_c, 2, 11, 101
4, 2238, Control_c, 2, 11, 102
4, 2242, Control_c, 2, 11, 103
4, 2244, Control_c, 2, 11, 104
4, 2248, Control_c, 2, 11, 105
4, 2251, Control_c, 2, 11, 106
4, 2254, Control_c, 2, 11, 107
4, 2257, Control_c, 2, 11, 108
4, 2261, Control_c, 2, 11, 109
4, 2263, Control_c, 2, 11, 110
4, 2267, Control_c, 2, 11, 111
4, 2270, Control_c, 2, 11, 112
4, 2274, Control_c, 2, 11, 113
4, 2276, Control_c, 2, 11, 114
4, 2280, Control_c, 2, 11, 115
4, 2282, Control_c, 2, 11, 116
4, 2286, Control_c, 2, 11, 117
4, 2289, Control_c, 2, 11, 118
4, 2293, Control_c, 2, 11, 119
4, 2295, Control_c, 2, 11, 120
4, 2299, Control_c, 2, 11, 121
4, 2302, Control_c, 2, 11, 122
4, 2305, Control_c, 2, 11, 123
4, 2308, Control_c, 2, 11, 124
4, 2312, Control_c, 2, 11, 125
4, 2314, Control_c, 2, 11, 126
4, 2317, Control_c, 2, 11, 127
4, 6601, Note_on_c, 2, 37, 101
4, 6655, Note_off_c, 2, 37, 0
4, 6659, Note_on_c, 2, 39, 101
4, 6719, Note_off_c, 2, 39, 0
4, 6719, Note_on_c, 2, 42, 105
4, 6948, Note_off_c, 2, 42, 0
4, 6961, Note_on_c, 2, 42, 102
4, 7189, Note_off_c, 2, 42, 0
4, 7201, Note_on_c, 2, 42, 99
4, 7427, Note_off_c, 2, 42, 0
4, 7441, Note_on_c, 2, 42, 101
4, 7541, Note_off_c, 2, 42, 0
4, 7561, Note_on_c, 2, 42, 103
4, 7615, Note_off_c, 2, 42, 0
4, 7621, Note_on_c, 2, 44, 99
4, 7676, Note_off_c, 2, 44, 0
4, 7681, Note_on_c, 2, 37, 95
4, 7906, Note_off_c, 2, 37, 0
4, 7921, Note_on_c, 2, 37, 96
4, 8147, Note_off_c, 2, 37, 0
4, 8161, Note_on_c, 2, 37, 106
4, 8389, Note_off_c, 2, 37, 0
4, 8400, Note_on_c, 2, 37, 106
4, 8504, Note_off_c, 2, 37, 0
4, 8519, Note_on_c, 2, 37, 101
4, 8575, Note_off_c, 2, 37, 0
4, 8579, Note_on_c, 2, 34, 102
4, 8636, Note_off_c, 2, 34, 0
4, 8641, Note_on_c, 2, 32, 101
4, 8864, Note_off_c, 2, 32, 0
4, 8879, Note_on_c, 2, 32, 105
4, 9105, Note_off_c, 2, 32, 0
4, 9121, Note_on_c, 2, 32, 95
4, 9340, Note_off_c, 2, 32, 0
4, 9361, Note_on_c, 2, 32, 101
4, 9470, Note_off_c, 2, 32, 0
4, 9481, Note_on_c, 2, 30, 102
4, 9537, Note_off_c, 2, 30, 0
4, 9541, Note_on_c, 2, 32, 101
4, 9597, Note_off_c, 2, 32, 0
4, 9601, Note_on_c, 2, 35, 99
4, 9820, Note_off_c, 2, 35, 0
4, 9839, Note_on_c, 2, 35, 97
4, 10065, Note_off_c, 2, 35, 0
4, 10081, Note_on_c, 2, 35, 104
4, 10304, Note_off_c, 2, 35, 0
4, 10321, Note_on_c, 2, 35, 97
4, 10372, Note_off_c, 2, 35, 0
4, 10381, Note_on_c, 2, 37, 101
4, 10436, Note_off_c, 2, 37, 0
4, 10441, Note_on_c, 2, 35, 105
4, 10490, Note_off_c, 2, 35, 0
4, 10499, Note_on_c, 2, 37, 98
4, 10552, Note_off_c, 2, 37, 0
4, 10561, Note_on_c, 2, 32, 98
4, 10899, Note_off_c, 2, 32, 0
4, 10919, Note_on_c, 2, 42, 98
4, 10974, Note_off_c, 2, 42, 0
4, 10979, Note_on_c, 2, 44, 103
4, 11035, Note_off_c, 2, 44, 0
4, 11040, Note_on_c, 2, 47, 102
4, 11387, Note_off_c, 2, 47, 0
4, 11399, Note_on_c, 2, 47, 99
4, 11454, Note_off_c, 2, 47, 0
4, 11459, Note_on_c, 2, 44, 95
4, 11517, Note_off_c, 2, 44, 0
4, 11520, Note_on_c, 2, 42, 103
4, 11869, Note_off_c, 2, 42, 0
4, 11881, Note_on_c, 2, 42, 103
4, 11936, Note_off_c, 2, 42, 0
4, 11941, Note_on_c, 2, 44, 100
4, 11995, Note_off_c, 2, 44, 0
4, 12001, Note_on_c, 2, 37, 101
4, 12351, Note_off_c, 2, 37, 0
4, 12359, Note_on_c, 2, 37, 103
4, 12412, Note_off_c, 2, 37, 0
4, 12419, Note_on_c, 2, 34, 102
4, 12477, Note_off_c, 2, 34, 0
4, 12479, Note_on_c, 2, 32, 101
4, 12829, Note_off_c, 2, 32, 0
4, 12839, Note_on_c, 2, 30, 106
4, 12894, Note_off_c, 2, 30, 0
4, 12899, Note_on_c, 2, 32, 100
4, 12954, Note_off_c, 2, 32, 0
4, 12961, Note_on_c, 2, 35, 102
4, 13438, Note_off_c, 2, 35, 0
4, 13439, Note_on_c, 2, 37, 100
4, 14270, Note_off_c, 2, 37, 0
4, 14281, Note_on_c, 2, 37, 98
4, 14394, Note_off_c, 2, 37, 0
4, 18239, Note_on_c, 2, 42, 106
4, 19124, Note_off_c, 2, 42, 0
4, 19139, Note_on_c, 2, 37, 95
4, 19196, Note_off_c, 2, 37, 0
4, 19199, Note_on_c, 2, 42, 100
4, 20152, Note_off_c, 2, 42, 0
4, 20159, Note_on_c, 2, 37, 102
4, 20379, Note_off_c, 2, 37, 0
4, 20399, Note_on_c, 2, 37, 106
4, 20620, Note_off_c, 2, 37, 0
4, 20640, Note_on_c, 2, 37, 105
4, 20862, Note_off_c, 2, 37, 0
4, 20879, Note_on_c, 2, 37, 104
4, 21038, Note_off_c, 2, 37, 0
4, 21061, Note_on_c, 2, 34, 97
4, 21119, Note_off_c, 2, 34, 0
4, 21121, Note_on_c, 2, 32, 98
4, 21323, Note_off_c, 2, 32, 0
4, 21359, Note_on_c, 2, 32, 97
4, 21556, Note_off_c, 2, 32, 0
4, 21601, Note_on_c, 2, 32, 102
4, 21807, Note_off_c, 2, 32, 0
4, 21841, Note_on_c, 2, 32, 100
4, 22032, Note_off_c, 2, 32, 0
4, 22081, Note_on_c, 2, 35, 105
4, 22286, Note_off_c, 2, 35, 0
4, 22319, Note_on_c, 2, 35, 96
4, 22521, Note_off_c, 2, 35, 0
4, 22561, Note_on_c, 2, 35, 97
4, 22899, Note_off_c, 2, 35, 0
4, 22921, Note_on_c, 2, 37, 105
4, 22977, Note_off_c, 2, 37, 0
4, 22981, Note_on_c, 2, 39, 101
4, 23034, Note_off_c, 2, 39, 0
4, 23039, Note_on_c, 2, 42, 105
4, 23264, Note_off_c, 2, 42, 0
4, 23279, Note_on_c, 2, 42, 100
4, 23508, Note_off_c, 2, 42, 0
4, 23521, Note_on_c, 2, 42, 99
4, 23749, Note_off_c, 2, 42, 0
4, 23761, Note_on_c, 2, 42, 97
4, 23938, Note_off_c, 2, 42, 0
4, 23941, Note_on_c, 2, 44, 97
4, 23992, Note_off_c, 2, 44, 0
4, 24001, Note_on_c, 2, 37, 100
4, 24227, Note_off_c, 2, 37, 0
4, 24241, Note_on_c, 2, 37, 97
4, 24466, Note_off_c, 2, 37, 0
4, 24481, Note_on_c, 2, 37, 101
4, 24706, Note_off_c, 2, 37, 0
4, 24719, Note_on_c, 2, 37, 102
4, 24895, Note_off_c, 2, 37, 0
4, 24900, Note_on_c, 2, 34, 104
4, 24954, Note_off_c, 2, 34, 0
4, 24959, Note_on_c, 2, 32, 106
4, 25177, Note_off_c, 2, 32, 0
4, 25199, Note_on_c, 2, 32, 95
4, 25425, Note_off_c, 2, 32, 0
4, 25441, Note_on_c, 2, 32, 96
4, 25666, Note_off_c, 2, 32, 0
4, 25679, Note_on_c, 2, 32, 99
4, 25795, Note_off_c, 2, 32, 0
4, 25799, Note_on_c, 2, 30, 100
4, 25852, Note_off_c, 2, 30, 0
4, 25859, Note_on_c, 2, 32, 101
4, 25912, Note_off_c, 2, 32, 0
4, 25919, Note_on_c, 2, 35, 98
4, 26143, Note_off_c, 2, 35, 0
4, 26159, Note_on_c, 2, 35, 95
4, 26387, Note_off_c, 2, 35, 0
4, 26399, Note_on_c, 2, 35, 100
4, 26624, Note_off_c, 2, 35, 0
4, 26639, Note_on_c, 2, 35, 96
4, 26697, Note_off_c, 2, 35, 0
4, 26699, Note_on_c, 2, 37, 106
4, 26757, Note_off_c, 2, 37, 0
4, 26759, Note_on_c, 2, 35, 103
4, 26866, Note_off_c, 2, 35, 0
4, 26881, Note_on_c, 2, 32, 104
4, 27104, Note_off_c, 2, 32, 0
4, 27121, Note_on_c, 2, 32, 105
4, 27228, Note_off_c, 2, 32, 0
4, 27241, Note_on_c, 2, 30, 101
4, 27299, Note_off_c, 2, 30, 0
4, 27301, Note_on_c, 2, 32, 97
4, 27356, Note_off_c, 2, 32, 0
4, 27360, Note_on_c, 2, 35, 101
4, 27828, Note_off_c, 2, 35, 0
4, 27839, Note_on_c, 2, 42, 100
4, 28172, Note_off_c, 2, 42, 0
4, 28201, Note_on_c, 2, 42, 97
4, 28259, Note_off_c, 2, 42, 0
4, 28259, Note_on_c, 2, 44, 99
4, 28318, Note_off_c, 2, 44, 0
4, 28319, Note_on_c, 2, 37, 99
4, 28669, Note_off_c, 2, 37, 0
4, 28679, Note_on_c, 2, 37, 101
4, 28781, Note_off_c, 2, 37, 0
4, 28801, Note_on_c, 2, 32, 96
4, 29150, Note_off_c, 2, 32, 0
4, 29159, Note_on_c, 2, 30, 100
4, 29213, Note_off_c, 2, 30, 0
4, 29219, Note_on_c, 2, 32, 105
4, 29276, Note_off_c, 2, 32, 0
4, 29279, Note_on_c, 2, 35, 97
4, 29627, Note_off_c, 2, 35, 0
4, 29639, Note_on_c, 2, 35, 100
4, 29757, Note_off_c, 2, 35, 0
4, 29759, Note_on_c, 2, 37, 101
4, 30165, Note_off_c, 2, 37, 0
4, 30179, Note_on_c, 2, 32, 97
4, 30237, Note_off_c, 2, 32, 0
4, 30239, Note_on_c, 2, 37, 95
4, 30585, Note_off_c, 2, 37, 0
4, 30601, Note_on_c, 2, 37, 95
4, 30702, Note_off_c, 2, 37, 0
4, 38402, Note_on_c, 2, 42, 96
4, 39351, Note_off_c, 2, 42, 0
4, 39362, Note_on_c, 2, 37, 102
4, 40307, Note_off_c, 2, 37, 0
4, 40319, Note_on_c, 2, 32, 95
4, 41268, Note_off_c, 2, 32, 0
4, 41279, Note_on_c, 2, 35, 104
4, 41685, Note_off_c, 2, 35, 0
4, 42239, Note_on_c, 2, 32, 95
4, 42337, Note_off_c, 2, 32, 0
4, 42361, Note_on_c, 2, 32, 97
4, 42461, Note_off_c, 2, 32, 0
4, 42481, Note_on_c, 2, 32, 105
4, 42578, Note_off_c, 2, 32, 0
4, 42601, Note_on_c, 2, 32, 96
4, 42704, Note_off_c, 2, 32, 0
4, 42721, Note_on_c, 2, 35, 95
4, 42825, Note_off_c, 2, 35, 0
4, 42841, Note_on_c, 2, 35, 100
4, 42944, Note_off_c, 2, 35, 0
4, 42961, Note_on_c, 2, 35, 97
4, 43059, Note_off_c, 2, 35, 0
4, 43081, Note_on_c, 2, 35, 98
4, 43188, Note_off_c, 2, 35, 0
4, 43201, Note_on_c, 2, 42, 104
4, 43303, Note_off_c, 2, 42, 0
4, 43321, Note_on_c, 2, 42, 101
4, 43423, Note_off_c, 2, 42, 0
4, 43441, Note_on_c, 2, 42, 104
4, 43542, Note_off_c, 2, 42, 0
4, 43561, Note_on_c, 2, 42, 99
4, 43666, Note_off_c, 2, 42, 0
4, 43681, Note_on_c, 2, 37, 104
4, 43785, Note_off_c, 2, 37, 0
4, 43801, Note_on_c, 2, 37, 100
4, 43902, Note_off_c, 2, 37, 0
4, 43921, Note_on_c, 2, 37, 101
4, 44026, Note_off_c, 2, 37, 0
4, 44041, Note_on_c, 2, 37, 104
4, 44149, Note_off_c, 2, 37, 0
4, 44159, Note_on_c, 2, 32, 103
4, 44263, Note_off_c, 2, 32, 0
4, 44281, Note_on_c, 2, 32, 105
4, 44375, Note_off_c, 2, 32, 0
4, 44401, Note_on_c, 2, 32, 106
4, 44507, Note_off_c, 2, 32, 0
4, 44519, Note_on_c, 2, 32, 102
4, 44625, Note_off_c, 2, 32, 0
4, 44639, Note_on_c, 2, 35, 99
4, 44748, Note_off_c, 2, 35, 0
4, 44759, Note_on_c, 2, 35, 98
4, 44867, Note_off_c, 2, 35, 0
4, 44881, Note_on_c, 2, 35, 106
4, 44977, Note_off_c, 2, 35, 0
4, 45001, Note_on_c, 2, 35, 103
4, 45107, Note_off_c, 2, 35, 0
4, 45121, Note_on_c, 2, 42, 106
4, 45227, Note_off_c, 2, 42, 0
4, 45241, Note_on_c, 2, 42, 102
4, 45347, Note_off_c, 2, 42, 0
4, 45361, Note_on_c, 2, 42, 102
4, 45468, Note_off_c, 2, 42, 0
4, 45480, Note_on_c, 2, 42, 102
4, 45587, Note_off_c, 2, 42, 0
4, 45601, Note_on_c, 2, 37, 100
4, 46570, Note_off_c, 2, 37, 0
4, 48481, Note_on_c, 2, 32, 106
4, 49389, Note_off_c, 2, 32, 0
4, 57899, Note_on_c, 2, 37, 103
4, 57924, Note_off_c, 2, 37, 0
4, 57930, Note_on_c, 2, 39, 98
4, 57956, Note_off_c, 2, 39, 0
4, 57961, Note_on_c, 2, 42, 95
4, 58014, Note_off_c, 2, 42, 0
4, 58019, Note_on_c, 2, 42, 106
4, 58072, Note_off_c, 2, 42, 0
4, 60942, End_track
5, 0, Start_track
5, 0, MIDI_port, 0
5, 0, Title_t, "Organ"
5, 60942, End_track
6, 0, Start_track
6, 0, MIDI_port, 0
6, 0, Title_t, "Acou Guitar"
6, 929, Note_on_c, 10, 58, 59
6, 943, Note_on_c, 10, 59, 79
6, 959, Note_on_c, 10, 61, 89
6, 971, Note_off_c, 10, 58, 0
6, 982, Note_off_c, 10, 59, 0
6, 1006, Note_off_c, 10, 61, 0
6, 1202, Note_on_c, 10, 61, 79
6, 1262, Note_on_c, 10, 66, 67
6, 1271, Note_off_c, 10, 61, 0
6, 1336, Note_off_c, 10, 66, 0
6, 1441, Note_on_c, 10, 66, 59
6, 1569, Note_off_c, 10, 66, 0
6, 1619, Note_on_c, 10, 66, 62
6, 1876, Note_off_c, 10, 66, 0
6, 1895, Note_on_c, 10, 58, 64
6, 1910, Note_on_c, 10, 59, 68
6, 1921, Note_on_c, 10, 61, 86
6, 1926, Note_off_c, 10, 58, 0
6, 1942, Note_off_c, 10, 59, 0
6, 1969, Note_off_c, 10, 61, 0
6, 2161, Note_on_c, 10, 61, 83
6, 2221, Note_on_c, 10, 66, 65
6, 2225, Note_off_c, 10, 61, 0
6, 2289, Note_off_c, 10, 66, 0
6, 2399, Note_on_c, 10, 66, 65
6, 2551, Note_off_c, 10, 66, 0
6, 2579, Note_on_c, 10, 66, 69
6, 2841, Note_off_c, 10, 66, 0
6, 10548, Note_on_c, 10, 51, 68
6, 10917, Note_off_c, 10, 51, 0
6, 11046, Note_on_c, 10, 54, 83
6, 11480, Note_off_c, 10, 54, 0
6, 11513, Note_on_c, 10, 54, 71
6, 11968, Note_off_c, 10, 54, 0
6, 12000, Note_on_c, 10, 53, 86
6, 12439, Note_off_c, 10, 53, 0
6, 12483, Note_on_c, 10, 51, 60
6, 12832, Note_off_c, 10, 51, 0
6, 12954, Note_on_c, 10, 51, 81
6, 13423, Note_off_c, 10, 51, 0
6, 13445, Note_on_c, 10, 56, 81
6, 14298, Note_off_c, 10, 56, 0
6, 18540, Note_on_c, 10, 66, 65
6, 18608, Note_off_c, 10, 66, 0
6, 18718, Note_on_c, 10, 66, 65
6, 18870, Note_off_c, 10, 66, 0
6, 18898, Note_on_c, 10, 66, 69
6, 19160, Note_off_c, 10, 66, 0
6, 19188, Note_on_c, 10, 54, 62
6, 19955, Note_off_c, 10, 54, 0
6, 20134, Note_on_c, 10, 53, 67
6, 20845, Note_off_c, 10, 53, 0
6, 21100, Note_on_c, 10, 51, 67
6, 21809, Note_off_c, 10, 51, 0
6, 22046, Note_on_c, 10, 54, 64
6, 22845, Note_off_c, 10, 54, 0
6, 23001, Note_on_c, 10, 54, 76
6, 23759, Note_off_c, 10, 54, 0
6, 23953, Note_on_c, 10, 53, 71
6, 24478, Note_off_c, 10, 53, 0
6, 39482, Note_on_c, 12, 61, 70
6, 39535, Note_off_c, 12, 61, 0
6, 42181, Note_on_c, 10, 59, 74
6, 42236, Note_off_c, 10, 59, 0
6, 42237, Note_on_c, 10, 59, 85
6, 42616, Note_off_c, 10, 59, 0
6, 42711, Note_on_c, 10, 59, 87
6, 43097, Note_off_c, 10, 59, 0
6, 43198, Note_on_c, 10, 58, 74
6, 43579, Note_off_c, 10, 58, 0
6, 43678, Note_on_c, 10, 56, 77
6, 44051, Note_off_c, 10, 56, 0
6, 44162, Note_on_c, 10, 59, 87
6, 44547, Note_off_c, 10, 59, 0
6, 44638, Note_on_c, 10, 59, 93
6, 45032, Note_off_c, 10, 59, 0
6, 45115, Note_on_c, 10, 58, 73
6, 45495, Note_off_c, 10, 58, 0
6, 45598, Note_on_c, 10, 56, 76
6, 46077, Note_off_c, 10, 56, 0
6, 60942, End_track
7, 0, Start_track
7, 0, MIDI_port, 0
7, 0, Title_t, "Pedal Steel"
7, 6001, Note_on_c, 10, 70, 96
7, 6231, Note_off_c, 10, 70, 0
7, 6241, Note_on_c, 10, 68, 106
7, 6466, Note_off_c, 10, 68, 0
7, 6481, Note_on_c, 10, 68, 101
7, 6715, Note_off_c, 10, 68, 0
7, 60942, End_track
8, 0, Start_track
8, 0, MIDI_port, 0
8, 0, Title_t, "Mute Guitar"
8, 60942, End_track
9, 0, Start_track
9, 0, MIDI_port, 0
9, 0, Title_t, "Ovdr Guitar"
9, 0, Program_c, 7, 29
9, 0, Control_c, 7, 7, 82
9, 0, Control_c, 7, 10, 33
9, 0, Control_c, 7, 11, 127
9, 0, Control_c, 7, 91, 60
9, 0, Control_c, 7, 93, 30
9, 0, Control_c, 7, 94, 20
9, 14401, Note_on_c, 7, 49, 96
9, 15347, Note_off_c, 7, 49, 0
9, 15359, Note_on_c, 7, 49, 96
9, 16306, Note_off_c, 7, 49, 0
9, 16318, Note_on_c, 7, 51, 96
9, 17261, Note_off_c, 7, 51, 0
9, 17279, Note_on_c, 7, 47, 96
9, 18231, Note_off_c, 7, 47, 0
9, 38397, Note_on_c, 7, 58, 112
9, 38977, Note_off_c, 7, 58, 0
9, 38999, Note_on_c, 7, 58, 117
9, 39054, Note_off_c, 7, 58, 0
9, 39059, Note_on_c, 7, 59, 110
9, 39114, Note_off_c, 7, 59, 0
9, 39118, Note_on_c, 7, 58, 114
9, 39173, Note_off_c, 7, 58, 0
9, 39179, Note_on_c, 7, 56, 113
9, 39229, Note_off_c, 7, 56, 0
9, 39359, Note_on_c, 7, 54, 114
9, 39955, Note_off_c, 7, 54, 0
9, 39959, Note_on_c, 7, 58, 114
9, 40014, Note_off_c, 7, 58, 0
9, 40019, Note_on_c, 7, 59, 117
9, 40074, Note_off_c, 7, 59, 0
9, 40079, Note_on_c, 7, 58, 114
9, 40134, Note_off_c, 7, 58, 0
9, 40139, Note_on_c, 7, 56, 111
9, 40194, Note_off_c, 7, 56, 0
9, 40199, Note_on_c, 7, 54, 117
9, 40310, Note_off_c, 7, 54, 0
9, 40319, Note_on_c, 7, 54, 117
9, 40372, Note_off_c, 7, 54, 0
9, 40379, Note_on_c, 7, 51, 112
9, 40432, Note_off_c, 7, 51, 0
9, 40439, Note_on_c, 7, 59, 115
9, 40492, Note_off_c, 7, 59, 0
9, 40499, Note_on_c, 7, 63, 117
9, 40552, Note_off_c, 7, 63, 0
9, 40559, Note_on_c, 7, 68, 114
9, 40612, Note_off_c, 7, 68, 0
9, 40619, Note_on_c, 7, 70, 114
9, 40666, Note_off_c, 7, 70, 0
9, 40678, Note_on_c, 7, 71, 116
9, 40733, Note_off_c, 7, 71, 0
9, 40739, Note_on_c, 7, 73, 114
9, 41260, Note_off_c, 7, 73, 0
9, 41279, Note_on_c, 7, 70, 113
9, 41332, Note_off_c, 7, 70, 0
9, 41339, Note_on_c, 7, 71, 112
9, 41392, Note_off_c, 7, 71, 0
9, 41398, Note_on_c, 7, 70, 113
9, 41451, Note_off_c, 7, 70, 0
9, 41459, Note_on_c, 7, 66, 111
9, 41512, Note_off_c, 7, 66, 0
9, 41519, Note_on_c, 7, 61, 117
9, 41572, Note_off_c, 7, 61, 0
9, 41579, Note_on_c, 7, 58, 117
9, 41629, Note_off_c, 7, 58, 0
9, 41639, Note_on_c, 7, 56, 114
9, 41692, Note_off_c, 7, 56, 0
9, 41699, Note_on_c, 7, 49, 115
9, 41721, Pitch_bend_c, 7, 8322
9, 41722, Pitch_bend_c, 7, 8452
9, 41723, Pitch_bend_c, 7, 8582
9, 41724, Pitch_bend_c, 7, 8712
9, 41725, Pitch_bend_c, 7, 8842
9, 41727, Pitch_bend_c, 7, 8972
9, 41728, Pitch_bend_c, 7, 9232
9, 41729, Pitch_bend_c, 7, 9362
9, 41730, Pitch_bend_c, 7, 9492
9, 41731, Pitch_bend_c, 7, 9622
9, 41732, Pitch_bend_c, 7, 9752
9, 41733, Pitch_bend_c, 7, 9882
9, 41734, Pitch_bend_c, 7, 10012
9, 41735, Pitch_bend_c, 7, 10142
9, 41736, Pitch_bend_c, 7, 10272
9, 41737, Pitch_bend_c, 7, 10402
9, 41738, Pitch_bend_c, 7, 10532
9, 41740, Pitch_bend_c, 7, 10792
9, 41741, Pitch_bend_c, 7, 11052
9, 41742, Pitch_bend_c, 7, 11312
9, 41743, Pitch_bend_c, 7, 11442
9, 41744, Pitch_bend_c, 7, 11572
9, 41745, Pitch_bend_c, 7, 11702
9, 41746, Pitch_bend_c, 7, 11832
9, 41747, Pitch_bend_c, 7, 11962
9, 41748, Pitch_bend_c, 7, 12222
9, 41749, Pitch_bend_c, 7, 12352
9, 41750, Pitch_bend_c, 7, 12482
9, 41752, Pitch_bend_c, 7, 12612
9, 41753, Pitch_bend_c, 7, 12742
9, 41754, Pitch_bend_c, 7, 13002
9, 41755, Pitch_bend_c, 7, 13132
9, 41757, Pitch_bend_c, 7, 13262
9, 41759, Pitch_bend_c, 7, 13652
9, 41760, Pitch_bend_c, 7, 13782
9, 41761, Pitch_bend_c, 7, 14042
9, 41762, Pitch_bend_c, 7, 14172
9, 41764, Pitch_bend_c, 7, 14432
9, 41765, Pitch_bend_c, 7, 14562
9, 41766, Pitch_bend_c, 7, 14822
9, 41768, Pitch_bend_c, 7, 14952
9, 41769, Pitch_bend_c, 7, 15212
9, 41770, Pitch_bend_c, 7, 15342
9, 41771, Pitch_bend_c, 7, 15472
9, 41773, Pitch_bend_c, 7, 15862
9, 41774, Pitch_bend_c, 7, 15992
9, 41776, Pitch_bend_c, 7, 16252
9, 42201, Pitch_bend_c, 7, 16122
9, 42202, Pitch_bend_c, 7, 14822
9, 42204, Note_off_c, 7, 49, 0
9, 42204, Pitch_bend_c, 7, 12352
9, 42205, Pitch_bend_c, 7, 10532
9, 42206, Pitch_bend_c, 7, 8712
9, 42207, Pitch_bend_c, 7, 8192
9, 43710, Pitch_bend_c, 7, 8322
9, 43711, Pitch_bend_c, 7, 8452
9, 43712, Pitch_bend_c, 7, 8712
9, 43713, Pitch_bend_c, 7, 8842
9, 43714, Pitch_bend_c, 7, 8972
9, 43715, Pitch_bend_c, 7, 9102
9, 43716, Pitch_bend_c, 7, 9362
9, 43717, Pitch_bend_c, 7, 9492
9, 43718, Pitch_bend_c, 7, 9752
9, 43719, Pitch_bend_c, 7, 9882
9, 43720, Pitch_bend_c, 7, 10142
9, 43721, Pitch_bend_c, 7, 10272
9, 43722, Pitch_bend_c, 7, 10532
9, 43723, Pitch_bend_c, 7, 10662
9, 43724, Pitch_bend_c, 7, 10792
9, 43725, Pitch_bend_c, 7, 11052
9, 43726, Pitch_bend_c, 7, 11312
9, 43727, Pitch_bend_c, 7, 11572
9, 43728, Pitch_bend_c, 7, 11702
9, 43729, Pitch_bend_c, 7, 11832
9, 43731, Pitch_bend_c, 7, 12092
9, 43732, Pitch_bend_c, 7, 12352
9, 43733, Pitch_bend_c, 7, 12482
9, 43735, Pitch_bend_c, 7, 12742
9, 43736, Pitch_bend_c, 7, 13002
9, 43738, Pitch_bend_c, 7, 13132
9, 43739, Pitch_bend_c, 7, 13262
9, 43741, Pitch_bend_c, 7, 13652
9, 43742, Pitch_bend_c, 7, 13782
9, 43743, Pitch_bend_c, 7, 13912
9, 43744, Pitch_bend_c, 7, 14172
9, 43746, Pitch_bend_c, 7, 14432
9, 43747, Pitch_bend_c, 7, 14562
9, 43748, Pitch_bend_c, 7, 14822
9, 43750, Pitch_bend_c, 7, 14952
9, 43751, Pitch_bend_c, 7, 15082
9, 43753, Pitch_bend_c, 7, 15472
9, 43754, Pitch_bend_c, 7, 15732
9, 43755, Pitch_bend_c, 7, 15862
9, 43756, Pitch_bend_c, 7, 15992
9, 43757, Pitch_bend_c, 7, 16122
9, 43758, Pitch_bend_c, 7, 16252
9, 43759, Pitch_bend_c, 7, 16382
9, 44098, Pitch_bend_c, 7, 16122
9, 44099, Pitch_bend_c, 7, 15472
9, 44100, Pitch_bend_c, 7, 13912
9, 44101, Pitch_bend_c, 7, 13002
9, 44103, Pitch_bend_c, 7, 10272
9, 44104, Pitch_bend_c, 7, 8192
9, 45641, Pitch_bend_c, 7, 8322
9, 45644, Pitch_bend_c, 7, 8582
9, 45646, Pitch_bend_c, 7, 8842
9, 45647, Pitch_bend_c, 7, 8972
9, 45648, Pitch_bend_c, 7, 9102
9, 45650, Pitch_bend_c, 7, 9362
9, 45651, Pitch_bend_c, 7, 9622
9, 45653, Pitch_bend_c, 7, 9752
9, 45654, Pitch_bend_c, 7, 9882
9, 45656, Pitch_bend_c, 7, 10142
9, 45657, Pitch_bend_c, 7, 10272
9, 45658, Pitch_bend_c, 7, 10402
9, 45659, Pitch_bend_c, 7, 10532
9, 45660, Pitch_bend_c, 7, 10662
9, 45661, Pitch_bend_c, 7, 10792
9, 45662, Pitch_bend_c, 7, 10922
9, 45663, Pitch_bend_c, 7, 11312
9, 45664, Pitch_bend_c, 7, 11442
9, 45665, Pitch_bend_c, 7, 11572
9, 45666, Pitch_bend_c, 7, 11702
9, 45668, Pitch_bend_c, 7, 11962
9, 45670, Pitch_bend_c, 7, 12222
9, 45671, Pitch_bend_c, 7, 12482
9, 45672, Pitch_bend_c, 7, 12612
9, 45673, Pitch_bend_c, 7, 12872
9, 45674, Pitch_bend_c, 7, 13002
9, 45675, Pitch_bend_c, 7, 13132
9, 45676, Pitch_bend_c, 7, 13262
9, 45677, Pitch_bend_c, 7, 13522
9, 45678, Pitch_bend_c, 7, 13652
9, 45679, Pitch_bend_c, 7, 13782
9, 45680, Pitch_bend_c, 7, 14042
9, 45681, Pitch_bend_c, 7, 14172
9, 45682, Pitch_bend_c, 7, 14432
9, 45683, Pitch_bend_c, 7, 14562
9, 45684, Pitch_bend_c, 7, 14692
9, 45685, Pitch_bend_c, 7, 14822
9, 45686, Pitch_bend_c, 7, 15082
9, 45687, Pitch_bend_c, 7, 15212
9, 45688, Pitch_bend_c, 7, 15472
9, 45689, Pitch_bend_c, 7, 15602
9, 45690, Pitch_bend_c, 7, 15732
9, 45691, Pitch_bend_c, 7, 15992
9, 45692, Pitch_bend_c, 7, 16122
9, 45693, Pitch_bend_c, 7, 16252
9, 45694, Pitch_bend_c, 7, 16382
9, 46457, Pitch_bend_c, 7, 16252
9, 46458, Pitch_bend_c, 7, 15602
9, 46459, Pitch_bend_c, 7, 13132
9, 46460, Pitch_bend_c, 7, 12222
9, 46461, Pitch_bend_c, 7, 11312
9, 46462, Pitch_bend_c, 7, 8322
9, 46463, Pitch_bend_c, 7, 8192
9, 57120, Note_on_c, 7, 47, 96
9, 58072, Note_off_c, 7, 47, 0
9, 58080, Note_on_c, 7, 42, 85
9, 59040, Control_c, 7, 11, 127
9, 59056, Control_c, 7, 11, 126
9, 59072, Control_c, 7, 11, 125
9, 59080, Control_c, 7, 11, 124
9, 59096, Control_c, 7, 11, 123
9, 59112, Control_c, 7, 11, 122
9, 59120, Control_c, 7, 11, 121
9, 59136, Control_c, 7, 11, 120
9, 59152, Control_c, 7, 11, 119
9, 59160, Control_c, 7, 11, 118
9, 59176, Control_c, 7, 11, 117
9, 59192, Control_c, 7, 11, 116
9, 59200, Control_c, 7, 11, 115
9, 59216, Control_c, 7, 11, 114
9, 59232, Control_c, 7, 11, 113
9, 59240, Control_c, 7, 11, 112
9, 59256, Control_c, 7, 11, 111
9, 59272, Control_c, 7, 11, 110
9, 59280, Control_c, 7, 11, 109
9, 59296, Control_c, 7, 11, 108
9, 59312, Control_c, 7, 11, 107
9, 59320, Control_c, 7, 11, 106
9, 59336, Control_c, 7, 11, 105
9, 59352, Control_c, 7, 11, 104
9, 59360, Control_c, 7, 11, 103
9, 59376, Control_c, 7, 11, 102
9, 59392, Control_c, 7, 11, 101
9, 59400, Control_c, 7, 11, 100
9, 59416, Control_c, 7, 11, 99
9, 59432, Control_c, 7, 11, 98
9, 59440, Control_c, 7, 11, 97
9, 59456, Control_c, 7, 11, 96
9, 59472, Control_c, 7, 11, 95
9, 59480, Control_c, 7, 11, 94
9, 59496, Control_c, 7, 11, 93
9, 59512, Control_c, 7, 11, 92
9, 59520, Control_c, 7, 11, 91
9, 59536, Control_c, 7, 11, 90
9, 59552, Control_c, 7, 11, 89
9, 59560, Control_c, 7, 11, 88
9, 59576, Control_c, 7, 11, 87
9, 59592, Control_c, 7, 11, 86
9, 59600, Control_c, 7, 11, 85
9, 59616, Control_c, 7, 11, 84
9, 59632, Control_c, 7, 11, 83
9, 59640, Control_c, 7, 11, 82
9, 59656, Control_c, 7, 11, 81
9, 59672, Control_c, 7, 11, 80
9, 59680, Control_c, 7, 11, 79
9, 59696, Control_c, 7, 11, 78
9, 59712, Control_c, 7, 11, 77
9, 59720, Control_c, 7, 11, 76
9, 59736, Control_c, 7, 11, 75
9, 59752, Control_c, 7, 11, 74
9, 59760, Control_c, 7, 11, 73
9, 59776, Control_c, 7, 11, 72
9, 59792, Control_c, 7, 11, 71
9, 59800, Control_c, 7, 11, 70
9, 59816, Control_c, 7, 11, 69
9, 59832, Control_c, 7, 11, 68
9, 59840, Control_c, 7, 11, 67
9, 59856, Control_c, 7, 11, 66
9, 59872, Control_c, 7, 11, 65
9, 59880, Control_c, 7, 11, 64
9, 59896, Control_c, 7, 11, 63
9, 59904, Control_c, 7, 11, 62
9, 59920, Control_c, 7, 11, 61
9, 59936, Control_c, 7, 11, 60
9, 59944, Control_c, 7, 11, 59
9, 59960, Control_c, 7, 11, 58
9, 59976, Control_c, 7, 11, 57
9, 59984, Control_c, 7, 11, 56
9, 60000, Control_c, 7, 11, 55
9, 60016, Control_c, 7, 11, 54
9, 60024, Control_c, 7, 11, 53
9, 60040, Control_c, 7, 11, 52
9, 60056, Control_c, 7, 11, 51
9, 60064, Control_c, 7, 11, 50
9, 60080, Control_c, 7, 11, 49
9, 60096, Control_c, 7, 11, 48
9, 60104, Control_c, 7, 11, 47
9, 60120, Control_c, 7, 11, 46
9, 60136, Control_c, 7, 11, 45
9, 60144, Control_c, 7, 11, 44
9, 60160, Control_c, 7, 11, 43
9, 60176, Control_c, 7, 11, 42
9, 60184, Control_c, 7, 11, 41
9, 60200, Control_c, 7, 11, 40
9, 60216, Control_c, 7, 11, 39
9, 60224, Control_c, 7, 11, 38
9, 60240, Control_c, 7, 11, 37
9, 60256, Control_c, 7, 11, 36
9, 60264, Control_c, 7, 11, 35
9, 60280, Control_c, 7, 11, 34
9, 60296, Control_c, 7, 11, 33
9, 60304, Control_c, 7, 11, 32
9, 60320, Control_c, 7, 11, 31
9, 60336, Control_c, 7, 11, 30
9, 60344, Control_c, 7, 11, 29
9, 60360, Control_c, 7, 11, 28
9, 60376, Control_c, 7, 11, 27
9, 60384, Control_c, 7, 11, 26
9, 60400, Control_c, 7, 11, 25
9, 60416, Control_c, 7, 11, 24
9, 60424, Control_c, 7, 11, 23
9, 60440, Control_c, 7, 11, 22
9, 60456, Control_c, 7, 11, 21
9, 60464, Control_c, 7, 11, 20
9, 60480, Control_c, 7, 11, 19
9, 60480, Note_off_c, 7, 42, 0
9, 60496, Control_c, 7, 11, 18
9, 60504, Control_c, 7, 11, 17
9, 60520, Control_c, 7, 11, 16
9, 60536, Control_c, 7, 11, 15
9, 60544, Control_c, 7, 11, 14
9, 60560, Control_c, 7, 11, 13
9, 60576, Control_c, 7, 11, 12
9, 60584, Control_c, 7, 11, 11
9, 60600, Control_c, 7, 11, 10
9, 60616, Control_c, 7, 11, 9
9, 60624, Control_c, 7, 11, 8
9, 60640, Control_c, 7, 11, 7
9, 60656, Control_c, 7, 11, 6
9, 60664, Control_c, 7, 11, 5
9, 60680, Control_c, 7, 11, 4
9, 60696, Control_c, 7, 11, 3
9, 60704, Control_c, 7, 11, 2
9, 60720, Control_c, 7, 11, 0
9, 60728, Control_c, 7, 11, 127
9, 60942, End_track
10, 0, Start_track
10, 0, MIDI_port, 0
10, 0, Title_t, "Ovdr Guitar"
10, 60942, End_track
11, 0, Start_track
11, 0, MIDI_port, 0
11, 0, Title_t, "Dobro Guitar"
11, 0, Program_c, 10, 105
11, 0, Control_c, 10, 7, 75
11, 0, Control_c, 10, 10, 26
11, 0, Control_c, 10, 11, 127
11, 0, Control_c, 10, 91, 60
11, 0, Control_c, 10, 93, 0
11, 0, Control_c, 10, 94, 0
11, 1021, Note_on_c, 10, 61, 85
11, 1061, Note_off_c, 10, 61, 0
11, 1081, Note_on_c, 10, 61, 79
11, 1138, Note_off_c, 10, 61, 0
11, 1141, Note_on_c, 10, 58, 69
11, 1196, Note_off_c, 10, 58, 0
11, 1381, Note_on_c, 10, 59, 100
11, 1494, Note_off_c, 10, 59, 0
11, 1501, Note_on_c, 10, 58, 70
11, 1556, Note_off_c, 10, 58, 0
11, 1559, Note_on_c, 10, 59, 81
11, 1614, Note_off_c, 10, 59, 0
11, 1619, Note_on_c, 10, 58, 71
11, 1676, Note_off_c, 10, 58, 0
11, 1681, Note_on_c, 10, 59, 74
11, 1738, Note_off_c, 10, 59, 0
11, 1741, Note_on_c, 10, 58, 71
11, 1797, Note_off_c, 10, 58, 0
11, 1801, Note_on_c, 10, 56, 77
11, 1854, Note_off_c, 10, 56, 0
11, 1859, Note_on_c, 10, 54, 90
11, 1913, Note_off_c, 10, 54, 0
11, 1980, Note_on_c, 10, 61, 79
11, 2016, Note_off_c, 10, 61, 0
11, 2040, Note_on_c, 10, 61, 79
11, 2101, Note_on_c, 10, 58, 74
11, 2107, Note_off_c, 10, 61, 0
11, 2160, Note_off_c, 10, 58, 0
11, 2281, Note_on_c, 10, 58, 63
11, 2334, Note_off_c, 10, 58, 0
11, 2341, Note_on_c, 10, 59, 75
11, 2461, Note_on_c, 10, 58, 70
11, 2469, Note_off_c, 10, 59, 0
11, 2518, Note_off_c, 10, 58, 0
11, 2521, Note_on_c, 10, 59, 70
11, 2581, Note_on_c, 10, 58, 73
11, 2585, Note_off_c, 10, 59, 0
11, 2636, Note_off_c, 10, 58, 0
11, 2641, Note_on_c, 10, 59, 72
11, 2699, Note_on_c, 10, 58, 85
11, 2702, Note_off_c, 10, 59, 0
11, 2761, Note_on_c, 10, 56, 77
11, 2765, Note_off_c, 10, 58, 0
11, 2804, Note_off_c, 10, 56, 0
11, 2819, Note_on_c, 10, 54, 90
11, 2874, Note_off_c, 10, 54, 0
11, 6719, Note_on_c, 10, 66, 67
11, 6756, Note_off_c, 10, 66, 0
11, 7201, Note_on_c, 10, 66, 62
11, 7231, Note_off_c, 10, 66, 0
11, 18237, Note_on_c, 10, 56, 64
11, 18258, Note_off_c, 10, 56, 0
11, 18301, Note_on_c, 10, 61, 77
11, 18325, Note_off_c, 10, 61, 0
11, 18361, Note_on_c, 10, 61, 95
11, 18411, Note_off_c, 10, 61, 0
11, 18421, Note_on_c, 10, 58, 85
11, 18454, Note_off_c, 10, 58, 0
11, 18481, Note_on_c, 10, 61, 86
11, 18512, Note_off_c, 10, 61, 0
11, 18541, Note_on_c, 10, 61, 93
11, 18578, Note_off_c, 10, 61, 0
11, 18601, Note_on_c, 10, 58, 86
11, 18638, Note_off_c, 10, 58, 0
11, 18661, Note_on_c, 10, 59, 71
11, 18689, Note_off_c, 10, 59, 0
11, 18719, Note_on_c, 10, 59, 83
11, 18763, Note_off_c, 10, 59, 0
11, 18781, Note_on_c, 10, 58, 73
11, 18813, Note_off_c, 10, 58, 0
11, 18839, Note_on_c, 10, 59, 83
11, 18877, Note_off_c, 10, 59, 0
11, 18901, Note_on_c, 10, 58, 75
11, 18935, Note_off_c, 10, 58, 0
11, 18961, Note_on_c, 10, 59, 87
11, 19016, Note_off_c, 10, 59, 0
11, 19021, Note_on_c, 10, 58, 59
11, 19054, Note_off_c, 10, 58, 0
11, 19081, Note_on_c, 10, 56, 83
11, 19124, Note_off_c, 10, 56, 0
11, 19141, Note_on_c, 10, 54, 93
11, 19183, Note_off_c, 10, 54, 0
11, 24539, Note_on_c, 10, 58, 98
11, 24585, Note_off_c, 10, 58, 0
11, 24659, Note_on_c, 10, 54, 71
11, 24716, Note_off_c, 10, 54, 0
11, 24719, Note_on_c, 10, 56, 85
11, 24771, Note_off_c, 10, 56, 0
11, 24899, Note_on_c, 10, 54, 83
11, 24959, Note_off_c, 10, 54, 0
11, 24959, Note_on_c, 10, 59, 85
11, 25012, Note_off_c, 10, 59, 0
11, 25019, Note_on_c, 10, 58, 75
11, 25068, Note_off_c, 10, 58, 0
11, 25079, Note_on_c, 10, 56, 79
11, 25133, Note_off_c, 10, 56, 0
11, 25139, Note_on_c, 10, 54, 86
11, 25195, Note_off_c, 10, 54, 0
11, 25199, Note_on_c, 10, 44, 96
11, 25247, Note_off_c, 10, 44, 0
11, 25259, Note_on_c, 10, 46, 77
11, 25305, Note_off_c, 10, 46, 0
11, 25319, Note_on_c, 10, 47, 81
11, 25375, Note_off_c, 10, 47, 0
11, 25379, Note_on_c, 10, 49, 93
11, 25420, Note_off_c, 10, 49, 0
11, 25439, Note_on_c, 10, 51, 94
11, 25469, Note_off_c, 10, 51, 0
11, 25499, Note_on_c, 10, 51, 79
11, 25548, Note_off_c, 10, 51, 0
11, 25559, Note_on_c, 10, 56, 97
11, 25857, Note_off_c, 10, 56, 0
11, 25859, Note_on_c, 10, 54, 93
11, 25919, Note_on_c, 10, 56, 95
11, 25920, Note_off_c, 10, 54, 0
11, 25973, Note_off_c, 10, 56, 0
11, 25979, Note_on_c, 10, 58, 95
11, 26034, Note_off_c, 10, 58, 0
11, 26039, Note_on_c, 10, 44, 96
11, 26099, Note_on_c, 10, 42, 85
11, 26104, Note_off_c, 10, 44, 0
11, 26159, Note_on_c, 10, 44, 86
11, 26168, Note_off_c, 10, 42, 0
11, 26219, Note_on_c, 10, 46, 93
11, 26225, Note_off_c, 10, 44, 0
11, 26277, Note_off_c, 10, 46, 0
11, 26279, Note_on_c, 10, 47, 74
11, 26335, Note_off_c, 10, 47, 0
11, 26339, Note_on_c, 10, 49, 96
11, 26384, Note_off_c, 10, 49, 0
11, 26399, Note_on_c, 10, 51, 93
11, 26439, Note_off_c, 10, 51, 0
11, 26459, Note_on_c, 10, 51, 74
11, 26512, Note_off_c, 10, 51, 0
11, 26519, Note_on_c, 10, 56, 96
11, 26613, Note_off_c, 10, 56, 0
11, 26639, Note_on_c, 10, 56, 95
11, 26868, Note_off_c, 10, 56, 0
11, 46559, Note_on_c, 10, 58, 71
11, 46619, Note_on_c, 10, 61, 63
11, 46720, Note_off_c, 10, 58, 0
11, 46735, Note_off_c, 10, 61, 0
11, 46739, Note_on_c, 10, 58, 69
11, 46799, Note_on_c, 10, 61, 58
11, 46801, Note_off_c, 10, 58, 0
11, 46833, Note_off_c, 10, 61, 0
11, 46860, Note_on_c, 10, 61, 62
11, 46919, Note_on_c, 10, 58, 66
11, 47075, Note_off_c, 10, 61, 0
11, 47084, Note_off_c, 10, 58, 0
11, 47101, Note_on_c, 10, 58, 71
11, 47193, Note_off_c, 10, 58, 0
11, 47219, Note_on_c, 10, 58, 69
11, 47279, Note_on_c, 10, 59, 75
11, 47294, Note_off_c, 10, 58, 0
11, 47399, Note_on_c, 10, 61, 71
11, 47403, Note_off_c, 10, 59, 0
11, 47517, Note_off_c, 10, 61, 0
11, 47519, Note_on_c, 10, 56, 76
11, 47579, Note_on_c, 10, 61, 72
11, 47678, Note_off_c, 10, 56, 0
11, 47698, Note_off_c, 10, 61, 0
11, 47701, Note_on_c, 10, 56, 75
11, 47758, Note_off_c, 10, 56, 0
11, 47761, Note_on_c, 10, 61, 78
11, 47785, Note_off_c, 10, 61, 0
11, 47819, Note_on_c, 10, 61, 68
11, 47879, Note_on_c, 10, 56, 76
11, 47986, Note_off_c, 10, 61, 0
11, 47988, Note_off_c, 10, 56, 0
11, 48059, Note_on_c, 10, 56, 75
11, 48174, Note_off_c, 10, 56, 0
11, 48179, Note_on_c, 10, 56, 76
11, 48239, Note_on_c, 10, 59, 77
11, 48241, Note_off_c, 10, 56, 0
11, 48361, Note_on_c, 10, 56, 76
11, 48416, Note_off_c, 10, 56, 0
11, 48419, Note_on_c, 10, 54, 76
11, 48474, Note_off_c, 10, 54, 0
11, 48485, Note_off_c, 10, 59, 0
11, 60942, End_track
12, 0, Start_track
12, 0, MIDI_port, 0
12, 0, Title_t, "Dobro Guitar"
12, 60942, End_track
13, 0, Start_track
13, 0, MIDI_port, 0
13, 0, Title_t, "Dobro Guitar"
13, 0, Program_c, 12, 105
13, 0, Control_c, 12, 7, 74
13, 0, Control_c, 12, 10, 21
13, 0, Control_c, 12, 11, 127
13, 0, Control_c, 12, 91, 60
13, 0, Control_c, 12, 93, 0
13, 0, Control_c, 12, 94, 0
13, 2881, Note_on_c, 12, 54, 59
13, 2999, Note_on_c, 12, 61, 69
13, 3085, Note_off_c, 12, 54, 0
13, 3121, Note_on_c, 12, 54, 62
13, 3128, Note_off_c, 12, 61, 0
13, 3340, Note_off_c, 12, 54, 0
13, 3361, Note_on_c, 12, 54, 65
13, 3481, Note_on_c, 12, 61, 63
13, 3578, Note_off_c, 12, 54, 0
13, 3601, Note_on_c, 12, 54, 72
13, 3610, Note_off_c, 12, 61, 0
13, 3661, Note_on_c, 12, 61, 64
13, 3829, Note_off_c, 12, 54, 0
13, 3835, Note_off_c, 12, 61, 0
13, 3841, Note_on_c, 12, 53, 71
13, 4055, Note_off_c, 12, 53, 0
13, 4081, Note_on_c, 12, 53, 69
13, 4141, Note_on_c, 12, 61, 73
13, 4235, Note_off_c, 12, 61, 0
13, 4295, Note_off_c, 12, 53, 0
13, 4321, Note_on_c, 12, 53, 74
13, 4441, Note_on_c, 12, 61, 75
13, 4503, Note_off_c, 12, 53, 0
13, 4555, Note_off_c, 12, 61, 0
13, 4561, Note_on_c, 12, 53, 77
13, 4621, Note_on_c, 12, 61, 81
13, 4644, Note_off_c, 12, 53, 0
13, 4681, Note_on_c, 12, 53, 67
13, 4684, Note_off_c, 12, 61, 0
13, 4741, Note_on_c, 12, 61, 75
13, 4795, Note_off_c, 12, 53, 0
13, 4798, Note_off_c, 12, 61, 0
13, 4861, Note_on_c, 12, 59, 68
13, 4891, Note_off_c, 12, 59, 0
13, 4981, Note_on_c, 12, 56, 67
13, 5027, Note_off_c, 12, 56, 0
13, 5041, Note_on_c, 12, 59, 73
13, 5078, Note_off_c, 12, 59, 0
13, 5101, Note_on_c, 12, 59, 67
13, 5161, Note_on_c, 12, 56, 63
13, 5164, Note_off_c, 12, 59, 0
13, 5221, Note_on_c, 12, 59, 76
13, 5225, Note_off_c, 12, 56, 0
13, 5279, Note_off_c, 12, 59, 0
13, 5281, Note_on_c, 12, 56, 68
13, 5341, Note_on_c, 12, 59, 64
13, 5347, Note_off_c, 12, 56, 0
13, 5366, Note_off_c, 12, 59, 0
13, 5401, Note_on_c, 12, 59, 72
13, 5460, Note_off_c, 12, 59, 0
13, 5461, Note_on_c, 12, 56, 61
13, 5509, Note_off_c, 12, 56, 0
13, 5521, Note_on_c, 12, 59, 73
13, 5558, Note_off_c, 12, 59, 0
13, 5581, Note_on_c, 12, 59, 68
13, 5641, Note_on_c, 12, 56, 72
13, 5643, Note_off_c, 12, 59, 0
13, 5699, Note_on_c, 12, 59, 77
13, 5705, Note_off_c, 12, 56, 0
13, 5748, Note_off_c, 12, 59, 0
13, 5881, Note_on_c, 12, 59, 65
13, 6003, Note_off_c, 12, 59, 0
13, 6061, Note_on_c, 12, 59, 65
13, 6128, Note_off_c, 12, 59, 0
13, 6180, Note_on_c, 12, 59, 72
13, 6232, Note_off_c, 12, 59, 0
13, 6241, Note_on_c, 12, 59, 65
13, 6271, Note_off_c, 12, 59, 0
13, 6300, Note_on_c, 12, 59, 58
13, 6332, Note_off_c, 12, 59, 0
13, 6361, Note_on_c, 12, 59, 62
13, 6388, Note_off_c, 12, 59, 0
13, 6421, Note_on_c, 12, 59, 63
13, 6452, Note_off_c, 12, 59, 0
13, 6481, Note_on_c, 12, 59, 66
13, 6511, Note_off_c, 12, 59, 0
13, 6541, Note_on_c, 12, 59, 65
13, 6569, Note_off_c, 12, 59, 0
13, 6601, Note_on_c, 12, 59, 64
13, 6629, Note_off_c, 12, 59, 0
13, 6661, Note_on_c, 12, 59, 65
13, 6694, Note_off_c, 12, 59, 0
13, 6721, Note_on_c, 12, 66, 70
13, 6838, Note_off_c, 12, 66, 0
13, 6841, Note_on_c, 12, 70, 70
13, 6955, Note_off_c, 12, 70, 0
13, 6961, Note_on_c, 12, 68, 60
13, 7016, Note_off_c, 12, 68, 0
13, 7021, Note_on_c, 12, 70, 61
13, 7076, Note_off_c, 12, 70, 0
13, 7081, Note_on_c, 12, 68, 60
13, 7136, Note_off_c, 12, 68, 0
13, 7139, Note_on_c, 12, 70, 58
13, 7195, Note_off_c, 12, 70, 0
13, 7200, Note_on_c, 12, 66, 71
13, 7233, Note_off_c, 12, 66, 0
13, 7259, Note_on_c, 12, 66, 58
13, 7314, Note_off_c, 12, 66, 0
13, 7321, Note_on_c, 12, 70, 69
13, 7434, Note_off_c, 12, 70, 0
13, 7441, Note_on_c, 12, 68, 61
13, 7496, Note_off_c, 12, 68, 0
13, 7499, Note_on_c, 12, 70, 62
13, 7554, Note_off_c, 12, 70, 0
13, 7559, Note_on_c, 12, 68, 74
13, 7615, Note_off_c, 12, 68, 0
13, 7619, Note_on_c, 12, 70, 75
13, 7674, Note_off_c, 12, 70, 0
13, 7681, Note_on_c, 12, 66, 67
13, 7728, Note_off_c, 12, 66, 0
13, 7741, Note_on_c, 12, 66, 54
13, 7784, Note_off_c, 12, 66, 0
13, 7801, Note_on_c, 12, 70, 68
13, 7903, Note_off_c, 12, 70, 0
13, 7919, Note_on_c, 12, 68, 63
13, 7973, Note_off_c, 12, 68, 0
13, 7979, Note_on_c, 12, 70, 63
13, 8034, Note_off_c, 12, 70, 0
13, 8041, Note_on_c, 12, 68, 63
13, 8096, Note_off_c, 12, 68, 0
13, 8101, Note_on_c, 12, 70, 62
13, 8156, Note_off_c, 12, 70, 0
13, 8161, Note_on_c, 12, 66, 65
13, 8202, Note_off_c, 12, 66, 0
13, 8221, Note_on_c, 12, 66, 63
13, 8276, Note_off_c, 12, 66, 0
13, 8281, Note_on_c, 12, 70, 67
13, 8396, Note_off_c, 12, 70, 0
13, 8401, Note_on_c, 12, 68, 65
13, 8456, Note_off_c, 12, 68, 0
13, 8461, Note_on_c, 12, 70, 62
13, 8516, Note_off_c, 12, 70, 0
13, 8521, Note_on_c, 12, 68, 66
13, 8576, Note_off_c, 12, 68, 0
13, 8581, Note_on_c, 12, 70, 69
13, 8636, Note_off_c, 12, 70, 0
13, 8641, Note_on_c, 12, 68, 64
13, 8746, Note_off_c, 12, 68, 0
13, 8761, Note_on_c, 12, 70, 64
13, 8874, Note_off_c, 12, 70, 0
13, 8881, Note_on_c, 12, 68, 65
13, 8938, Note_off_c, 12, 68, 0
13, 8941, Note_on_c, 12, 70, 60
13, 8996, Note_off_c, 12, 70, 0
13, 9001, Note_on_c, 12, 68, 65
13, 9056, Note_off_c, 12, 68, 0
13, 9061, Note_on_c, 12, 70, 59
13, 9107, Note_off_c, 12, 70, 0
13, 9121, Note_on_c, 12, 68, 64
13, 9226, Note_off_c, 12, 68, 0
13, 9241, Note_on_c, 12, 70, 67
13, 9342, Note_off_c, 12, 70, 0
13, 9361, Note_on_c, 12, 68, 60
13, 9416, Note_off_c, 12, 68, 0
13, 9421, Note_on_c, 12, 70, 64
13, 9476, Note_off_c, 12, 70, 0
13, 9481, Note_on_c, 12, 68, 62
13, 9536, Note_off_c, 12, 68, 0
13, 9541, Note_on_c, 12, 70, 65
13, 9593, Note_off_c, 12, 70, 0
13, 9601, Note_on_c, 12, 66, 66
13, 9711, Note_off_c, 12, 66, 0
13, 9720, Note_on_c, 12, 70, 68
13, 9830, Note_off_c, 12, 70, 0
13, 9841, Note_on_c, 12, 66, 65
13, 9896, Note_off_c, 12, 66, 0
13, 9901, Note_on_c, 12, 70, 61
13, 9956, Note_off_c, 12, 70, 0
13, 9961, Note_on_c, 12, 66, 63
13, 10016, Note_off_c, 12, 66, 0
13, 10020, Note_on_c, 12, 70, 65
13, 10074, Note_off_c, 12, 70, 0
13, 10079, Note_on_c, 12, 66, 63
13, 10201, Note_on_c, 12, 70, 61
13, 10204, Note_off_c, 12, 66, 0
13, 10314, Note_off_c, 12, 70, 0
13, 10319, Note_on_c, 12, 66, 62
13, 10374, Note_off_c, 12, 66, 0
13, 10379, Note_on_c, 12, 70, 62
13, 10434, Note_off_c, 12, 70, 0
13, 10439, Note_on_c, 12, 66, 63
13, 10494, Note_off_c, 12, 66, 0
13, 10499, Note_on_c, 12, 70, 66
13, 10545, Note_off_c, 12, 70, 0
13, 14400, Note_on_c, 12, 66, 71
13, 14455, Note_off_c, 12, 66, 0
13, 14460, Note_on_c, 12, 65, 64
13, 14515, Note_off_c, 12, 65, 0
13, 14520, Note_on_c, 12, 61, 67
13, 14575, Note_off_c, 12, 61, 0
13, 14578, Note_on_c, 12, 54, 70
13, 14675, Note_off_c, 12, 54, 0
13, 14760, Note_on_c, 12, 66, 73
13, 14873, Note_off_c, 12, 66, 0
13, 14880, Note_on_c, 12, 66, 74
13, 14935, Note_off_c, 12, 66, 0
13, 14940, Note_on_c, 12, 65, 72
13, 14995, Note_off_c, 12, 65, 0
13, 15000, Note_on_c, 12, 61, 73
13, 15055, Note_off_c, 12, 61, 0
13, 15060, Note_on_c, 12, 54, 73
13, 15154, Note_off_c, 12, 54, 0
13, 15180, Note_on_c, 12, 54, 73
13, 15244, Note_off_c, 12, 54, 0
13, 15300, Note_on_c, 12, 61, 71
13, 15349, Note_off_c, 12, 61, 0
13, 15360, Note_on_c, 12, 66, 69
13, 15415, Note_off_c, 12, 66, 0
13, 15420, Note_on_c, 12, 65, 70
13, 15475, Note_off_c, 12, 65, 0
13, 15480, Note_on_c, 12, 61, 69
13, 15534, Note_off_c, 12, 61, 0
13, 15540, Note_on_c, 12, 56, 73
13, 15627, Note_off_c, 12, 56, 0
13, 15660, Note_on_c, 12, 56, 73
13, 15715, Note_off_c, 12, 56, 0
13, 15720, Note_on_c, 12, 61, 77
13, 15773, Note_off_c, 12, 61, 0
13, 15780, Note_on_c, 12, 58, 74
13, 15833, Note_off_c, 12, 58, 0
13, 15840, Note_on_c, 12, 66, 70
13, 15895, Note_off_c, 12, 66, 0
13, 15900, Note_on_c, 12, 65, 77
13, 15955, Note_off_c, 12, 65, 0
13, 15960, Note_on_c, 12, 61, 73
13, 16015, Note_off_c, 12, 61, 0
13, 16021, Note_on_c, 12, 56, 74
13, 16100, Note_off_c, 12, 56, 0
13, 16142, Note_on_c, 12, 56, 75
13, 16197, Note_off_c, 12, 56, 0
13, 16202, Note_on_c, 12, 61, 74
13, 16255, Note_off_c, 12, 61, 0
13, 16262, Note_on_c, 12, 58, 74
13, 16309, Note_off_c, 12, 58, 0
13, 16322, Note_on_c, 12, 66, 73
13, 16377, Note_off_c, 12, 66, 0
13, 16378, Note_on_c, 12, 65, 74
13, 16433, Note_off_c, 12, 65, 0
13, 16440, Note_on_c, 12, 61, 72
13, 16497, Note_off_c, 12, 61, 0
13, 16502, Note_on_c, 12, 56, 75
13, 16602, Note_off_c, 12, 56, 0
13, 16680, Note_on_c, 12, 66, 76
13, 16737, Note_off_c, 12, 66, 0
13, 16800, Note_on_c, 12, 66, 68
13, 16855, Note_off_c, 12, 66, 0
13, 16860, Note_on_c, 12, 65, 69
13, 16915, Note_off_c, 12, 65, 0
13, 16920, Note_on_c, 12, 61, 73
13, 16975, Note_off_c, 12, 61, 0
13, 16980, Note_on_c, 12, 56, 74
13, 17098, Note_off_c, 12, 56, 0
13, 17100, Note_on_c, 12, 63, 75
13, 17158, Note_off_c, 12, 63, 0
13, 17160, Note_on_c, 12, 66, 74
13, 17215, Note_off_c, 12, 66, 0
13, 17220, Note_on_c, 12, 63, 70
13, 17268, Note_off_c, 12, 63, 0
13, 22845, Pitch_bend_c, 12, 8064
13, 22846, Pitch_bend_c, 12, 7936
13, 22847, Pitch_bend_c, 12, 7808
13, 22848, Pitch_bend_c, 12, 7552
13, 22849, Pitch_bend_c, 12, 7424
13, 22850, Pitch_bend_c, 12, 7296
13, 22851, Pitch_bend_c, 12, 7168
13, 22852, Pitch_bend_c, 12, 6912
13, 22853, Pitch_bend_c, 12, 6784
13, 22854, Pitch_bend_c, 12, 6400
13, 22855, Pitch_bend_c, 12, 6272
13, 22856, Pitch_bend_c, 12, 5888
13, 22857, Pitch_bend_c, 12, 5632
13, 22858, Pitch_bend_c, 12, 5504
13, 22859, Pitch_bend_c, 12, 4992
13, 22860, Pitch_bend_c, 12, 4736
13, 22861, Pitch_bend_c, 12, 4352
13, 22862, Pitch_bend_c, 12, 4224
13, 22864, Pitch_bend_c, 12, 3840
13, 22866, Pitch_bend_c, 12, 3072
13, 22867, Pitch_bend_c, 12, 2176
13, 22868, Pitch_bend_c, 12, 2048
13, 22869, Pitch_bend_c, 12, 1536
13, 22871, Pitch_bend_c, 12, 1024
13, 22872, Pitch_bend_c, 12, 256
13, 22900, Pitch_bend_c, 12, 128
13, 22901, Pitch_bend_c, 12, 1280
13, 22902, Pitch_bend_c, 12, 2560
13, 22903, Pitch_bend_c, 12, 3968
13, 22904, Pitch_bend_c, 12, 4736
13, 22905, Pitch_bend_c, 12, 6272
13, 22906, Pitch_bend_c, 12, 8192
13, 22982, Pitch_bend_c, 12, 8064
13, 22983, Pitch_bend_c, 12, 7936
13, 22984, Pitch_bend_c, 12, 7808
13, 22985, Pitch_bend_c, 12, 7552
13, 22986, Pitch_bend_c, 12, 7424
13, 22987, Pitch_bend_c, 12, 7296
13, 22988, Pitch_bend_c, 12, 7040
13, 22989, Pitch_bend_c, 12, 6656
13, 22990, Pitch_bend_c, 12, 6400
13, 22991, Pitch_bend_c, 12, 6272
13, 22992, Pitch_bend_c, 12, 6016
13, 22993, Pitch_bend_c, 12, 5632
13, 22994, Pitch_bend_c, 12, 5504
13, 22995, Pitch_bend_c, 12, 5120
13, 22996, Pitch_bend_c, 12, 4736
13, 22997, Pitch_bend_c, 12, 4480
13, 22998, Pitch_bend_c, 12, 4096
13, 22999, Pitch_bend_c, 12, 3840
13, 23000, Pitch_bend_c, 12, 3456
13, 23001, Pitch_bend_c, 12, 3072
13, 23002, Pitch_bend_c, 12, 2816
13, 23003, Pitch_bend_c, 12, 2304
13, 23004, Pitch_bend_c, 12, 1920
13, 23005, Pitch_bend_c, 12, 1408
13, 23006, Pitch_bend_c, 12, 896
13, 23007, Pitch_bend_c, 12, 640
13, 23008, Pitch_bend_c, 12, 128
13, 23023, Pitch_bend_c, 12, 128
13, 23024, Pitch_bend_c, 12, 640
13, 23025, Pitch_bend_c, 12, 3456
13, 23027, Pitch_bend_c, 12, 4224
13, 23029, Pitch_bend_c, 12, 8192
13, 30721, Note_on_c, 12, 66, 71
13, 30776, Note_off_c, 12, 66, 0
13, 30781, Note_on_c, 12, 65, 64
13, 30836, Note_off_c, 12, 65, 0
13, 30840, Note_on_c, 12, 61, 67
13, 30895, Note_off_c, 12, 61, 0
13, 30901, Note_on_c, 12, 54, 70
13, 30996, Note_off_c, 12, 54, 0
13, 31021, Note_on_c, 12, 54, 74
13, 31081, Note_on_c, 12, 66, 73
13, 31141, Note_on_c, 12, 61, 74
13, 31192, Note_off_c, 12, 54, 0
13, 31194, Note_off_c, 12, 66, 0
13, 31196, Note_off_c, 12, 61, 0
13, 31201, Note_on_c, 12, 66, 74
13, 31256, Note_off_c, 12, 66, 0
13, 31261, Note_on_c, 12, 65, 72
13, 31316, Note_off_c, 12, 65, 0
13, 31321, Note_on_c, 12, 61, 73
13, 31376, Note_off_c, 12, 61, 0
13, 31381, Note_on_c, 12, 54, 73
13, 31475, Note_off_c, 12, 54, 0
13, 31499, Note_on_c, 12, 54, 73
13, 31565, Note_off_c, 12, 54, 0
13, 31621, Note_on_c, 12, 61, 71
13, 31670, Note_off_c, 12, 61, 0
13, 31681, Note_on_c, 12, 66, 69
13, 31736, Note_off_c, 12, 66, 0
13, 31741, Note_on_c, 12, 65, 70
13, 31796, Note_off_c, 12, 65, 0
13, 31801, Note_on_c, 12, 61, 69
13, 31855, Note_off_c, 12, 61, 0
13, 31861, Note_on_c, 12, 56, 73
13, 31948, Note_off_c, 12, 56, 0
13, 31981, Note_on_c, 12, 56, 73
13, 32038, Note_off_c, 12, 56, 0
13, 32041, Note_on_c, 12, 61, 77
13, 32093, Note_off_c, 12, 61, 0
13, 32101, Note_on_c, 12, 58, 74
13, 32154, Note_off_c, 12, 58, 0
13, 32161, Note_on_c, 12, 66, 70
13, 32216, Note_off_c, 12, 66, 0
13, 32221, Note_on_c, 12, 65, 77
13, 32276, Note_off_c, 12, 65, 0
13, 32281, Note_on_c, 12, 61, 73
13, 32336, Note_off_c, 12, 61, 0
13, 32342, Note_on_c, 12, 56, 74
13, 32421, Note_off_c, 12, 56, 0
13, 32463, Note_on_c, 12, 56, 75
13, 32520, Note_off_c, 12, 56, 0
13, 32523, Note_on_c, 12, 61, 74
13, 32576, Note_off_c, 12, 61, 0
13, 32583, Note_on_c, 12, 58, 74
13, 32630, Note_off_c, 12, 58, 0
13, 32643, Note_on_c, 12, 66, 73
13, 32698, Note_off_c, 12, 66, 0
13, 32701, Note_on_c, 12, 65, 74
13, 32756, Note_off_c, 12, 65, 0
13, 32761, Note_on_c, 12, 61, 72
13, 32816, Note_off_c, 12, 61, 0
13, 32823, Note_on_c, 12, 56, 75
13, 32923, Note_off_c, 12, 56, 0
13, 33001, Note_on_c, 12, 66, 76
13, 33058, Note_off_c, 12, 66, 0
13, 33121, Note_on_c, 12, 66, 68
13, 33179, Note_off_c, 12, 66, 0
13, 33181, Note_on_c, 12, 65, 69
13, 33239, Note_off_c, 12, 65, 0
13, 33241, Note_on_c, 12, 61, 73
13, 33300, Note_off_c, 12, 61, 0
13, 33301, Note_on_c, 12, 56, 74
13, 33419, Note_off_c, 12, 56, 0
13, 33421, Note_on_c, 12, 63, 75
13, 33479, Note_off_c, 12, 63, 0
13, 33481, Note_on_c, 12, 66, 74
13, 33539, Note_off_c, 12, 66, 0
13, 33541, Note_on_c, 12, 63, 70
13, 33589, Note_off_c, 12, 63, 0
13, 33600, Note_on_c, 12, 66, 73
13, 33658, Note_off_c, 12, 66, 0
13, 33658, Note_on_c, 12, 65, 74
13, 33715, Note_on_c, 12, 59, 72
13, 33718, Note_off_c, 12, 65, 0
13, 33777, Note_off_c, 12, 59, 0
13, 33780, Note_on_c, 12, 54, 75
13, 33880, Note_off_c, 12, 54, 0
13, 33898, Note_on_c, 12, 63, 72
13, 33958, Note_on_c, 12, 66, 76
13, 33959, Note_off_c, 12, 63, 0
13, 34015, Note_off_c, 12, 66, 0
13, 34018, Note_on_c, 12, 63, 70
13, 34076, Note_off_c, 12, 63, 0
13, 34078, Note_on_c, 12, 66, 68
13, 34136, Note_off_c, 12, 66, 0
13, 34138, Note_on_c, 12, 65, 69
13, 34196, Note_off_c, 12, 65, 0
13, 34198, Note_on_c, 12, 59, 73
13, 34257, Note_off_c, 12, 59, 0
13, 34258, Note_on_c, 12, 54, 74
13, 34376, Note_off_c, 12, 54, 0
13, 34378, Note_on_c, 12, 63, 75
13, 34436, Note_off_c, 12, 63, 0
13, 34438, Note_on_c, 12, 66, 74
13, 34496, Note_off_c, 12, 66, 0
13, 34498, Note_on_c, 12, 63, 70
13, 34546, Note_off_c, 12, 63, 0
13, 34561, Note_on_c, 12, 66, 71
13, 34621, Note_on_c, 12, 65, 64
13, 34626, Note_off_c, 12, 66, 0
13, 34681, Note_on_c, 12, 61, 67
13, 34683, Note_off_c, 12, 65, 0
13, 34741, Note_on_c, 12, 54, 70
13, 34743, Note_off_c, 12, 61, 0
13, 34836, Note_off_c, 12, 54, 0
13, 34861, Note_on_c, 12, 54, 74
13, 34921, Note_on_c, 12, 66, 73
13, 34981, Note_on_c, 12, 61, 74
13, 35032, Note_off_c, 12, 54, 0
13, 35034, Note_off_c, 12, 66, 0
13, 35041, Note_on_c, 12, 66, 74
13, 35044, Note_off_c, 12, 61, 0
13, 35099, Note_off_c, 12, 66, 0
13, 35101, Note_on_c, 12, 65, 72
13, 35161, Note_on_c, 12, 61, 73
13, 35166, Note_off_c, 12, 65, 0
13, 35221, Note_on_c, 12, 54, 73
13, 35224, Note_off_c, 12, 61, 0
13, 35315, Note_off_c, 12, 54, 0
13, 35341, Note_on_c, 12, 54, 73
13, 35405, Note_off_c, 12, 54, 0
13, 35461, Note_on_c, 12, 61, 71
13, 35510, Note_off_c, 12, 61, 0
13, 35521, Note_on_c, 12, 66, 69
13, 35581, Note_off_c, 12, 66, 0
13, 35581, Note_on_c, 12, 65, 70
13, 35639, Note_off_c, 12, 65, 0
13, 35641, Note_on_c, 12, 61, 69
13, 35695, Note_off_c, 12, 61, 0
13, 35701, Note_on_c, 12, 56, 73
13, 35788, Note_off_c, 12, 56, 0
13, 35821, Note_on_c, 12, 56, 73
13, 35878, Note_off_c, 12, 56, 0
13, 35881, Note_on_c, 12, 61, 77
13, 35934, Note_off_c, 12, 61, 0
13, 35941, Note_on_c, 12, 58, 74
13, 35994, Note_off_c, 12, 58, 0
13, 36001, Note_on_c, 12, 66, 70
13, 36056, Note_off_c, 12, 66, 0
13, 36061, Note_on_c, 12, 65, 77
13, 36116, Note_off_c, 12, 65, 0
13, 36121, Note_on_c, 12, 61, 73
13, 36181, Note_off_c, 12, 61, 0
13, 36182, Note_on_c, 12, 56, 74
13, 36261, Note_off_c, 12, 56, 0
13, 36303, Note_on_c, 12, 56, 75
13, 36360, Note_off_c, 12, 56, 0
13, 36363, Note_on_c, 12, 61, 74
13, 36416, Note_off_c, 12, 61, 0
13, 36423, Note_on_c, 12, 58, 74
13, 36470, Note_off_c, 12, 58, 0
13, 36483, Note_on_c, 12, 66, 73
13, 36538, Note_off_c, 12, 66, 0
13, 36541, Note_on_c, 12, 65, 74
13, 36596, Note_off_c, 12, 65, 0
13, 36601, Note_on_c, 12, 61, 72
13, 36660, Note_off_c, 12, 61, 0
13, 36663, Note_on_c, 12, 56, 75
13, 36763, Note_off_c, 12, 56, 0
13, 36841, Note_on_c, 12, 66, 76
13, 36898, Note_off_c, 12, 66, 0
13, 36961, Note_on_c, 12, 66, 68
13, 37016, Note_off_c, 12, 66, 0
13, 37021, Note_on_c, 12, 65, 69
13, 37076, Note_off_c, 12, 65, 0
13, 37081, Note_on_c, 12, 61, 73
13, 37140, Note_off_c, 12, 61, 0
13, 37141, Note_on_c, 12, 56, 74
13, 37259, Note_off_c, 12, 56, 0
13, 37261, Note_on_c, 12, 63, 75
13, 37319, Note_off_c, 12, 63, 0
13, 37321, Note_on_c, 12, 66, 74
13, 37379, Note_off_c, 12, 66, 0
13, 37381, Note_on_c, 12, 63, 70
13, 37429, Note_off_c, 12, 63, 0
13, 37440, Note_on_c, 12, 66, 73
13, 37495, Note_off_c, 12, 66, 0
13, 37498, Note_on_c, 12, 65, 74
13, 37558, Note_off_c, 12, 65, 0
13, 37558, Note_on_c, 12, 59, 72
13, 37617, Note_off_c, 12, 59, 0
13, 37620, Note_on_c, 12, 54, 75
13, 37720, Note_off_c, 12, 54, 0
13, 37738, Note_on_c, 12, 63, 72
13, 37798, Note_on_c, 12, 66, 76
13, 37799, Note_off_c, 12, 63, 0
13, 37855, Note_off_c, 12, 66, 0
13, 37858, Note_on_c, 12, 63, 70
13, 37916, Note_off_c, 12, 63, 0
13, 37918, Note_on_c, 12, 66, 68
13, 37973, Note_off_c, 12, 66, 0
13, 37978, Note_on_c, 12, 65, 69
13, 38036, Note_off_c, 12, 65, 0
13, 38098, Note_on_c, 12, 54, 74
13, 38216, Note_off_c, 12, 54, 0
13, 38218, Note_on_c, 12, 63, 75
13, 38276, Note_off_c, 12, 63, 0
13, 38278, Note_on_c, 12, 66, 74
13, 38336, Note_off_c, 12, 66, 0
13, 38338, Note_on_c, 12, 63, 70
13, 38386, Note_off_c, 12, 63, 0
13, 38401, Note_on_c, 12, 66, 71
13, 38456, Note_off_c, 12, 66, 0
13, 38461, Note_on_c, 12, 65, 64
13, 38516, Note_off_c, 12, 65, 0
13, 38521, Note_on_c, 12, 61, 67
13, 38576, Note_off_c, 12, 61, 0
13, 38581, Note_on_c, 12, 54, 70
13, 38676, Note_off_c, 12, 54, 0
13, 38701, Note_on_c, 12, 54, 74
13, 38761, Note_on_c, 12, 66, 73
13, 38821, Note_on_c, 12, 61, 74
13, 38872, Note_off_c, 12, 54, 0
13, 38874, Note_off_c, 12, 66, 0
13, 38876, Note_off_c, 12, 61, 0
13, 38881, Note_on_c, 12, 66, 74
13, 38936, Note_off_c, 12, 66, 0
13, 38941, Note_on_c, 12, 65, 72
13, 38996, Note_off_c, 12, 65, 0
13, 39001, Note_on_c, 12, 61, 73
13, 39061, Note_on_c, 12, 54, 73
13, 39064, Note_off_c, 12, 61, 0
13, 39155, Note_off_c, 12, 54, 0
13, 39181, Note_on_c, 12, 54, 73
13, 39240, Note_on_c, 12, 66, 75
13, 39245, Note_off_c, 12, 54, 0
13, 39293, Note_off_c, 12, 66, 0
13, 39301, Note_on_c, 12, 61, 71
13, 39350, Note_off_c, 12, 61, 0
13, 39421, Note_on_c, 12, 65, 70
13, 39474, Note_off_c, 12, 65, 0
13, 39541, Note_on_c, 12, 56, 73
13, 39628, Note_off_c, 12, 56, 0
13, 39658, Note_on_c, 12, 56, 73
13, 39713, Note_off_c, 12, 56, 0
13, 39721, Note_on_c, 12, 61, 77
13, 39774, Note_off_c, 12, 61, 0
13, 39781, Note_on_c, 12, 58, 74
13, 39834, Note_off_c, 12, 58, 0
13, 39901, Note_on_c, 12, 65, 77
13, 39954, Note_off_c, 12, 65, 0
13, 39961, Note_on_c, 12, 61, 73
13, 40014, Note_off_c, 12, 61, 0
13, 40022, Note_on_c, 12, 56, 74
13, 40101, Note_off_c, 12, 56, 0
13, 40203, Note_on_c, 12, 61, 74
13, 40256, Note_off_c, 12, 61, 0
13, 40263, Note_on_c, 12, 58, 74
13, 40316, Note_off_c, 12, 58, 0
13, 40323, Note_on_c, 12, 66, 73
13, 40376, Note_off_c, 12, 66, 0
13, 40381, Note_on_c, 12, 65, 74
13, 40434, Note_off_c, 12, 65, 0
13, 40441, Note_on_c, 12, 61, 72
13, 40494, Note_off_c, 12, 61, 0
13, 40503, Note_on_c, 12, 56, 75
13, 40603, Note_off_c, 12, 56, 0
13, 40621, Note_on_c, 12, 63, 72
13, 40674, Note_off_c, 12, 63, 0
13, 40681, Note_on_c, 12, 66, 76
13, 40734, Note_off_c, 12, 66, 0
13, 40741, Note_on_c, 12, 63, 70
13, 40794, Note_off_c, 12, 63, 0
13, 40801, Note_on_c, 12, 66, 68
13, 40856, Note_off_c, 12, 66, 0
13, 40861, Note_on_c, 12, 65, 69
13, 40919, Note_off_c, 12, 65, 0
13, 40921, Note_on_c, 12, 61, 73
13, 40980, Note_off_c, 12, 61, 0
13, 40981, Note_on_c, 12, 56, 74
13, 41099, Note_off_c, 12, 56, 0
13, 41101, Note_on_c, 12, 63, 75
13, 41154, Note_off_c, 12, 63, 0
13, 41161, Note_on_c, 12, 66, 74
13, 41214, Note_off_c, 12, 66, 0
13, 41221, Note_on_c, 12, 63, 70
13, 41274, Note_off_c, 12, 63, 0
13, 41280, Note_on_c, 12, 66, 73
13, 41333, Note_off_c, 12, 66, 0
13, 41338, Note_on_c, 12, 65, 74
13, 41391, Note_off_c, 12, 65, 0
13, 41398, Note_on_c, 12, 59, 72
13, 41451, Note_off_c, 12, 59, 0
13, 41460, Note_on_c, 12, 54, 75
13, 41560, Note_off_c, 12, 54, 0
13, 41578, Note_on_c, 12, 63, 72
13, 41631, Note_off_c, 12, 63, 0
13, 41638, Note_on_c, 12, 66, 76
13, 41691, Note_off_c, 12, 66, 0
13, 41698, Note_on_c, 12, 63, 70
13, 41751, Note_off_c, 12, 63, 0
13, 41758, Note_on_c, 12, 66, 68
13, 41811, Note_off_c, 12, 66, 0
13, 41818, Note_on_c, 12, 65, 69
13, 41871, Note_off_c, 12, 65, 0
13, 41878, Note_on_c, 12, 59, 73
13, 41937, Note_off_c, 12, 59, 0
13, 41938, Note_on_c, 12, 54, 74
13, 42056, Note_off_c, 12, 54, 0
13, 42058, Note_on_c, 12, 63, 75
13, 42116, Note_off_c, 12, 63, 0
13, 48959, Note_on_c, 12, 61, 90
13, 49002, Pitch_bend_c, 12, 8322
13, 49003, Pitch_bend_c, 12, 8452
13, 49005, Pitch_bend_c, 12, 8582
13, 49006, Pitch_bend_c, 12, 8712
13, 49007, Pitch_bend_c, 12, 8842
13, 49008, Pitch_bend_c, 12, 8972
13, 49009, Pitch_bend_c, 12, 9102
13, 49010, Pitch_bend_c, 12, 9362
13, 49012, Pitch_bend_c, 12, 9492
13, 49013, Pitch_bend_c, 12, 9752
13, 49014, Pitch_bend_c, 12, 9882
13, 49015, Pitch_bend_c, 12, 10012
13, 49016, Pitch_bend_c, 12, 10272
13, 49017, Pitch_bend_c, 12, 10402
13, 49018, Pitch_bend_c, 12, 10532
13, 49019, Pitch_bend_c, 12, 10792
13, 49020, Pitch_bend_c, 12, 10922
13, 49021, Pitch_bend_c, 12, 11312
13, 49022, Pitch_bend_c, 12, 11572
13, 49023, Pitch_bend_c, 12, 11702
13, 49024, Pitch_bend_c, 12, 11832
13, 49025, Pitch_bend_c, 12, 11962
13, 49026, Pitch_bend_c, 12, 12222
13, 49028, Pitch_bend_c, 12, 12482
13, 49029, Pitch_bend_c, 12, 12612
13, 49031, Pitch_bend_c, 12, 12872
13, 49032, Pitch_bend_c, 12, 13132
13, 49033, Pitch_bend_c, 12, 13262
13, 49034, Pitch_bend_c, 12, 13652
13, 49035, Pitch_bend_c, 12, 13782
13, 49037, Pitch_bend_c, 12, 14042
13, 49038, Pitch_bend_c, 12, 14302
13, 49039, Pitch_bend_c, 12, 14432
13, 49041, Pitch_bend_c, 12, 14822
13, 49042, Pitch_bend_c, 12, 15082
13, 49043, Pitch_bend_c, 12, 15342
13, 49044, Pitch_bend_c, 12, 15602
13, 49045, Pitch_bend_c, 12, 15732
13, 49046, Pitch_bend_c, 12, 15992
13, 49047, Pitch_bend_c, 12, 16252
13, 49433, Pitch_bend_c, 12, 16252
13, 49434, Pitch_bend_c, 12, 15602
13, 49435, Pitch_bend_c, 12, 13132
13, 49436, Pitch_bend_c, 12, 12352
13, 49437, Pitch_bend_c, 12, 9232
13, 49438, Pitch_bend_c, 12, 8322
13, 49439, Pitch_bend_c, 12, 8192
13, 49441, Note_off_c, 12, 61, 0
13, 50400, Note_on_c, 12, 66, 71
13, 50455, Note_off_c, 12, 66, 0
13, 50460, Note_on_c, 12, 65, 64
13, 50520, Note_on_c, 12, 61, 67
13, 50580, Note_on_c, 12, 54, 70
13, 50654, Note_off_c, 12, 65, 0
13, 50675, Note_off_c, 12, 54, 0
13, 50677, Note_off_c, 12, 61, 0
13, 50700, Note_on_c, 12, 54, 74
13, 50760, Note_on_c, 12, 66, 73
13, 50820, Note_on_c, 12, 61, 74
13, 50871, Note_off_c, 12, 54, 0
13, 50880, Note_on_c, 12, 66, 74
13, 50883, Note_off_c, 12, 61, 0
13, 50887, Note_off_c, 12, 66, 0
13, 50938, Note_off_c, 12, 66, 0
13, 50940, Note_on_c, 12, 65, 72
13, 51000, Note_on_c, 12, 61, 73
13, 51014, Note_off_c, 12, 65, 0
13, 51060, Note_on_c, 12, 54, 73
13, 51063, Note_off_c, 12, 61, 0
13, 51154, Note_off_c, 12, 54, 0
13, 51180, Note_on_c, 12, 54, 73
13, 51239, Note_on_c, 12, 66, 75
13, 51244, Note_off_c, 12, 54, 0
13, 51300, Note_on_c, 12, 61, 71
13, 51349, Note_off_c, 12, 61, 0
13, 51357, Note_off_c, 12, 66, 0
13, 51360, Note_on_c, 12, 66, 69
13, 51420, Note_on_c, 12, 65, 70
13, 51429, Note_off_c, 12, 66, 0
13, 51480, Note_on_c, 12, 61, 69
13, 51496, Note_off_c, 12, 65, 0
13, 51540, Note_on_c, 12, 56, 73
13, 51541, Note_off_c, 12, 61, 0
13, 51627, Note_off_c, 12, 56, 0
13, 51660, Note_on_c, 12, 56, 73
13, 51720, Note_on_c, 12, 61, 77
13, 51735, Note_off_c, 12, 56, 0
13, 51780, Note_on_c, 12, 58, 74
13, 51792, Note_off_c, 12, 61, 0
13, 51833, Note_off_c, 12, 58, 0
13, 51840, Note_on_c, 12, 66, 70
13, 51900, Note_on_c, 12, 65, 77
13, 51912, Note_off_c, 12, 66, 0
13, 51960, Note_on_c, 12, 61, 73
13, 51973, Note_off_c, 12, 65, 0
13, 52020, Note_off_c, 12, 61, 0
13, 52021, Note_on_c, 12, 56, 74
13, 52100, Note_off_c, 12, 56, 0
13, 52141, Note_on_c, 12, 56, 75
13, 52202, Note_on_c, 12, 61, 74
13, 52210, Note_off_c, 12, 56, 0
13, 52262, Note_on_c, 12, 58, 74
13, 52267, Note_off_c, 12, 61, 0
13, 52309, Note_off_c, 12, 58, 0
13, 52322, Note_on_c, 12, 66, 73
13, 52380, Note_on_c, 12, 65, 74
13, 52390, Note_off_c, 12, 66, 0
13, 52440, Note_on_c, 12, 61, 72
13, 52462, Note_off_c, 12, 65, 0
13, 52502, Note_on_c, 12, 56, 75
13, 52515, Note_off_c, 12, 61, 0
13, 52583, Note_off_c, 12, 56, 0
13, 52680, Note_on_c, 12, 66, 76
13, 52746, Note_off_c, 12, 66, 0
13, 52800, Note_on_c, 12, 66, 68
13, 52860, Note_on_c, 12, 65, 69
13, 52866, Note_off_c, 12, 66, 0
13, 52920, Note_on_c, 12, 61, 73
13, 52938, Note_off_c, 12, 65, 0
13, 52979, Note_off_c, 12, 61, 0
13, 52980, Note_on_c, 12, 56, 74
13, 53078, Note_off_c, 12, 56, 0
13, 53100, Note_on_c, 12, 63, 75
13, 53158, Note_off_c, 12, 63, 0
13, 53160, Note_on_c, 12, 66, 74
13, 53220, Note_on_c, 12, 63, 70
13, 53231, Note_off_c, 12, 66, 0
13, 53268, Note_off_c, 12, 63, 0
13, 53281, Note_on_c, 12, 66, 72
13, 53340, Note_on_c, 12, 65, 70
13, 53350, Note_off_c, 12, 66, 0
13, 53400, Note_on_c, 12, 61, 64
13, 53460, Note_off_c, 12, 65, 0
13, 53461, Note_on_c, 12, 54, 71
13, 53469, Note_off_c, 12, 61, 0
13, 53532, Note_off_c, 12, 54, 0
13, 53642, Note_on_c, 12, 61, 73
13, 53702, Note_on_c, 12, 66, 73
13, 53747, Note_off_c, 12, 61, 0
13, 53752, Note_off_c, 12, 66, 0
13, 53760, Note_on_c, 12, 66, 71
13, 53820, Note_on_c, 12, 65, 76
13, 53829, Note_off_c, 12, 66, 0
13, 53880, Note_on_c, 12, 61, 70
13, 53891, Note_off_c, 12, 65, 0
13, 53938, Note_off_c, 12, 61, 0
13, 53940, Note_on_c, 12, 54, 72
13, 54012, Note_off_c, 12, 54, 0
13, 54120, Note_on_c, 12, 61, 73
13, 54180, Note_on_c, 12, 65, 74
13, 54183, Note_off_c, 12, 61, 0
13, 54238, Note_off_c, 12, 65, 0
13, 54239, Note_on_c, 12, 66, 71
13, 54299, Note_on_c, 12, 65, 64
13, 54304, Note_off_c, 12, 66, 0
13, 54359, Note_on_c, 12, 61, 67
13, 54419, Note_on_c, 12, 54, 70
13, 54493, Note_off_c, 12, 65, 0
13, 54514, Note_off_c, 12, 54, 0
13, 54516, Note_off_c, 12, 61, 0
13, 54539, Note_on_c, 12, 54, 74
13, 54599, Note_on_c, 12, 66, 73
13, 54659, Note_on_c, 12, 61, 74
13, 54710, Note_off_c, 12, 54, 0
13, 54722, Note_off_c, 12, 61, 0
13, 54777, Note_off_c, 12, 66, 0
13, 54779, Note_on_c, 12, 65, 72
13, 54839, Note_on_c, 12, 61, 73
13, 54853, Note_off_c, 12, 65, 0
13, 54899, Note_on_c, 12, 54, 73
13, 54902, Note_off_c, 12, 61, 0
13, 54993, Note_off_c, 12, 54, 0
13, 55019, Note_on_c, 12, 54, 73
13, 55078, Note_on_c, 12, 66, 75
13, 55083, Note_off_c, 12, 54, 0
13, 55139, Note_on_c, 12, 61, 71
13, 55188, Note_off_c, 12, 61, 0
13, 55196, Note_off_c, 12, 66, 0
13, 55199, Note_on_c, 12, 66, 69
13, 55259, Note_on_c, 12, 65, 70
13, 55268, Note_off_c, 12, 66, 0
13, 55317, Note_on_c, 12, 61, 69
13, 55335, Note_off_c, 12, 65, 0
13, 55376, Note_off_c, 12, 61, 0
13, 55379, Note_on_c, 12, 56, 73
13, 55466, Note_off_c, 12, 56, 0
13, 55499, Note_on_c, 12, 56, 73
13, 55559, Note_on_c, 12, 61, 77
13, 55574, Note_off_c, 12, 56, 0
13, 55619, Note_on_c, 12, 58, 74
13, 55631, Note_off_c, 12, 61, 0
13, 55672, Note_off_c, 12, 58, 0
13, 55679, Note_on_c, 12, 66, 70
13, 55739, Note_on_c, 12, 65, 77
13, 55751, Note_off_c, 12, 66, 0
13, 55799, Note_on_c, 12, 61, 73
13, 55812, Note_off_c, 12, 65, 0
13, 55859, Note_off_c, 12, 61, 0
13, 55860, Note_on_c, 12, 56, 74
13, 55939, Note_off_c, 12, 56, 0
13, 55981, Note_on_c, 12, 56, 75
13, 56041, Note_on_c, 12, 61, 74
13, 56049, Note_off_c, 12, 56, 0
13, 56101, Note_on_c, 12, 58, 74
13, 56106, Note_off_c, 12, 61, 0
13, 56148, Note_off_c, 12, 58, 0
13, 56161, Note_on_c, 12, 66, 73
13, 56219, Note_on_c, 12, 65, 74
13, 56229, Note_off_c, 12, 66, 0
13, 56279, Note_on_c, 12, 61, 72
13, 56301, Note_off_c, 12, 65, 0
13, 56341, Note_on_c, 12, 56, 75
13, 56354, Note_off_c, 12, 61, 0
13, 56422, Note_off_c, 12, 56, 0
13, 56459, Note_on_c, 12, 63, 72
13, 56519, Note_on_c, 12, 66, 76
13, 56524, Note_off_c, 12, 63, 0
13, 56579, Note_on_c, 12, 63, 70
13, 56585, Note_off_c, 12, 66, 0
13, 56637, Note_off_c, 12, 63, 0
13, 56639, Note_on_c, 12, 66, 68
13, 56699, Note_on_c, 12, 65, 69
13, 56705, Note_off_c, 12, 66, 0
13, 56759, Note_on_c, 12, 61, 73
13, 56777, Note_off_c, 12, 65, 0
13, 56818, Note_off_c, 12, 61, 0
13, 56819, Note_on_c, 12, 56, 74
13, 56917, Note_off_c, 12, 56, 0
13, 56939, Note_on_c, 12, 63, 75
13, 56997, Note_off_c, 12, 63, 0
13, 56999, Note_on_c, 12, 66, 74
13, 57059, Note_on_c, 12, 63, 70
13, 57070, Note_off_c, 12, 66, 0
13, 57107, Note_off_c, 12, 63, 0
13, 57120, Note_on_c, 12, 66, 72
13, 57179, Note_on_c, 12, 65, 70
13, 57189, Note_off_c, 12, 66, 0
13, 57239, Note_on_c, 12, 61, 64
13, 57299, Note_off_c, 12, 65, 0
13, 57300, Note_on_c, 12, 54, 71
13, 57308, Note_off_c, 12, 61, 0
13, 57371, Note_off_c, 12, 54, 0
13, 57481, Note_on_c, 12, 61, 73
13, 57541, Note_on_c, 12, 66, 73
13, 57586, Note_off_c, 12, 61, 0
13, 57591, Note_off_c, 12, 66, 0
13, 57599, Note_on_c, 12, 66, 71
13, 57659, Note_on_c, 12, 65, 76
13, 57668, Note_off_c, 12, 66, 0
13, 57719, Note_on_c, 12, 61, 70
13, 57730, Note_off_c, 12, 65, 0
13, 57777, Note_off_c, 12, 61, 0
13, 57779, Note_on_c, 12, 54, 72
13, 57851, Note_off_c, 12, 54, 0
13, 57959, Note_on_c, 12, 61, 73
13, 58019, Note_on_c, 12, 65, 74
13, 58022, Note_off_c, 12, 61, 0
13, 58077, Note_off_c, 12, 65, 0
13, 58078, Note_on_c, 12, 61, 76
13, 60630, Note_off_c, 12, 61, 0
13, 60942, End_track
14, 0, Start_track
14, 0, MIDI_port, 0
14, 0, Title_t, "Strings"
14, 60942, End_track
15, 0, Start_track
15, 0, MIDI_port, 0
15, 0, Title_t, "Drums"
15, 60942, End_track
0, 0, End_of_file