0, 0, Header, 1, 15, 120
1, 0, Start_track
1, 0, Time_signature, 4, 2, 24, 8
1, 0, Tempo, 461538
1, 0, MIDI_port, 0
1, 0, System_exclusive, 0A, 41, 10, 42, 12, 40, 00, 7F, 00, 41, F7
1, 0, MIDI_port, 0
1, 0, System_exclusive, 49, 41, 10, 45, 12, 10, 01, 00, 05, 0A, 0A, 0A, 0A, 0A, 0A, 00, 00, 04, 04, 04, 07, 04, 04, 04, 00, 14, 10, 14, 15, 15, 14, 00, 00, 10, 15, 11, 15, 15, 15, 14, 00, 0A, 08, 1A, 0A, 0A, 12, 00, 00, 00, 02, 14, 04, 02, 02, 14, 00, 00, 00, 00, 00, 00, 00, 00, 00, 00, 00, 00, 00, 00, 00, 00, 0C, F7
1, 0, MIDI_port, 0
1, 0, System_exclusive, 20, 41, 10, 45, 12, 10, 00, 00, 43, 6F, 70, 79, 72, 69, 67, 68, 74, 20, 7B, 70, 7D, 20, 4D, 49, 44, 49, 20, 48, 49, 54, 53, 14, F7
1, 0, MIDI_port, 0
1, 0, Key_signature, 6, "major"
1, 0, Marker_t, "Copyright (p) Midi Hits"
1, 2400, Marker_t, "Verse 1"
1, 14160, Marker_t, "Chorus"
1, 18840, Marker_t, "Verse 2"
1, 30480, Marker_t, "Chorus"
1, 41880, Marker_t, "Bridge"
1, 46080, Marker_t, "Chorus"
1, 60942, End_track
2, 0, Start_track
2, 0, MIDI_port, 0
2, 0, Title_t, "Vocal"
2, 0, Program_c, 3, 65
2, 0, Control_c, 3, 7, 127
2, 0, Control_c, 3, 10, 64
2, 0, Control_c, 3, 11, 127
2, 0, Control_c, 3, 91, 60
2, 0, Control_c, 3, 93, 30
2, 0, Control_c, 3, 94, 20
2, 2879, Lyric_t, "You're "
2, 2879, Note_on_c, 3, 61, 120
2, 2983, Note_off_c, 3, 61, 0
2, 2999, Lyric_t, "on "
2, 2999, Note_on_c, 3, 58, 119
2, 3030, Note_off_c, 3, 58, 0
2, 3059, Lyric_t, "the "
2, 3059, Note_on_c, 3, 58, 98
2, 3108, Note_off_c, 3, 58, 0
2, 3121, Lyric_t, "phone "
2, 3121, Note_on_c, 3, 56, 119
2, 3233, Note_off_c, 3, 56, 0
2, 3239, Lyric_t, "with "
2, 3239, Note_on_c, 3, 54, 120
2, 3278, Note_off_c, 3, 54, 0
2, 3300, Lyric_t, "your "
2, 3300, Note_on_c, 3, 54, 104
2, 3343, Note_off_c, 3, 54, 0
2, 3359, Lyric_t, "girl"
2, 3359, Note_on_c, 3, 61, 119
2, 3456, Note_off_c, 3, 61, 0
2, 3481, Lyric_t, "friend "
2, 3481, Lyric_t, "\015"
2, 3481, Note_on_c, 3, 58, 119
2, 3562, Note_off_c, 3, 58, 0
2, 3600, Lyric_t, "She's "
2, 3600, Note_on_c, 3, 56, 119
2, 3649, Note_off_c, 3, 56, 0
2, 3661, Lyric_t, "up"
2, 3661, Note_on_c, 3, 58, 109
2, 3759, Note_off_c, 3, 58, 0
2, 3779, Lyric_t, "set. "
2, 3779, Lyric_t, "\015"
2, 3779, Note_on_c, 3, 56, 113
2, 3891, Note_off_c, 3, 56, 0
2, 3899, Lyric_t, "She's "
2, 3899, Note_on_c, 3, 56, 119
2, 3948, Note_off_c, 3, 56, 0
2, 3959, Lyric_t, "go"
2, 3959, Note_on_c, 3, 61, 119
2, 4006, Note_off_c, 3, 61, 0
2, 4019, Lyric_t, "ing "
2, 4019, Note_on_c, 3, 61, 115
2, 4067, Note_off_c, 3, 61, 0
2, 4080, Lyric_t, "off "
2, 4080, Note_on_c, 3, 58, 115
2, 4115, Note_off_c, 3, 58, 0
2, 4139, Lyric_t, "a"
2, 4139, Note_on_c, 3, 58, 106
2, 4185, Note_off_c, 3, 58, 0
2, 4200, Lyric_t, "bout "
2, 4200, Note_on_c, 3, 56, 119
2, 4290, Note_off_c, 3, 56, 0
2, 4321, Lyric_t, "some"
2, 4321, Note_on_c, 3, 61, 119
2, 4368, Note_off_c, 3, 61, 0
2, 4381, Lyric_t, "thing "
2, 4381, Note_on_c, 3, 58, 119
2, 4476, Note_off_c, 3, 58, 0
2, 4501, Lyric_t, "that "
2, 4501, Note_on_c, 3, 56, 118
2, 4586, Note_off_c, 3, 56, 0
2, 4620, Lyric_t, "you "
2, 4620, Note_on_c, 3, 58, 117
2, 4711, Note_off_c, 3, 58, 0
2, 4739, Lyric_t, "said "
2, 4739, Lyric_t, "\015"
2, 4739, Note_on_c, 3, 56, 117
2, 4850, Note_off_c, 3, 56, 0
2, 4859, Lyric_t, "'Cuz "
2, 4859, Note_on_c, 3, 56, 109
2, 4906, Note_off_c, 3, 56, 0
2, 4919, Lyric_t, "she "
2, 4919, Note_on_c, 3, 59, 119
2, 5026, Note_off_c, 3, 59, 0
2, 5039, Lyric_t, "do"
2, 5039, Note_on_c, 3, 58, 118
2, 5088, Note_off_c, 3, 58, 0
2, 5099, Lyric_t, "sent "
2, 5099, Note_on_c, 3, 54, 118
2, 5182, Note_off_c, 3, 54, 0
2, 5279, Lyric_t, "get "
2, 5279, Note_on_c, 3, 56, 118
2, 5322, Note_off_c, 3, 56, 0
2, 5339, Lyric_t, "your "
2, 5339, Note_on_c, 3, 58, 119
2, 5436, Note_off_c, 3, 58, 0
2, 5461, Lyric_t, "hu"
2, 5461, Note_on_c, 3, 58, 115
2, 5564, Note_off_c, 3, 58, 0
2, 5579, Lyric_t, "mor "
2, 5579, Note_on_c, 3, 56, 117
2, 5629, Note_off_c, 3, 56, 0
2, 5639, Lyric_t, "like "
2, 5639, Note_on_c, 3, 54, 119
2, 5731, Note_off_c, 3, 54, 0
2, 5759, Lyric_t, "I "
2, 5759, Note_on_c, 3, 56, 119
2, 5979, Note_off_c, 3, 56, 0
2, 5999, Lyric_t, "do... "
2, 5999, Lyric_t, "\015"
2, 5999, Note_on_c, 3, 58, 117
2, 6201, Note_off_c, 3, 58, 0
2, 6719, Lyric_t, "I'm "
2, 6719, Note_on_c, 3, 61, 117
2, 6826, Note_off_c, 3, 61, 0
2, 6839, Lyric_t, "in "
2, 6839, Note_on_c, 3, 58, 118
2, 6874, Note_off_c, 3, 58, 0
2, 6899, Lyric_t, "the "
2, 6899, Note_on_c, 3, 58, 96
2, 6950, Note_off_c, 3, 58, 0
2, 6959, Lyric_t, "room "
2, 6959, Lyric_t, "\015"
2, 6959, Note_on_c, 3, 56, 118
2, 7053, Note_off_c, 3, 56, 0
2, 7081, Lyric_t, "It's "
2, 7081, Note_on_c, 3, 54, 118
2, 7123, Note_off_c, 3, 54, 0
2, 7139, Lyric_t, "a "
2, 7139, Note_on_c, 3, 54, 118
2, 7185, Note_off_c, 3, 54, 0
2, 7199, Lyric_t, "typ"
2, 7199, Note_on_c, 3, 61, 115
2, 7247, Note_off_c, 3, 61, 0
2, 7259, Lyric_t, "i"
2, 7259, Note_on_c, 3, 61, 115
2, 7305, Note_off_c, 3, 61, 0
2, 7319, Lyric_t, "cal "
2, 7319, Note_on_c, 3, 58, 114
2, 7412, Note_off_c, 3, 58, 0
2, 7439, Lyric_t, "Tues"
2, 7439, Note_on_c, 3, 56, 109
2, 7485, Note_off_c, 3, 56, 0
2, 7501, Lyric_t, "day "
2, 7501, Note_on_c, 3, 58, 106
2, 7606, Note_off_c, 3, 58, 0
2, 7621, Lyric_t, "night "
2, 7621, Lyric_t, "\015"
2, 7621, Note_on_c, 3, 56, 114
2, 7724, Note_off_c, 3, 56, 0
2, 7739, Lyric_t, "I'm "
2, 7739, Note_on_c, 3, 56, 113
2, 7786, Note_off_c, 3, 56, 0
2, 7799, Lyric_t, "lis"
2, 7799, Note_on_c, 3, 61, 119
2, 7831, Note_off_c, 3, 61, 0
2, 7859, Lyric_t, "tening "
2, 7859, Note_on_c, 3, 61, 101
2, 7905, Note_off_c, 3, 61, 0
2, 7919, Lyric_t, "to "
2, 7919, Note_on_c, 3, 58, 117
2, 7955, Note_off_c, 3, 58, 0
2, 7979, Lyric_t, "the "
2, 7979, Note_on_c, 3, 58, 117
2, 8026, Note_off_c, 3, 58, 0
2, 8039, Lyric_t, "kind "
2, 8039, Note_on_c, 3, 56, 115
2, 8081, Note_off_c, 3, 56, 0
2, 8099, Lyric_t, "of "
2, 8099, Note_on_c, 3, 56, 115
2, 8146, Note_off_c, 3, 56, 0
2, 8159, Lyric_t, "mu"
2, 8159, Note_on_c, 3, 61, 118
2, 8192, Note_off_c, 3, 61, 0
2, 8219, Lyric_t, "sic "
2, 8219, Note_on_c, 3, 61, 106
2, 8260, Note_off_c, 3, 61, 0
2, 8279, Lyric_t, "she "
2, 8279, Note_on_c, 3, 58, 118
2, 8386, Note_off_c, 3, 58, 0
2, 8399, Lyric_t, "do"
2, 8399, Note_on_c, 3, 56, 115
2, 8454, Note_off_c, 3, 56, 0
2, 8459, Lyric_t, "sen't "
2, 8459, Note_on_c, 3, 58, 115
2, 8569, Note_off_c, 3, 58, 0
2, 8579, Lyric_t, "like "
2, 8579, Lyric_t, "\015"
2, 8579, Note_on_c, 3, 56, 115
2, 8675, Note_off_c, 3, 56, 0
2, 8699, Lyric_t, "And "
2, 8699, Note_on_c, 3, 54, 113
2, 8741, Note_off_c, 3, 54, 0
2, 8759, Lyric_t, "she'll "
2, 8759, Note_on_c, 3, 59, 115
2, 8864, Note_off_c, 3, 59, 0
2, 8879, Lyric_t, "nev"
2, 8879, Note_on_c, 3, 58, 113
2, 8937, Note_off_c, 3, 58, 0
2, 8939, Lyric_t, "er "
2, 8939, Note_on_c, 3, 54, 113
2, 9043, Note_off_c, 3, 54, 0
2, 9119, Lyric_t, "know "
2, 9119, Note_on_c, 3, 56, 117
2, 9174, Note_off_c, 3, 56, 0
2, 9181, Lyric_t, "your "
2, 9181, Note_on_c, 3, 58, 115
2, 9274, Note_off_c, 3, 58, 0
2, 9301, Lyric_t, "sto"
2, 9301, Note_on_c, 3, 58, 117
2, 9400, Note_off_c, 3, 58, 0
2, 9419, Lyric_t, "ry "
2, 9419, Note_on_c, 3, 56, 106
2, 9473, Note_off_c, 3, 56, 0
2, 9479, Lyric_t, "like "
2, 9479, Note_on_c, 3, 54, 115
2, 9572, Note_off_c, 3, 54, 0
2, 9599, Lyric_t, "I "
2, 9599, Note_on_c, 3, 56, 117
2, 9824, Note_off_c, 3, 56, 0
2, 9839, Lyric_t, "do' "
2, 9839, Lyric_t, "\015"
2, 9839, Lyric_t, "\012"
2, 9839, Note_on_c, 3, 58, 115
2, 10107, Note_off_c, 3, 58, 0
2, 10499, Lyric_t, "But "
2, 10499, Note_on_c, 3, 61, 115
2, 10554, Note_off_c, 3, 61, 0
2, 10559, Lyric_t, "she "
2, 10559, Note_on_c, 3, 63, 115
2, 10668, Note_off_c, 3, 63, 0
2, 10679, Lyric_t, "wears "
2, 10679, Note_on_c, 3, 66, 117
2, 10781, Note_off_c, 3, 66, 0
2, 10799, Lyric_t, "short "
2, 10799, Note_on_c, 3, 68, 117
2, 10899, Note_off_c, 3, 68, 0
2, 10919, Lyric_t, "skirts "
2, 10919, Lyric_t, "\015"
2, 10919, Note_on_c, 3, 66, 113
2, 11010, Note_off_c, 3, 66, 0
2, 11039, Lyric_t, "I "
2, 11039, Note_on_c, 3, 63, 115
2, 11142, Note_off_c, 3, 63, 0
2, 11159, Lyric_t, "wear "
2, 11159, Note_on_c, 3, 66, 113
2, 11260, Note_off_c, 3, 66, 0
2, 11279, Lyric_t, "T"
2, 11279, Note_on_c, 3, 68, 103
2, 11381, Note_off_c, 3, 68, 0
2, 11399, Lyric_t, "shirts "
2, 11399, Lyric_t, "\015"
2, 11399, Note_on_c, 3, 66, 119
2, 11490, Note_off_c, 3, 66, 0
2, 11519, Lyric_t, "She's "
2, 11519, Note_on_c, 3, 61, 118
2, 11632, Note_off_c, 3, 61, 0
2, 11639, Lyric_t, "cheer "
2, 11639, Note_on_c, 3, 66, 117
2, 11739, Note_off_c, 3, 66, 0
2, 11759, Lyric_t, "cap"
2, 11759, Note_on_c, 3, 66, 115
2, 11809, Note_off_c, 3, 66, 0
2, 11819, Lyric_t, "tain "
2, 11819, Lyric_t, "\015"
2, 11819, Note_on_c, 3, 68, 114
2, 11862, Note_off_c, 3, 68, 0
2, 11881, Lyric_t, "And "
2, 11881, Note_on_c, 3, 66, 109
2, 11977, Note_off_c, 3, 66, 0
2, 11999, Lyric_t, "I'm "
2, 11999, Note_on_c, 3, 68, 115
2, 12095, Note_off_c, 3, 68, 0
2, 12119, Lyric_t, "in "
2, 12119, Note_on_c, 3, 68, 115
2, 12173, Note_off_c, 3, 68, 0
2, 12179, Lyric_t, "the "
2, 12179, Note_on_c, 3, 70, 118
2, 12232, Note_off_c, 3, 70, 0
2, 12239, Lyric_t, "bleach"
2, 12239, Note_on_c, 3, 68, 115
2, 12341, Note_off_c, 3, 68, 0
2, 12359, Lyric_t, "ers "
2, 12359, Lyric_t, "\015"
2, 12359, Note_on_c, 3, 66, 113
2, 12466, Note_off_c, 3, 66, 0
2, 12479, Lyric_t, "Dream"
2, 12479, Note_on_c, 3, 63, 117
2, 12528, Note_off_c, 3, 63, 0
2, 12539, Lyric_t, "ing "
2, 12539, Note_on_c, 3, 66, 115
2, 12564, Note_off_c, 3, 66, 0
2, 12571, Lyric_t, "a"
2, 12571, Note_on_c, 3, 66, 115
2, 12596, Note_off_c, 3, 66, 0
2, 12599, Lyric_t, "bout "
2, 12599, Note_on_c, 3, 66, 115
2, 12650, Note_off_c, 3, 66, 0
2, 12659, Lyric_t, "the "
2, 12659, Note_on_c, 3, 63, 115
2, 12712, Note_off_c, 3, 63, 0
2, 12719, Lyric_t, "day "
2, 12719, Note_on_c, 3, 68, 113
2, 12804, Note_off_c, 3, 68, 0
2, 12839, Lyric_t, "when "
2, 12839, Note_on_c, 3, 61, 115
2, 12890, Note_off_c, 3, 61, 0
2, 12899, Lyric_t, "you "
2, 12899, Note_on_c, 3, 61, 114
2, 12951, Note_off_c, 3, 61, 0
2, 12959, Lyric_t, "wake "
2, 12959, Note_on_c, 3, 63, 122
2, 13012, Note_off_c, 3, 63, 0
2, 13019, Lyric_t, "up "
2, 13019, Lyric_t, "\015"
2, 13019, Note_on_c, 3, 66, 119
2, 13069, Note_off_c, 3, 66, 0
2, 13079, Lyric_t, "And "
2, 13079, Note_on_c, 3, 63, 117
2, 13134, Note_off_c, 3, 63, 0
2, 13139, Lyric_t, "find "
2, 13139, Note_on_c, 3, 66, 115
2, 13234, Note_off_c, 3, 66, 0
2, 13261, Lyric_t, "what "
2, 13261, Note_on_c, 3, 63, 118
2, 13304, Note_off_c, 3, 63, 0
2, 13319, Lyric_t, "you"
2, 13319, Note_on_c, 3, 66, 117
2, 13363, Note_off_c, 3, 66, 0
2, 13381, Lyric_t, "'re "
2, 13381, Note_on_c, 3, 63, 117
2, 13421, Note_off_c, 3, 63, 0
2, 13499, Lyric_t, "look"
2, 13499, Note_on_c, 3, 70, 114
2, 13549, Note_off_c, 3, 70, 0
2, 13559, Lyric_t, "ing "
2, 13559, Note_on_c, 3, 68, 114
2, 13603, Note_off_c, 3, 68, 0
2, 13619, Lyric_t, "for "
2, 13619, Note_on_c, 3, 68, 114
2, 13709, Note_off_c, 3, 68, 0
2, 13739, Lyric_t, "has "
2, 13739, Note_on_c, 3, 66, 117
2, 13771, Note_off_c, 3, 66, 0
2, 13799, Lyric_t, "been "
2, 13799, Note_on_c, 3, 66, 103
2, 13843, Note_off_c, 3, 66, 0
2, 13859, Lyric_t, "he"
2, 13859, Note_on_c, 3, 70, 117
2, 13910, Note_off_c, 3, 70, 0
2, 13919, Lyric_t, "re "
2, 13919, Note_on_c, 3, 68, 119
2, 13958, Note_off_c, 3, 68, 0
2, 13979, Lyric_t, "the "
2, 13979, Note_on_c, 3, 66, 115
2, 14010, Note_off_c, 3, 66, 0
2, 14039, Lyric_t, "whole "
2, 14039, Note_on_c, 3, 66, 115
2, 14122, Note_off_c, 3, 66, 0
2, 14159, Lyric_t, "time "
2, 14159, Lyric_t, "\015"
2, 14159, Lyric_t, "\012"
2, 14159, Note_on_c, 3, 68, 117
2, 14210, Note_off_c, 3, 68, 0
2, 14219, Lyric_t, "If "
2, 14219, Note_on_c, 3, 66, 119
2, 14265, Note_off_c, 3, 66, 0
2, 14279, Lyric_t, "you "
2, 14279, Note_on_c, 3, 66, 117
2, 14330, Note_off_c, 3, 66, 0
2, 14339, Lyric_t, "could "
2, 14339, Note_on_c, 3, 68, 114
2, 14389, Note_off_c, 3, 68, 0
2, 14401, Lyric_t, "see "
2, 14401, Note_on_c, 3, 70, 115
2, 14500, Note_off_c, 3, 70, 0
2, 14519, Lyric_t, "that "
2, 14519, Note_on_c, 3, 68, 106
2, 14572, Note_off_c, 3, 68, 0
2, 14580, Lyric_t, "I'm "
2, 14580, Note_on_c, 3, 70, 113
2, 14734, Note_off_c, 3, 70, 0
2, 14759, Lyric_t, "the "
2, 14759, Note_on_c, 3, 68, 109
2, 14807, Note_off_c, 3, 68, 0
2, 14821, Lyric_t, "one "
2, 14821, Note_on_c, 3, 70, 117
2, 14926, Note_off_c, 3, 70, 0
2, 14941, Lyric_t, "who "
2, 14941, Note_on_c, 3, 68, 109
2, 14984, Note_off_c, 3, 68, 0
2, 15001, Lyric_t, "un"
2, 15001, Note_on_c, 3, 70, 115
2, 15036, Note_off_c, 3, 70, 0
2, 15059, Lyric_t, "der"
2, 15059, Note_on_c, 3, 70, 118
2, 15117, Note_off_c, 3, 70, 0
2, 15119, Lyric_t, "stands "
2, 15119, Note_on_c, 3, 68, 119
2, 15235, Note_off_c, 3, 68, 0
2, 15239, Lyric_t, "you "
2, 15239, Lyric_t, "\015"
2, 15239, Note_on_c, 3, 66, 117
2, 15337, Note_off_c, 3, 66, 0
2, 15359, Lyric_t, "Been "
2, 15359, Note_on_c, 3, 70, 115
2, 15463, Note_off_c, 3, 70, 0
2, 15481, Lyric_t, "here "
2, 15481, Note_on_c, 3, 68, 118
2, 15529, Note_off_c, 3, 68, 0
2, 15541, Lyric_t, "all "
2, 15541, Note_on_c, 3, 70, 117
2, 15677, Note_off_c, 3, 70, 0
2, 15718, Lyric_t, "a"
2, 15718, Note_on_c, 3, 68, 118
2, 15769, Note_off_c, 3, 68, 0
2, 15779, Lyric_t, "long "
2, 15779, Note_on_c, 3, 70, 115
2, 15876, Note_off_c, 3, 70, 0
2, 15900, Lyric_t, "so "
2, 15900, Note_on_c, 3, 68, 115
2, 15947, Note_off_c, 3, 68, 0
2, 15961, Lyric_t, "why "
2, 15961, Note_on_c, 3, 70, 115
2, 16058, Note_off_c, 3, 70, 0
2, 16080, Lyric_t, "can't "
2, 16080, Note_on_c, 3, 68, 115
2, 16184, Note_off_c, 3, 68, 0
2, 16199, Lyric_t, "you "
2, 16199, Note_on_c, 3, 66, 115
2, 16299, Note_off_c, 3, 66, 0
2, 16319, Lyric_t, "see, "
2, 16319, Note_on_c, 3, 71, 117
2, 16487, Note_off_c, 3, 71, 0
2, 16501, Lyric_t, "yo"
2, 16501, Note_on_c, 3, 70, 118
2, 16598, Note_off_c, 3, 70, 0
2, 16679, Lyric_t, "u "
2, 16679, Lyric_t, "\015"
2, 16679, Note_on_c, 3, 63, 114
2, 16883, Note_off_c, 3, 63, 0
2, 16919, Lyric_t, "You "
2, 16919, Note_on_c, 3, 66, 114
2, 16954, Note_off_c, 3, 66, 0
2, 16979, Lyric_t, "be"
2, 16979, Note_on_c, 3, 66, 117
2, 17012, Note_off_c, 3, 66, 0
2, 17039, Lyric_t, "lo"
2, 17039, Note_on_c, 3, 66, 115
2, 17090, Note_off_c, 3, 66, 0
2, 17099, Lyric_t, "ng "
2, 17099, Note_on_c, 3, 63, 115
2, 17152, Note_off_c, 3, 63, 0
2, 17159, Lyric_t, "with "
2, 17159, Note_on_c, 3, 61, 115
2, 17260, Note_off_c, 3, 61, 0
2, 17279, Lyric_t, "m"
2, 17279, Note_on_c, 3, 71, 118
2, 17448, Note_off_c, 3, 71, 0
2, 17459, Note_on_c, 3, 70, 114
2, 17610, Note_off_c, 3, 70, 0
2, 17639, Lyric_t, "e "
2, 17639, Lyric_t, "\015"
2, 17639, Note_on_c, 3, 59, 115
2, 17856, Note_off_c, 3, 59, 0
2, 17879, Lyric_t, "You "
2, 17879, Note_on_c, 3, 59, 117
2, 17910, Note_off_c, 3, 59, 0
2, 17939, Lyric_t, "be"
2, 17939, Note_on_c, 3, 59, 117
2, 17971, Note_off_c, 3, 59, 0
2, 17999, Lyric_t, "long "
2, 17999, Note_on_c, 3, 59, 117
2, 18108, Note_off_c, 3, 59, 0
2, 18119, Lyric_t, "with "
2, 18119, Note_on_c, 3, 58, 117
2, 18158, Note_off_c, 3, 58, 0
2, 18179, Lyric_t, "me "
2, 18179, Lyric_t, "\015"
2, 18179, Lyric_t, "\012"
2, 18179, Note_on_c, 3, 58, 117
2, 18392, Note_off_c, 3, 58, 0
2, 19199, Lyric_t, "Walk"
2, 19199, Note_on_c, 3, 61, 118
2, 19298, Note_off_c, 3, 61, 0
2, 19319, Lyric_t, "in' "
2, 19319, Note_on_c, 3, 58, 115
2, 19351, Note_off_c, 3, 58, 0
2, 19379, Lyric_t, "the "
2, 19379, Note_on_c, 3, 58, 113
2, 19428, Note_off_c, 3, 58, 0
2, 19439, Lyric_t, "streets "
2, 19439, Note_on_c, 3, 56, 118
2, 19551, Note_off_c, 3, 56, 0
2, 19561, Lyric_t, "with "
2, 19561, Note_on_c, 3, 54, 113
2, 19610, Note_off_c, 3, 54, 0
2, 19621, Lyric_t, "you "
2, 19621, Note_on_c, 3, 61, 118
2, 19711, Note_off_c, 3, 61, 0
2, 19739, Lyric_t, "and "
2, 19739, Note_on_c, 3, 61, 115
2, 19787, Note_off_c, 3, 61, 0
2, 19799, Lyric_t, "yo"
2, 19799, Note_on_c, 3, 58, 114
2, 19831, Note_off_c, 3, 58, 0
2, 19859, Lyric_t, "ur "
2, 19859, Note_on_c, 3, 58, 118
2, 19906, Note_off_c, 3, 58, 0
2, 19919, Lyric_t, "worn"
2, 19919, Note_on_c, 3, 56, 118
2, 19970, Note_off_c, 3, 56, 0
2, 19979, Lyric_t, "out "
2, 19979, Note_on_c, 3, 58, 114
2, 20086, Note_off_c, 3, 58, 0
2, 20099, Lyric_t, "jeans "
2, 20099, Lyric_t, "\015"
2, 20099, Note_on_c, 3, 56, 115
2, 20213, Note_off_c, 3, 56, 0
2, 20219, Lyric_t, "I "
2, 20219, Note_on_c, 3, 56, 113
2, 20266, Note_off_c, 3, 56, 0
2, 20279, Lyric_t, "can't "
2, 20279, Note_on_c, 3, 61, 112
2, 20313, Note_off_c, 3, 61, 0
2, 20339, Lyric_t, "help "
2, 20339, Note_on_c, 3, 61, 109
2, 20383, Note_off_c, 3, 61, 0
2, 20399, Lyric_t, "think"
2, 20399, Note_on_c, 3, 58, 115
2, 20427, Note_off_c, 3, 58, 0
2, 20459, Lyric_t, "ing "
2, 20459, Note_on_c, 3, 58, 114
2, 20506, Note_off_c, 3, 58, 0
2, 20519, Lyric_t, "this "
2, 20519, Note_on_c, 3, 56, 117
2, 20555, Note_off_c, 3, 56, 0
2, 20579, Lyric_t, "is "
2, 20579, Note_on_c, 3, 56, 115
2, 20619, Note_off_c, 3, 56, 0
2, 20639, Lyric_t, "how "
2, 20639, Note_on_c, 3, 61, 117
2, 20691, Note_off_c, 3, 61, 0
2, 20699, Lyric_t, "it "
2, 20699, Note_on_c, 3, 58, 115
2, 20764, Note_off_c, 3, 58, 0
2, 20819, Lyric_t, "ought "
2, 20819, Note_on_c, 3, 56, 119
2, 20903, Note_off_c, 3, 56, 0
2, 20939, Lyric_t, "to "
2, 20939, Note_on_c, 3, 58, 114
2, 21032, Note_off_c, 3, 58, 0
2, 21059, Lyric_t, "be "
2, 21059, Lyric_t, "\015"
2, 21059, Note_on_c, 3, 56, 114
2, 21221, Note_off_c, 3, 56, 0
2, 21239, Lyric_t, "Laugh"
2, 21239, Note_on_c, 3, 59, 117
2, 21290, Note_off_c, 3, 59, 0
2, 21299, Lyric_t, "ing "
2, 21299, Note_on_c, 3, 58, 115
2, 21350, Note_off_c, 3, 58, 0
2, 21359, Lyric_t, "on "
2, 21359, Note_on_c, 3, 59, 117
2, 21407, Note_off_c, 3, 59, 0
2, 21419, Lyric_t, "a "
2, 21419, Note_on_c, 3, 58, 122
2, 21459, Note_off_c, 3, 58, 0
2, 21479, Lyric_t, "pa"
2, 21479, Note_on_c, 3, 59, 119
2, 21530, Note_off_c, 3, 59, 0
2, 21539, Lyric_t, "rk "
2, 21539, Note_on_c, 3, 58, 117
2, 21591, Note_off_c, 3, 58, 0
2, 21601, Lyric_t, "bench, "
2, 21601, Note_on_c, 3, 59, 115
2, 21664, Note_off_c, 3, 59, 0
2, 21720, Lyric_t, "think"
2, 21720, Note_on_c, 3, 59, 115
2, 21768, Note_off_c, 3, 59, 0
2, 21779, Lyric_t, "ing "
2, 21779, Note_on_c, 3, 61, 114
2, 21818, Note_off_c, 3, 61, 0
2, 21839, Lyric_t, "to "
2, 21839, Note_on_c, 3, 63, 114
2, 21887, Note_off_c, 3, 63, 0
2, 21899, Lyric_t, "my"
2, 21899, Note_on_c, 3, 66, 114
2, 21983, Note_off_c, 3, 66, 0
2, 22019, Lyric_t, "self "
2, 22019, Lyric_t, "\015"
2, 22019, Note_on_c, 3, 68, 117
2, 22140, Note_off_c, 3, 68, 0
2, 22259, Lyric_t, "Hey "
2, 22259, Note_on_c, 3, 66, 115
2, 22293, Note_off_c, 3, 66, 0
2, 22319, Lyric_t, "is"
2, 22319, Note_on_c, 3, 66, 115
2, 22372, Note_off_c, 3, 66, 0
2, 22379, Lyric_t, "n't "
2, 22379, Note_on_c, 3, 68, 104
2, 22431, Note_off_c, 3, 68, 0
2, 22439, Lyric_t, "this "
2, 22439, Note_on_c, 3, 66, 115
2, 22547, Note_off_c, 3, 66, 0
2, 22559, Lyric_t, "e"
2, 22559, Note_on_c, 3, 71, 118
2, 22673, Note_off_c, 3, 71, 0
2, 22679, Lyric_t, "a"
2, 22679, Note_on_c, 3, 70, 119
2, 22726, Note_off_c, 3, 70, 0
2, 22739, Lyric_t, "s"
2, 22739, Note_on_c, 3, 68, 117
2, 22785, Note_off_c, 3, 68, 0
2, 22800, Note_on_c, 3, 68, 117
2, 22848, Note_off_c, 3, 68, 0
2, 22861, Lyric_t, "y "
2, 22861, Lyric_t, "\015"
2, 22861, Lyric_t, "\012"
2, 22861, Note_on_c, 3, 66, 118
2, 22950, Note_off_c, 3, 66, 0
2, 22981, Lyric_t, "And "
2, 22981, Note_on_c, 3, 65, 113
2, 23033, Note_off_c, 3, 65, 0
2, 23040, Lyric_t, "you've "
2, 23040, Note_on_c, 3, 66, 115
2, 23122, Note_off_c, 3, 66, 0
2, 23159, Lyric_t, "got "
2, 23159, Note_on_c, 3, 61, 119
2, 23199, Note_off_c, 3, 61, 0
2, 23219, Lyric_t, "a "
2, 23219, Note_on_c, 3, 61, 117
2, 23266, Note_off_c, 3, 61, 0
2, 23279, Lyric_t, "smile "
2, 23279, Note_on_c, 3, 58, 117
2, 23385, Note_off_c, 3, 58, 0
2, 23400, Lyric_t, "that "
2, 23400, Note_on_c, 3, 56, 117
2, 23452, Note_off_c, 3, 56, 0
2, 23459, Lyric_t, "could "
2, 23459, Note_on_c, 3, 54, 117
2, 23504, Note_off_c, 3, 54, 0
2, 23519, Lyric_t, "light "
2, 23519, Note_on_c, 3, 61, 117
2, 23569, Note_off_c, 3, 61, 0
2, 23581, Lyric_t, "up "
2, 23581, Note_on_c, 3, 58, 115
2, 23640, Note_off_c, 3, 58, 0
2, 23701, Lyric_t, "this "
2, 23701, Note_on_c, 3, 56, 115
2, 23780, Note_off_c, 3, 56, 0
2, 23821, Lyric_t, "whole "
2, 23821, Note_on_c, 3, 58, 114
2, 23924, Note_off_c, 3, 58, 0
2, 23939, Lyric_t, "town "
2, 23939, Lyric_t, "\015"
2, 23939, Note_on_c, 3, 56, 117
2, 24047, Note_off_c, 3, 56, 0
2, 24059, Lyric_t, "I "
2, 24059, Note_on_c, 3, 56, 115
2, 24112, Note_off_c, 3, 56, 0
2, 24119, Lyric_t, "have"
2, 24119, Note_on_c, 3, 61, 114
2, 24160, Note_off_c, 3, 61, 0
2, 24179, Lyric_t, "n't "
2, 24179, Note_on_c, 3, 61, 114
2, 24227, Note_off_c, 3, 61, 0
2, 24239, Lyric_t, "seen "
2, 24239, Note_on_c, 3, 58, 114
2, 24276, Note_off_c, 3, 58, 0
2, 24299, Lyric_t, "it "
2, 24299, Note_on_c, 3, 58, 115
2, 24346, Note_off_c, 3, 58, 0
2, 24359, Lyric_t, "in "
2, 24359, Note_on_c, 3, 56, 115
2, 24398, Note_off_c, 3, 56, 0
2, 24419, Lyric_t, "a "
2, 24419, Note_on_c, 3, 56, 117
2, 24468, Note_off_c, 3, 56, 0
2, 24479, Lyric_t, "while "
2, 24479, Note_on_c, 3, 61, 115
2, 24576, Note_off_c, 3, 61, 0
2, 24599, Lyric_t, "since "
2, 24599, Note_on_c, 3, 58, 115
2, 24648, Note_off_c, 3, 58, 0
2, 24659, Lyric_t, "she "
2, 24659, Note_on_c, 3, 58, 117
2, 24710, Note_off_c, 3, 58, 0
2, 24719, Lyric_t, "brought "
2, 24719, Note_on_c, 3, 56, 117
2, 24770, Note_off_c, 3, 56, 0
2, 24781, Lyric_t, "you "
2, 24781, Note_on_c, 3, 58, 117
2, 24869, Note_off_c, 3, 58, 0
2, 24899, Lyric_t, "down "
2, 24899, Lyric_t, "\015"
2, 24899, Note_on_c, 3, 56, 115
2, 25005, Note_off_c, 3, 56, 0
2, 25019, Lyric_t, "You "
2, 25019, Note_on_c, 3, 56, 119
2, 25062, Note_off_c, 3, 56, 0
2, 25079, Lyric_t, "say "
2, 25079, Note_on_c, 3, 56, 115
2, 25114, Note_off_c, 3, 56, 0
2, 25139, Lyric_t, "your "
2, 25139, Note_on_c, 3, 56, 118
2, 25170, Note_off_c, 3, 56, 0
2, 25199, Lyric_t, "fine "
2, 25199, Lyric_t, "\015"
2, 25199, Note_on_c, 3, 56, 115
2, 25252, Note_off_c, 3, 56, 0
2, 25259, Lyric_t, "I "
2, 25259, Note_on_c, 3, 58, 113
2, 25314, Note_off_c, 3, 58, 0
2, 25319, Lyric_t, "know "
2, 25319, Note_on_c, 3, 59, 113
2, 25368, Note_off_c, 3, 59, 0
2, 25379, Lyric_t, "you "
2, 25379, Note_on_c, 3, 61, 114
2, 25421, Note_off_c, 3, 61, 0
2, 25439, Lyric_t, "bet"
2, 25439, Note_on_c, 3, 63, 112
2, 25476, Note_off_c, 3, 63, 0
2, 25499, Lyric_t, "ter "
2, 25499, Note_on_c, 3, 63, 113
2, 25556, Note_off_c, 3, 63, 0
2, 25559, Lyric_t, "then "
2, 25559, Note_on_c, 3, 70, 111
2, 25651, Note_off_c, 3, 70, 0
2, 25679, Lyric_t, "that "
2, 25679, Lyric_t, "\015"
2, 25679, Note_on_c, 3, 68, 115
2, 25825, Note_off_c, 3, 68, 0
2, 25979, Lyric_t, "Hey "
2, 25979, Note_on_c, 3, 56, 119
2, 26018, Note_off_c, 3, 56, 0
2, 26041, Lyric_t, "what"
2, 26041, Note_on_c, 3, 56, 118
2, 26073, Note_off_c, 3, 56, 0
2, 26099, Lyric_t, "cha "
2, 26099, Note_on_c, 3, 56, 118
2, 26130, Note_off_c, 3, 56, 0
2, 26159, Lyric_t, "do"
2, 26159, Note_on_c, 3, 56, 118
2, 26209, Note_off_c, 3, 56, 0
2, 26219, Lyric_t, "ing "
2, 26219, Note_on_c, 3, 58, 119
2, 26266, Note_off_c, 3, 58, 0
2, 26279, Lyric_t, "with "
2, 26279, Note_on_c, 3, 59, 106
2, 26326, Note_off_c, 3, 59, 0
2, 26339, Lyric_t, "a "
2, 26339, Note_on_c, 3, 61, 114
2, 26385, Note_off_c, 3, 61, 0
2, 26399, Lyric_t, "girl "
2, 26399, Note_on_c, 3, 63, 114
2, 26504, Note_off_c, 3, 63, 0
2, 26519, Lyric_t, "like "
2, 26519, Note_on_c, 3, 70, 115
2, 26616, Note_off_c, 3, 70, 0
2, 26639, Lyric_t, "that "
2, 26639, Lyric_t, "\015"
2, 26639, Lyric_t, "\012"
2, 26639, Note_on_c, 3, 68, 118
2, 26822, Note_off_c, 3, 68, 0
2, 26879, Lyric_t, "She "
2, 26879, Note_on_c, 3, 63, 117
2, 26991, Note_off_c, 3, 63, 0
2, 27000, Lyric_t, "wears "
2, 27000, Note_on_c, 3, 66, 117
2, 27093, Note_off_c, 3, 66, 0
2, 27119, Lyric_t, "high "
2, 27119, Note_on_c, 3, 68, 118
2, 27229, Note_off_c, 3, 68, 0
2, 27239, Lyric_t, "heels "
2, 27239, Lyric_t, "\015"
2, 27239, Note_on_c, 3, 66, 115
2, 27336, Note_off_c, 3, 66, 0
2, 27359, Lyric_t, "I "
2, 27359, Note_on_c, 3, 63, 113
2, 27476, Note_off_c, 3, 63, 0
2, 27479, Lyric_t, "wear "
2, 27479, Note_on_c, 3, 66, 115
2, 27580, Note_off_c, 3, 66, 0
2, 27599, Lyric_t, "sneak"
2, 27599, Note_on_c, 3, 68, 122
2, 27708, Note_off_c, 3, 68, 0
2, 27720, Lyric_t, "ers "
2, 27720, Lyric_t, "\015"
2, 27720, Note_on_c, 3, 66, 113
2, 27818, Note_off_c, 3, 66, 0
2, 27839, Lyric_t, "She's "
2, 27839, Note_on_c, 3, 61, 113
2, 27946, Note_off_c, 3, 61, 0
2, 27960, Lyric_t, "cheer "
2, 27960, Note_on_c, 3, 66, 114
2, 28044, Note_off_c, 3, 66, 0
2, 28079, Lyric_t, "cap"
2, 28079, Note_on_c, 3, 66, 115
2, 28120, Note_off_c, 3, 66, 0
2, 28139, Lyric_t, "tain "
2, 28139, Note_on_c, 3, 68, 104
2, 28184, Note_off_c, 3, 68, 0
2, 28199, Lyric_t, "and "
2, 28199, Note_on_c, 3, 66, 115
2, 28290, Note_off_c, 3, 66, 0
2, 28319, Lyric_t, "I'm "
2, 28319, Note_on_c, 3, 68, 114
2, 28415, Note_off_c, 3, 68, 0
2, 28439, Lyric_t, "on "
2, 28439, Note_on_c, 3, 68, 117
2, 28496, Note_off_c, 3, 68, 0
2, 28499, Lyric_t, "the "
2, 28499, Note_on_c, 3, 70, 113
2, 28542, Note_off_c, 3, 70, 0
2, 28559, Lyric_t, "bleach"
2, 28559, Note_on_c, 3, 68, 117
2, 28661, Note_off_c, 3, 68, 0
2, 28679, Lyric_t, "ers "
2, 28679, Lyric_t, "\015"
2, 28679, Note_on_c, 3, 66, 115
2, 28784, Note_off_c, 3, 66, 0
2, 28799, Lyric_t, "Dream"
2, 28799, Note_on_c, 3, 63, 118
2, 28847, Note_off_c, 3, 63, 0
2, 28859, Lyric_t, "ing "
2, 28859, Note_on_c, 3, 66, 119
2, 28884, Note_off_c, 3, 66, 0
2, 28889, Lyric_t, "a"
2, 28889, Note_on_c, 3, 66, 119
2, 28914, Note_off_c, 3, 66, 0
2, 28919, Lyric_t, "bout "
2, 28919, Note_on_c, 3, 66, 114
2, 28969, Note_off_c, 3, 66, 0
2, 28981, Lyric_t, "the "
2, 28981, Note_on_c, 3, 63, 106
2, 29029, Note_off_c, 3, 63, 0
2, 29039, Lyric_t, "day "
2, 29039, Note_on_c, 3, 68, 118
2, 29115, Note_off_c, 3, 68, 0
2, 29159, Lyric_t, "when "
2, 29159, Note_on_c, 3, 61, 115
2, 29194, Note_off_c, 3, 61, 0
2, 29219, Lyric_t, "you "
2, 29219, Note_on_c, 3, 61, 114
2, 29269, Note_off_c, 3, 61, 0
2, 29279, Lyric_t, "wake "
2, 29279, Note_on_c, 3, 63, 113
2, 29322, Note_off_c, 3, 63, 0
2, 29339, Lyric_t, "up "
2, 29339, Note_on_c, 3, 66, 109
2, 29382, Note_off_c, 3, 66, 0
2, 29399, Lyric_t, "and "
2, 29399, Note_on_c, 3, 63, 112
2, 29444, Note_off_c, 3, 63, 0
2, 29459, Lyric_t, "find "
2, 29459, Lyric_t, "\015"
2, 29459, Note_on_c, 3, 66, 115
2, 29569, Note_off_c, 3, 66, 0
2, 29579, Lyric_t, "That "
2, 29579, Note_on_c, 3, 63, 120
2, 29625, Note_off_c, 3, 63, 0
2, 29639, Lyric_t, "what "
2, 29639, Note_on_c, 3, 66, 114
2, 29674, Note_off_c, 3, 66, 0
2, 29699, Lyric_t, "you're "
2, 29699, Note_on_c, 3, 66, 117
2, 29743, Note_off_c, 3, 66, 0
2, 29819, Lyric_t, "look"
2, 29819, Note_on_c, 3, 70, 115
2, 29860, Note_off_c, 3, 70, 0
2, 29879, Lyric_t, "ing "
2, 29879, Note_on_c, 3, 68, 115
2, 29909, Note_off_c, 3, 68, 0
2, 29939, Lyric_t, "for "
2, 29939, Note_on_c, 3, 68, 115
2, 30022, Note_off_c, 3, 68, 0
2, 30059, Lyric_t, "has "
2, 30059, Note_on_c, 3, 66, 115
2, 30085, Note_off_c, 3, 66, 0
2, 30119, Lyric_t, "been "
2, 30119, Note_on_c, 3, 66, 115
2, 30165, Note_off_c, 3, 66, 0
2, 30179, Lyric_t, "he"
2, 30179, Note_on_c, 3, 69, 114
2, 30229, Note_off_c, 3, 69, 0
2, 30239, Lyric_t, "re "
2, 30239, Note_on_c, 3, 68, 115
2, 30295, Note_off_c, 3, 68, 0
2, 30299, Lyric_t, "the "
2, 30299, Note_on_c, 3, 66, 109
2, 30335, Note_off_c, 3, 66, 0
2, 30359, Lyric_t, "whole "
2, 30359, Note_on_c, 3, 66, 117
2, 30439, Note_off_c, 3, 66, 0
2, 30479, Lyric_t, "time "
2, 30479, Lyric_t, "\015"
2, 30479, Lyric_t, "\012"
2, 30479, Note_on_c, 3, 68, 119
2, 30535, Note_off_c, 3, 68, 0
2, 30539, Lyric_t, "If "
2, 30539, Note_on_c, 3, 66, 117
2, 30566, Note_off_c, 3, 66, 0
2, 30599, Lyric_t, "you "
2, 30599, Note_on_c, 3, 66, 119
2, 30648, Note_off_c, 3, 66, 0
2, 30659, Lyric_t, "could "
2, 30659, Note_on_c, 3, 68, 118
2, 30704, Note_off_c, 3, 68, 0
2, 30719, Lyric_t, "see "
2, 30719, Note_on_c, 3, 70, 114
2, 30826, Note_off_c, 3, 70, 0
2, 30839, Lyric_t, "that "
2, 30839, Note_on_c, 3, 68, 109
2, 30893, Note_off_c, 3, 68, 0
2, 30899, Lyric_t, "I'm "
2, 30899, Note_on_c, 3, 70, 115
2, 31053, Note_off_c, 3, 70, 0
2, 31079, Lyric_t, "the "
2, 31079, Note_on_c, 3, 68, 119
2, 31138, Note_off_c, 3, 68, 0
2, 31141, Lyric_t, "one "
2, 31141, Note_on_c, 3, 70, 117
2, 31246, Note_off_c, 3, 70, 0
2, 31261, Lyric_t, "who "
2, 31261, Note_on_c, 3, 68, 118
2, 31299, Note_off_c, 3, 68, 0
2, 31321, Lyric_t, "un"
2, 31321, Note_on_c, 3, 70, 115
2, 31352, Note_off_c, 3, 70, 0
2, 31379, Lyric_t, "der"
2, 31379, Note_on_c, 3, 70, 115
2, 31431, Note_off_c, 3, 70, 0
2, 31439, Lyric_t, "stands "
2, 31439, Note_on_c, 3, 68, 117
2, 31544, Note_off_c, 3, 68, 0
2, 31559, Lyric_t, "you "
2, 31559, Lyric_t, "\015"
2, 31559, Note_on_c, 3, 66, 119
2, 31668, Note_off_c, 3, 66, 0
2, 31679, Lyric_t, "Been "
2, 31679, Note_on_c, 3, 70, 115
2, 31792, Note_off_c, 3, 70, 0
2, 31801, Lyric_t, "here "
2, 31801, Note_on_c, 3, 68, 113
2, 31855, Note_off_c, 3, 68, 0
2, 31861, Lyric_t, "all "
2, 31861, Note_on_c, 3, 70, 117
2, 32010, Note_off_c, 3, 70, 0
2, 32039, Lyric_t, "a"
2, 32039, Note_on_c, 3, 68, 104
2, 32091, Note_off_c, 3, 68, 0
2, 32099, Lyric_t, "long "
2, 32099, Note_on_c, 3, 70, 115
2, 32209, Note_off_c, 3, 70, 0
2, 32219, Lyric_t, "so "
2, 32219, Note_on_c, 3, 68, 114
2, 32267, Note_off_c, 3, 68, 0
2, 32279, Lyric_t, "why "
2, 32279, Note_on_c, 3, 70, 117
2, 32389, Note_off_c, 3, 70, 0
2, 32399, Lyric_t, "can't "
2, 32399, Note_on_c, 3, 68, 115
2, 32515, Note_off_c, 3, 68, 0
2, 32519, Lyric_t, "you "
2, 32519, Note_on_c, 3, 66, 119
2, 32616, Note_off_c, 3, 66, 0
2, 32639, Lyric_t, "s"
2, 32639, Note_on_c, 3, 71, 118
2, 32811, Note_off_c, 3, 71, 0
2, 32819, Lyric_t, "e"
2, 32819, Note_on_c, 3, 70, 118
2, 32964, Note_off_c, 3, 70, 0
2, 32999, Lyric_t, "e "
2, 32999, Lyric_t, "\015"
2, 32999, Note_on_c, 3, 63, 118
2, 33222, Note_off_c, 3, 63, 0
2, 33239, Lyric_t, "You "
2, 33239, Note_on_c, 3, 66, 114
2, 33273, Note_off_c, 3, 66, 0
2, 33299, Lyric_t, "be"
2, 33299, Note_on_c, 3, 66, 114
2, 33334, Note_off_c, 3, 66, 0
2, 33359, Lyric_t, "lo"
2, 33359, Note_on_c, 3, 66, 118
2, 33409, Note_off_c, 3, 66, 0
2, 33419, Lyric_t, "ng "
2, 33419, Note_on_c, 3, 63, 118
2, 33476, Note_off_c, 3, 63, 0
2, 33479, Lyric_t, "with "
2, 33479, Note_on_c, 3, 61, 119
2, 33562, Note_off_c, 3, 61, 0
2, 33599, Lyric_t, "m"
2, 33599, Note_on_c, 3, 71, 117
2, 33766, Note_off_c, 3, 71, 0
2, 33779, Note_on_c, 3, 70, 115
2, 33896, Note_off_c, 3, 70, 0
2, 33959, Note_on_c, 3, 59, 117
2, 34126, Note_off_c, 3, 59, 0
2, 34139, Lyric_t, "e "
2, 34139, Lyric_t, "\015"
2, 34139, Lyric_t, "\012"
2, 34139, Note_on_c, 3, 61, 119
2, 34394, Note_off_c, 3, 61, 0
2, 34558, Lyric_t, "Stand"
2, 34558, Note_on_c, 3, 70, 117
2, 34676, Note_off_c, 3, 70, 0
2, 34679, Lyric_t, "ing "
2, 34679, Note_on_c, 3, 68, 117
2, 34733, Note_off_c, 3, 68, 0
2, 34739, Lyric_t, "by "
2, 34739, Note_on_c, 3, 70, 117
2, 34904, Note_off_c, 3, 70, 0
2, 34918, Lyric_t, "and "
2, 34918, Note_on_c, 3, 68, 114
2, 34970, Note_off_c, 3, 68, 0
2, 34979, Lyric_t, "wait"
2, 34979, Note_on_c, 3, 70, 118
2, 35082, Note_off_c, 3, 70, 0
2, 35100, Lyric_t, "ing "
2, 35100, Note_on_c, 3, 68, 117
2, 35146, Note_off_c, 3, 68, 0
2, 35160, Lyric_t, "at "
2, 35160, Note_on_c, 3, 70, 114
2, 35193, Note_off_c, 3, 70, 0
2, 35219, Lyric_t, "your "
2, 35219, Note_on_c, 3, 70, 114
2, 35277, Note_off_c, 3, 70, 0
2, 35279, Lyric_t, "back "
2, 35279, Note_on_c, 3, 68, 117
2, 35396, Note_off_c, 3, 68, 0
2, 35399, Lyric_t, "door "
2, 35399, Lyric_t, "\015"
2, 35399, Note_on_c, 3, 66, 118
2, 35506, Note_off_c, 3, 66, 0
2, 35519, Lyric_t, "All "
2, 35519, Note_on_c, 3, 70, 117
2, 35631, Note_off_c, 3, 70, 0
2, 35639, Lyric_t, "this "
2, 35639, Note_on_c, 3, 68, 109
2, 35693, Note_off_c, 3, 68, 0
2, 35699, Lyric_t, "time "
2, 35699, Note_on_c, 3, 70, 118
2, 35856, Note_off_c, 3, 70, 0
2, 35879, Lyric_t, "how "
2, 35879, Note_on_c, 3, 68, 117
2, 35935, Note_off_c, 3, 68, 0
2, 35939, Lyric_t, "could "
2, 35939, Note_on_c, 3, 70, 117
2, 36053, Note_off_c, 3, 70, 0
2, 36061, Lyric_t, "you "
2, 36061, Note_on_c, 3, 68, 119
2, 36108, Note_off_c, 3, 68, 0
2, 36119, Lyric_t, "not "
2, 36119, Note_on_c, 3, 70, 117
2, 36199, Note_off_c, 3, 70, 0
2, 36239, Lyric_t, "know "
2, 36239, Lyric_t, "\015"
2, 36239, Note_on_c, 3, 68, 113
2, 36339, Note_off_c, 3, 68, 0
2, 36359, Lyric_t, "Ba"
2, 36359, Note_on_c, 3, 66, 117
2, 36465, Note_off_c, 3, 66, 0
2, 36479, Lyric_t, "b"
2, 36479, Note_on_c, 3, 71, 118
2, 36648, Note_off_c, 3, 71, 0
2, 36659, Note_on_c, 3, 70, 115
2, 36813, Note_off_c, 3, 70, 0
2, 36841, Lyric_t, "y... "
2, 36841, Lyric_t, "\015"
2, 36841, Note_on_c, 3, 63, 117
2, 37037, Note_off_c, 3, 63, 0
2, 37078, Lyric_t, "You "
2, 37078, Note_on_c, 3, 66, 117
2, 37114, Note_off_c, 3, 66, 0
2, 37139, Lyric_t, "be"
2, 37139, Note_on_c, 3, 66, 117
2, 37175, Note_off_c, 3, 66, 0
2, 37199, Lyric_t, "lo"
2, 37199, Note_on_c, 3, 66, 119
2, 37249, Note_off_c, 3, 66, 0
2, 37259, Lyric_t, "ng "
2, 37259, Note_on_c, 3, 63, 115
2, 37318, Note_off_c, 3, 63, 0
2, 37319, Lyric_t, "with "
2, 37319, Note_on_c, 3, 61, 118
2, 37409, Note_off_c, 3, 61, 0
2, 37439, Lyric_t, "m"
2, 37439, Note_on_c, 3, 71, 118
2, 37612, Note_off_c, 3, 71, 0
2, 37619, Note_on_c, 3, 70, 113
2, 37773, Note_off_c, 3, 70, 0
2, 37798, Lyric_t, "e "
2, 37798, Lyric_t, "\015"
2, 37798, Note_on_c, 3, 59, 119
2, 38013, Note_off_c, 3, 59, 0
2, 38039, Lyric_t, "you "
2, 38039, Note_on_c, 3, 59, 117
2, 38073, Note_off_c, 3, 59, 0
2, 38099, Lyric_t, "be"
2, 38099, Note_on_c, 3, 59, 119
2, 38133, Note_off_c, 3, 59, 0
2, 38159, Lyric_t, "long "
2, 38159, Note_on_c, 3, 59, 114
2, 38273, Note_off_c, 3, 59, 0
2, 38281, Lyric_t, "with "
2, 38281, Note_on_c, 3, 58, 117
2, 38322, Note_off_c, 3, 58, 0
2, 38341, Lyric_t, "me "
2, 38341, Lyric_t, "\015"
2, 38341, Lyric_t, "\012"
2, 38341, Note_on_c, 3, 58, 117
2, 38474, Note_off_c, 3, 58, 0
2, 41699, Lyric_t, "Oh' "
2, 41699, Lyric_t, "\015"
2, 41699, Note_on_c, 3, 71, 118
2, 41851, Note_off_c, 3, 71, 0
2, 41879, Lyric_t, "I "
2, 41879, Note_on_c, 3, 71, 115
2, 41913, Note_off_c, 3, 71, 0
2, 41939, Lyric_t, "re"
2, 41939, Note_on_c, 3, 71, 120
2, 41969, Note_off_c, 3, 71, 0
2, 41999, Lyric_t, "mem"
2, 41999, Note_on_c, 3, 71, 117
2, 42055, Note_off_c, 3, 71, 0
2, 42058, Lyric_t, "ber "
2, 42058, Note_on_c, 3, 70, 117
2, 42112, Note_off_c, 3, 70, 0
2, 42119, Lyric_t, "you "
2, 42119, Note_on_c, 3, 66, 118
2, 42222, Note_off_c, 3, 66, 0
2, 42239, Lyric_t, "dri"
2, 42239, Note_on_c, 3, 68, 118
2, 42272, Note_off_c, 3, 68, 0
2, 42299, Lyric_t, "vin' "
2, 42299, Note_on_c, 3, 68, 118
2, 42333, Note_off_c, 3, 68, 0
2, 42359, Lyric_t, "to "
2, 42359, Note_on_c, 3, 68, 119
2, 42410, Note_off_c, 3, 68, 0
2, 42419, Lyric_t, "my "
2, 42419, Note_on_c, 3, 66, 119
2, 42470, Note_off_c, 3, 66, 0
2, 42481, Lyric_t, "house "
2, 42481, Note_on_c, 3, 63, 117
2, 42583, Note_off_c, 3, 63, 0
2, 42599, Lyric_t, "in "
2, 42599, Note_on_c, 3, 66, 115
2, 42654, Note_off_c, 3, 66, 0
2, 42659, Lyric_t, "the "
2, 42659, Note_on_c, 3, 66, 115
2, 42714, Note_off_c, 3, 66, 0
2, 42719, Lyric_t, "mid"
2, 42719, Note_on_c, 3, 68, 118
2, 42772, Note_off_c, 3, 68, 0
2, 42779, Lyric_t, "dle "
2, 42779, Note_on_c, 3, 70, 106
2, 42828, Note_off_c, 3, 70, 0
2, 42839, Lyric_t, "of "
2, 42839, Note_on_c, 3, 68, 117
2, 42893, Note_off_c, 3, 68, 0
2, 42899, Lyric_t, "the "
2, 42899, Note_on_c, 3, 66, 113
2, 42958, Note_off_c, 3, 66, 0
2, 42959, Lyric_t, "night "
2, 42959, Lyric_t, "\015"
2, 42959, Note_on_c, 3, 63, 117
2, 43059, Note_off_c, 3, 63, 0
2, 43079, Lyric_t, "I'm "
2, 43079, Note_on_c, 3, 66, 118
2, 43130, Note_off_c, 3, 66, 0
2, 43139, Lyric_t, "the "
2, 43139, Note_on_c, 3, 66, 117
2, 43185, Note_off_c, 3, 66, 0
2, 43199, Lyric_t, "one "
2, 43199, Note_on_c, 3, 68, 119
2, 43254, Note_off_c, 3, 68, 0
2, 43259, Lyric_t, "who "
2, 43259, Note_on_c, 3, 70, 118
2, 43312, Note_off_c, 3, 70, 0
2, 43319, Lyric_t, "makes "
2, 43319, Note_on_c, 3, 68, 118
2, 43372, Note_off_c, 3, 68, 0
2, 43379, Lyric_t, "you "
2, 43379, Note_on_c, 3, 66, 115
2, 43421, Note_off_c, 3, 66, 0
2, 43441, Lyric_t, "laugh "
2, 43441, Lyric_t, "\015"
2, 43441, Note_on_c, 3, 66, 117
2, 43525, Note_off_c, 3, 66, 0
2, 43559, Lyric_t, "When "
2, 43559, Note_on_c, 3, 66, 114
2, 43595, Note_off_c, 3, 66, 0
2, 43619, Lyric_t, "you "
2, 43619, Note_on_c, 3, 66, 117
2, 43664, Note_off_c, 3, 66, 0
2, 43679, Lyric_t, "know "
2, 43679, Note_on_c, 3, 68, 117
2, 43726, Note_off_c, 3, 68, 0
2, 43739, Lyric_t, "your "
2, 43739, Note_on_c, 3, 70, 119
2, 43764, Note_off_c, 3, 70, 0
2, 43769, Lyric_t, "a"
2, 43769, Note_on_c, 3, 70, 119
2, 43794, Note_off_c, 3, 70, 0
2, 43799, Lyric_t, "bout "
2, 43799, Note_on_c, 3, 68, 118
2, 43845, Note_off_c, 3, 68, 0
2, 43859, Lyric_t, "to "
2, 43859, Note_on_c, 3, 66, 117
2, 43904, Note_off_c, 3, 66, 0
2, 43919, Lyric_t, "cry "
2, 43919, Lyric_t, "\015"
2, 43919, Note_on_c, 3, 68, 115
2, 44028, Note_off_c, 3, 68, 0
2, 44099, Lyric_t, "And "
2, 44099, Note_on_c, 3, 68, 117
2, 44124, Note_off_c, 3, 68, 0
2, 44130, Lyric_t, "I "
2, 44130, Note_on_c, 3, 68, 117
2, 44155, Note_off_c, 3, 68, 0
2, 44159, Lyric_t, "know "
2, 44159, Note_on_c, 3, 68, 118
2, 44210, Note_off_c, 3, 68, 0
2, 44219, Lyric_t, "your "
2, 44219, Note_on_c, 3, 70, 113
2, 44265, Note_off_c, 3, 70, 0
2, 44279, Lyric_t, "fa"
2, 44279, Note_on_c, 3, 68, 117
2, 44332, Note_off_c, 3, 68, 0
2, 44339, Lyric_t, "vorite "
2, 44339, Note_on_c, 3, 66, 117
2, 44391, Note_off_c, 3, 66, 0
2, 44399, Lyric_t, "songs "
2, 44399, Lyric_t, "\015"
2, 44399, Note_on_c, 3, 63, 115
2, 44493, Note_off_c, 3, 63, 0
2, 44519, Lyric_t, "And "
2, 44519, Note_on_c, 3, 66, 118
2, 44560, Note_off_c, 3, 66, 0
2, 44579, Lyric_t, "you "
2, 44579, Note_on_c, 3, 66, 118
2, 44629, Note_off_c, 3, 66, 0
2, 44639, Lyric_t, "tell "
2, 44639, Note_on_c, 3, 68, 115
2, 44689, Note_off_c, 3, 68, 0
2, 44699, Lyric_t, "me "
2, 44699, Note_on_c, 3, 70, 113
2, 44724, Note_off_c, 3, 70, 0
2, 44730, Lyric_t, "a"
2, 44730, Note_on_c, 3, 70, 113
2, 44755, Note_off_c, 3, 70, 0
2, 44759, Lyric_t, "bout "
2, 44759, Note_on_c, 3, 68, 115
2, 44816, Note_off_c, 3, 68, 0
2, 44819, Lyric_t, "your "
2, 44819, Note_on_c, 3, 66, 118
2, 44858, Note_off_c, 3, 66, 0
2, 44879, Lyric_t, "dreams "
2, 44879, Lyric_t, "\015"
2, 44879, Note_on_c, 3, 63, 118
2, 44973, Note_off_c, 3, 63, 0
2, 44999, Lyric_t, "Think "
2, 44999, Note_on_c, 3, 66, 117
2, 45038, Note_off_c, 3, 66, 0
2, 45059, Lyric_t, "I "
2, 45059, Note_on_c, 3, 66, 115
2, 45103, Note_off_c, 3, 66, 0
2, 45119, Lyric_t, "know "
2, 45119, Note_on_c, 3, 68, 120
2, 45166, Note_off_c, 3, 68, 0
2, 45179, Lyric_t, "where "
2, 45179, Note_on_c, 3, 70, 118
2, 45225, Note_off_c, 3, 70, 0
2, 45239, Lyric_t, "you "
2, 45239, Note_on_c, 3, 68, 118
2, 45289, Note_off_c, 3, 68, 0
2, 45299, Lyric_t, "be"
2, 45299, Note_on_c, 3, 66, 119
2, 45338, Note_off_c, 3, 66, 0
2, 45359, Lyric_t, "long "
2, 45359, Lyric_t, "\015"
2, 45359, Note_on_c, 3, 66, 115
2, 45446, Note_off_c, 3, 66, 0
2, 45479, Lyric_t, "Think "
2, 45479, Note_on_c, 3, 66, 117
2, 45516, Note_off_c, 3, 66, 0
2, 45539, Lyric_t, "I "
2, 45539, Note_on_c, 3, 66, 113
2, 45591, Note_off_c, 3, 66, 0
2, 45599, Lyric_t, "know "
2, 45599, Note_on_c, 3, 68, 118
2, 45654, Note_off_c, 3, 68, 0
2, 45659, Lyric_t, "it's "
2, 45659, Note_on_c, 3, 66, 114
2, 45713, Note_off_c, 3, 66, 0
2, 45719, Lyric_t, "wi"
2, 45719, Note_on_c, 3, 68, 119
2, 45772, Note_off_c, 3, 68, 0
2, 45779, Lyric_t, "th "
2, 45779, Note_on_c, 3, 66, 117
2, 45839, Lyric_t, "m"
2, 45839, Note_on_c, 3, 70, 115
2, 45842, Note_off_c, 3, 66, 0
2, 46000, Note_off_c, 3, 70, 0
2, 46019, Note_on_c, 3, 71, 98
2, 46049, Note_on_c, 3, 70, 109
2, 46050, Note_off_c, 3, 71, 0
2, 46078, Note_off_c, 3, 70, 0
2, 46079, Lyric_t, "e... "
2, 46079, Lyric_t, "\015"
2, 46079, Lyric_t, "\012"
2, 46079, Note_on_c, 3, 68, 115
2, 46341, Note_off_c, 3, 68, 0
2, 46439, Lyric_t, "Can't "
2, 46439, Note_on_c, 3, 63, 115
2, 46486, Note_off_c, 3, 63, 0
2, 46499, Lyric_t, "you "
2, 46499, Note_on_c, 3, 63, 115
2, 46551, Note_off_c, 3, 63, 0
2, 46559, Lyric_t, "see "
2, 46559, Note_on_c, 3, 66, 114
2, 46643, Note_off_c, 3, 66, 0
2, 46679, Lyric_t, "that "
2, 46679, Note_on_c, 3, 63, 114
2, 46730, Note_off_c, 3, 63, 0
2, 46739, Lyric_t, "I'm "
2, 46739, Note_on_c, 3, 66, 113
2, 46878, Note_off_c, 3, 66, 0
2, 46919, Lyric_t, "the "
2, 46919, Note_on_c, 3, 63, 106
2, 46968, Note_off_c, 3, 63, 0
2, 46980, Lyric_t, "one "
2, 46980, Note_on_c, 3, 66, 113
2, 47066, Note_off_c, 3, 66, 0
2, 47099, Lyric_t, "who "
2, 47099, Note_on_c, 3, 66, 114
2, 47134, Note_off_c, 3, 66, 0
2, 47159, Lyric_t, "un"
2, 47159, Note_on_c, 3, 66, 114
2, 47204, Note_off_c, 3, 66, 0
2, 47219, Lyric_t, "der"
2, 47219, Note_on_c, 3, 66, 106
2, 47266, Note_off_c, 3, 66, 0
2, 47279, Lyric_t, "stands "
2, 47279, Note_on_c, 3, 68, 118
2, 47380, Note_off_c, 3, 68, 0
2, 47399, Lyric_t, "you "
2, 47399, Lyric_t, "\015"
2, 47399, Note_on_c, 3, 70, 106
2, 47497, Note_off_c, 3, 70, 0
2, 47519, Lyric_t, "Been "
2, 47519, Note_on_c, 3, 68, 118
2, 47620, Note_off_c, 3, 68, 0
2, 47639, Lyric_t, "here "
2, 47639, Note_on_c, 3, 66, 109
2, 47693, Note_off_c, 3, 66, 0
2, 47699, Lyric_t, "all "
2, 47699, Note_on_c, 3, 68, 115
2, 47809, Note_off_c, 3, 68, 0
2, 47879, Lyric_t, "a"
2, 47879, Note_on_c, 3, 66, 103
2, 47938, Note_off_c, 3, 66, 0
2, 47939, Lyric_t, "long "
2, 47939, Lyric_t, "\015"
2, 47939, Note_on_c, 3, 68, 115
2, 48028, Note_off_c, 3, 68, 0
2, 48059, Lyric_t, "So "
2, 48059, Note_on_c, 3, 66, 101
2, 48100, Note_off_c, 3, 66, 0
2, 48118, Lyric_t, "why "
2, 48118, Note_on_c, 3, 68, 113
2, 48220, Note_off_c, 3, 68, 0
2, 48239, Lyric_t, "can't "
2, 48239, Note_on_c, 3, 66, 119
2, 48329, Note_off_c, 3, 66, 0
2, 48359, Lyric_t, "you "
2, 48359, Note_on_c, 3, 66, 117
2, 48453, Note_off_c, 3, 66, 0
2, 48479, Lyric_t, "s"
2, 48479, Note_on_c, 3, 71, 115
2, 48636, Note_off_c, 3, 71, 0
2, 48659, Lyric_t, "e"
2, 48659, Note_on_c, 3, 70, 119
2, 48782, Note_off_c, 3, 70, 0
2, 48842, Lyric_t, "e "
2, 48842, Lyric_t, "\015"
2, 48842, Note_on_c, 3, 63, 114
2, 49066, Note_off_c, 3, 63, 0
2, 49079, Lyric_t, "You "
2, 49079, Note_on_c, 3, 66, 117
2, 49128, Note_off_c, 3, 66, 0
2, 49139, Lyric_t, "be"
2, 49139, Note_on_c, 3, 66, 117
2, 49176, Note_off_c, 3, 66, 0
2, 49199, Lyric_t, "lo"
2, 49199, Note_on_c, 3, 66, 117
2, 49246, Note_off_c, 3, 66, 0
2, 49259, Lyric_t, "ng "
2, 49259, Note_on_c, 3, 63, 117
2, 49306, Note_off_c, 3, 63, 0
2, 49319, Lyric_t, "with "
2, 49319, Note_on_c, 3, 61, 117
2, 49413, Note_off_c, 3, 61, 0
2, 49439, Lyric_t, "m"
2, 49439, Note_on_c, 3, 71, 117
2, 49600, Note_off_c, 3, 71, 0
2, 49619, Note_on_c, 3, 70, 115
2, 49776, Note_off_c, 3, 70, 0
2, 49799, Note_on_c, 3, 59, 115
2, 49970, Note_off_c, 3, 59, 0
2, 49979, Lyric_t, "e "
2, 49979, Lyric_t, "\015"
2, 49979, Lyric_t, "\012"
2, 49979, Note_on_c, 3, 61, 115
2, 50163, Note_off_c, 3, 61, 0
2, 50400, Lyric_t, "Stand"
2, 50400, Note_on_c, 3, 70, 114
2, 50507, Note_off_c, 3, 70, 0
2, 50520, Lyric_t, "ing "
2, 50520, Note_on_c, 3, 68, 109
2, 50574, Note_off_c, 3, 68, 0
2, 50580, Lyric_t, "by "
2, 50580, Note_on_c, 3, 70, 115
2, 50734, Note_off_c, 3, 70, 0
2, 50760, Lyric_t, "and "
2, 50760, Note_on_c, 3, 68, 119
2, 50819, Note_off_c, 3, 68, 0
2, 50822, Lyric_t, "wait"
2, 50822, Note_on_c, 3, 70, 117
2, 50927, Note_off_c, 3, 70, 0
2, 50942, Lyric_t, "ing "
2, 50942, Note_on_c, 3, 68, 118
2, 50980, Note_off_c, 3, 68, 0
2, 51002, Lyric_t, "at "
2, 51002, Note_on_c, 3, 70, 115
2, 51033, Note_off_c, 3, 70, 0
2, 51060, Lyric_t, "your "
2, 51060, Note_on_c, 3, 70, 115
2, 51112, Note_off_c, 3, 70, 0
2, 51120, Lyric_t, "back "
2, 51120, Note_on_c, 3, 68, 117
2, 51225, Note_off_c, 3, 68, 0
2, 51240, Lyric_t, "door "
2, 51240, Lyric_t, "\015"
2, 51240, Note_on_c, 3, 66, 119
2, 51349, Note_off_c, 3, 66, 0
2, 51360, Lyric_t, "All "
2, 51360, Note_on_c, 3, 70, 115
2, 51473, Note_off_c, 3, 70, 0
2, 51482, Lyric_t, "this "
2, 51482, Note_on_c, 3, 68, 113
2, 51536, Note_off_c, 3, 68, 0
2, 51542, Lyric_t, "time "
2, 51542, Lyric_t, "\015"
2, 51542, Note_on_c, 3, 70, 117
2, 51691, Note_off_c, 3, 70, 0
2, 51720, Lyric_t, "How "
2, 51720, Note_on_c, 3, 68, 104
2, 51772, Note_off_c, 3, 68, 0
2, 51780, Lyric_t, "could "
2, 51780, Note_on_c, 3, 73, 115
2, 51890, Note_off_c, 3, 73, 0
2, 51900, Lyric_t, "you "
2, 51900, Note_on_c, 3, 70, 114
2, 51948, Note_off_c, 3, 70, 0
2, 51960, Lyric_t, "not "
2, 51960, Note_on_c, 3, 70, 117
2, 52070, Note_off_c, 3, 70, 0
2, 52080, Lyric_t, "know "
2, 52080, Lyric_t, "\015"
2, 52080, Note_on_c, 3, 68, 115
2, 52196, Note_off_c, 3, 68, 0
2, 52200, Lyric_t, "Ba"
2, 52200, Note_on_c, 3, 66, 119
2, 52297, Note_off_c, 3, 66, 0
2, 52320, Lyric_t, "b"
2, 52320, Note_on_c, 3, 71, 118
2, 52492, Note_off_c, 3, 71, 0
2, 52500, Note_on_c, 3, 70, 118
2, 52645, Note_off_c, 3, 70, 0
2, 52680, Lyric_t, "y "
2, 52680, Note_on_c, 3, 63, 118
2, 52903, Note_off_c, 3, 63, 0
2, 52920, Lyric_t, "you "
2, 52920, Note_on_c, 3, 66, 114
2, 52954, Note_off_c, 3, 66, 0
2, 52980, Lyric_t, "be"
2, 52980, Note_on_c, 3, 66, 114
2, 53015, Note_off_c, 3, 66, 0
2, 53040, Lyric_t, "lo"
2, 53040, Note_on_c, 3, 66, 118
2, 53090, Note_off_c, 3, 66, 0
2, 53100, Lyric_t, "ng "
2, 53100, Note_on_c, 3, 63, 117
2, 53157, Note_off_c, 3, 63, 0
2, 53160, Lyric_t, "with "
2, 53160, Note_on_c, 3, 61, 117
2, 53243, Note_off_c, 3, 61, 0
2, 53280, Lyric_t, "m"
2, 53280, Note_on_c, 3, 71, 117
2, 53447, Note_off_c, 3, 71, 0
2, 53460, Note_on_c, 3, 70, 117
2, 53577, Note_off_c, 3, 70, 0
2, 53640, Lyric_t, "e "
2, 53640, Lyric_t, "\015"
2, 53640, Note_on_c, 3, 59, 117
2, 53807, Note_off_c, 3, 59, 0
2, 53879, Lyric_t, "You "
2, 53879, Note_on_c, 3, 59, 117
2, 53910, Note_off_c, 3, 59, 0
2, 53939, Lyric_t, "be"
2, 53939, Note_on_c, 3, 59, 117
2, 53975, Note_off_c, 3, 59, 0
2, 53999, Lyric_t, "long "
2, 53999, Note_on_c, 3, 59, 117
2, 54101, Note_off_c, 3, 59, 0
2, 54119, Lyric_t, "with "
2, 54119, Note_on_c, 3, 58, 117
2, 54158, Note_off_c, 3, 58, 0
2, 54179, Lyric_t, "me "
2, 54179, Lyric_t, "\015"
2, 54179, Lyric_t, "\012"
2, 54179, Note_on_c, 3, 58, 117
2, 54534, Note_off_c, 3, 58, 0
2, 54839, Lyric_t, "You "
2, 54839, Note_on_c, 3, 70, 117
2, 54867, Note_off_c, 3, 70, 0
2, 54898, Lyric_t, "be"
2, 54898, Note_on_c, 3, 70, 117
2, 54932, Note_off_c, 3, 70, 0
2, 54958, Lyric_t, "long "
2, 54958, Note_on_c, 3, 70, 117
2, 55063, Note_off_c, 3, 70, 0
2, 55079, Lyric_t, "with "
2, 55079, Note_on_c, 3, 68, 117
2, 55105, Note_off_c, 3, 68, 0
2, 55138, Lyric_t, "m"
2, 55138, Note_on_c, 3, 68, 117
2, 55249, Note_off_c, 3, 68, 0
2, 55258, Lyric_t, "e "
2, 55258, Lyric_t, "\015"
2, 55258, Lyric_t, "\012"
2, 55258, Note_on_c, 3, 70, 117
2, 55351, Note_off_c, 3, 70, 0
2, 55559, Lyric_t, "Have "
2, 55559, Note_on_c, 3, 70, 117
2, 55615, Note_off_c, 3, 70, 0
2, 55619, Lyric_t, "you "
2, 55619, Note_on_c, 3, 68, 117
2, 55655, Note_off_c, 3, 68, 0
2, 55679, Lyric_t, "ev"
2, 55679, Note_on_c, 3, 70, 117
2, 55739, Lyric_t, "er "
2, 55739, Note_on_c, 3, 68, 117
2, 55744, Note_off_c, 3, 70, 0
2, 55784, Note_off_c, 3, 68, 0
2, 55799, Lyric_t, "thought "
2, 55799, Note_on_c, 3, 70, 117
2, 55898, Note_off_c, 3, 70, 0
2, 55919, Lyric_t, "ju"
2, 55919, Note_on_c, 3, 68, 117
2, 55966, Note_off_c, 3, 68, 0
2, 55979, Lyric_t, "st "
2, 55979, Note_on_c, 3, 66, 117
2, 56011, Note_off_c, 3, 66, 0
2, 56039, Lyric_t, "may"
2, 56039, Note_on_c, 3, 66, 117
2, 56132, Note_off_c, 3, 66, 0
2, 56159, Lyric_t, "b"
2, 56159, Note_on_c, 3, 71, 117
2, 56311, Note_off_c, 3, 71, 0
2, 56339, Note_on_c, 3, 70, 117
2, 56465, Note_off_c, 3, 70, 0
2, 56519, Lyric_t, "e "
2, 56519, Lyric_t, "\015"
2, 56519, Note_on_c, 3, 63, 117
2, 56719, Note_off_c, 3, 63, 0
2, 56759, Lyric_t, "You "
2, 56759, Note_on_c, 3, 66, 117
2, 56791, Note_off_c, 3, 66, 0
2, 56818, Lyric_t, "be"
2, 56818, Note_on_c, 3, 66, 117
2, 56855, Note_off_c, 3, 66, 0
2, 56879, Lyric_t, "lo"
2, 56879, Note_on_c, 3, 66, 117
2, 56932, Note_off_c, 3, 66, 0
2, 56939, Lyric_t, "ng "
2, 56939, Note_on_c, 3, 63, 117
2, 56990, Note_off_c, 3, 63, 0
2, 56999, Lyric_t, "with "
2, 56999, Note_on_c, 3, 61, 117
2, 57099, Note_off_c, 3, 61, 0
2, 57119, Lyric_t, "m"
2, 57119, Note_on_c, 3, 71, 117
2, 57273, Note_off_c, 3, 71, 0
2, 57299, Note_on_c, 3, 70, 117
2, 57415, Note_off_c, 3, 70, 0
2, 57479, Lyric_t, "e "
2, 57479, Lyric_t, "\015"
2, 57479, Lyric_t, "\012"
2, 57479, Note_on_c, 3, 59, 117
2, 57692, Note_off_c, 3, 59, 0
2, 57719, Lyric_t, "You "
2, 57719, Note_on_c, 3, 59, 117
2, 57752, Note_off_c, 3, 59, 0
2, 57779, Lyric_t, "be"
2, 57779, Note_on_c, 3, 59, 117
2, 57813, Note_off_c, 3, 59, 0
2, 57839, Lyric_t, "long "
2, 57839, Note_on_c, 3, 59, 117
2, 57937, Note_off_c, 3, 59, 0
2, 57959, Lyric_t, "with "
2, 57959, Note_on_c, 3, 58, 117
2, 57991, Note_off_c, 3, 58, 0
2, 58019, Lyric_t, "me... "
2, 58019, Lyric_t, "\015"
2, 58019, Note_on_c, 3, 58, 117
2, 58362, Note_off_c, 3, 58, 0
2, 60942, End_track
3, 0, Start_track
3, 0, MIDI_port, 0
3, 0, Title_t, "Backup Vocals"
3, 60942, End_track
4, 0, Start_track
4, 0, MIDI_port, 0
4, 0, Title_t, "Bass"
4, 60942, End_track
5, 0, Start_track
5, 0, MIDI_port, 0
5, 0, Title_t, "Organ"
5, 60942, End_track
6, 0, Start_track
6, 0, MIDI_port, 0
6, 0, Title_t, "Acou Guitar"
6, 60942, End_track
7, 0, Start_track
7, 0, MIDI_port, 0
7, 0, Title_t, "Pedal Steel"
7, 60942, End_track
8, 0, Start_track
8, 0, MIDI_port, 0
8, 0, Title_t, "Mute Guitar"
8, 60942, End_track
9, 0, Start_track
9, 0, MIDI_port, 0
9, 0, Title_t, "Ovdr Guitar"
9, 60942, End_track
10, 0, Start_track
10, 0, MIDI_port, 0
10, 0, Title_t, "Ovdr Guitar"
10, 60942, End_track
11, 0, Start_track
11, 0, MIDI_port, 0
11, 0, Title_t, "Dobro Guitar"
11, 60942, End_track
12, 0, Start_track
12, 0, MIDI_port, 0
12, 0, Title_t, "Dobro Guitar"
12, 60942, End_track
13, 0, Start_track
13, 0, MIDI_port, 0
13, 0, Title_t, "Dobro Guitar"
13, 60942, End_track
14, 0, Start_track
14, 0, MIDI_port, 0
14, 0, Title_t, "Strings"
14, 60942, End_track
15, 0, Start_track
15, 0, MIDI_port, 0
15, 0, Title_t, "Drums"
15, 60942, End_track
0, 0, End_of_file